<?xml version="1.0" standalone="no"?>
<!DOCTYPE svg PUBLIC "-//W3C//DTD SVG 1.1//EN" "http://www.w3.org/Graphics/SVG/1.1/DTD/svg11.dtd" >
<svg>
<metadata>
Created by FontForge 20090622 at Tue Apr 16 06:33:06 2019
 By deploy user
&#194;&#169;2013 Optimo.
</metadata>
<defs>
<font id="Plain-Bold" horiz-adv-x="604" >
  <font-face 
    font-family="Plain"
    font-weight="700"
    font-stretch="normal"
    units-per-em="1000"
    panose-1="2 11 0 4 2 2 2 2 2 4"
    ascent="803"
    descent="-197"
    x-height="525"
    cap-height="715"
    bbox="-59 -272 1303 1077"
    underline-thickness="50"
    underline-position="-100"
    unicode-range="U+000D-U+FB02"
  />
<missing-glyph horiz-adv-x="644" 
d="M50 240l335 335q-5 7 -11 13q-7 5 -15 10l-309 -309v-49zM50 142l219 219q14 32 36 54q29 26 59 50q31 25 33 58v15l-347 -347v-49zM104 0l145 145v23h23l93 93h-49l-261 -261h49zM321 168h49l224 224v49zM50 338l270 270h-8q-37 -1 -56 -24t-19 -51l-39 2l-148 -148v-49
zM398 0l196 196v49l-210 -210v-2h-2l-33 -33h49zM384 133v-49l210 210v49zM50 44l217 217h-11v38l-206 -206v-49zM50 583v-49l54 54q16 55 54 93q38 39 93 54l44 44h-49zM537 482q-14 -51 -43 -78q-28 -27 -46 -38q-33 -22 -51 -39q-19 -16 -19 -46v-7l216 216v49zM50 681
v-49l147 147h-49zM496 0l98 98v49l-147 -147h49zM459 698q7 -5 13 -11t13 -12l104 104h-49zM50 436l102 102l-46 3l-56 -56v-49zM506 647q11 -16 18 -31l70 70v49zM202 0l47 47v49l-96 -96h49zM395 732q17 -6 34 -15l62 62h-49zM536 579l4 -21q2 -11 2 -22l52 52v49z
M307 742h7q3 0 7 1h6q7 0 14 -1q7 0 14 -1l38 38h-49zM300 0l33 33h-49l-33 -33h49zM594 49l-49 -49h49v49zM50 779v-49l49 49h-49z" />
    <glyph glyph-name=".notdef" horiz-adv-x="644" 
d="M50 240l335 335q-5 7 -11 13q-7 5 -15 10l-309 -309v-49zM50 142l219 219q14 32 36 54q29 26 59 50q31 25 33 58v15l-347 -347v-49zM104 0l145 145v23h23l93 93h-49l-261 -261h49zM321 168h49l224 224v49zM50 338l270 270h-8q-37 -1 -56 -24t-19 -51l-39 2l-148 -148v-49
zM398 0l196 196v49l-210 -210v-2h-2l-33 -33h49zM384 133v-49l210 210v49zM50 44l217 217h-11v38l-206 -206v-49zM50 583v-49l54 54q16 55 54 93q38 39 93 54l44 44h-49zM537 482q-14 -51 -43 -78q-28 -27 -46 -38q-33 -22 -51 -39q-19 -16 -19 -46v-7l216 216v49zM50 681
v-49l147 147h-49zM496 0l98 98v49l-147 -147h49zM459 698q7 -5 13 -11t13 -12l104 104h-49zM50 436l102 102l-46 3l-56 -56v-49zM506 647q11 -16 18 -31l70 70v49zM202 0l47 47v49l-96 -96h49zM395 732q17 -6 34 -15l62 62h-49zM536 579l4 -21q2 -11 2 -22l52 52v49z
M307 742h7q3 0 7 1h6q7 0 14 -1q7 0 14 -1l38 38h-49zM300 0l33 33h-49l-33 -33h49zM594 49l-49 -49h49v49zM50 779v-49l49 49h-49z" />
    <glyph glyph-name="glyph1" horiz-adv-x="0" 
 />
    <glyph glyph-name="glyph1" horiz-adv-x="0" 
 />
    <glyph glyph-name="uni000D" unicode="&#xd;" horiz-adv-x="0" 
 />
    <glyph glyph-name="space" unicode=" " horiz-adv-x="231" 
 />
    <glyph glyph-name="exclam" unicode="!" horiz-adv-x="327" 
d="M229 208q4 92 10 187q5 95 6 212v108h-163v-108q1 -117 6 -212q6 -95 10 -187h131zM244 148h-163v-148h163v148z" />
    <glyph glyph-name="quotedbl" unicode="&#x22;" horiz-adv-x="462" 
d="M190 451q1 23 7 122q5 99 6 142h-150q1 -43 7 -142q5 -99 6 -122h124zM396 451q1 23 7 122q5 99 6 142h-150q1 -43 7 -142q5 -99 6 -122h124z" />
    <glyph glyph-name="numbersign" unicode="#" 
d="M184 0l44 216h94l-44 -216h99l44 216h88l20 93h-89l22 104h87l20 93h-88l43 209h-99l-43 -209h-94l43 209h-99l-43 -209h-94l-20 -93h95l-22 -104h-93l-20 -93h94l-44 -216h99zM269 413h94l-22 -104h-94z" />
    <glyph glyph-name="dollar" unicode="$" 
d="M14 225q4 -90 59 -146t152 -74v-134h153v134q96 17 152 72q56 56 57 141q0 90 -58 138q-59 47 -180 79l-55 15q-42 11 -65 27q-22 17 -23 51q0 31 24 50t68 20q48 0 74 -22q27 -21 35 -61h164q-6 85 -56 137q-50 51 -137 67v118h-153v-119q-89 -19 -139 -72
q-51 -53 -52 -130q-1 -81 52 -130t170 -80l49 -14q57 -14 85 -31q28 -16 28 -51q-1 -37 -30 -59t-80 -22q-111 0 -126 96h-168z" />
    <glyph glyph-name="percent" unicode="%" horiz-adv-x="894" 
d="M202 323q84 1 127 54q42 52 42 147q0 93 -43 147t-127 55q-84 -1 -127 -54q-43 -54 -43 -147q0 -95 44 -148q43 -53 127 -54v0zM136 523q-1 54 13 86q14 31 52 32q38 -1 52 -32q13 -31 12 -86q1 -52 -13 -83t-51 -32q-38 1 -52 32t-13 83v0zM263 0h93l275 715h-93z
M694 -15q84 1 127 54q42 52 42 147q0 93 -43 147t-127 55q-84 -1 -127 -54q-43 -54 -43 -147q0 -95 44 -148q43 -53 127 -54v0zM628 185q-1 54 13 86q14 31 52 32q38 -1 52 -32q13 -31 12 -86q1 -52 -13 -83t-51 -32q-38 1 -52 32t-13 83v0z" />
    <glyph glyph-name="ampersand" unicode="&#x26;" horiz-adv-x="700" 
d="M689 79l-96 98q27 37 50 90t38 117l-147 9q-7 -32 -18 -62t-23 -54l-50 56l-48 52q60 32 95 78q34 46 35 103q-2 76 -57 120q-55 43 -144 44q-92 -2 -147 -50t-56 -123q1 -46 22 -83q21 -38 51 -66q-67 -32 -107 -83q-41 -50 -42 -122q1 -98 66 -156q66 -59 189 -61
q63 0 115 22q52 21 89 60q9 -11 22 -25l25 -27l30 -31zM275 311l102 -110t34 -37q-19 -25 -45 -41t-62 -16q-46 0 -75 25q-30 25 -31 70q1 36 22 63q21 26 55 46v0zM313 464q-24 22 -38 45q-14 24 -14 50q0 28 17 45t45 17q30 0 47 -17t17 -45q-1 -28 -17 -48t-41 -36z" />
    <glyph glyph-name="quotesingle" unicode="'" horiz-adv-x="256" 
d="M190 451q1 23 7 122q5 99 6 142h-150q1 -43 7 -142q5 -99 6 -122h124z" />
    <glyph glyph-name="parenleft" unicode="(" horiz-adv-x="339" 
d="M33 299q2 -163 74 -283q71 -121 193 -173v139q-64 61 -96 141t-32 178q0 195 128 319v139q-121 -54 -193 -175q-72 -122 -74 -285v0z" />
    <glyph glyph-name="parenright" unicode=")" horiz-adv-x="339" 
d="M306 299q-2 163 -74 285q-72 121 -193 175v-139q128 -124 128 -319q0 -98 -32 -178t-96 -141v-139q122 52 194 173q71 120 73 283v0z" />
    <glyph glyph-name="asterisk" unicode="*" horiz-adv-x="428" 
d="M154 715l19 -114l-102 54l-37 -115l113 -17l-82 -80l98 -71l51 103l51 -103l98 71l-82 80l113 17l-37 115l-103 -54l20 114h-120z" />
    <glyph glyph-name="plus" unicode="+" 
d="M47 269h188v-190h134v190h188v130h-188v190h-134v-190h-188v-130z" />
    <glyph glyph-name="comma" unicode="," horiz-adv-x="288" 
d="M243 166h-158l-72 -255h137z" />
    <glyph glyph-name="hyphen" unicode="-" horiz-adv-x="417" 
d="M57 230h303v135h-303v-135z" />
    <glyph glyph-name="period" unicode="." horiz-adv-x="277" 
d="M57 0h163v166h-163v-166z" />
    <glyph glyph-name="slash" unicode="/" horiz-adv-x="478" 
d="M22 -105h146l288 820h-144z" />
    <glyph glyph-name="zero" unicode="0" 
d="M302 115q-62 -1 -86 57q-24 57 -23 179q-1 127 23 189q23 62 86 62t86 -62q24 -62 23 -189q1 -122 -23 -179q-24 -58 -86 -57v0zM302 732q-164 -4 -222 -112t-54 -265q-3 -169 56 -268q58 -100 220 -102q162 2 221 102q58 99 55 268q4 157 -54 265t-222 112v0z" />
    <glyph glyph-name="one" unicode="1" 
d="M276 478v-478h160v715h-140q-17 -60 -62 -92t-117 -32h-19v-113h178z" />
    <glyph glyph-name="two" unicode="2" 
d="M565 0v130h-268h-29q-13 0 -30 -1q34 28 70 54l88 65q73 55 119 120q45 66 46 146q-1 100 -69 159q-69 58 -190 59q-123 -1 -192 -69q-68 -67 -69 -185h160q0 51 24 82t75 32q43 0 67 -23q25 -23 25 -66q1 -42 -26 -86q-27 -45 -93 -99l-127 -103l-111 -86v-129h530z" />
    <glyph glyph-name="three" unicode="3" 
d="M23 217q4 -112 76 -172t197 -61q129 1 202 61q73 59 74 159q-3 84 -47 126t-97 56v2q52 17 83 51q30 35 31 99q-1 88 -66 141q-65 52 -176 53q-115 -1 -180 -58q-66 -58 -69 -155h155q2 44 26 65q24 20 62 20q39 0 62 -20q22 -20 23 -54q0 -48 -34 -68q-34 -21 -97 -21
v-127h13q69 1 107 -23q37 -23 37 -77q0 -46 -27 -72q-27 -27 -82 -28q-51 0 -79 26q-28 27 -32 77h-162z" />
    <glyph glyph-name="four" unicode="4" 
d="M592 269h-101v446h-185l-304 -452v-124h334v-139h155v139h101v130zM148 268l11 15t11 16l19 29q11 15 19 28l54 82q21 32 38 61l37 63h2l-2 -61q-1 -31 -1 -63v-169h-100h-48q-20 0 -40 -1v0z" />
    <glyph glyph-name="five" unicode="5" 
d="M29 207q10 -100 82 -159q72 -60 191 -61q125 1 198 68t75 186q-2 111 -66 174t-167 64q-47 0 -81 -12t-58 -31h-1q6 39 10 75l10 72h302v132h-429l-44 -398l159 -26q14 25 37 41t59 17q49 -1 77 -32t28 -83q0 -55 -28 -86t-79 -32q-46 1 -72 26t-32 65h-171z" />
    <glyph glyph-name="six" unicode="6" 
d="M565 546q-14 77 -73 132t-172 58q-151 -2 -222 -109q-70 -107 -69 -299q1 -165 71 -253q71 -87 206 -88q130 2 200 71t71 179q-2 117 -67 177q-64 60 -160 60q-61 -1 -99 -18q-38 -18 -53 -34q0 85 30 136q29 51 84 52q40 -1 60 -18q19 -17 27 -45zM307 347q48 0 78 -31
q29 -30 30 -85q-1 -52 -30 -82t-77 -31q-48 1 -78 31q-29 30 -30 84q1 54 31 84q29 30 76 30v0z" />
    <glyph glyph-name="seven" unicode="7" 
d="M310 0q63 191 125 337q62 145 125 250v128h-507v-134h223q34 0 61 -1q27 0 59 2q0 -1 1 -1q-78 -132 -145 -278q-67 -147 -118 -303h176z" />
    <glyph glyph-name="eight" unicode="8" 
d="M302 -16q125 1 198 58q72 57 74 156q0 67 -37 112t-109 71v2q57 20 88 60q30 39 30 98q-1 83 -67 136t-179 55q-111 -2 -176 -55t-67 -136q0 -59 31 -98q30 -40 87 -60v-2q-146 -49 -146 -183q2 -99 75 -156t198 -58v0zM301 315q49 -1 79 -29q29 -28 30 -74
q-1 -45 -29 -72q-29 -27 -80 -28q-52 1 -81 29q-29 27 -30 71q1 46 30 74q30 28 81 29v0zM302 606q43 -1 68 -24q25 -24 25 -60t-25 -60q-25 -23 -68 -24q-43 1 -68 24q-25 24 -26 60q0 36 25 60q24 23 69 24v0z" />
    <glyph glyph-name="nine" unicode="9" 
d="M35 170q14 -77 74 -133q60 -55 173 -58q152 1 223 107q70 105 69 296q-1 169 -71 257q-71 88 -206 89q-128 -2 -199 -72q-70 -69 -71 -177q2 -117 66 -178t160 -61q60 1 98 19q38 17 53 33q0 -87 -29 -136t-84 -50q-40 1 -60 18q-19 17 -27 45zM296 370q-48 1 -78 31
q-29 31 -30 85q1 52 30 82t77 31q48 -1 78 -31q29 -30 30 -84q-1 -54 -31 -84q-29 -30 -76 -30v0z" />
    <glyph glyph-name="colon" unicode=":" horiz-adv-x="277" 
d="M57 0h163v166h-163v-166zM57 324h163v166h-163v-166z" />
    <glyph glyph-name="semicolon" unicode=";" horiz-adv-x="301" 
d="M81 324h163v166h-163v-166zM246 166h-158l-72 -255h137z" />
    <glyph glyph-name="less" unicode="&#x3c;" 
d="M505 625l-435 -232v-118l435 -230v152l-291 138v3l291 137v150z" />
    <glyph glyph-name="equal" unicode="=" 
d="M53 363h498v134h-498v-134zM53 175h498v134h-498v-134z" />
    <glyph glyph-name="greater" unicode="&#x3e;" 
d="M99 475l291 -137v-3l-291 -138v-152l435 230v118l-435 232v-150z" />
    <glyph glyph-name="question" unicode="?" horiz-adv-x="559" 
d="M188 494q-1 51 22 80q22 28 69 28q40 -1 62 -22q23 -22 23 -56q0 -30 -13 -53q-12 -23 -33 -41l-38 -35q-46 -40 -63 -79t-16 -108h142q0 45 18 72q17 27 59 59l9 7q47 38 72 82q25 43 25 99q0 86 -63 143q-62 56 -180 58q-119 -1 -184 -63t-68 -171h157zM355 148h-163
v-148h163v148z" />
    <glyph glyph-name="at" unicode="@" horiz-adv-x="815" 
d="M536 538q0 -5 -3 -22q-3 -16 -3 -26q-17 27 -45 43q-29 16 -70 16q-89 -3 -143 -68q-54 -66 -55 -159q1 -82 44 -128t116 -47q42 1 72 16q30 14 47 33q8 -17 29 -30q20 -14 52 -15q89 3 146 77q56 74 58 190q-3 138 -101 224q-97 86 -251 89q-171 -4 -279 -110
q-109 -106 -112 -269q3 -167 109 -271q107 -103 287 -106q81 0 147 24q66 23 120 63l-48 53q-47 -29 -99 -46q-52 -16 -117 -16q-139 2 -223 84q-84 81 -86 215q2 130 85 215q83 84 217 87q124 -2 196 -70t74 -178q-1 -74 -30 -124q-30 -50 -70 -52q-23 0 -23 22q0 6 2 15
q1 10 5 30l44 241h-92zM425 459q39 0 60 -23q20 -22 20 -64q0 -56 -28 -96q-28 -41 -81 -43q-39 1 -59 25q-21 25 -21 65q0 54 29 94t80 42v0z" />
    <glyph glyph-name="A" unicode="A" horiz-adv-x="720" 
d="M159 0l64 169h270l32 -85l31 -84h172l-133 356l-134 359h-197l-152 -392l-122 -323h169zM267 299l47 142q23 71 42 138h2q19 -64 41 -129l49 -151h-181z" />
    <glyph glyph-name="B" unicode="B" horiz-adv-x="652" 
d="M74 0h246q29 0 57 2q27 1 50 5q84 13 136 59q52 45 53 138q-3 85 -49 126q-47 40 -107 47q58 14 94 53q36 38 37 101q0 90 -60 135t-174 48q-23 1 -46 1h-48h-189v-715zM235 305h87q59 1 94 -18t36 -67q-1 -55 -43 -73q-42 -17 -115 -16h-59v174zM235 584h74q57 1 89 -15
q31 -15 32 -60q0 -47 -33 -65t-100 -17h-62v157z" />
    <glyph glyph-name="C" unicode="C" horiz-adv-x="763" 
d="M557 224q-24 -45 -63 -70q-39 -26 -96 -26q-91 1 -141 62t-51 166q1 109 51 172q50 62 141 63q60 0 101 -29q41 -28 64 -80l179 1q-35 116 -123 180t-220 65q-164 -2 -263 -100q-98 -99 -101 -271q2 -175 100 -272q97 -97 262 -98q132 1 220 62q87 61 123 175h-183z" />
    <glyph glyph-name="D" unicode="D" horiz-adv-x="739" 
d="M74 0h176q98 -1 173 9q76 11 135 51q67 39 106 122q38 83 39 178q-2 165 -94 256q-93 91 -254 98q-26 1 -52 1h-51h-178v-715zM238 577h66q58 0 97 -13q63 -20 96 -71t33 -134q0 -87 -33 -138t-96 -69q-42 -13 -107 -13h-56v438z" />
    <glyph glyph-name="E" unicode="E" horiz-adv-x="591" 
d="M236 292h283v138h-283v145h308v140h-470v-715h474v140h-312v152z" />
    <glyph glyph-name="F" unicode="F" horiz-adv-x="573" 
d="M238 0v292h277v138h-277v145h298v140h-462v-715h164z" />
    <glyph glyph-name="G" unicode="G" horiz-adv-x="791" 
d="M402 728q-169 -2 -267 -102t-100 -268q2 -168 93 -268q91 -101 240 -103q78 1 135 26q56 26 86 65h1v-18q-1 -10 -1 -22v-38h153v394h-382v-133h128h46t46 1q-11 -58 -54 -97q-42 -38 -123 -40q-94 1 -145 64t-52 171q1 104 51 167q51 62 142 64q61 0 101 -29
q40 -28 63 -80l179 1q-34 116 -121 180t-219 65v0z" />
    <glyph glyph-name="H" unicode="H" horiz-adv-x="736" 
d="M238 0v298h260v-298h164v715h-164v-276h-260v276h-164v-715h164z" />
    <glyph glyph-name="I" unicode="I" horiz-adv-x="312" 
d="M238 0v715h-164v-715h164z" />
    <glyph glyph-name="J" unicode="J" horiz-adv-x="538" 
d="M241 -15q128 1 179 73q52 73 50 209v448h-165v-446q1 -72 -12 -107q-13 -34 -56 -34q-34 1 -47 20q-13 18 -14 43h-160q0 -97 54 -151q55 -54 171 -55v0z" />
    <glyph glyph-name="K" unicode="K" horiz-adv-x="663" 
d="M238 0v355h2l115 -177l121 -178h202l-281 383l132 166l132 166h-197l-116 -160q-57 -77 -108 -157h-2v317h-164v-715h164z" />
    <glyph glyph-name="L" unicode="L" horiz-adv-x="559" 
d="M74 715v-715h464v141h-300v574h-164z" />
    <glyph glyph-name="M" unicode="M" horiz-adv-x="959" 
d="M74 0h158v340v124q-1 53 -3 107h2q5 -21 19 -75t37 -131l109 -365h171l110 373l32 110q15 51 24 88h2q-2 -57 -3 -114q-1 -58 -1 -123v-334h154v715h-253l-83 -292l-65 -222h-1q-14 57 -29 110l-29 104l-88 300h-263v-715z" />
    <glyph glyph-name="N" unicode="N" horiz-adv-x="767" 
d="M693 715h-151v-316v-110q1 -52 3 -97h-1l-30 69q-19 42 -46 96l-182 358h-212v-715h151v292v120q0 62 -2 107h1q12 -33 40 -90l65 -129l155 -300h209v715z" />
    <glyph glyph-name="O" unicode="O" horiz-adv-x="797" 
d="M398 728q-164 -2 -262 -100q-99 -99 -101 -271q2 -175 100 -272q97 -97 262 -98q167 1 265 98t100 272q-2 172 -101 271q-98 98 -263 100v0zM398 128q-91 1 -141 62t-51 166q1 109 51 172q50 62 141 63q90 -1 140 -63q50 -63 51 -172q-1 -105 -51 -166t-140 -62v0z" />
    <glyph glyph-name="P" unicode="P" horiz-adv-x="637" 
d="M74 0h164v255h60q77 -1 134 9q56 10 98 41q40 30 60 77q21 47 21 104q-1 105 -65 164q-64 60 -182 64q-18 1 -36 1h-40h-214v-715zM238 576h80q66 0 97 -22q31 -23 31 -71q0 -49 -32 -71q-33 -23 -93 -23h-83v187z" />
    <glyph glyph-name="Q" unicode="Q" horiz-adv-x="797" 
d="M397 728q-164 -2 -262 -100q-98 -99 -100 -271q2 -175 100 -272q97 -97 262 -98q77 0 143 23l59 -60h195l-131 137q48 48 74 116q25 67 25 154q-2 172 -101 271q-99 98 -264 100v0zM304 252l119 -123q-12 -1 -25 -1q-91 1 -141 62t-51 166q1 109 51 172q50 62 141 63
q90 -1 140 -63q50 -63 51 -172q0 -91 -39 -150l-47 49z" />
    <glyph glyph-name="R" unicode="R" horiz-adv-x="648" 
d="M237 258h61l151 -258h184l-179 286q64 20 110 73t48 145q0 52 -21 95q-21 42 -60 72q-38 26 -84 35q-47 10 -109 9h-264v-715h163v258zM237 576h81q65 1 100 -21q34 -22 34 -72q0 -48 -33 -71q-32 -23 -90 -23h-92v187z" />
    <glyph glyph-name="S" unicode="S" horiz-adv-x="631" 
d="M27 217q6 -109 81 -169t206 -61q131 1 208 60q76 59 78 163q0 93 -58 141q-59 49 -180 80l-55 16q-42 11 -65 28q-23 16 -24 51q0 33 24 52q24 20 69 20q48 0 75 -22q26 -22 34 -63h164q-7 105 -78 160q-70 55 -189 55q-124 -1 -196 -59t-74 -155q-1 -83 52 -133
q52 -50 169 -82l49 -14q58 -14 86 -31t28 -52q-1 -39 -30 -61t-80 -22q-111 0 -126 98h-168z" />
    <glyph glyph-name="T" unicode="T" horiz-adv-x="586" 
d="M375 0v574h189v141h-542v-141h189v-574h164z" />
    <glyph glyph-name="U" unicode="U" horiz-adv-x="708" 
d="M354 128q-60 0 -91 41q-32 41 -32 125v421h-164v-426q0 -68 14 -117q14 -50 42 -86q74 -98 231 -98q79 0 137 25t94 73q28 36 42 86q14 49 14 117v426h-164v-421q0 -84 -31 -125q-32 -41 -92 -41v0z" />
    <glyph glyph-name="V" unicode="V" horiz-adv-x="679" 
d="M440 0l95 282l79 236l65 197h-171l-114 -380q-17 -53 -27 -92l-23 -92h-3q-13 55 -23 92q-9 36 -24 89l-113 383h-181l114 -344l125 -371h201z" />
    <glyph glyph-name="W" unicode="W" horiz-adv-x="966" 
d="M798 715l-72 -413q-9 -48 -14 -81t-11 -82h-4q-5 45 -16 111t-26 147l-59 318h-211l-65 -334l-25 -132t-17 -108h-4q-8 53 -11 83q-4 30 -12 78l-14 79q-15 85 -27 167q-13 83 -28 167h-166l145 -715h219l78 411q9 49 14 80l13 84h3q8 -54 12 -89q5 -34 14 -80l75 -406
h215l73 358l73 357h-152z" />
    <glyph glyph-name="X" unicode="X" horiz-adv-x="667" 
d="M477 715l-72 -117l-69 -110l-71 114q-39 63 -66 113h-191l113 -175l115 -175l-121 -182l-123 -183h184l77 122q35 58 77 121l79 -127l71 -116h195l-123 185l-122 185l114 171l115 174h-182z" />
    <glyph glyph-name="Y" unicode="Y" horiz-adv-x="622" 
d="M629 715h-176l-81 -172t-54 -123h-2l-67 146l-70 149h-183l72 -137l76 -147l85 -163v-268h164v268z" />
    <glyph glyph-name="Z" unicode="Z" horiz-adv-x="597" 
d="M35 0h529v141h-210h-65q-31 0 -65 -1l50 66l55 75l144 199l47 64l28 39v132h-500v-141h186h63t61 1l-101 -140l-222 -304v-131z" />
    <glyph glyph-name="bracketleft" unicode="[" horiz-adv-x="361" 
d="M329 -15h-113v633h113v97h-246v-828h246v98z" />
    <glyph glyph-name="backslash" unicode="\" horiz-adv-x="478" 
d="M166 715h-144l288 -820h146z" />
    <glyph glyph-name="bracketright" unicode="]" horiz-adv-x="361" 
d="M32 -113h246v828h-246v-97h113v-633h-113v-98z" />
    <glyph glyph-name="asciicircum" unicode="^" 
d="M250 684l-101 -198l-104 -198h147q30 64 64 129q33 65 45 91h3l45 -91l62 -129h148l-104 198l-101 198h-104z" />
    <glyph glyph-name="underscore" unicode="_" horiz-adv-x="588" 
d="M56 -166h476v109h-476v-109z" />
    <glyph glyph-name="grave" unicode="`" horiz-adv-x="257" 
d="M349 596l-104 119h-205l141 -119h168z" />
    <glyph glyph-name="a" unicode="a" horiz-adv-x="575" 
d="M530 0q-8 32 -10 73q-1 40 -1 72v160q0 133 -58 186q-59 52 -173 50q-109 -1 -170 -49t-67 -131h150q4 36 25 55q21 20 62 20q45 0 65 -26q19 -27 19 -81q-8 0 -21 -1l-25 -2q-116 -8 -205 -46q-89 -39 -94 -134q1 -75 53 -115q52 -41 137 -41q70 1 108 22t61 47
q-1 -29 3 -59h141zM371 215q0 -60 -26 -92q-26 -33 -80 -33q-36 0 -57 16t-22 45q-1 35 36 53q37 17 123 26l27 3q-1 -5 -1 -9v-9v0z" />
    <glyph glyph-name="b" unicode="b" horiz-adv-x="641" 
d="M209 0v37q0 19 -1 33q17 -29 57 -55t106 -28q109 2 172 77q64 76 65 203q-2 130 -64 201t-166 72q-63 -2 -103 -24q-39 -22 -58 -46q0 21 1 54v53v138h-156v-715h147zM325 421q57 -1 87 -44q31 -43 31 -112t-31 -112q-30 -44 -87 -45q-57 1 -87 44t-30 116q1 71 32 111
q31 41 85 42v0z" />
    <glyph glyph-name="c" unicode="c" horiz-adv-x="594" 
d="M416 187q-11 -42 -38 -60q-28 -19 -63 -19q-58 0 -90 39q-33 39 -33 116q1 73 32 114q32 41 87 42q39 0 64 -21t36 -59h157q-19 99 -86 151t-173 52q-126 -2 -201 -78q-75 -77 -77 -202q1 -124 75 -200t202 -78q109 1 176 56q66 55 85 147h-153z" />
    <glyph glyph-name="d" unicode="d" horiz-adv-x="641" 
d="M579 0v715h-156v-138q0 -21 1 -53v-54q-18 24 -56 46q-37 22 -102 24q-104 -1 -167 -75q-64 -73 -66 -203q1 -127 65 -200q63 -74 170 -75q67 2 108 28q40 26 57 55q-1 -14 -1 -33v-37h147zM316 421q54 -1 85 -42q31 -40 32 -111q0 -73 -30 -116t-87 -44q-57 1 -87 45
q-31 43 -31 112t31 112q30 43 87 44v0z" />
    <glyph glyph-name="e" unicode="e" 
d="M411 156q-28 -55 -100 -55q-52 0 -85 33q-33 32 -39 92h390v9q0 4 1 9v8q0 131 -69 210q-68 79 -200 81q-125 -2 -200 -78t-77 -201q1 -130 74 -204q73 -75 200 -76q106 1 173 47q67 47 91 125h-159zM191 323q7 52 38 80q31 29 79 29q49 0 78 -29q29 -28 35 -80h-230z
" />
    <glyph glyph-name="f" unicode="f" horiz-adv-x="352" 
d="M93 525h-70v-113h70v-412h156v412h89v113h-89v16q0 67 64 67q15 0 25 -2v115q-8 2 -21 4q-14 1 -31 1q-91 0 -142 -45q-50 -45 -51 -131v-25z" />
    <glyph glyph-name="g" unicode="g" horiz-adv-x="643" 
d="M46 -19q16 -81 80 -129q64 -47 178 -48q135 0 206 70q70 71 71 208v443h-151v-31q0 -19 2 -35q-19 33 -59 57q-41 23 -105 24q-103 -2 -168 -72q-64 -71 -66 -188q1 -118 64 -187q62 -69 168 -71q61 1 103 24q43 22 63 56h2q3 -91 -25 -138q-29 -47 -99 -47q-38 0 -62 16
t-38 48h-164zM317 421q55 -1 86 -38q30 -38 31 -99q-1 -69 -33 -106t-84 -37q-57 1 -87 39q-31 38 -31 99q1 64 32 103q31 38 86 39v0z" />
    <glyph glyph-name="h" unicode="h" horiz-adv-x="616" 
d="M218 0v269q0 72 24 110q24 37 75 37q50 0 69 -42q18 -41 17 -120v-254h156v269q1 66 -5 109q-5 43 -25 76q-23 40 -63 62t-94 22q-60 -1 -98 -22t-57 -51q1 34 1 71v67v112h-156v-715h156z" />
    <glyph glyph-name="i" unicode="i" horiz-adv-x="280" 
d="M62 587h156v128h-156v-128zM218 0v525h-156v-525h156z" />
    <glyph glyph-name="j" unicode="j" horiz-adv-x="280" 
d="M218 525h-156v-521q1 -43 -17 -63q-19 -20 -63 -20h-7q-4 0 -10 1v-108q16 -3 34 -4q19 -2 36 -2q103 -1 144 44t39 149v524zM62 587h156v128h-156v-128z" />
    <glyph glyph-name="k" unicode="k" horiz-adv-x="582" 
d="M218 0v258h1q12 -28 68 -105q55 -78 103 -153h198l-122 155q-63 81 -96 129l78 98l118 143h-188l-77 -114l-82 -119h-1v423h-156v-715h156z" />
    <glyph glyph-name="l" unicode="l" horiz-adv-x="286" 
d="M221 0v715h-156v-715h156z" />
    <glyph glyph-name="m" unicode="m" horiz-adv-x="935" 
d="M548 0v269q0 72 22 110q22 37 72 37q47 0 64 -39t16 -123v-254h156v311q-2 126 -55 178q-53 51 -129 49q-70 -2 -112 -29t-60 -59h-2q-21 42 -59 65q-37 23 -93 23q-65 -1 -103 -26q-39 -25 -55 -59v72h-149q1 -20 1 -40v-40v-445h156v269q0 72 22 110q22 37 72 37
q47 0 64 -39t16 -123v-254h156z" />
    <glyph glyph-name="n" unicode="n" horiz-adv-x="616" 
d="M218 0v269q0 72 24 110q24 37 75 37q50 0 69 -42q18 -41 17 -120v-254h156v269q1 66 -5 109q-5 43 -25 76q-23 40 -63 62t-94 22q-65 -1 -105 -26q-41 -25 -57 -59v72h-149q1 -20 1 -40v-40v-445h156z" />
    <glyph glyph-name="o" unicode="o" horiz-adv-x="628" 
d="M313 543q-128 -2 -204 -78t-78 -202q1 -126 77 -201q75 -76 206 -78q131 2 206 78q75 75 77 200q-2 127 -78 203q-77 76 -206 78v0zM312 420q60 -1 91 -43q30 -43 30 -115q0 -73 -30 -113q-30 -41 -90 -42q-60 1 -90 42q-31 41 -31 114q0 72 31 114t89 43v0z" />
    <glyph glyph-name="p" unicode="p" horiz-adv-x="641" 
d="M62 525v-705h156v122v61q0 28 -1 51q20 -27 57 -47q37 -19 97 -20q109 2 172 77q64 76 65 203q-2 130 -64 201t-166 72q-64 -2 -104 -24q-41 -22 -60 -46q0 11 1 25v30h-153zM325 421q57 -1 87 -44q31 -43 31 -112t-31 -112q-30 -44 -87 -45q-57 1 -87 44t-30 116
q1 71 32 111q31 41 85 42v0z" />
    <glyph glyph-name="q" unicode="q" horiz-adv-x="641" 
d="M425 525v-54q-18 24 -56 46t-103 23q-104 -1 -167 -75q-64 -74 -66 -204q1 -127 65 -200q63 -73 172 -74q61 1 99 21q38 21 56 48q-1 -31 -1 -53q-1 -22 -1 -45v-138h156v705h-154zM316 421q54 -1 85 -42q31 -40 32 -111q0 -73 -30 -116t-87 -44q-57 1 -87 45
q-31 43 -31 112t31 112q30 43 87 44v0z" />
    <glyph glyph-name="r" unicode="r" horiz-adv-x="400" 
d="M62 0h156v165q-3 119 19 176q23 57 106 57q11 0 21 -1t20 -3v142q-5 1 -13 1q-8 1 -19 1q-51 0 -88 -23q-38 -23 -58 -73h-2q0 13 1 29t1 54h-145q1 -25 1 -48v-47v-430z" />
    <glyph glyph-name="s" unicode="s" horiz-adv-x="560" 
d="M24 172q12 -96 76 -142t186 -46q118 1 182 46q63 44 64 124q1 67 -43 104q-45 36 -146 61l-35 9q-57 13 -82 25t-25 36q0 21 19 33t54 12q38 0 61 -16t32 -45h152q-10 86 -74 128t-166 42q-114 -1 -175 -45q-60 -44 -61 -119q0 -67 43 -102q44 -36 130 -58l67 -18
q43 -10 65 -22q23 -11 23 -35q-1 -23 -23 -36q-23 -13 -60 -13q-88 0 -103 77h-161z" />
    <glyph glyph-name="t" unicode="t" horiz-adv-x="375" 
d="M94 412v-238q-1 -108 44 -148q44 -40 139 -38q20 0 36 2q15 2 26 4v115q-13 -3 -27 -3q-44 -1 -54 28t-8 99v179h95v113h-95v140h-156v-140h-79v-113h79z" />
    <glyph glyph-name="u" unicode="u" horiz-adv-x="612" 
d="M394 525v-269q0 -72 -23 -109q-23 -38 -74 -38q-50 0 -67 42q-18 41 -17 120v254h-156v-269q-1 -66 5 -109q5 -43 25 -76q23 -40 63 -62t94 -22q65 1 103 26q39 25 55 59v-72h149q-1 20 -1 40v40v445h-156z" />
    <glyph glyph-name="v" unicode="v" horiz-adv-x="552" 
d="M363 0l92 262l92 263h-162l-59 -198q-28 -94 -46 -172h-3q-25 96 -52 185l-54 185h-165l91 -263l91 -262h175z" />
    <glyph glyph-name="w" unicode="w" horiz-adv-x="856" 
d="M348 0l39 161l21 91q9 39 18 85h3q6 -39 17 -84q10 -45 22 -93l39 -160h189l74 262l74 263h-158l-42 -186q-12 -54 -22 -106l-20 -97h-2l-21 104l-22 100l-44 185h-169l-41 -182q-15 -61 -23 -105l-20 -100h-3q-11 58 -18 99q-7 42 -20 95l-46 193h-160l73 -263l74 -262
h188z" />
    <glyph glyph-name="x" unicode="x" horiz-adv-x="546" 
d="M2 0h170l51 89q29 50 50 91l38 -71l61 -109h174l-91 136l-90 137l80 125l80 127h-165q-24 -42 -45 -84l-40 -76l-45 83l-40 77h-173l163 -253z" />
    <glyph glyph-name="y" unicode="y" horiz-adv-x="550" 
d="M296 -180l122 353l124 352h-161l-54 -187q-29 -100 -45 -167h-5l-48 158l-61 196h-166l96 -259l99 -259l-14 -44l-21 -63l-26 -80h160z" />
    <glyph glyph-name="z" unicode="z" horiz-adv-x="527" 
d="M35 0h460v117h-142q-38 0 -69 -1q-31 0 -64 -1v1l77 88l183 207v114h-436v-116h128h63q29 0 60 2l1 -1l-105 -119l-156 -177v-114z" />
    <glyph glyph-name="braceleft" unicode="{" horiz-adv-x="337" 
d="M31 266q34 -9 50 -30q15 -22 15 -79v-149q-2 -70 28 -99q30 -28 112 -27h36q11 0 24 1v92q-35 1 -49 16t-13 62v95q1 77 -14 107q-16 30 -59 45v2q43 15 59 45q15 30 14 107v91q-1 47 13 64q14 16 49 17v92h-24q-10 0 -20 1h-16q-82 1 -112 -27q-30 -29 -28 -99v-149
q0 -57 -15 -79q-16 -21 -50 -30v-69z" />
    <glyph glyph-name="bar" unicode="|" horiz-adv-x="305" 
d="M84 -62h137v793h-137v-793z" />
    <glyph glyph-name="braceright" unicode="}" horiz-adv-x="337" 
d="M306 335q-34 9 -50 30q-15 22 -15 79v149q2 70 -28 99q-30 28 -112 27h-16q-10 -1 -20 -1h-24v-92q35 -1 49 -17q14 -17 13 -64v-91q-1 -77 14 -107q16 -30 59 -45v-2q-43 -15 -59 -45q-15 -30 -14 -107v-95q1 -47 -13 -62t-49 -16v-92q14 -1 24 -1h36q82 -1 112 27
q30 29 28 99v149q0 57 15 79q16 21 50 30v69z" />
    <glyph glyph-name="asciitilde" unicode="~" 
d="M477 430q-20 -36 -36 -51q-17 -15 -37 -15q-17 0 -34 8q-17 7 -38 17l-17 8q-32 15 -59 25q-27 9 -56 9q-52 -1 -92 -37q-40 -37 -70 -92l89 -69q20 36 37 51q16 15 36 15q17 0 34 -8q17 -7 38 -17l17 -8q32 -15 59 -24q27 -10 56 -10q52 1 92 38q40 36 70 91z" />
    <glyph glyph-name="uni00A0" unicode="&#xa0;" horiz-adv-x="231" 
 />
    <glyph glyph-name="exclamdown" unicode="&#xa1;" horiz-adv-x="310" 
d="M91 315q-4 -92 -10 -189q-5 -96 -6 -213v-109h164v109q-1 117 -6 213q-6 97 -10 189h-132zM238 525h-164v-149h164v149z" />
    <glyph glyph-name="cent" unicode="&#xa2;" 
d="M421 187q-6 -23 -18 -39q-11 -16 -27 -26v280q13 -10 23 -25t17 -37h157q-15 81 -65 132q-50 50 -129 65v85h-133v-86q-97 -23 -153 -95q-56 -73 -57 -179q0 -53 14 -98q14 -44 42 -81q28 -36 67 -59q38 -23 87 -33v-73h133v73q81 16 130 67q50 51 65 129h-153zM197 263
q0 46 14 80q13 34 38 54v-269q-52 38 -52 135v0z" />
    <glyph glyph-name="sterling" unicode="&#xa3;" 
d="M549 117h-145h-51q-33 -1 -54 -1q17 24 24 49q7 26 7 50q0 25 -6 50t-14 48h122v117h-165q-7 20 -11 42q-5 21 -5 42q-1 39 19 67t67 29q42 -1 63 -25q20 -24 25 -63h143q-3 97 -60 151q-58 53 -167 54q-118 -2 -178 -61t-60 -148q0 -23 4 -46q3 -23 9 -45h-77v-114h124
q10 -23 15 -46q6 -22 6 -44q1 -43 -27 -75q-27 -31 -92 -39v-109h484v117z" />
    <glyph glyph-name="currency" unicode="&#xa4;" 
d="M474 79l110 109l-52 52q29 58 29 121q0 62 -30 120l53 53l-110 109l-54 -54q-56 28 -117 28q-62 0 -119 -29l-56 56l-109 -110l55 -56q-29 -56 -28 -117q0 -61 28 -118l-55 -55l109 -110l55 54q57 -30 119 -30q61 0 119 29zM213 269q-38 40 -38 91t38 91q40 38 91 38
q52 0 91 -38q37 -39 37 -91q0 -51 -38 -91q-40 -38 -90 -38q-51 0 -91 38v0z" />
    <glyph glyph-name="yen" unicode="&#xa5;" 
d="M618 715h-176l-81 -172t-54 -123h-2l-137 295h-183l60 -115l65 -124h-61v-113h119l23 -43q9 -19 16 -31h-158v-113h169v-176h164v176h171v113h-160l39 74h121v113h-62z" />
    <glyph glyph-name="brokenbar" unicode="&#xa6;" horiz-adv-x="307" 
d="M85 428h137v303h-137v-303zM85 -62h137v303h-137v-303z" />
    <glyph glyph-name="section" unicode="&#xa7;" 
d="M46 78q9 -82 74 -131q64 -50 179 -51q114 1 180 47q67 45 68 121q0 41 -18 66t-48 47q44 21 66 52t22 79q0 66 -52 107q-51 40 -154 80l-38 15q-50 19 -74 33q-24 13 -24 35q0 20 19 32q19 11 54 11q34 0 57 -13q23 -14 30 -43h150q-7 81 -68 123q-62 41 -163 41
q-112 -1 -172 -41q-60 -41 -61 -111q2 -48 22 -72t40 -36v-1q-1 0 -1 -1q-48 -18 -74 -48q-26 -31 -26 -78q1 -66 45 -107q43 -41 119 -70l56 -22q61 -22 96 -39q34 -17 35 -48q-1 -24 -23 -36q-23 -13 -60 -13q-43 0 -67 20q-25 19 -30 52h-159zM282 276q-53 21 -78 38
q-24 17 -24 44q1 20 13 33q13 12 31 17l79 -31q62 -23 91 -41t29 -47q0 -19 -13 -34q-13 -16 -32 -20z" />
    <glyph glyph-name="dieresis" unicode="&#xa8;" horiz-adv-x="491" 
d="M125 596h124v119h-124v-119zM321 596h123v119h-123v-119z" />
    <glyph glyph-name="copyright" unicode="&#xa9;" horiz-adv-x="827" 
d="M507 277q-28 -54 -95 -54q-54 1 -83 37t-29 97q0 64 29 101q29 36 83 37q71 0 99 -62h111q-21 70 -75 109t-133 40q-100 -1 -160 -61q-59 -60 -61 -164q1 -106 61 -164q59 -59 159 -60q79 0 133 38q53 37 75 106h-114zM790 360q-4 160 -110 266t-266 110
q-163 -4 -268 -110t-109 -266q4 -161 110 -267q105 -106 265 -110q162 4 268 110t110 267v0zM721 360q-3 -133 -90 -221t-218 -91q-131 3 -217 92q-86 88 -89 220q3 132 89 219q86 88 218 91q130 -3 217 -91q87 -87 90 -219v0z" />
    <glyph glyph-name="ordfeminine" unicode="&#xaa;" horiz-adv-x="469" 
d="M414 179q-2 23 -3 44t-1 44v139q0 98 -45 139q-45 40 -132 39q-84 -1 -128 -37q-44 -37 -49 -98h115q3 25 19 40q15 15 43 15q32 0 47 -20q14 -20 16 -59l-34 -3q-88 -7 -154 -35q-67 -28 -70 -98q1 -57 40 -87q39 -31 104 -31q51 1 78 15t44 33q0 -8 1 -18q0 -9 1 -22
h108zM295 353v-8q-1 -54 -22 -75q-21 -22 -55 -21q-27 0 -42 12q-16 12 -16 32q0 23 31 37q30 13 88 21z" />
    <glyph glyph-name="guillemotleft" unicode="&#xab;" horiz-adv-x="541" 
d="M283 473h-144l-102 -187l102 -188h144l-96 188zM496 473h-142l-102 -187l102 -188h142l-91 188z" />
    <glyph glyph-name="logicalnot" unicode="&#xac;" 
d="M41 333h360v-196h145v330h-505v-134z" />
    <glyph glyph-name="uni00AD" unicode="&#xad;" horiz-adv-x="417" 
d="M57 230h303v135h-303v-135z" />
    <glyph glyph-name="registered" unicode="&#xae;" horiz-adv-x="536" 
d="M239 464h16l55 -96h81l-65 107q24 9 40 28q15 20 16 55q0 26 -11 43t-30 27q-22 11 -54 11h-119v-271h71v96zM239 581h27q22 0 33 -6q12 -7 12 -24q0 -30 -41 -30h-31v60zM502 501q-3 99 -68 165q-66 66 -165 69q-101 -3 -166 -69q-66 -66 -68 -165q3 -100 69 -166
q65 -66 164 -68q100 2 166 68t68 166v0zM452 501q-2 -80 -54 -132q-52 -53 -130 -55q-78 2 -130 55q-51 52 -53 132q2 79 53 132q52 52 131 54q78 -2 129 -54q52 -53 54 -132v0z" />
    <glyph glyph-name="macron" unicode="&#xaf;" horiz-adv-x="428" 
d="M80 606h273v93h-273v-93z" />
    <glyph glyph-name="degree" unicode="&#xb0;" horiz-adv-x="403" 
d="M202 400q72 2 118 47q46 46 48 117q-2 71 -48 117t-118 48q-71 -2 -118 -48t-49 -117q2 -71 49 -117q47 -45 118 -47v0zM131 564q1 31 21 51q19 19 50 20q30 -1 50 -20q19 -20 20 -51q-1 -31 -20 -50t-50 -20q-31 1 -50 20q-20 19 -21 50v0z" />
    <glyph glyph-name="plusminus" unicode="&#xb1;" 
d="M51 0h498v134h-498v-134zM47 329h188v-140h134v140h188v130h-188v140h-134v-140h-188v-130z" />
    <glyph glyph-name="uni00B2" unicode="&#xb2;" horiz-adv-x="445" 
d="M390 271v88h-191l44 31l22 16l24 18q45 33 72 73q27 39 28 92q0 64 -43 100q-42 36 -121 37q-79 -1 -124 -44t-47 -119h112q0 31 13 50q14 18 43 19q24 0 37 -13q14 -13 14 -37q1 -24 -15 -51q-15 -27 -56 -59l-80 -63l-69 -54v-84h337z" />
    <glyph glyph-name="uni00B3" unicode="&#xb3;" horiz-adv-x="415" 
d="M38 418q3 -72 46 -110t121 -38q81 1 126 38q44 36 45 98q-1 49 -25 73q-23 25 -54 36q28 12 44 34q17 21 17 57q-1 55 -41 87t-110 33q-70 -1 -111 -37t-44 -99h104q0 27 14 39q13 12 34 12t33 -11q13 -10 13 -29q0 -27 -20 -38q-21 -11 -59 -11v-84h13q39 0 61 -13
q21 -13 21 -43q0 -26 -15 -41t-46 -15q-57 0 -62 62h-105z" />
    <glyph glyph-name="acute" unicode="&#xb4;" horiz-adv-x="427" 
d="M252 596l141 119h-205l-104 -119h168z" />
    <glyph glyph-name="mu" unicode="&#xb5;" horiz-adv-x="617" 
d="M218 -180v175q24 -5 48 -5q46 0 83 20q36 19 58 62v-72h149q-1 20 -1 40v40v445h-156v-269q0 -72 -23 -109q-23 -38 -74 -38q-50 0 -67 42q-18 41 -17 120v254h-156v-705h156z" />
    <glyph glyph-name="paragraph" unicode="&#xb6;" horiz-adv-x="667" 
d="M377 608h74v-721h107v721h43v107h-297q-57 1 -103 -8q-47 -9 -86 -36q-43 -30 -66 -73q-23 -44 -23 -101q3 -102 74 -161t170 -60v-389h107v721z" />
    <glyph glyph-name="periodcentered" unicode="&#xb7;" horiz-adv-x="277" 
d="M57 236h163v166h-163v-166z" />
    <glyph glyph-name="cedilla" unicode="&#xb8;" horiz-adv-x="369" 
d="M84 -163h163l76 114h-146z" />
    <glyph glyph-name="uni00B9" unicode="&#xb9;" horiz-adv-x="296" 
d="M134 569v-293h99v439h-88q-10 -36 -37 -56q-28 -21 -72 -21h-10v-69h108z" />
    <glyph glyph-name="ordmasculine" unicode="&#xba;" horiz-adv-x="495" 
d="M246 588q-97 -1 -153 -58q-57 -57 -58 -152q1 -95 57 -151q56 -57 155 -58q98 1 155 58q57 56 58 150q-1 95 -59 152q-58 58 -155 59v0zM245 495q45 -1 68 -32q22 -32 22 -86t-22 -84q-23 -31 -67 -31q-44 1 -67 31q-22 31 -22 85t23 85t65 32v0z" />
    <glyph glyph-name="guillemotright" unicode="&#xbb;" horiz-adv-x="541" 
d="M354 286l-96 -188h144l102 188l-102 187h-144zM136 286l-91 -188h142l102 188l-102 187h-142z" />
    <glyph glyph-name="onequarter" unicode="&#xbc;" horiz-adv-x="819" 
d="M630 83v-83h99v83h58v81h-58v276h-118l-25 -37l-44 -64l-126 -180v-76h214zM627 164h-107l31 46q16 22 34 51l44 68q-1 -15 -1 -32q-1 -18 -1 -36v-97zM189 0h93l275 715h-93zM138 569v-293h99v439h-88q-10 -36 -37 -56q-28 -21 -72 -21h-10v-69h108z" />
    <glyph glyph-name="onehalf" unicode="&#xbd;" horiz-adv-x="844" 
d="M803 0v88h-191l44 31l22 16l24 18q45 33 72 73q27 39 28 92q0 64 -43 100q-42 36 -121 37q-79 -1 -124 -44t-47 -119h112q0 31 13 50q14 18 43 19q24 0 37 -13q14 -13 14 -37q1 -24 -15 -51q-15 -27 -56 -59l-80 -63l-69 -54v-84h337zM189 0h93l275 715h-93zM138 569
v-293h99v439h-88q-10 -36 -37 -56q-28 -21 -72 -21h-10v-69h108z" />
    <glyph glyph-name="threequarters" unicode="&#xbe;" horiz-adv-x="917" 
d="M34 418q3 -72 46 -110t121 -38q81 1 126 38q44 36 45 98q-1 49 -25 73q-23 25 -54 36q28 12 44 34q17 21 17 57q-1 55 -41 87t-110 33q-70 -1 -111 -37t-44 -99h104q0 27 14 39q13 12 34 12t33 -11q13 -10 13 -29q0 -27 -20 -38q-21 -11 -59 -11v-84h13q39 0 61 -13
q21 -13 21 -43q0 -26 -15 -41t-46 -15q-57 0 -62 62h-105zM729 83v-83h99v83h58v81h-58v276h-118l-25 -37l-44 -64l-126 -180v-76h214zM726 164h-107l31 46q16 22 34 51l44 68q-1 -15 -1 -32q-1 -18 -1 -36v-97zM288 0h93l275 715h-93z" />
    <glyph glyph-name="questiondown" unicode="&#xbf;" horiz-adv-x="552" 
d="M367 31q1 -51 -21 -79q-23 -29 -70 -29q-40 1 -62 23q-23 21 -23 55q0 30 13 53q12 23 33 41l38 35q46 40 63 79t16 108h-142q0 -45 -17 -72q-18 -27 -60 -59l-9 -7q-47 -38 -72 -81q-25 -44 -25 -100q0 -86 63 -142q62 -57 180 -59q119 1 184 63t68 171h-157zM200 377
h163v148h-163v-148z" />
    <glyph glyph-name="Agrave" unicode="&#xc0;" horiz-adv-x="720" 
d="M159 0l64 169h270l32 -85l31 -84h172l-133 356l-134 359h-197l-152 -392l-122 -323h169zM267 299l47 142q23 71 42 138h2q19 -64 41 -129l49 -151h-181zM465 761l-104 115h-197l139 -115h162z" />
    <glyph glyph-name="Aacute" unicode="&#xc1;" horiz-adv-x="720" 
d="M159 0l64 169h270l32 -85l31 -84h172l-133 356l-134 359h-197l-152 -392l-122 -323h169zM267 299l47 142q23 71 42 138h2q19 -64 41 -129l49 -151h-181zM426 761l139 115h-197l-104 -115h162z" />
    <glyph glyph-name="Acircumflex" unicode="&#xc2;" horiz-adv-x="720" 
d="M159 0l64 169h270l32 -85l31 -84h172l-133 356l-134 359h-197l-152 -392l-122 -323h169zM267 299l47 142q23 71 42 138h2q19 -64 41 -129l49 -151h-181zM276 876l-103 -115h137l48 51l47 -51h137l-106 115h-160z" />
    <glyph glyph-name="Atilde" unicode="&#xc3;" horiz-adv-x="720" 
d="M159 0l64 169h270l32 -85l31 -84h172l-133 356l-134 359h-197l-152 -392l-122 -323h169zM267 299l47 142q23 71 42 138h2q19 -64 41 -129l49 -151h-181zM356 777q17 -8 35 -14t38 -6q48 1 74 37q25 36 25 89h-81q-3 -18 -8 -26q-6 -8 -20 -8q-8 0 -18 4q-10 3 -30 13
q-17 8 -33 14q-15 6 -36 6q-52 -2 -78 -37q-27 -35 -27 -85h84q3 31 28 31q9 0 19 -4l28 -14v0z" />
    <glyph glyph-name="Adieresis" unicode="&#xc4;" horiz-adv-x="720" 
d="M159 0l64 169h270l32 -85l31 -84h172l-133 356l-134 359h-197l-152 -392l-122 -323h169zM267 299l47 142q23 71 42 138h2q19 -64 41 -129l49 -151h-181zM203 754h124v119h-124v-119zM399 754h123v119h-123v-119z" />
    <glyph glyph-name="Aring" unicode="&#xc5;" horiz-adv-x="720" 
d="M159 0l64 169h270l32 -85l31 -84h172l-133 356l-134 359h-197l-152 -392l-122 -323h169zM267 299l47 142q23 71 42 138h2q19 -64 41 -129l49 -151h-181zM356 738q47 1 77 32q31 31 32 77q-1 45 -31 76q-31 30 -77 31q-45 -1 -76 -31q-31 -31 -32 -76q1 -46 31 -77t76 -32
v0zM317 847q0 16 11 27q10 12 28 12t29 -12q11 -11 11 -27q0 -18 -11 -29q-11 -12 -29 -12t-28 12q-11 11 -11 29v0z" />
    <glyph glyph-name="AE" unicode="&#xc6;" horiz-adv-x="994" 
d="M651 292h271v138h-274l-3 145h302v140h-554l-413 -715h172l95 169h232l4 -169h468v140h-297zM318 299l78 142l71 138h2q2 -64 3 -129t3 -151h-157z" />
    <glyph glyph-name="Ccedilla" unicode="&#xc7;" horiz-adv-x="763" 
d="M557 224q-24 -45 -63 -70q-39 -26 -96 -26q-91 1 -141 62t-51 166q1 109 51 172q50 62 141 63q60 0 101 -29q41 -28 64 -80l179 1q-35 116 -123 180t-220 65q-164 -2 -263 -100q-98 -99 -101 -271q2 -175 100 -272q97 -97 262 -98q132 1 220 62q87 61 123 175h-183z
M243 -163h163l76 114h-146z" />
    <glyph glyph-name="Egrave" unicode="&#xc8;" horiz-adv-x="591" 
d="M236 292h283v138h-283v145h308v140h-470v-715h474v140h-312v152zM416 761l-104 115h-197l139 -115h162z" />
    <glyph glyph-name="Eacute" unicode="&#xc9;" horiz-adv-x="591" 
d="M236 292h283v138h-283v145h308v140h-470v-715h474v140h-312v152zM353 761l139 115h-197l-104 -115h162z" />
    <glyph glyph-name="Ecircumflex" unicode="&#xca;" horiz-adv-x="591" 
d="M236 292h283v138h-283v145h308v140h-470v-715h474v140h-312v152zM231 876l-103 -115h137l48 51l47 -51h137l-106 115h-160z" />
    <glyph glyph-name="Edieresis" unicode="&#xcb;" horiz-adv-x="591" 
d="M236 292h283v138h-283v145h308v140h-470v-715h474v140h-312v152zM153 754h124v119h-124v-119zM349 754h123v119h-123v-119z" />
    <glyph glyph-name="Igrave" unicode="&#xcc;" horiz-adv-x="312" 
d="M238 0v715h-164v-715h164zM249 761l-104 115h-197l139 -115h162z" />
    <glyph glyph-name="Iacute" unicode="&#xcd;" horiz-adv-x="312" 
d="M238 0v715h-164v-715h164zM237 761l139 115h-197l-104 -115h162z" />
    <glyph glyph-name="Icircumflex" unicode="&#xce;" horiz-adv-x="312" 
d="M238 0v715h-164v-715h164zM75 876l-103 -115h137l48 51l47 -51h137l-106 115h-160z" />
    <glyph glyph-name="Idieresis" unicode="&#xcf;" horiz-adv-x="312" 
d="M238 0v715h-164v-715h164zM-2 754h124v119h-124v-119zM194 754h123v119h-123v-119z" />
    <glyph glyph-name="Eth" unicode="&#xd0;" horiz-adv-x="745" 
d="M20 294h60v-294h176q98 -1 173 9q76 11 135 51q67 39 106 122q38 83 39 178q-2 165 -94 256q-93 91 -254 98q-26 1 -52 1h-51h-178v-283h-60v-138zM244 577h66q58 0 97 -13q63 -20 96 -71t33 -134q0 -87 -33 -138t-96 -69q-42 -13 -107 -13h-56v155h106v138h-106v145z
" />
    <glyph glyph-name="Ntilde" unicode="&#xd1;" horiz-adv-x="767" 
d="M693 715h-151v-316v-110q1 -52 3 -97h-1l-30 69q-19 42 -46 96l-182 358h-212v-715h151v292v120q0 62 -2 107h1q12 -33 40 -90l65 -129l155 -300h209v715zM392 777q17 -8 35 -14t38 -6q48 1 74 37q25 36 25 89h-81q-3 -18 -8 -26q-6 -8 -20 -8q-8 0 -18 4q-10 3 -30 13
q-17 8 -33 14q-15 6 -36 6q-52 -2 -78 -37q-27 -35 -27 -85h84q3 31 28 31q9 0 19 -4l28 -14v0z" />
    <glyph glyph-name="Ograve" unicode="&#xd2;" horiz-adv-x="797" 
d="M398 728q-164 -2 -262 -100q-99 -99 -101 -271q2 -175 100 -272q97 -97 262 -98q167 1 265 98t100 272q-2 172 -101 271q-98 98 -263 100v0zM398 128q-91 1 -141 62t-51 166q1 109 51 172q50 62 141 63q90 -1 140 -63q50 -63 51 -172q-1 -105 -51 -166t-140 -62v0z
M505 761l-104 115h-197l139 -115h162z" />
    <glyph glyph-name="Oacute" unicode="&#xd3;" horiz-adv-x="797" 
d="M398 728q-164 -2 -262 -100q-99 -99 -101 -271q2 -175 100 -272q97 -97 262 -98q167 1 265 98t100 272q-2 172 -101 271q-98 98 -263 100v0zM398 128q-91 1 -141 62t-51 166q1 109 51 172q50 62 141 63q90 -1 140 -63q50 -63 51 -172q-1 -105 -51 -166t-140 -62v0z
M458 761l139 115h-197l-104 -115h162z" />
    <glyph glyph-name="Ocircumflex" unicode="&#xd4;" horiz-adv-x="797" 
d="M398 728q-164 -2 -262 -100q-99 -99 -101 -271q2 -175 100 -272q97 -97 262 -98q167 1 265 98t100 272q-2 172 -101 271q-98 98 -263 100v0zM398 128q-91 1 -141 62t-51 166q1 109 51 172q50 62 141 63q90 -1 140 -63q50 -63 51 -172q-1 -105 -51 -166t-140 -62v0z
M319 876l-103 -115h137l48 51l47 -51h137l-106 115h-160z" />
    <glyph glyph-name="Otilde" unicode="&#xd5;" horiz-adv-x="797" 
d="M398 728q-164 -2 -262 -100q-99 -99 -101 -271q2 -175 100 -272q97 -97 262 -98q167 1 265 98t100 272q-2 172 -101 271q-98 98 -263 100v0zM398 128q-91 1 -141 62t-51 166q1 109 51 172q50 62 141 63q90 -1 140 -63q50 -63 51 -172q-1 -105 -51 -166t-140 -62v0z
M392 777q17 -8 35 -14t38 -6q48 1 74 37q25 36 25 89h-81q-3 -18 -8 -26q-6 -8 -20 -8q-8 0 -18 4q-10 3 -30 13q-17 8 -33 14q-15 6 -36 6q-52 -2 -78 -37q-27 -35 -27 -85h84q3 31 28 31q9 0 19 -4l28 -14v0z" />
    <glyph glyph-name="Odieresis" unicode="&#xd6;" horiz-adv-x="797" 
d="M398 728q-164 -2 -262 -100q-99 -99 -101 -271q2 -175 100 -272q97 -97 262 -98q167 1 265 98t100 272q-2 172 -101 271q-98 98 -263 100v0zM398 128q-91 1 -141 62t-51 166q1 109 51 172q50 62 141 63q90 -1 140 -63q50 -63 51 -172q-1 -105 -51 -166t-140 -62v0z
M236 754h124v119h-124v-119zM432 754h123v119h-123v-119z" />
    <glyph glyph-name="multiply" unicode="&#xd7;" 
d="M445 556l-143 -143l-143 143l-93 -93l143 -143l-143 -143l93 -93l143 143l143 -143l93 93l-143 143l143 143z" />
    <glyph glyph-name="Oslash" unicode="&#xd8;" horiz-adv-x="797" 
d="M398 728q-164 -2 -262 -100q-99 -99 -101 -271q0 -90 27 -159t77 -117l-46 -82l142 -77l45 80q54 -15 117 -15q167 1 265 98t100 272q0 93 -30 165t-87 120l41 73l-142 77l-43 -76q-48 12 -103 12v0zM398 128q-13 0 -23 1q-11 1 -21 3l206 361q29 -56 29 -137
q-1 -105 -51 -166t-140 -62v0zM206 356q1 109 51 172q50 62 141 63q17 0 30 -2l-200 -352q-11 26 -17 56q-5 29 -5 63v0z" />
    <glyph glyph-name="Ugrave" unicode="&#xd9;" horiz-adv-x="708" 
d="M354 128q-60 0 -91 41q-32 41 -32 125v421h-164v-426q0 -68 14 -117q14 -50 42 -86q74 -98 231 -98q79 0 137 25t94 73q28 36 42 86q14 49 14 117v426h-164v-421q0 -84 -31 -125q-32 -41 -92 -41v0zM464 761l-104 115h-197l139 -115h162z" />
    <glyph glyph-name="Uacute" unicode="&#xda;" horiz-adv-x="708" 
d="M354 128q-60 0 -91 41q-32 41 -32 125v421h-164v-426q0 -68 14 -117q14 -50 42 -86q74 -98 231 -98q79 0 137 25t94 73q28 36 42 86q14 49 14 117v426h-164v-421q0 -84 -31 -125q-32 -41 -92 -41v0zM405 761l139 115h-197l-104 -115h162z" />
    <glyph glyph-name="Ucircumflex" unicode="&#xdb;" horiz-adv-x="708" 
d="M354 128q-60 0 -91 41q-32 41 -32 125v421h-164v-426q0 -68 14 -117q14 -50 42 -86q74 -98 231 -98q79 0 137 25t94 73q28 36 42 86q14 49 14 117v426h-164v-421q0 -84 -31 -125q-32 -41 -92 -41v0zM273 876l-103 -115h137l48 51l47 -51h137l-106 115h-160z" />
    <glyph glyph-name="Udieresis" unicode="&#xdc;" horiz-adv-x="708" 
d="M354 128q-60 0 -91 41q-32 41 -32 125v421h-164v-426q0 -68 14 -117q14 -50 42 -86q74 -98 231 -98q79 0 137 25t94 73q28 36 42 86q14 49 14 117v426h-164v-421q0 -84 -31 -125q-32 -41 -92 -41v0zM195 754h124v119h-124v-119zM391 754h123v119h-123v-119z" />
    <glyph glyph-name="Yacute" unicode="&#xdd;" horiz-adv-x="622" 
d="M629 715h-176l-81 -172t-54 -123h-2l-67 146l-70 149h-183l72 -137l76 -147l85 -163v-268h164v268zM376 761l139 115h-197l-104 -115h162z" />
    <glyph glyph-name="Thorn" unicode="&#xde;" horiz-adv-x="626" 
d="M74 715v-715h164v134h60q77 -1 134 9q56 10 98 41q40 30 60 77q21 47 21 104q-1 105 -65 164q-64 60 -182 64q-18 1 -36 1h-40h-50v121h-164zM238 455h80q66 0 97 -22q31 -23 31 -71q0 -49 -32 -71q-33 -23 -93 -23h-83v187z" />
    <glyph glyph-name="germandbls" unicode="&#xdf;" horiz-adv-x="600" 
d="M62 0h156v493q0 17 1 32q1 14 4 26q8 27 26 42q18 14 50 14q40 0 59 -20t19 -53q0 -82 -100 -82h-9v-115h13q35 3 80 -16q45 -20 49 -97q-1 -61 -35 -88q-33 -27 -82 -27q-13 0 -18 1h-4t-4 1v-112q20 -3 35 -4t29 -1q103 0 169 55q65 55 67 166q-1 80 -43 127t-106 63
q53 11 84 46t32 100q-1 82 -61 127q-61 44 -173 45q-56 0 -98 -13t-71 -37q-38 -32 -54 -80q-15 -48 -15 -116v-477z" />
    <glyph glyph-name="agrave" unicode="&#xe0;" horiz-adv-x="575" 
d="M530 0q-8 32 -10 73q-1 40 -1 72v160q0 133 -58 186q-59 52 -173 50q-109 -1 -170 -49t-67 -131h150q4 36 25 55q21 20 62 20q45 0 65 -26q19 -27 19 -81q-8 0 -21 -1l-25 -2q-116 -8 -205 -46q-89 -39 -94 -134q1 -75 53 -115q52 -41 137 -41q70 1 108 22t61 47
q-1 -29 3 -59h141zM371 215q0 -60 -26 -92q-26 -33 -80 -33q-36 0 -57 16t-22 45q-1 35 36 53q37 17 123 26l27 3q-1 -5 -1 -9v-9v0zM398 596l-104 119h-205l141 -119h168z" />
    <glyph glyph-name="aacute" unicode="&#xe1;" horiz-adv-x="575" 
d="M530 0q-8 32 -10 73q-1 40 -1 72v160q0 133 -58 186q-59 52 -173 50q-109 -1 -170 -49t-67 -131h150q4 36 25 55q21 20 62 20q45 0 65 -26q19 -27 19 -81q-8 0 -21 -1l-25 -2q-116 -8 -205 -46q-89 -39 -94 -134q1 -75 53 -115q52 -41 137 -41q70 1 108 22t61 47
q-1 -29 3 -59h141zM371 215q0 -60 -26 -92q-26 -33 -80 -33q-36 0 -57 16t-22 45q-1 35 36 53q37 17 123 26l27 3q-1 -5 -1 -9v-9v0zM346 596l141 119h-205l-104 -119h168z" />
    <glyph glyph-name="acircumflex" unicode="&#xe2;" horiz-adv-x="575" 
d="M530 0q-8 32 -10 73q-1 40 -1 72v160q0 133 -58 186q-59 52 -173 50q-109 -1 -170 -49t-67 -131h150q4 36 25 55q21 20 62 20q45 0 65 -26q19 -27 19 -81q-8 0 -21 -1l-25 -2q-116 -8 -205 -46q-89 -39 -94 -134q1 -75 53 -115q52 -41 137 -41q70 1 108 22t61 47
q-1 -29 3 -59h141zM371 215q0 -60 -26 -92q-26 -33 -80 -33q-36 0 -57 16t-22 45q-1 35 36 53q37 17 123 26l27 3q-1 -5 -1 -9v-9v0zM208 715l-104 -119h137l48 51l47 -51h137l-106 119h-159z" />
    <glyph glyph-name="atilde" unicode="&#xe3;" horiz-adv-x="575" 
d="M530 0q-8 32 -10 73q-1 40 -1 72v160q0 133 -58 186q-59 52 -173 50q-109 -1 -170 -49t-67 -131h150q4 36 25 55q21 20 62 20q45 0 65 -26q19 -27 19 -81q-8 0 -21 -1l-25 -2q-116 -8 -205 -46q-89 -39 -94 -134q1 -75 53 -115q52 -41 137 -41q70 1 108 22t61 47
q-1 -29 3 -59h141zM371 215q0 -60 -26 -92q-26 -33 -80 -33q-36 0 -57 16t-22 45q-1 35 36 53q37 17 123 26l27 3q-1 -5 -1 -9v-9v0zM284 609q17 -8 35 -14t38 -6q48 1 74 37q25 36 25 89h-81q-3 -18 -8 -26q-6 -8 -20 -8q-8 0 -18 4q-10 3 -30 13q-17 8 -33 14q-15 6 -36 6
q-52 -2 -78 -37q-27 -35 -27 -85h84q3 31 28 31q9 0 19 -4l28 -14v0z" />
    <glyph glyph-name="adieresis" unicode="&#xe4;" horiz-adv-x="575" 
d="M530 0q-8 32 -10 73q-1 40 -1 72v160q0 133 -58 186q-59 52 -173 50q-109 -1 -170 -49t-67 -131h150q4 36 25 55q21 20 62 20q45 0 65 -26q19 -27 19 -81q-8 0 -21 -1l-25 -2q-116 -8 -205 -46q-89 -39 -94 -134q1 -75 53 -115q52 -41 137 -41q70 1 108 22t61 47
q-1 -29 3 -59h141zM371 215q0 -60 -26 -92q-26 -33 -80 -33q-36 0 -57 16t-22 45q-1 35 36 53q37 17 123 26l27 3q-1 -5 -1 -9v-9v0zM126 596h124v119h-124v-119zM322 596h123v119h-123v-119z" />
    <glyph glyph-name="aring" unicode="&#xe5;" horiz-adv-x="575" 
d="M530 0q-8 32 -10 73q-1 40 -1 72v160q0 133 -58 186q-59 52 -173 50q-109 -1 -170 -49t-67 -131h150q4 36 25 55q21 20 62 20q45 0 65 -26q19 -27 19 -81q-8 0 -21 -1l-25 -2q-116 -8 -205 -46q-89 -39 -94 -134q1 -75 53 -115q52 -41 137 -41q70 1 108 22t61 47
q-1 -29 3 -59h141zM371 215q0 -60 -26 -92q-26 -33 -80 -33q-36 0 -57 16t-22 45q-1 35 36 53q37 17 123 26l27 3q-1 -5 -1 -9v-9v0zM287 568q47 1 77 32q31 31 32 77q-1 45 -31 76q-31 30 -77 31q-45 -1 -76 -31q-31 -31 -32 -76q1 -46 31 -77t76 -32v0zM248 677
q0 16 11 27q10 12 28 12t29 -12q11 -11 11 -27q0 -18 -11 -29q-11 -12 -29 -12t-28 12q-11 11 -11 29v0z" />
    <glyph glyph-name="ae" unicode="&#xe6;" horiz-adv-x="928" 
d="M736 156q-28 -55 -100 -55q-52 0 -85 33q-33 32 -39 92h389v9q0 4 1 9v8q0 131 -68 210q-67 79 -199 81q-51 0 -95 -16t-80 -43q-29 29 -73 43q-43 13 -100 13q-112 -1 -171 -49q-60 -48 -66 -130h151q4 33 25 53q22 20 60 20q45 0 65 -25q21 -26 21 -83q-9 0 -22 -1
l-25 -2q-116 -8 -205 -46q-88 -39 -93 -131q1 -75 51 -116q51 -41 145 -41q83 2 133 25q49 22 72 48q36 -38 88 -58q51 -20 115 -20q106 1 172 47q67 47 91 125h-158zM516 323q7 52 38 80q31 29 79 29q49 0 78 -29q29 -28 35 -80h-230zM371 233v-12q-3 -72 -31 -101t-75 -28
q-36 0 -57 15q-21 16 -21 45q-1 33 35 51t123 27z" />
    <glyph glyph-name="ccedilla" unicode="&#xe7;" horiz-adv-x="594" 
d="M416 187q-11 -42 -38 -60q-28 -19 -63 -19q-58 0 -90 39q-33 39 -33 116q1 73 32 114q32 41 87 42q39 0 64 -21t36 -59h157q-19 99 -86 151t-173 52q-126 -2 -201 -78q-75 -77 -77 -202q1 -124 75 -200t202 -78q109 1 176 56q66 55 85 147h-153zM145 -163h163l76 114
h-146z" />
    <glyph glyph-name="egrave" unicode="&#xe8;" 
d="M411 156q-28 -55 -100 -55q-52 0 -85 33q-33 32 -39 92h390v9q0 4 1 9v8q0 131 -69 210q-68 79 -200 81q-125 -2 -200 -78t-77 -201q1 -130 74 -204q73 -75 200 -76q106 1 173 47q67 47 91 125h-159zM191 323q7 52 38 80q31 29 79 29q49 0 78 -29q29 -28 35 -80h-230z
M423 596l-104 119h-205l141 -119h168z" />
    <glyph glyph-name="eacute" unicode="&#xe9;" 
d="M411 156q-28 -55 -100 -55q-52 0 -85 33q-33 32 -39 92h390v9q0 4 1 9v8q0 131 -69 210q-68 79 -200 81q-125 -2 -200 -78t-77 -201q1 -130 74 -204q73 -75 200 -76q106 1 173 47q67 47 91 125h-159zM191 323q7 52 38 80q31 29 79 29q49 0 78 -29q29 -28 35 -80h-230z
M374 596l141 119h-205l-104 -119h168z" />
    <glyph glyph-name="ecircumflex" unicode="&#xea;" 
d="M411 156q-28 -55 -100 -55q-52 0 -85 33q-33 32 -39 92h390v9q0 4 1 9v8q0 131 -69 210q-68 79 -200 81q-125 -2 -200 -78t-77 -201q1 -130 74 -204q73 -75 200 -76q106 1 173 47q67 47 91 125h-159zM191 323q7 52 38 80q31 29 79 29q49 0 78 -29q29 -28 35 -80h-230z
M231 715l-104 -119h137l48 51l47 -51h137l-106 119h-159z" />
    <glyph glyph-name="edieresis" unicode="&#xeb;" 
d="M411 156q-28 -55 -100 -55q-52 0 -85 33q-33 32 -39 92h390v9q0 4 1 9v8q0 131 -69 210q-68 79 -200 81q-125 -2 -200 -78t-77 -201q1 -130 74 -204q73 -75 200 -76q106 1 173 47q67 47 91 125h-159zM191 323q7 52 38 80q31 29 79 29q49 0 78 -29q29 -28 35 -80h-230z
M151 596h124v119h-124v-119zM347 596h123v119h-123v-119z" />
    <glyph glyph-name="igrave" unicode="&#xec;" horiz-adv-x="280" 
d="M218 0v525h-156v-525h156zM250 596l-104 119h-205l141 -119h168z" />
    <glyph glyph-name="iacute" unicode="&#xed;" horiz-adv-x="280" 
d="M218 0v525h-156v-525h156zM218 596l141 119h-205l-104 -119h168z" />
    <glyph glyph-name="icircumflex" unicode="&#xee;" horiz-adv-x="280" 
d="M218 0v525h-156v-525h156zM62 715l-104 -119h137l48 51l47 -51h137l-106 119h-159z" />
    <glyph glyph-name="idieresis" unicode="&#xef;" horiz-adv-x="280" 
d="M218 0v525h-156v-525h156zM-17 596h124v119h-124v-119zM179 596h123v119h-123v-119z" />
    <glyph glyph-name="eth" unicode="&#xf0;" horiz-adv-x="634" 
d="M430 729l-93 -32l-34 18h-222l58 -30t60 -34l-88 -29l71 -73l112 38l32 -27q14 -13 27 -27l-3 -3q-10 5 -27 8q-17 2 -33 2q-103 0 -179 -72q-75 -71 -79 -208q2 -126 78 -200q76 -73 202 -75q133 1 210 76q76 76 77 217q0 109 -43 195t-128 159l73 25zM313 420
q60 -1 91 -43q30 -43 30 -115q0 -73 -30 -113q-30 -41 -90 -42q-60 1 -90 42q-31 41 -31 114q0 72 31 114t89 43v0z" />
    <glyph glyph-name="ntilde" unicode="&#xf1;" horiz-adv-x="616" 
d="M218 0v269q0 72 24 110q24 37 75 37q50 0 69 -42q18 -41 17 -120v-254h156v269q1 66 -5 109q-5 43 -25 76q-23 40 -63 62t-94 22q-65 -1 -105 -26q-41 -25 -57 -59v72h-149q1 -20 1 -40v-40v-445h156zM318 609q17 -8 35 -14t38 -6q48 1 74 37q25 36 25 89h-81
q-3 -18 -8 -26q-6 -8 -20 -8q-8 0 -18 4q-10 3 -30 13q-17 8 -33 14q-15 6 -36 6q-52 -2 -78 -37q-27 -35 -27 -85h84q3 31 28 31q9 0 19 -4l28 -14v0z" />
    <glyph glyph-name="ograve" unicode="&#xf2;" horiz-adv-x="628" 
d="M313 543q-128 -2 -204 -78t-78 -202q1 -126 77 -201q75 -76 206 -78q131 2 206 78q75 75 77 200q-2 127 -78 203q-77 76 -206 78v0zM312 420q60 -1 91 -43q30 -43 30 -115q0 -73 -30 -113q-30 -41 -90 -42q-60 1 -90 42q-31 41 -31 114q0 72 31 114t89 43v0zM422 596
l-104 119h-205l141 -119h168z" />
    <glyph glyph-name="oacute" unicode="&#xf3;" horiz-adv-x="628" 
d="M313 543q-128 -2 -204 -78t-78 -202q1 -126 77 -201q75 -76 206 -78q131 2 206 78q75 75 77 200q-2 127 -78 203q-77 76 -206 78v0zM312 420q60 -1 91 -43q30 -43 30 -115q0 -73 -30 -113q-30 -41 -90 -42q-60 1 -90 42q-31 41 -31 114q0 72 31 114t89 43v0zM373 596
l141 119h-205l-104 -119h168z" />
    <glyph glyph-name="ocircumflex" unicode="&#xf4;" horiz-adv-x="628" 
d="M313 543q-128 -2 -204 -78t-78 -202q1 -126 77 -201q75 -76 206 -78q131 2 206 78q75 75 77 200q-2 127 -78 203q-77 76 -206 78v0zM312 420q60 -1 91 -43q30 -43 30 -115q0 -73 -30 -113q-30 -41 -90 -42q-60 1 -90 42q-31 41 -31 114q0 72 31 114t89 43v0zM233 715
l-104 -119h137l48 51l47 -51h137l-106 119h-159z" />
    <glyph glyph-name="otilde" unicode="&#xf5;" horiz-adv-x="628" 
d="M313 543q-128 -2 -204 -78t-78 -202q1 -126 77 -201q75 -76 206 -78q131 2 206 78q75 75 77 200q-2 127 -78 203q-77 76 -206 78v0zM312 420q60 -1 91 -43q30 -43 30 -115q0 -73 -30 -113q-30 -41 -90 -42q-60 1 -90 42q-31 41 -31 114q0 72 31 114t89 43v0zM305 609
q17 -8 35 -14t38 -6q48 1 74 37q25 36 25 89h-81q-3 -18 -8 -26q-6 -8 -20 -8q-8 0 -18 4q-10 3 -30 13q-17 8 -33 14q-15 6 -36 6q-52 -2 -78 -37q-27 -35 -27 -85h84q3 31 28 31q9 0 19 -4l28 -14v0z" />
    <glyph glyph-name="odieresis" unicode="&#xf6;" horiz-adv-x="628" 
d="M313 543q-128 -2 -204 -78t-78 -202q1 -126 77 -201q75 -76 206 -78q131 2 206 78q75 75 77 200q-2 127 -78 203q-77 76 -206 78v0zM312 420q60 -1 91 -43q30 -43 30 -115q0 -73 -30 -113q-30 -41 -90 -42q-60 1 -90 42q-31 41 -31 114q0 72 31 114t89 43v0zM152 596h124
v119h-124v-119zM348 596h123v119h-123v-119z" />
    <glyph glyph-name="divide" unicode="&#xf7;" 
d="M53 254h498v134h-498v-134zM226 56h152v146h-152v-146zM226 440h152v146h-152v-146z" />
    <glyph glyph-name="oslash" unicode="&#xf8;" horiz-adv-x="628" 
d="M313 543q-128 -2 -204 -78t-78 -202q0 -64 21 -116t60 -90l-33 -57l122 -63l32 56q38 -9 81 -9q131 2 206 78q75 75 77 200q0 67 -24 121q-23 54 -66 92l34 58l-123 62l-34 -60q-17 4 -35 6q-17 2 -36 2v0zM433 262q0 -73 -30 -113q-30 -41 -90 -42h-10t-10 1l130 226
q10 -31 10 -72v0zM312 420q8 0 12 -1l-125 -220q-7 27 -7 64q0 72 31 114t89 43v0z" />
    <glyph glyph-name="ugrave" unicode="&#xf9;" horiz-adv-x="612" 
d="M394 525v-269q0 -72 -23 -109q-23 -38 -74 -38q-50 0 -67 42q-18 41 -17 120v254h-156v-269q-1 -66 5 -109q5 -43 25 -76q23 -40 63 -62t94 -22q65 1 103 26q39 25 55 59v-72h149q-1 20 -1 40v40v445h-156zM408 596l-104 119h-205l141 -119h168z" />
    <glyph glyph-name="uacute" unicode="&#xfa;" horiz-adv-x="612" 
d="M394 525v-269q0 -72 -23 -109q-23 -38 -74 -38q-50 0 -67 42q-18 41 -17 120v254h-156v-269q-1 -66 5 -109q5 -43 25 -76q23 -40 63 -62t94 -22q65 1 103 26q39 25 55 59v-72h149q-1 20 -1 40v40v445h-156zM355 596l141 119h-205l-104 -119h168z" />
    <glyph glyph-name="ucircumflex" unicode="&#xfb;" horiz-adv-x="612" 
d="M394 525v-269q0 -72 -23 -109q-23 -38 -74 -38q-50 0 -67 42q-18 41 -17 120v254h-156v-269q-1 -66 5 -109q5 -43 25 -76q23 -40 63 -62t94 -22q65 1 103 26q39 25 55 59v-72h149q-1 20 -1 40v40v445h-156zM224 715l-104 -119h137l48 51l47 -51h137l-106 119h-159z" />
    <glyph glyph-name="udieresis" unicode="&#xfc;" horiz-adv-x="612" 
d="M394 525v-269q0 -72 -23 -109q-23 -38 -74 -38q-50 0 -67 42q-18 41 -17 120v254h-156v-269q-1 -66 5 -109q5 -43 25 -76q23 -40 63 -62t94 -22q65 1 103 26q39 25 55 59v-72h149q-1 20 -1 40v40v445h-156zM149 596h124v119h-124v-119zM345 596h123v119h-123v-119z" />
    <glyph glyph-name="yacute" unicode="&#xfd;" horiz-adv-x="550" 
d="M296 -180l122 353l124 352h-161l-54 -187q-29 -100 -45 -167h-5l-48 158l-61 196h-166l96 -259l99 -259l-14 -44l-21 -63l-26 -80h160zM338 596l141 119h-205l-104 -119h168z" />
    <glyph glyph-name="thorn" unicode="&#xfe;" horiz-adv-x="641" 
d="M217 472q0 12 1 43v78v122h-156v-895h156v122v61q0 28 -1 51q20 -27 57 -47q37 -19 97 -20q109 2 172 77q64 76 65 203q-2 130 -64 201t-166 72q-63 -2 -103 -23q-40 -22 -58 -45v0zM325 421q57 -1 87 -44q31 -43 31 -112t-31 -112q-30 -44 -87 -45q-57 1 -87 44t-30 116
q1 71 32 111q31 41 85 42v0z" />
    <glyph glyph-name="ydieresis" unicode="&#xff;" horiz-adv-x="550" 
d="M296 -180l122 353l124 352h-161l-54 -187q-29 -100 -45 -167h-5l-48 158l-61 196h-166l96 -259l99 -259l-14 -44l-21 -63l-26 -80h160zM124 596h124v119h-124v-119zM320 596h123v119h-123v-119z" />
    <glyph glyph-name="Amacron" unicode="&#x100;" horiz-adv-x="720" 
d="M159 0l64 169h270l32 -85l31 -84h172l-133 356l-134 359h-197l-152 -392l-122 -323h169zM267 299l47 142q23 71 42 138h2q19 -64 41 -129l49 -151h-181zM221 765h273v93h-273v-93z" />
    <glyph glyph-name="amacron" unicode="&#x101;" horiz-adv-x="575" 
d="M530 0q-8 32 -10 73q-1 40 -1 72v160q0 133 -58 186q-59 52 -173 50q-109 -1 -170 -49t-67 -131h150q4 36 25 55q21 20 62 20q45 0 65 -26q19 -27 19 -81q-8 0 -21 -1l-25 -2q-116 -8 -205 -46q-89 -39 -94 -134q1 -75 53 -115q52 -41 137 -41q70 1 108 22t61 47
q-1 -29 3 -59h141zM371 215q0 -60 -26 -92q-26 -33 -80 -33q-36 0 -57 16t-22 45q-1 35 36 53q37 17 123 26l27 3q-1 -5 -1 -9v-9v0zM152 606h273v93h-273v-93z" />
    <glyph glyph-name="Abreve" unicode="&#x102;" horiz-adv-x="720" 
d="M159 0l64 169h270l32 -85l31 -84h172l-133 356l-134 359h-197l-152 -392l-122 -323h169zM267 299l47 142q23 71 42 138h2q19 -64 41 -129l49 -151h-181zM358 745q63 0 101 34q37 34 46 97h-94q-5 -18 -17 -29q-13 -12 -36 -12t-36 12q-13 11 -17 29h-95q9 -63 47 -97
t101 -34v0z" />
    <glyph glyph-name="abreve" unicode="&#x103;" horiz-adv-x="575" 
d="M530 0q-8 32 -10 73q-1 40 -1 72v160q0 133 -58 186q-59 52 -173 50q-109 -1 -170 -49t-67 -131h150q4 36 25 55q21 20 62 20q45 0 65 -26q19 -27 19 -81q-8 0 -21 -1l-25 -2q-116 -8 -205 -46q-89 -39 -94 -134q1 -75 53 -115q52 -41 137 -41q70 1 108 22t61 47
q-1 -29 3 -59h141zM371 215q0 -60 -26 -92q-26 -33 -80 -33q-36 0 -57 16t-22 45q-1 35 36 53q37 17 123 26l27 3q-1 -5 -1 -9v-9v0zM289 584q63 0 101 34q37 34 46 97h-94q-5 -18 -17 -29q-13 -12 -36 -12t-36 12q-13 11 -17 29h-95q9 -63 47 -97t101 -34v0z" />
    <glyph glyph-name="Aogonek" unicode="&#x104;" horiz-adv-x="720" 
d="M159 0l64 169h270l32 -85l31 -84h172l-133 356l-134 359h-197l-152 -392l-122 -323h169zM267 299l47 142q23 71 42 138h2q19 -64 41 -129l49 -151h-181zM697 -49h-146l76 -114h163z" />
    <glyph glyph-name="aogonek" unicode="&#x105;" horiz-adv-x="575" 
d="M530 0q-8 32 -10 73q-1 40 -1 72v160q0 133 -58 186q-59 52 -173 50q-109 -1 -170 -49t-67 -131h150q4 36 25 55q21 20 62 20q45 0 65 -26q19 -27 19 -81q-8 0 -21 -1l-25 -2q-116 -8 -205 -46q-89 -39 -94 -134q1 -75 53 -115q52 -41 137 -41q70 1 108 22t61 47
q-1 -29 3 -59h141zM371 215q0 -60 -26 -92q-26 -33 -80 -33q-36 0 -57 16t-22 45q-1 35 36 53q37 17 123 26l27 3q-1 -5 -1 -9v-9v0zM524 -49h-146l76 -114h163z" />
    <glyph glyph-name="Cacute" unicode="&#x106;" horiz-adv-x="763" 
d="M557 224q-24 -45 -63 -70q-39 -26 -96 -26q-91 1 -141 62t-51 166q1 109 51 172q50 62 141 63q60 0 101 -29q41 -28 64 -80l179 1q-35 116 -123 180t-220 65q-164 -2 -263 -100q-98 -99 -101 -271q2 -175 100 -272q97 -97 262 -98q132 1 220 62q87 61 123 175h-183z
M470 761l139 115h-197l-104 -115h162z" />
    <glyph glyph-name="cacute" unicode="&#x107;" horiz-adv-x="594" 
d="M416 187q-11 -42 -38 -60q-28 -19 -63 -19q-58 0 -90 39q-33 39 -33 116q1 73 32 114q32 41 87 42q39 0 64 -21t36 -59h157q-19 99 -86 151t-173 52q-126 -2 -201 -78q-75 -77 -77 -202q1 -124 75 -200t202 -78q109 1 176 56q66 55 85 147h-153zM364 596l141 119h-205
l-104 -119h168z" />
    <glyph glyph-name="Ccircumflex" unicode="&#x108;" horiz-adv-x="763" 
d="M557 224q-24 -45 -63 -70q-39 -26 -96 -26q-91 1 -141 62t-51 166q1 109 51 172q50 62 141 63q60 0 101 -29q41 -28 64 -80l179 1q-35 116 -123 180t-220 65q-164 -2 -263 -100q-98 -99 -101 -271q2 -175 100 -272q97 -97 262 -98q132 1 220 62q87 61 123 175h-183z
M318 876l-103 -115h137l48 51l47 -51h137l-106 115h-160z" />
    <glyph glyph-name="ccircumflex" unicode="&#x109;" horiz-adv-x="594" 
d="M416 187q-11 -42 -38 -60q-28 -19 -63 -19q-58 0 -90 39q-33 39 -33 116q1 73 32 114q32 41 87 42q39 0 64 -21t36 -59h157q-19 99 -86 151t-173 52q-126 -2 -201 -78q-75 -77 -77 -202q1 -124 75 -200t202 -78q109 1 176 56q66 55 85 147h-153zM232 715l-104 -119h137
l48 51l47 -51h137l-106 119h-159z" />
    <glyph glyph-name="Cdotaccent" unicode="&#x10a;" horiz-adv-x="763" 
d="M557 224q-24 -45 -63 -70q-39 -26 -96 -26q-91 1 -141 62t-51 166q1 109 51 172q50 62 141 63q60 0 101 -29q41 -28 64 -80l179 1q-35 116 -123 180t-220 65q-164 -2 -263 -100q-98 -99 -101 -271q2 -175 100 -272q97 -97 262 -98q132 1 220 62q87 61 123 175h-183z
M339 761h122v115h-122v-115z" />
    <glyph glyph-name="cdotaccent" unicode="&#x10b;" horiz-adv-x="594" 
d="M416 187q-11 -42 -38 -60q-28 -19 -63 -19q-58 0 -90 39q-33 39 -33 116q1 73 32 114q32 41 87 42q39 0 64 -21t36 -59h157q-19 99 -86 151t-173 52q-126 -2 -201 -78q-75 -77 -77 -202q1 -124 75 -200t202 -78q109 1 176 56q66 55 85 147h-153zM251 596h124v119h-124
v-119z" />
    <glyph glyph-name="Ccaron" unicode="&#x10c;" horiz-adv-x="763" 
d="M557 224q-24 -45 -63 -70q-39 -26 -96 -26q-91 1 -141 62t-51 166q1 109 51 172q50 62 141 63q60 0 101 -29q41 -28 64 -80l179 1q-35 116 -123 180t-220 65q-164 -2 -263 -100q-98 -99 -101 -271q2 -175 100 -272q97 -97 262 -98q132 1 220 62q87 61 123 175h-183z
M483 761l106 115h-137l-47 -51l-48 51h-137l103 -115h160z" />
    <glyph glyph-name="ccaron" unicode="&#x10d;" horiz-adv-x="594" 
d="M416 187q-11 -42 -38 -60q-28 -19 -63 -19q-58 0 -90 39q-33 39 -33 116q1 73 32 114q32 41 87 42q39 0 64 -21t36 -59h157q-19 99 -86 151t-173 52q-126 -2 -201 -78q-75 -77 -77 -202q1 -124 75 -200t202 -78q109 1 176 56q66 55 85 147h-153zM391 596l106 119h-137
l-47 -51l-48 51h-137l104 -119h159z" />
    <glyph glyph-name="Dcaron" unicode="&#x10e;" horiz-adv-x="739" 
d="M74 0h176q98 -1 173 9q76 11 135 51q67 39 106 122q38 83 39 178q-2 165 -94 256q-93 91 -254 98q-26 1 -52 1h-51h-178v-715zM238 577h66q58 0 97 -13q63 -20 96 -71t33 -134q0 -87 -33 -138t-96 -69q-42 -13 -107 -13h-56v438zM423 761l106 115h-137l-47 -51l-48 51
h-137l103 -115h160z" />
    <glyph glyph-name="dcaron" unicode="&#x10f;" horiz-adv-x="755" 
d="M579 0v715h-156v-138q0 -21 1 -53v-54q-18 24 -56 46q-37 22 -102 24q-104 -1 -167 -75q-64 -73 -66 -203q1 -127 65 -200q63 -74 170 -75q67 2 108 28q40 26 57 55q-1 -14 -1 -33v-37h147zM316 421q54 -1 85 -42q31 -40 32 -111q0 -73 -30 -116t-87 -44q-57 1 -87 45
q-31 43 -31 112t31 112q30 43 87 44v0zM841 715h-155l-72 -255h134z" />
    <glyph glyph-name="Dcroat" unicode="&#x110;" horiz-adv-x="745" 
d="M20 294h60v-294h176q98 -1 173 9q76 11 135 51q67 39 106 122q38 83 39 178q-2 165 -94 256q-93 91 -254 98q-26 1 -52 1h-51h-178v-283h-60v-138zM244 577h66q58 0 97 -13q63 -20 96 -71t33 -134q0 -87 -33 -138t-96 -69q-42 -13 -107 -13h-56v155h106v138h-106v145z
" />
    <glyph glyph-name="dcroat" unicode="&#x111;" horiz-adv-x="641" 
d="M372 563h51q0 -23 1 -49v-44q-18 24 -56 46q-37 22 -102 24q-104 -1 -167 -75q-64 -73 -66 -203q1 -127 65 -200q63 -74 170 -75q67 2 108 28q40 26 57 55q-1 -14 -1 -33v-37h147v563h47v108h-47v44h-156v-44h-51v-108zM316 421q54 -1 85 -42q31 -40 32 -111
q0 -73 -30 -116t-87 -44q-57 1 -87 45q-31 43 -31 112t31 112q30 43 87 44v0z" />
    <glyph glyph-name="Emacron" unicode="&#x112;" horiz-adv-x="591" 
d="M236 292h283v138h-283v145h308v140h-470v-715h474v140h-312v152zM174 765h273v93h-273v-93z" />
    <glyph glyph-name="emacron" unicode="&#x113;" 
d="M411 156q-28 -55 -100 -55q-52 0 -85 33q-33 32 -39 92h390v9q0 4 1 9v8q0 131 -69 210q-68 79 -200 81q-125 -2 -200 -78t-77 -201q1 -130 74 -204q73 -75 200 -76q106 1 173 47q67 47 91 125h-159zM191 323q7 52 38 80q31 29 79 29q49 0 78 -29q29 -28 35 -80h-230z
M174 606h273v93h-273v-93z" />
    <glyph glyph-name="Ebreve" unicode="&#x114;" horiz-adv-x="591" 
d="M236 292h283v138h-283v145h308v140h-470v-715h474v140h-312v152zM313 745q63 0 101 34q37 34 46 97h-94q-5 -18 -17 -29q-13 -12 -36 -12t-36 12q-13 11 -17 29h-95q9 -63 47 -97t101 -34v0z" />
    <glyph glyph-name="ebreve" unicode="&#x115;" 
d="M411 156q-28 -55 -100 -55q-52 0 -85 33q-33 32 -39 92h390v9q0 4 1 9v8q0 131 -69 210q-68 79 -200 81q-125 -2 -200 -78t-77 -201q1 -130 74 -204q73 -75 200 -76q106 1 173 47q67 47 91 125h-159zM191 323q7 52 38 80q31 29 79 29q49 0 78 -29q29 -28 35 -80h-230z
M313 584q63 0 101 34q37 34 46 97h-94q-5 -18 -17 -29q-13 -12 -36 -12t-36 12q-13 11 -17 29h-95q9 -63 47 -97t101 -34v0z" />
    <glyph glyph-name="Edotaccent" unicode="&#x116;" horiz-adv-x="591" 
d="M236 292h283v138h-283v145h308v140h-470v-715h474v140h-312v152zM255 761h122v115h-122v-115z" />
    <glyph glyph-name="edotaccent" unicode="&#x117;" 
d="M411 156q-28 -55 -100 -55q-52 0 -85 33q-33 32 -39 92h390v9q0 4 1 9v8q0 131 -69 210q-68 79 -200 81q-125 -2 -200 -78t-77 -201q1 -130 74 -204q73 -75 200 -76q106 1 173 47q67 47 91 125h-159zM191 323q7 52 38 80q31 29 79 29q49 0 78 -29q29 -28 35 -80h-230z
M247 596h124v119h-124v-119z" />
    <glyph glyph-name="Eogonek" unicode="&#x118;" horiz-adv-x="591" 
d="M236 292h283v138h-283v145h308v140h-470v-715h474v140h-312v152zM374 -49h-146l76 -114h163z" />
    <glyph glyph-name="eogonek" unicode="&#x119;" 
d="M411 156q-28 -55 -100 -55q-52 0 -85 33q-33 32 -39 92h390v9q0 4 1 9v8q0 131 -69 210q-68 79 -200 81q-125 -2 -200 -78t-77 -201q1 -130 74 -204q73 -75 200 -76q106 1 173 47q67 47 91 125h-159zM191 323q7 52 38 80q31 29 79 29q49 0 78 -29q29 -28 35 -80h-230z
M358 -49h-146l76 -114h163z" />
    <glyph glyph-name="Ecaron" unicode="&#x11a;" horiz-adv-x="591" 
d="M236 292h283v138h-283v145h308v140h-470v-715h474v140h-312v152zM392 761l106 115h-137l-47 -51l-48 51h-137l103 -115h160z" />
    <glyph glyph-name="ecaron" unicode="&#x11b;" 
d="M411 156q-28 -55 -100 -55q-52 0 -85 33q-33 32 -39 92h390v9q0 4 1 9v8q0 131 -69 210q-68 79 -200 81q-125 -2 -200 -78t-77 -201q1 -130 74 -204q73 -75 200 -76q106 1 173 47q67 47 91 125h-159zM191 323q7 52 38 80q31 29 79 29q49 0 78 -29q29 -28 35 -80h-230z
M388 596l106 119h-137l-47 -51l-48 51h-137l104 -119h159z" />
    <glyph glyph-name="Gcircumflex" unicode="&#x11c;" horiz-adv-x="791" 
d="M402 728q-169 -2 -267 -102t-100 -268q2 -168 93 -268q91 -101 240 -103q78 1 135 26q56 26 86 65h1v-18q-1 -10 -1 -22v-38h153v394h-382v-133h128h46t46 1q-11 -58 -54 -97q-42 -38 -123 -40q-94 1 -145 64t-52 171q1 104 51 167q51 62 142 64q61 0 101 -29
q40 -28 63 -80l179 1q-34 116 -121 180t-219 65v0zM322 876l-103 -115h137l48 51l47 -51h137l-106 115h-160z" />
    <glyph glyph-name="gcircumflex" unicode="&#x11d;" horiz-adv-x="643" 
d="M46 -19q16 -81 80 -129q64 -47 178 -48q135 0 206 70q70 71 71 208v443h-151v-31q0 -19 2 -35q-19 33 -59 57q-41 23 -105 24q-103 -2 -168 -72q-64 -71 -66 -188q1 -118 64 -187q62 -69 168 -71q61 1 103 24q43 22 63 56h2q3 -91 -25 -138q-29 -47 -99 -47q-38 0 -62 16
t-38 48h-164zM317 421q55 -1 86 -38q30 -38 31 -99q-1 -69 -33 -106t-84 -37q-57 1 -87 39q-31 38 -31 99q1 64 32 103q31 38 86 39v0zM247 715l-104 -119h137l48 51l47 -51h137l-106 119h-159z" />
    <glyph glyph-name="Gbreve" unicode="&#x11e;" horiz-adv-x="791" 
d="M402 728q-169 -2 -267 -102t-100 -268q2 -168 93 -268q91 -101 240 -103q78 1 135 26q56 26 86 65h1v-18q-1 -10 -1 -22v-38h153v394h-382v-133h128h46t46 1q-11 -58 -54 -97q-42 -38 -123 -40q-94 1 -145 64t-52 171q1 104 51 167q51 62 142 64q61 0 101 -29
q40 -28 63 -80l179 1q-34 116 -121 180t-219 65v0zM406 745q63 0 101 34q37 34 46 97h-94q-5 -18 -17 -29q-13 -12 -36 -12t-36 12q-13 11 -17 29h-95q9 -63 47 -97t101 -34v0z" />
    <glyph glyph-name="gbreve" unicode="&#x11f;" horiz-adv-x="643" 
d="M46 -19q16 -81 80 -129q64 -47 178 -48q135 0 206 70q70 71 71 208v443h-151v-31q0 -19 2 -35q-19 33 -59 57q-41 23 -105 24q-103 -2 -168 -72q-64 -71 -66 -188q1 -118 64 -187q62 -69 168 -71q61 1 103 24q43 22 63 56h2q3 -91 -25 -138q-29 -47 -99 -47q-38 0 -62 16
t-38 48h-164zM317 421q55 -1 86 -38q30 -38 31 -99q-1 -69 -33 -106t-84 -37q-57 1 -87 39q-31 38 -31 99q1 64 32 103q31 38 86 39v0zM323 584q63 0 101 34q37 34 46 97h-94q-5 -18 -17 -29q-13 -12 -36 -12t-36 12q-13 11 -17 29h-95q9 -63 47 -97t101 -34v0z" />
    <glyph glyph-name="Gdotaccent" unicode="&#x120;" horiz-adv-x="791" 
d="M402 728q-169 -2 -267 -102t-100 -268q2 -168 93 -268q91 -101 240 -103q78 1 135 26q56 26 86 65h1v-18q-1 -10 -1 -22v-38h153v394h-382v-133h128h46t46 1q-11 -58 -54 -97q-42 -38 -123 -40q-94 1 -145 64t-52 171q1 104 51 167q51 62 142 64q61 0 101 -29
q40 -28 63 -80l179 1q-34 116 -121 180t-219 65v0zM340 761h122v115h-122v-115z" />
    <glyph glyph-name="gdotaccent" unicode="&#x121;" horiz-adv-x="643" 
d="M46 -19q16 -81 80 -129q64 -47 178 -48q135 0 206 70q70 71 71 208v443h-151v-31q0 -19 2 -35q-19 33 -59 57q-41 23 -105 24q-103 -2 -168 -72q-64 -71 -66 -188q1 -118 64 -187q62 -69 168 -71q61 1 103 24q43 22 63 56h2q3 -91 -25 -138q-29 -47 -99 -47q-38 0 -62 16
t-38 48h-164zM317 421q55 -1 86 -38q30 -38 31 -99q-1 -69 -33 -106t-84 -37q-57 1 -87 39q-31 38 -31 99q1 64 32 103q31 38 86 39v0zM258 596h124v119h-124v-119z" />
    <glyph glyph-name="uni0122" unicode="&#x122;" horiz-adv-x="791" 
d="M402 728q-169 -2 -267 -102t-100 -268q2 -168 93 -268q91 -101 240 -103q78 1 135 26q56 26 86 65h1v-18q-1 -10 -1 -22v-38h153v394h-382v-133h128h46t46 1q-11 -58 -54 -97q-42 -38 -123 -40q-94 1 -145 64t-52 171q1 104 51 167q51 62 142 64q61 0 101 -29
q40 -28 63 -80l179 1q-34 116 -121 180t-219 65v0zM274 -163h163l76 114h-146z" />
    <glyph glyph-name="uni0123" unicode="&#x123;" horiz-adv-x="643" 
d="M46 -19q16 -81 80 -129q64 -47 178 -48q135 0 206 70q70 71 71 208v443h-151v-31q0 -19 2 -35q-19 33 -59 57q-41 23 -105 24q-103 -2 -168 -72q-64 -71 -66 -188q1 -118 64 -187q62 -69 168 -71q61 1 103 24q43 22 63 56h2q3 -91 -25 -138q-29 -47 -99 -47q-38 0 -62 16
t-38 48h-164zM317 421q55 -1 86 -38q30 -38 31 -99q-1 -69 -33 -106t-84 -37q-57 1 -87 39q-31 38 -31 99q1 64 32 103q31 38 86 39v0zM474 715h-163l-76 -114h146z" />
    <glyph glyph-name="Hcircumflex" unicode="&#x124;" horiz-adv-x="736" 
d="M238 0v298h260v-298h164v715h-164v-276h-260v276h-164v-715h164zM284 876l-103 -115h137l48 51l47 -51h137l-106 115h-160z" />
    <glyph glyph-name="hcircumflex" unicode="&#x125;" horiz-adv-x="616" 
d="M218 0v269q0 72 24 110q24 37 75 37q50 0 69 -42q18 -41 17 -120v-254h156v269q1 66 -5 109q-5 43 -25 76q-23 40 -63 62t-94 22q-60 -1 -98 -22t-57 -51q1 34 1 71v67v112h-156v-715h156zM61 876l-103 -115h137l48 51l47 -51h137l-106 115h-160z" />
    <glyph glyph-name="Hbar" unicode="&#x126;" horiz-adv-x="736" 
d="M238 0v298h260v-298h164v715h-164v-68h-260v68h-164v-715h164zM238 439v67h260v-67h-260z" />
    <glyph glyph-name="hbar" unicode="&#x127;" horiz-adv-x="616" 
d="M15 563h47v-563h156v269q0 72 24 110q24 37 75 37q50 0 69 -42q18 -41 17 -120v-254h156v269q1 66 -5 109q-5 43 -25 76q-23 40 -63 62t-94 22q-60 -1 -98 -22t-57 -51q0 23 1 48v50h51v108h-51v44h-156v-44h-47v-108z" />
    <glyph glyph-name="Itilde" unicode="&#x128;" horiz-adv-x="312" 
d="M239 0v715h-164v-715h164zM152 777q17 -8 35 -14t38 -6q48 1 74 37q25 36 25 89h-81q-3 -18 -8 -26q-6 -8 -20 -8q-8 0 -18 4q-10 3 -30 13q-17 8 -33 14q-15 6 -36 6q-52 -2 -78 -37q-27 -35 -27 -85h84q3 31 28 31q9 0 19 -4l28 -14v0z" />
    <glyph glyph-name="itilde" unicode="&#x129;" horiz-adv-x="280" 
d="M219 0v525h-156v-525h156zM136 609q17 -8 35 -14t38 -6q48 1 74 37q25 36 25 89h-81q-3 -18 -8 -26q-6 -8 -20 -8q-8 0 -18 4q-10 3 -30 13q-17 8 -33 14q-15 6 -36 6q-52 -2 -78 -37q-27 -35 -27 -85h84q3 31 28 31q9 0 19 -4l28 -14v0z" />
    <glyph glyph-name="Imacron" unicode="&#x12a;" horiz-adv-x="312" 
d="M238 0v715h-164v-715h164zM22 765h273v93h-273v-93z" />
    <glyph glyph-name="imacron" unicode="&#x12b;" horiz-adv-x="280" 
d="M218 0v525h-156v-525h156zM-6 606h273v93h-273v-93z" />
    <glyph glyph-name="Ibreve" unicode="&#x12c;" horiz-adv-x="312" 
d="M238 0v715h-164v-715h164zM159 745q63 0 101 34q37 34 46 97h-94q-5 -18 -17 -29q-13 -12 -36 -12t-36 12q-13 11 -17 29h-95q9 -63 47 -97t101 -34v0z" />
    <glyph glyph-name="ibreve" unicode="&#x12d;" horiz-adv-x="280" 
d="M218 0v525h-156v-525h156zM142 584q63 0 101 34q37 34 46 97h-94q-5 -18 -17 -29q-13 -12 -36 -12t-36 12q-13 11 -17 29h-95q9 -63 47 -97t101 -34v0z" />
    <glyph glyph-name="Iogonek" unicode="&#x12e;" horiz-adv-x="312" 
d="M238 0v715h-164v-715h164zM226 -49h-146l76 -114h163z" />
    <glyph glyph-name="iogonek" unicode="&#x12f;" horiz-adv-x="280" 
d="M62 587h156v128h-156v-128zM218 0v525h-156v-525h156zM209 -49h-146l76 -114h163z" />
    <glyph glyph-name="Idotaccent" unicode="&#x130;" horiz-adv-x="312" 
d="M238 0v715h-164v-715h164zM96 761h122v115h-122v-115z" />
    <glyph glyph-name="dotlessi" unicode="&#x131;" horiz-adv-x="280" 
d="M218 0v525h-156v-525h156z" />
    <glyph glyph-name="IJ" unicode="&#x132;" horiz-adv-x="850" 
d="M238 0v715h-164v-715h164zM553 -15q128 1 179 73q52 73 50 209v448h-165v-446q1 -72 -12 -107q-13 -34 -56 -34q-34 1 -47 20q-13 18 -14 43h-160q0 -97 54 -151q55 -54 171 -55v0z" />
    <glyph glyph-name="ij" unicode="&#x133;" horiz-adv-x="560" 
d="M62 587h156v128h-156v-128zM218 0v525h-156v-525h156zM498 525h-156v-521q1 -43 -17 -63q-19 -20 -63 -20h-7q-4 0 -10 1v-108q16 -3 34 -4q19 -2 36 -2q103 -1 144 44t39 149v524zM342 587h156v128h-156v-128z" />
    <glyph glyph-name="Jcircumflex" unicode="&#x134;" horiz-adv-x="538" 
d="M241 -15q128 1 179 73q52 73 50 209v448h-165v-446q1 -72 -12 -107q-13 -34 -56 -34q-34 1 -47 20q-13 18 -14 43h-160q0 -97 54 -151q55 -54 171 -55v0zM305 876l-103 -115h137l48 51l47 -51h137l-106 115h-160z" />
    <glyph glyph-name="jcircumflex" unicode="&#x135;" horiz-adv-x="280" 
d="M218 525h-156v-521q1 -43 -17 -63q-19 -20 -63 -20h-7q-4 0 -10 1v-108q16 -3 34 -4q19 -2 36 -2q103 -1 144 44t39 149v524zM61 715l-104 -119h137l48 51l47 -51h137l-106 119h-159z" />
    <glyph glyph-name="uni0136" unicode="&#x136;" horiz-adv-x="663" 
d="M238 0v355h2l115 -177l121 -178h202l-281 383l132 166l132 166h-197l-116 -160q-57 -77 -108 -157h-2v317h-164v-715h164zM222 -163h163l76 114h-146z" />
    <glyph glyph-name="uni0137" unicode="&#x137;" horiz-adv-x="582" 
d="M218 0v258h1q12 -28 68 -105q55 -78 103 -153h198l-122 155q-63 81 -96 129l78 98l118 143h-188l-77 -114l-82 -119h-1v423h-156v-715h156zM164 -163h163l76 114h-146z" />
    <glyph glyph-name="kgreenlandic" unicode="&#x138;" horiz-adv-x="582" 
d="M62 525v-525h156v258h1q12 -28 68 -105q55 -78 103 -153h198l-122 155q-63 81 -96 129l78 98l118 143h-188l-77 -114l-82 -119h-1v233h-156z" />
    <glyph glyph-name="Lacute" unicode="&#x139;" horiz-adv-x="559" 
d="M74 715v-715h464v141h-300v574h-164zM246 761l139 115h-197l-104 -115h162z" />
    <glyph glyph-name="lacute" unicode="&#x13a;" horiz-adv-x="286" 
d="M221 0v715h-156v-715h156zM225 761l139 115h-197l-104 -115h162z" />
    <glyph glyph-name="uni013B" unicode="&#x13b;" horiz-adv-x="559" 
d="M74 715v-715h464v141h-300v574h-164zM172 -163h163l76 114h-146z" />
    <glyph glyph-name="uni013C" unicode="&#x13c;" horiz-adv-x="286" 
d="M221 0v715h-156v-715h156zM-4 -163h163l76 114h-146z" />
    <glyph glyph-name="Lcaron" unicode="&#x13d;" horiz-adv-x="561" 
d="M74 715v-715h464v141h-300v574h-164zM528 715h-155l-72 -255h134z" />
    <glyph glyph-name="lcaron" unicode="&#x13e;" horiz-adv-x="395" 
d="M221 0v715h-156v-715h156zM481 715h-155l-72 -255h134z" />
    <glyph glyph-name="Ldot" unicode="&#x13f;" horiz-adv-x="560" 
d="M74 715v-715h464v141h-300v574h-164zM318 322h163v166h-163v-166z" />
    <glyph glyph-name="ldot" unicode="&#x140;" horiz-adv-x="441" 
d="M221 0v715h-156v-715h156zM282 236h163v166h-163v-166z" />
    <glyph glyph-name="Lslash" unicode="&#x141;" horiz-adv-x="571" 
d="M86 715v-333l-76 -49v-134l76 49v-248h464v141h-300v214l105 68v134l-105 -68v226h-164z" />
    <glyph glyph-name="lslash" unicode="&#x142;" horiz-adv-x="325" 
d="M235 0v377l67 44v134l-67 -44v204h-156v-305l-62 -40v-134l62 40v-276h156z" />
    <glyph glyph-name="Nacute" unicode="&#x143;" horiz-adv-x="767" 
d="M693 715h-151v-316v-110q1 -52 3 -97h-1l-30 69q-19 42 -46 96l-182 358h-212v-715h151v292v120q0 62 -2 107h1q12 -33 40 -90l65 -129l155 -300h209v715zM438 761l139 115h-197l-104 -115h162z" />
    <glyph glyph-name="nacute" unicode="&#x144;" horiz-adv-x="616" 
d="M218 0v269q0 72 24 110q24 37 75 37q50 0 69 -42q18 -41 17 -120v-254h156v269q1 66 -5 109q-5 43 -25 76q-23 40 -63 62t-94 22q-65 -1 -105 -26q-41 -25 -57 -59v72h-149q1 -20 1 -40v-40v-445h156zM388 596l141 119h-205l-104 -119h168z" />
    <glyph glyph-name="uni0145" unicode="&#x145;" horiz-adv-x="767" 
d="M693 715h-151v-316v-110q1 -52 3 -97h-1l-30 69q-19 42 -46 96l-182 358h-212v-715h151v292v120q0 62 -2 107h1q12 -33 40 -90l65 -129l155 -300h209v715zM234 -163h163l76 114h-146z" />
    <glyph glyph-name="uni0146" unicode="&#x146;" horiz-adv-x="616" 
d="M218 0v269q0 72 24 110q24 37 75 37q50 0 69 -42q18 -41 17 -120v-254h156v269q1 66 -5 109q-5 43 -25 76q-23 40 -63 62t-94 22q-65 -1 -105 -26q-41 -25 -57 -59v72h-149q1 -20 1 -40v-40v-445h156zM164 -163h163l76 114h-146z" />
    <glyph glyph-name="Ncaron" unicode="&#x147;" horiz-adv-x="767" 
d="M693 715h-151v-316v-110q1 -52 3 -97h-1l-30 69q-19 42 -46 96l-182 358h-212v-715h151v292v120q0 62 -2 107h1q12 -33 40 -90l65 -129l155 -300h209v715zM472 761l106 115h-137l-47 -51l-48 51h-137l103 -115h160z" />
    <glyph glyph-name="ncaron" unicode="&#x148;" horiz-adv-x="616" 
d="M218 0v269q0 72 24 110q24 37 75 37q50 0 69 -42q18 -41 17 -120v-254h156v269q1 66 -5 109q-5 43 -25 76q-23 40 -63 62t-94 22q-65 -1 -105 -26q-41 -25 -57 -59v72h-149q1 -20 1 -40v-40v-445h156zM401 596l106 119h-137l-47 -51l-48 51h-137l104 -119h159z" />
    <glyph glyph-name="napostrophe" unicode="&#x149;" horiz-adv-x="742" 
d="M344 0v269q0 72 24 110q24 37 75 37q50 0 69 -42q18 -41 17 -120v-254h156v269q1 66 -5 109q-5 43 -25 76q-23 40 -63 62t-94 22q-65 -1 -105 -26q-41 -25 -57 -59v72h-149q1 -20 1 -40v-40v-445h156zM215 715h-155l-72 -255h134z" />
    <glyph glyph-name="Eng" unicode="&#x14a;" horiz-adv-x="767" 
d="M693 715h-151v-316v-110q1 -52 3 -97h-1l-30 69q-19 42 -46 96l-182 358h-212v-715h151v292v120q0 62 -2 107h1q12 -33 40 -90l65 -129l155 -300h47q-9 -58 -66 -58q-35 1 -49 18q-15 17 -18 40h-159q7 -88 61 -139q55 -52 159 -53q128 1 182 73q54 73 52 209v625z" />
    <glyph glyph-name="eng" unicode="&#x14b;" horiz-adv-x="616" 
d="M403 4q1 -43 -17 -63q-19 -20 -63 -20h-7q-4 0 -10 1v-108q16 -3 34 -4q19 -2 36 -2q103 -1 144 44t39 148v269q1 66 -5 109q-5 43 -25 76q-23 40 -63 62t-94 22q-65 -1 -105 -26q-41 -25 -57 -59v72h-149q1 -20 1 -40v-40v-445h156v269q0 72 24 110q24 37 75 37
q50 0 69 -42q18 -41 17 -120v-250z" />
    <glyph glyph-name="Omacron" unicode="&#x14c;" horiz-adv-x="797" 
d="M398 728q-164 -2 -262 -100q-99 -99 -101 -271q2 -175 100 -272q97 -97 262 -98q167 1 265 98t100 272q-2 172 -101 271q-98 98 -263 100v0zM398 128q-91 1 -141 62t-51 166q1 109 51 172q50 62 141 63q90 -1 140 -63q50 -63 51 -172q-1 -105 -51 -166t-140 -62v0z
M264 765h273v93h-273v-93z" />
    <glyph glyph-name="omacron" unicode="&#x14d;" horiz-adv-x="628" 
d="M313 543q-128 -2 -204 -78t-78 -202q1 -126 77 -201q75 -76 206 -78q131 2 206 78q75 75 77 200q-2 127 -78 203q-77 76 -206 78v0zM312 420q60 -1 91 -43q30 -43 30 -115q0 -73 -30 -113q-30 -41 -90 -42q-60 1 -90 42q-31 41 -31 114q0 72 31 114t89 43v0zM175 606h273
v93h-273v-93z" />
    <glyph glyph-name="Obreve" unicode="&#x14e;" horiz-adv-x="797" 
d="M398 728q-164 -2 -262 -100q-99 -99 -101 -271q2 -175 100 -272q97 -97 262 -98q167 1 265 98t100 272q-2 172 -101 271q-98 98 -263 100v0zM398 128q-91 1 -141 62t-51 166q1 109 51 172q50 62 141 63q90 -1 140 -63q50 -63 51 -172q-1 -105 -51 -166t-140 -62v0z
M398 745q63 0 101 34q37 34 46 97h-94q-5 -18 -17 -29q-13 -12 -36 -12t-36 12q-13 11 -17 29h-95q9 -63 47 -97t101 -34v0z" />
    <glyph glyph-name="obreve" unicode="&#x14f;" horiz-adv-x="628" 
d="M313 543q-128 -2 -204 -78t-78 -202q1 -126 77 -201q75 -76 206 -78q131 2 206 78q75 75 77 200q-2 127 -78 203q-77 76 -206 78v0zM312 420q60 -1 91 -43q30 -43 30 -115q0 -73 -30 -113q-30 -41 -90 -42q-60 1 -90 42q-31 41 -31 114q0 72 31 114t89 43v0zM316 584
q63 0 101 34q37 34 46 97h-94q-5 -18 -17 -29q-13 -12 -36 -12t-36 12q-13 11 -17 29h-95q9 -63 47 -97t101 -34v0z" />
    <glyph glyph-name="Ohungarumlaut" unicode="&#x150;" horiz-adv-x="797" 
d="M398 728q-164 -2 -262 -100q-99 -99 -101 -271q2 -175 100 -272q97 -97 262 -98q167 1 265 98t100 272q-2 172 -101 271q-98 98 -263 100v0zM398 128q-91 1 -141 62t-51 166q1 109 51 172q50 62 141 63q90 -1 140 -63q50 -63 51 -172q-1 -105 -51 -166t-140 -62v0z
M332 761l140 115h-190l-105 -115h155zM581 761l140 115h-190l-105 -115h155z" />
    <glyph glyph-name="ohungarumlaut" unicode="&#x151;" horiz-adv-x="628" 
d="M313 543q-128 -2 -204 -78t-78 -202q1 -126 77 -201q75 -76 206 -78q131 2 206 78q75 75 77 200q-2 127 -78 203q-77 76 -206 78v0zM312 420q60 -1 91 -43q30 -43 30 -115q0 -73 -30 -113q-30 -41 -90 -42q-60 1 -90 42q-31 41 -31 114q0 72 31 114t89 43v0zM247 596
l142 119h-190l-107 -119h155zM496 596l142 119h-190l-107 -119h155z" />
    <glyph glyph-name="OE" unicode="&#x152;" horiz-adv-x="1094" 
d="M737 292h285v138h-285v145h310v140h-468v-40q-37 24 -84 38t-107 14q-164 -3 -258 -104q-93 -102 -95 -267q1 -164 92 -265q91 -102 261 -105q60 0 107 14q47 13 84 37v-37h472v140h-314v152zM396 128q-91 1 -140 62t-50 166q1 109 50 172q49 62 140 63q90 -1 139 -63
q49 -63 50 -172q-1 -105 -50 -166t-139 -62v0z" />
    <glyph glyph-name="oe" unicode="&#x153;" horiz-adv-x="983" 
d="M790 156q-14 -28 -38 -41q-25 -14 -60 -14q-52 0 -84 33q-32 32 -38 92h386v9q0 4 1 9v8q0 131 -68 210q-67 79 -199 81q-57 0 -104 -19q-48 -19 -83 -52q-36 33 -83 52q-48 19 -108 19q-128 -2 -203 -78t-77 -202q1 -126 76 -201q74 -76 205 -78q59 0 106 17
q46 18 82 50q35 -32 82 -50q46 -17 104 -17q106 1 172 47q66 47 90 125h-159zM311 420q60 -1 90 -43q29 -43 29 -115q0 -73 -29 -113q-29 -41 -89 -42q-60 1 -89 42q-30 41 -30 114q0 72 30 114t88 43v0zM574 323q7 52 37 80q30 29 78 29q49 0 77 -29q28 -28 34 -80h-226z
" />
    <glyph glyph-name="Racute" unicode="&#x154;" horiz-adv-x="648" 
d="M237 258h61l151 -258h184l-179 286q64 20 110 73t48 145q0 52 -21 95q-21 42 -60 72q-38 26 -84 35q-47 10 -109 9h-264v-715h163v258zM237 576h81q65 1 100 -21q34 -22 34 -72q0 -48 -33 -71q-32 -23 -90 -23h-92v187zM365 761l139 115h-197l-104 -115h162z" />
    <glyph glyph-name="racute" unicode="&#x155;" horiz-adv-x="400" 
d="M62 0h156v165q-3 119 19 176q23 57 106 57q11 0 21 -1t20 -3v142q-5 1 -13 1q-8 1 -19 1q-51 0 -88 -23q-38 -23 -58 -73h-2q0 13 1 29t1 54h-145q1 -25 1 -48v-47v-430zM223 596l141 119h-205l-104 -119h168z" />
    <glyph glyph-name="uni0156" unicode="&#x156;" horiz-adv-x="648" 
d="M237 258h61l151 -258h184l-179 286q64 20 110 73t48 145q0 52 -21 95q-21 42 -60 72q-38 26 -84 35q-47 10 -109 9h-264v-715h163v258zM237 576h81q65 1 100 -21q34 -22 34 -72q0 -48 -33 -71q-32 -23 -90 -23h-92v187zM173 -163h163l76 114h-146z" />
    <glyph glyph-name="uni0157" unicode="&#x157;" horiz-adv-x="400" 
d="M62 0h156v165q-3 119 19 176q23 57 106 57q11 0 21 -1t20 -3v142q-5 1 -13 1q-8 1 -19 1q-51 0 -88 -23q-38 -23 -58 -73h-2q0 13 1 29t1 54h-145q1 -25 1 -48v-47v-430zM-5 -163h163l76 114h-146z" />
    <glyph glyph-name="Rcaron" unicode="&#x158;" horiz-adv-x="648" 
d="M237 258h61l151 -258h184l-179 286q64 20 110 73t48 145q0 52 -21 95q-21 42 -60 72q-38 26 -84 35q-47 10 -109 9h-264v-715h163v258zM237 576h81q65 1 100 -21q34 -22 34 -72q0 -48 -33 -71q-32 -23 -90 -23h-92v187zM396 761l106 115h-137l-47 -51l-48 51h-137
l103 -115h160z" />
    <glyph glyph-name="rcaron" unicode="&#x159;" horiz-adv-x="400" 
d="M62 0h156v165q-3 119 19 176q23 57 106 57q11 0 21 -1t20 -3v142q-5 1 -13 1q-8 1 -19 1q-51 0 -88 -23q-38 -23 -58 -73h-2q0 13 1 29t1 54h-145q1 -25 1 -48v-47v-430zM261 596l106 119h-137l-47 -51l-48 51h-137l104 -119h159z" />
    <glyph glyph-name="Sacute" unicode="&#x15a;" horiz-adv-x="631" 
d="M27 217q6 -109 81 -169t206 -61q131 1 208 60q76 59 78 163q0 93 -58 141q-59 49 -180 80l-55 16q-42 11 -65 28q-23 16 -24 51q0 33 24 52q24 20 69 20q48 0 75 -22q26 -22 34 -63h164q-7 105 -78 160q-70 55 -189 55q-124 -1 -196 -59t-74 -155q-1 -83 52 -133
q52 -50 169 -82l49 -14q58 -14 86 -31t28 -52q-1 -39 -30 -61t-80 -22q-111 0 -126 98h-168zM375 761l139 115h-197l-104 -115h162z" />
    <glyph glyph-name="sacute" unicode="&#x15b;" horiz-adv-x="560" 
d="M24 172q12 -96 76 -142t186 -46q118 1 182 46q63 44 64 124q1 67 -43 104q-45 36 -146 61l-35 9q-57 13 -82 25t-25 36q0 21 19 33t54 12q38 0 61 -16t32 -45h152q-10 86 -74 128t-166 42q-114 -1 -175 -45q-60 -44 -61 -119q0 -67 43 -102q44 -36 130 -58l67 -18
q43 -10 65 -22q23 -11 23 -35q-1 -23 -23 -36q-23 -13 -60 -13q-88 0 -103 77h-161zM333 596l141 119h-205l-104 -119h168z" />
    <glyph glyph-name="Scircumflex" unicode="&#x15c;" horiz-adv-x="631" 
d="M27 217q6 -109 81 -169t206 -61q131 1 208 60q76 59 78 163q0 93 -58 141q-59 49 -180 80l-55 16q-42 11 -65 28q-23 16 -24 51q0 33 24 52q24 20 69 20q48 0 75 -22q26 -22 34 -63h164q-7 105 -78 160q-70 55 -189 55q-124 -1 -196 -59t-74 -155q-1 -83 52 -133
q52 -50 169 -82l49 -14q58 -14 86 -31t28 -52q-1 -39 -30 -61t-80 -22q-111 0 -126 98h-168zM237 876l-103 -115h137l48 51l47 -51h137l-106 115h-160z" />
    <glyph glyph-name="scircumflex" unicode="&#x15d;" horiz-adv-x="560" 
d="M24 172q12 -96 76 -142t186 -46q118 1 182 46q63 44 64 124q1 67 -43 104q-45 36 -146 61l-35 9q-57 13 -82 25t-25 36q0 21 19 33t54 12q38 0 61 -16t32 -45h152q-10 86 -74 128t-166 42q-114 -1 -175 -45q-60 -44 -61 -119q0 -67 43 -102q44 -36 130 -58l67 -18
q43 -10 65 -22q23 -11 23 -35q-1 -23 -23 -36q-23 -13 -60 -13q-88 0 -103 77h-161zM201 715l-104 -119h137l48 51l47 -51h137l-106 119h-159z" />
    <glyph glyph-name="Scedilla" unicode="&#x15e;" horiz-adv-x="631" 
d="M27 217q6 -109 81 -169t206 -61q131 1 208 60q76 59 78 163q0 93 -58 141q-59 49 -180 80l-55 16q-42 11 -65 28q-23 16 -24 51q0 33 24 52q24 20 69 20q48 0 75 -22q26 -22 34 -63h164q-7 105 -78 160q-70 55 -189 55q-124 -1 -196 -59t-74 -155q-1 -83 52 -133
q52 -50 169 -82l49 -14q58 -14 86 -31t28 -52q-1 -39 -30 -61t-80 -22q-111 0 -126 98h-168zM161 -163h163l76 114h-146z" />
    <glyph glyph-name="scedilla" unicode="&#x15f;" horiz-adv-x="560" 
d="M24 172q12 -96 76 -142t186 -46q118 1 182 46q63 44 64 124q1 67 -43 104q-45 36 -146 61l-35 9q-57 13 -82 25t-25 36q0 21 19 33t54 12q38 0 61 -16t32 -45h152q-10 86 -74 128t-166 42q-114 -1 -175 -45q-60 -44 -61 -119q0 -67 43 -102q44 -36 130 -58l67 -18
q43 -10 65 -22q23 -11 23 -35q-1 -23 -23 -36q-23 -13 -60 -13q-88 0 -103 77h-161zM131 -163h163l76 114h-146z" />
    <glyph glyph-name="Scaron" unicode="&#x160;" horiz-adv-x="631" 
d="M27 217q6 -109 81 -169t206 -61q131 1 208 60q76 59 78 163q0 93 -58 141q-59 49 -180 80l-55 16q-42 11 -65 28q-23 16 -24 51q0 33 24 52q24 20 69 20q48 0 75 -22q26 -22 34 -63h164q-7 105 -78 160q-70 55 -189 55q-124 -1 -196 -59t-74 -155q-1 -83 52 -133
q52 -50 169 -82l49 -14q58 -14 86 -31t28 -52q-1 -39 -30 -61t-80 -22q-111 0 -126 98h-168zM399 761l106 115h-137l-47 -51l-48 51h-137l103 -115h160z" />
    <glyph glyph-name="scaron" unicode="&#x161;" horiz-adv-x="560" 
d="M24 172q12 -96 76 -142t186 -46q118 1 182 46q63 44 64 124q1 67 -43 104q-45 36 -146 61l-35 9q-57 13 -82 25t-25 36q0 21 19 33t54 12q38 0 61 -16t32 -45h152q-10 86 -74 128t-166 42q-114 -1 -175 -45q-60 -44 -61 -119q0 -67 43 -102q44 -36 130 -58l67 -18
q43 -10 65 -22q23 -11 23 -35q-1 -23 -23 -36q-23 -13 -60 -13q-88 0 -103 77h-161zM360 596l106 119h-137l-47 -51l-48 51h-137l104 -119h159z" />
    <glyph glyph-name="uni0162" unicode="&#x162;" horiz-adv-x="586" 
d="M138 -163h163l76 114h-146zM375 0v574h189v141h-542v-141h189v-574h164z" />
    <glyph glyph-name="uni0163" unicode="&#x163;" horiz-adv-x="375" 
d="M72 -163h163l76 114h-146zM94 412v-238q-1 -108 44 -148q44 -40 139 -38q20 0 36 2q15 2 26 4v115q-13 -3 -27 -3q-44 -1 -54 28t-8 99v179h95v113h-95v140h-156v-140h-79v-113h79z" />
    <glyph glyph-name="Tcaron" unicode="&#x164;" horiz-adv-x="586" 
d="M375 0v574h189v141h-542v-141h189v-574h164zM372 761l106 115h-137l-47 -51l-48 51h-137l103 -115h160z" />
    <glyph glyph-name="tcaron" unicode="&#x165;" horiz-adv-x="496" 
d="M94 412v-238q-1 -108 44 -148q44 -40 139 -38q20 0 36 2q15 2 26 4v115q-13 -3 -27 -3q-44 -1 -54 28t-8 99v179h95v113h-95v140h-156v-140h-79v-113h79zM600 715h-155l-72 -255h134z" />
    <glyph glyph-name="Tbar" unicode="&#x166;" horiz-adv-x="600" 
d="M78 294h140v-294h164v294h143v138h-143v142h189v141h-542v-141h189v-142h-140v-138z" />
    <glyph glyph-name="tbar" unicode="&#x167;" horiz-adv-x="378" 
d="M97 412v-66h-79v-108h79v-64q-1 -108 44 -148q44 -40 139 -38q20 0 36 2q15 2 26 4v115q-13 -3 -27 -3q-44 -1 -54 28t-8 99v5h95v108h-95v66h95v113h-95v140h-156v-140h-79v-113h79z" />
    <glyph glyph-name="Utilde" unicode="&#x168;" horiz-adv-x="708" 
d="M354 128q-60 0 -91 41q-32 41 -32 125v421h-164v-426q0 -68 14 -117q14 -50 42 -86q74 -98 231 -98q79 0 137 25t94 73q28 36 42 86q14 49 14 117v426h-164v-421q0 -84 -31 -125q-32 -41 -92 -41v0zM357 777q17 -8 35 -14t38 -6q48 1 74 37q25 36 25 89h-81
q-3 -18 -8 -26q-6 -8 -20 -8q-8 0 -18 4q-10 3 -30 13q-17 8 -33 14q-15 6 -36 6q-52 -2 -78 -37q-27 -35 -27 -85h84q3 31 28 31q9 0 19 -4l28 -14v0z" />
    <glyph glyph-name="utilde" unicode="&#x169;" horiz-adv-x="612" 
d="M394 525v-269q0 -72 -23 -109q-23 -38 -74 -38q-50 0 -67 42q-18 41 -17 120v254h-156v-269q-1 -66 5 -109q5 -43 25 -76q23 -40 63 -62t94 -22q65 1 103 26q39 25 55 59v-72h149q-1 20 -1 40v40v445h-156zM303 609q17 -8 35 -14t38 -6q48 1 74 37q25 36 25 89h-81
q-3 -18 -8 -26q-6 -8 -20 -8q-8 0 -18 4q-10 3 -30 13q-17 8 -33 14q-15 6 -36 6q-52 -2 -78 -37q-27 -35 -27 -85h84q3 31 28 31q9 0 19 -4l28 -14v0z" />
    <glyph glyph-name="Umacron" unicode="&#x16a;" horiz-adv-x="708" 
d="M354 128q-60 0 -91 41q-32 41 -32 125v421h-164v-426q0 -68 14 -117q14 -50 42 -86q74 -98 231 -98q79 0 137 25t94 73q28 36 42 86q14 49 14 117v426h-164v-421q0 -84 -31 -125q-32 -41 -92 -41v0zM220 765h273v93h-273v-93z" />
    <glyph glyph-name="umacron" unicode="&#x16b;" horiz-adv-x="612" 
d="M394 525v-269q0 -72 -23 -109q-23 -38 -74 -38q-50 0 -67 42q-18 41 -17 120v254h-156v-269q-1 -66 5 -109q5 -43 25 -76q23 -40 63 -62t94 -22q65 1 103 26q39 25 55 59v-72h149q-1 20 -1 40v40v445h-156zM171 606h273v93h-273v-93z" />
    <glyph glyph-name="Ubreve" unicode="&#x16c;" horiz-adv-x="708" 
d="M354 128q-60 0 -91 41q-32 41 -32 125v421h-164v-426q0 -68 14 -117q14 -50 42 -86q74 -98 231 -98q79 0 137 25t94 73q28 36 42 86q14 49 14 117v426h-164v-421q0 -84 -31 -125q-32 -41 -92 -41v0zM358 745q63 0 101 34q37 34 46 97h-94q-5 -18 -17 -29q-13 -12 -36 -12
t-36 12q-13 11 -17 29h-95q9 -63 47 -97t101 -34v0z" />
    <glyph glyph-name="ubreve" unicode="&#x16d;" horiz-adv-x="612" 
d="M394 525v-269q0 -72 -23 -109q-23 -38 -74 -38q-50 0 -67 42q-18 41 -17 120v254h-156v-269q-1 -66 5 -109q5 -43 25 -76q23 -40 63 -62t94 -22q65 1 103 26q39 25 55 59v-72h149q-1 20 -1 40v40v445h-156zM313 584q63 0 101 34q37 34 46 97h-94q-5 -18 -17 -29
q-13 -12 -36 -12t-36 12q-13 11 -17 29h-95q9 -63 47 -97t101 -34v0z" />
    <glyph glyph-name="Uring" unicode="&#x16e;" horiz-adv-x="708" 
d="M354 128q-60 0 -91 41q-32 41 -32 125v421h-164v-426q0 -68 14 -117q14 -50 42 -86q74 -98 231 -98q79 0 137 25t94 73q28 36 42 86q14 49 14 117v426h-164v-421q0 -84 -31 -125q-32 -41 -92 -41v0zM356 738q47 1 77 32q31 31 32 77q-1 45 -31 76q-31 30 -77 31
q-45 -1 -76 -31q-31 -31 -32 -76q1 -46 31 -77t76 -32v0zM317 847q0 16 11 27q10 12 28 12t29 -12q11 -11 11 -27q0 -18 -11 -29q-11 -12 -29 -12t-28 12q-11 11 -11 29v0z" />
    <glyph glyph-name="uring" unicode="&#x16f;" horiz-adv-x="612" 
d="M394 525v-269q0 -72 -23 -109q-23 -38 -74 -38q-50 0 -67 42q-18 41 -17 120v254h-156v-269q-1 -66 5 -109q5 -43 25 -76q23 -40 63 -62t94 -22q65 1 103 26q39 25 55 59v-72h149q-1 20 -1 40v40v445h-156zM311 568q47 1 77 32q31 31 32 77q-1 45 -31 76q-31 30 -77 31
q-45 -1 -76 -31q-31 -31 -32 -76q1 -46 31 -77t76 -32v0zM272 677q0 16 11 27q10 12 28 12t29 -12q11 -11 11 -27q0 -18 -11 -29q-11 -12 -29 -12t-28 12q-11 11 -11 29v0z" />
    <glyph glyph-name="Uhungarumlaut" unicode="&#x170;" horiz-adv-x="708" 
d="M354 128q-60 0 -91 41q-32 41 -32 125v421h-164v-426q0 -68 14 -117q14 -50 42 -86q74 -98 231 -98q79 0 137 25t94 73q28 36 42 86q14 49 14 117v426h-164v-421q0 -84 -31 -125q-32 -41 -92 -41v0zM290 761l140 115h-190l-105 -115h155zM539 761l140 115h-190l-105 -115
h155z" />
    <glyph glyph-name="uhungarumlaut" unicode="&#x171;" horiz-adv-x="612" 
d="M394 525v-269q0 -72 -23 -109q-23 -38 -74 -38q-50 0 -67 42q-18 41 -17 120v254h-156v-269q-1 -66 5 -109q5 -43 25 -76q23 -40 63 -62t94 -22q65 1 103 26q39 25 55 59v-72h149q-1 20 -1 40v40v445h-156zM240 596l142 119h-190l-107 -119h155zM489 596l142 119h-190
l-107 -119h155z" />
    <glyph glyph-name="Uogonek" unicode="&#x172;" horiz-adv-x="708" 
d="M354 128q-60 0 -91 41q-32 41 -32 125v421h-164v-426q0 -68 14 -117q14 -50 42 -86q74 -98 231 -98q79 0 137 25t94 73q28 36 42 86q14 49 14 117v426h-164v-421q0 -84 -31 -125q-32 -41 -92 -41v0zM404 -49h-146l76 -114h163z" />
    <glyph glyph-name="uogonek" unicode="&#x173;" horiz-adv-x="612" 
d="M394 525v-269q0 -72 -23 -109q-23 -38 -74 -38q-50 0 -67 42q-18 41 -17 120v254h-156v-269q-1 -66 5 -109q5 -43 25 -76q23 -40 63 -62t94 -22q65 1 103 26q39 25 55 59v-72h149q-1 20 -1 40v40v445h-156zM350 -49h-146l76 -114h163z" />
    <glyph glyph-name="Wcircumflex" unicode="&#x174;" horiz-adv-x="966" 
d="M798 715l-72 -413q-9 -48 -14 -81t-11 -82h-4q-5 45 -16 111t-26 147l-59 318h-211l-65 -334l-25 -132t-17 -108h-4q-8 53 -11 83q-4 30 -12 78l-14 79q-15 85 -27 167q-13 83 -28 167h-166l145 -715h219l78 411q9 49 14 80l13 84h3q8 -54 12 -89q5 -34 14 -80l75 -406
h215l73 358l73 357h-152zM406 876l-103 -115h137l48 51l47 -51h137l-106 115h-160z" />
    <glyph glyph-name="wcircumflex" unicode="&#x175;" horiz-adv-x="856" 
d="M348 0l39 161l21 91q9 39 18 85h3q6 -39 17 -84q10 -45 22 -93l39 -160h189l74 262l74 263h-158l-42 -186q-12 -54 -22 -106l-20 -97h-2l-21 104l-22 100l-44 185h-169l-41 -182q-15 -61 -23 -105l-20 -100h-3q-11 58 -18 99q-7 42 -20 95l-46 193h-160l73 -263l74 -262
h188zM349 715l-104 -119h137l48 51l47 -51h137l-106 119h-159z" />
    <glyph glyph-name="Ycircumflex" unicode="&#x176;" horiz-adv-x="622" 
d="M629 715h-176l-81 -172t-54 -123h-2l-67 146l-70 149h-183l72 -137l76 -147l85 -163v-268h164v268zM236 876l-103 -115h137l48 51l47 -51h137l-106 115h-160z" />
    <glyph glyph-name="ycircumflex" unicode="&#x177;" horiz-adv-x="550" 
d="M296 -180l122 353l124 352h-161l-54 -187q-29 -100 -45 -167h-5l-48 158l-61 196h-166l96 -259l99 -259l-14 -44l-21 -63l-26 -80h160zM202 715l-104 -119h137l48 51l47 -51h137l-106 119h-159z" />
    <glyph glyph-name="Ydieresis" unicode="&#x178;" horiz-adv-x="622" 
d="M629 715h-176l-81 -172t-54 -123h-2l-67 146l-70 149h-183l72 -137l76 -147l85 -163v-268h164v268zM152 754h124v119h-124v-119zM348 754h123v119h-123v-119z" />
    <glyph glyph-name="Zacute" unicode="&#x179;" horiz-adv-x="597" 
d="M35 0h529v141h-210h-65q-31 0 -65 -1l50 66l55 75l144 199l47 64l28 39v132h-500v-141h186h63t61 1l-101 -140l-222 -304v-131zM360 761l139 115h-197l-104 -115h162z" />
    <glyph glyph-name="zacute" unicode="&#x17a;" horiz-adv-x="527" 
d="M35 0h460v117h-142q-38 0 -69 -1q-31 0 -64 -1v1l77 88l183 207v114h-436v-116h128h63q29 0 60 2l1 -1l-105 -119l-156 -177v-114zM326 596l141 119h-205l-104 -119h168z" />
    <glyph glyph-name="Zdotaccent" unicode="&#x17b;" horiz-adv-x="597" 
d="M35 0h529v141h-210h-65q-31 0 -65 -1l50 66l55 75l144 199l47 64l28 39v132h-500v-141h186h63t61 1l-101 -140l-222 -304v-131zM236 761h122v115h-122v-115z" />
    <glyph glyph-name="zdotaccent" unicode="&#x17c;" horiz-adv-x="527" 
d="M35 0h460v117h-142q-38 0 -69 -1q-31 0 -64 -1v1l77 88l183 207v114h-436v-116h128h63q29 0 60 2l1 -1l-105 -119l-156 -177v-114zM201 596h124v119h-124v-119z" />
    <glyph glyph-name="Zcaron" unicode="&#x17d;" horiz-adv-x="597" 
d="M35 0h529v141h-210h-65q-31 0 -65 -1l50 66l55 75l144 199l47 64l28 39v132h-500v-141h186h63t61 1l-101 -140l-222 -304v-131zM388 761l106 115h-137l-47 -51l-48 51h-137l103 -115h160z" />
    <glyph glyph-name="zcaron" unicode="&#x17e;" horiz-adv-x="527" 
d="M35 0h460v117h-142q-38 0 -69 -1q-31 0 -64 -1v1l77 88l183 207v114h-436v-116h128h63q29 0 60 2l1 -1l-105 -119l-156 -177v-114zM347 596l106 119h-137l-47 -51l-48 51h-137l104 -119h159z" />
    <glyph glyph-name="uni0186" unicode="&#x186;" horiz-adv-x="763" 
d="M23 224q36 -114 124 -175q87 -61 219 -62q165 1 262 98q98 97 100 272q-2 172 -101 271q-98 98 -263 100q-132 -1 -220 -65t-123 -180l179 -1q23 52 64 80q41 29 101 29q91 -1 141 -63q50 -63 51 -172q-1 -105 -51 -166t-141 -62q-57 0 -96 26q-39 25 -63 70h-183z" />
    <glyph glyph-name="uni018F" unicode="&#x18f;" horiz-adv-x="779" 
d="M27 404q-1 -11 -1 -20q-1 -10 -1 -21q-1 -158 86 -265t269 -111q176 3 270 106q93 102 94 265q-2 167 -97 267q-96 100 -262 103q-134 -3 -221 -65q-87 -63 -120 -156l180 -5q20 35 57 61q38 26 101 27q82 0 132 -48q49 -48 58 -138h-545zM566 288q-8 -65 -55 -115
q-46 -49 -129 -52q-83 1 -126 46t-45 121h355z" />
    <glyph glyph-name="uni0190" unicode="&#x190;" horiz-adv-x="601" 
d="M422 217q-4 -50 -32 -77q-28 -26 -79 -26q-55 1 -82 28q-27 26 -27 72q0 54 38 77q37 24 106 23h13v127q-63 0 -97 21q-34 20 -34 68q1 34 23 54q23 20 62 20q38 0 62 -20q24 -21 26 -65h155q-3 97 -69 155q-65 57 -180 58q-111 -1 -176 -53q-65 -53 -66 -141
q1 -64 31 -99q31 -34 83 -51v-2q-53 -14 -97 -56t-47 -126q1 -100 74 -159q73 -60 202 -61q125 1 197 61t76 172h-162z" />
    <glyph glyph-name="florin" unicode="&#x192;" horiz-adv-x="473" 
d="M44 359h107l-37 -275q-7 -62 -24 -99q-18 -37 -61 -38q-9 0 -21 1q-12 2 -27 7l-14 -122q21 -7 43 -9q22 -3 40 -3q106 -1 153 61q48 62 66 203l38 274h105l18 124h-106q7 56 25 84q17 27 54 27q12 0 22 -2q9 -3 16 -5l16 134q-13 3 -30 5q-18 1 -36 1q-104 -1 -156 -63
q-51 -62 -66 -177l-1 -4h-106z" />
    <glyph glyph-name="uni019D" unicode="&#x19d;" horiz-adv-x="767" 
d="M74 715v-711q1 -43 -17 -63q-19 -20 -63 -20h-7q-4 0 -10 1v-108q31 -6 65 -6q103 -1 144 44t39 149v291v120q0 62 -2 107h1q12 -33 40 -90l65 -129l155 -300h209v715h-151v-316v-110q1 -52 3 -97h-1l-30 69q-19 42 -46 96l-182 358h-212z" />
    <glyph glyph-name="uni019F" unicode="&#x19f;" horiz-adv-x="797" 
d="M398 728q-164 -2 -262 -100q-99 -99 -101 -271q2 -175 100 -272q97 -97 262 -98q167 1 265 98t100 272q-2 172 -101 271q-98 98 -263 100v0zM398 128q-76 1 -124 44q-47 43 -62 120h371q-15 -77 -62 -120q-48 -43 -123 -44v0zM398 591q72 -1 120 -42q47 -42 63 -118h-368
q17 76 64 118q47 41 121 42v0z" />
    <glyph glyph-name="Ohorn" unicode="&#x1a0;" horiz-adv-x="797" 
d="M398 728q-164 -2 -262 -100q-99 -99 -101 -271q2 -175 100 -272q97 -97 262 -98q167 1 265 98t100 272q-2 172 -101 271q-98 98 -263 100v0zM398 128q-91 1 -141 62t-51 166q1 109 51 172q50 62 141 63q90 -1 140 -63q50 -63 51 -172q-1 -105 -51 -166t-140 -62v0z
M775 906h-160l-55 -191h130z" />
    <glyph glyph-name="ohorn" unicode="&#x1a1;" horiz-adv-x="630" 
d="M313 543q-128 -2 -204 -78t-78 -202q1 -126 77 -201q75 -76 206 -78q131 2 206 78q75 75 77 200q-2 127 -78 203q-77 76 -206 78v0zM312 420q60 -1 91 -43q30 -43 30 -115q0 -73 -30 -113q-30 -41 -90 -42q-60 1 -90 42q-31 41 -31 114q0 72 31 114t89 43v0zM669 715
h-160l-55 -191h130z" />
    <glyph glyph-name="Uhorn" unicode="&#x1af;" horiz-adv-x="708" 
d="M637 906h-160l-55 -191h55v-421q0 -84 -31 -125q-32 -41 -92 -41t-91 41q-32 41 -32 125v421h-164v-426q0 -68 14 -117q14 -50 42 -86q74 -98 231 -98q79 0 137 25t94 73q28 36 42 86q14 49 14 117v426h-89z" />
    <glyph glyph-name="uhorn" unicode="&#x1b0;" horiz-adv-x="612" 
d="M563 715h-160l-55 -191h46v-268q0 -72 -23 -109q-23 -38 -74 -38q-50 0 -67 42q-18 41 -17 120v254h-156v-269q-1 -66 5 -109q5 -43 25 -76q23 -40 63 -62t94 -22q65 1 103 26q39 25 55 59v-72h149q-1 20 -1 40v40v445h-72z" />
    <glyph glyph-name="uni01C4" unicode="&#x1c4;" horiz-adv-x="1336" 
d="M74 0h176q98 -1 173 9q76 11 135 51q67 39 106 122q38 83 39 178q-2 165 -94 256q-93 91 -254 98q-26 1 -52 1h-51h-178v-715zM238 577h66q58 0 97 -13q63 -20 96 -71t33 -134q0 -87 -33 -138t-96 -69q-42 -13 -107 -13h-56v438zM774 0h529v141h-210h-65q-31 0 -65 -1
l50 66l55 75l144 199l47 64l28 39v132h-500v-141h186h63t61 1l-101 -140l-222 -304v-131zM1127 761l106 115h-137l-47 -51l-48 51h-137l103 -115h160z" />
    <glyph glyph-name="uni01C5" unicode="&#x1c5;" horiz-adv-x="1266" 
d="M74 0h176q98 -1 173 9q76 11 135 51q67 39 106 122q38 83 39 178q-2 165 -94 256q-93 91 -254 98q-26 1 -52 1h-51h-178v-715zM238 577h66q58 0 97 -13q63 -20 96 -71t33 -134q0 -87 -33 -138t-96 -69q-42 -13 -107 -13h-56v438zM774 0h460v117h-142q-38 0 -69 -1
q-31 0 -64 -1v1l77 88l183 207v114h-436v-116h128h63q29 0 60 2l1 -1l-105 -119l-156 -177v-114zM1086 596l106 119h-137l-47 -51l-48 51h-137l104 -119h159z" />
    <glyph glyph-name="uni01C6" unicode="&#x1c6;" horiz-adv-x="1168" 
d="M579 0v715h-156v-138q0 -21 1 -53v-54q-18 24 -56 46q-37 22 -102 24q-104 -1 -167 -75q-64 -73 -66 -203q1 -127 65 -200q63 -74 170 -75q67 2 108 28q40 26 57 55q-1 -14 -1 -33v-37h147zM316 421q54 -1 85 -42q31 -40 32 -111q0 -73 -30 -116t-87 -44q-57 1 -87 45
q-31 43 -31 112t31 112q30 43 87 44v0zM676 0h460v117h-142q-38 0 -69 -1q-31 0 -64 -1v1l77 88l183 207v114h-436v-116h128h63q29 0 60 2l1 -1l-105 -119l-156 -177v-114zM988 596l106 119h-137l-47 -51l-48 51h-137l104 -119h159z" />
    <glyph glyph-name="uni01C7" unicode="&#x1c7;" horiz-adv-x="1097" 
d="M74 715v-715h464v141h-300v574h-164zM800 -15q128 1 179 73q52 73 50 209v448h-165v-446q1 -72 -12 -107q-13 -34 -56 -34q-34 1 -47 20q-13 18 -14 43h-160q0 -97 54 -151q55 -54 171 -55v0z" />
    <glyph glyph-name="uni01C8" unicode="&#x1c8;" horiz-adv-x="839" 
d="M74 715v-715h464v141h-300v574h-164zM777 525h-156v-521q1 -43 -17 -63q-19 -20 -63 -20h-7q-4 0 -10 1v-108q16 -3 34 -4q19 -2 36 -2q103 -1 144 44t39 149v524zM621 587h156v128h-156v-128z" />
    <glyph glyph-name="uni01C9" unicode="&#x1c9;" horiz-adv-x="566" 
d="M221 0v715h-156v-715h156zM504 525h-156v-521q1 -43 -17 -63q-19 -20 -63 -20h-7q-4 0 -10 1v-108q16 -3 34 -4q19 -2 36 -2q103 -1 144 44t39 149v524zM348 587h156v128h-156v-128z" />
    <glyph glyph-name="uni01CA" unicode="&#x1ca;" horiz-adv-x="1305" 
d="M693 715h-151v-316v-110q1 -52 3 -97h-1l-30 69q-19 42 -46 96l-182 358h-212v-715h151v292v120q0 62 -2 107h1q12 -33 40 -90l65 -129l155 -300h209v715zM1008 -15q128 1 179 73q52 73 50 209v448h-165v-446q1 -72 -12 -107q-13 -34 -56 -34q-34 1 -47 20q-13 18 -14 43
h-160q0 -97 54 -151q55 -54 171 -55v0z" />
    <glyph glyph-name="uni01CB" unicode="&#x1cb;" horiz-adv-x="1047" 
d="M693 715h-151v-316v-110q1 -52 3 -97h-1l-30 69q-19 42 -46 96l-182 358h-212v-715h151v292v120q0 62 -2 107h1q12 -33 40 -90l65 -129l155 -300h209v715zM985 525h-156v-521q1 -43 -17 -63q-19 -20 -63 -20h-7q-4 0 -10 1v-108q16 -3 34 -4q19 -2 36 -2q103 -1 144 44
t39 149v524zM829 587h156v128h-156v-128z" />
    <glyph glyph-name="uni01CC" unicode="&#x1cc;" horiz-adv-x="896" 
d="M218 0v269q0 72 24 110q24 37 75 37q50 0 69 -42q18 -41 17 -120v-254h156v269q1 66 -5 109q-5 43 -25 76q-23 40 -63 62t-94 22q-65 -1 -105 -26q-41 -25 -57 -59v72h-149q1 -20 1 -40v-40v-445h156zM834 525h-156v-521q1 -43 -17 -63q-19 -20 -63 -20h-7q-4 0 -10 1
v-108q16 -3 34 -4q19 -2 36 -2q103 -1 144 44t39 149v524zM678 587h156v128h-156v-128z" />
    <glyph glyph-name="uni01F1" unicode="&#x1f1;" horiz-adv-x="1325" 
d="M74 0h176q98 -1 173 9q76 11 135 51q67 39 106 122q38 83 39 178q-2 165 -94 256q-93 91 -254 98q-26 1 -52 1h-51h-178v-715zM238 577h66q58 0 97 -13q63 -20 96 -71t33 -134q0 -87 -33 -138t-96 -69q-42 -13 -107 -13h-56v438zM763 0h529v141h-210h-65q-31 0 -65 -1
l50 66l55 75l144 199l47 64l28 39v132h-500v-141h186h63t61 1l-101 -140l-222 -304v-131z" />
    <glyph glyph-name="uni01F2" unicode="&#x1f2;" horiz-adv-x="1266" 
d="M74 0h176q98 -1 173 9q76 11 135 51q67 39 106 122q38 83 39 178q-2 165 -94 256q-93 91 -254 98q-26 1 -52 1h-51h-178v-715zM238 577h66q58 0 97 -13q63 -20 96 -71t33 -134q0 -87 -33 -138t-96 -69q-42 -13 -107 -13h-56v438zM774 0h460v117h-142q-38 0 -69 -1
q-31 0 -64 -1v1l77 88l183 207v114h-436v-116h128h63q29 0 60 2l1 -1l-105 -119l-156 -177v-114z" />
    <glyph glyph-name="uni01F3" unicode="&#x1f3;" horiz-adv-x="1168" 
d="M579 0v715h-156v-138q0 -21 1 -53v-54q-18 24 -56 46q-37 22 -102 24q-104 -1 -167 -75q-64 -73 -66 -203q1 -127 65 -200q63 -74 170 -75q67 2 108 28q40 26 57 55q-1 -14 -1 -33v-37h147zM316 421q54 -1 85 -42q31 -40 32 -111q0 -73 -30 -116t-87 -44q-57 1 -87 45
q-31 43 -31 112t31 112q30 43 87 44v0zM676 0h460v117h-142q-38 0 -69 -1q-31 0 -64 -1v1l77 88l183 207v114h-436v-116h128h63q29 0 60 2l1 -1l-105 -119l-156 -177v-114z" />
    <glyph glyph-name="Aringacute" unicode="&#x1fa;" horiz-adv-x="720" 
d="M159 0l64 169h270l32 -85l31 -84h172l-133 356l-134 359h-197l-152 -392l-122 -323h169zM267 299l47 142q23 71 42 138h2q19 -64 41 -129l49 -151h-181zM356 730q47 1 77 32q31 31 32 77q-1 45 -31 76q-31 30 -77 31q-45 -1 -76 -31q-31 -31 -32 -76q1 -46 31 -77t76 -32
v0zM317 839q0 16 11 27q10 12 28 12t29 -12q11 -11 11 -27q0 -18 -11 -29q-11 -12 -29 -12t-28 12q-11 11 -11 29v0zM423 962l139 115h-197l-104 -115h162z" />
    <glyph glyph-name="aringacute" unicode="&#x1fb;" horiz-adv-x="575" 
d="M530 0q-8 32 -10 73q-1 40 -1 72v160q0 133 -58 186q-59 52 -173 50q-109 -1 -170 -49t-67 -131h150q4 36 25 55q21 20 62 20q45 0 65 -26q19 -27 19 -81q-8 0 -21 -1l-25 -2q-116 -8 -205 -46q-89 -39 -94 -134q1 -75 53 -115q52 -41 137 -41q70 1 108 22t61 47
q-1 -29 3 -59h141zM371 215q0 -60 -26 -92q-26 -33 -80 -33q-36 0 -57 16t-22 45q-1 35 36 53q37 17 123 26l27 3q-1 -5 -1 -9v-9v0zM295 556q47 1 77 32q31 31 32 77q-1 45 -31 76q-31 30 -77 31q-45 -1 -76 -31q-31 -31 -32 -76q1 -46 31 -77t76 -32v0zM256 665
q0 16 11 27q10 12 28 12t29 -12q11 -11 11 -27q0 -18 -11 -29q-11 -12 -29 -12t-28 12q-11 11 -11 29v0zM351 783l141 119h-205l-104 -119h168z" />
    <glyph glyph-name="AEacute" unicode="&#x1fc;" horiz-adv-x="994" 
d="M651 292h271v138h-274l-3 145h302v140h-554l-413 -715h172l95 169h232l4 -169h468v140h-297zM318 299l78 142l71 138h2q2 -64 3 -129t3 -151h-157zM685 761l139 115h-197l-104 -115h162z" />
    <glyph glyph-name="aeacute" unicode="&#x1fd;" horiz-adv-x="928" 
d="M736 156q-28 -55 -100 -55q-52 0 -85 33q-33 32 -39 92h389v9q0 4 1 9v8q0 131 -68 210q-67 79 -199 81q-51 0 -95 -16t-80 -43q-29 29 -73 43q-43 13 -100 13q-112 -1 -171 -49q-60 -48 -66 -130h151q4 33 25 53q22 20 60 20q45 0 65 -25q21 -26 21 -83q-9 0 -22 -1
l-25 -2q-116 -8 -205 -46q-88 -39 -93 -131q1 -75 51 -116q51 -41 145 -41q83 2 133 25q49 22 72 48q36 -38 88 -58q51 -20 115 -20q106 1 172 47q67 47 91 125h-158zM516 323q7 52 38 80q31 29 79 29q49 0 78 -29q29 -28 35 -80h-230zM371 233v-12q-3 -72 -31 -101t-75 -28
q-36 0 -57 15q-21 16 -21 45q-1 33 35 51t123 27zM524 596l141 119h-205l-104 -119h168z" />
    <glyph glyph-name="Oslashacute" unicode="&#x1fe;" horiz-adv-x="797" 
d="M398 728q-164 -2 -262 -100q-99 -99 -101 -271q0 -90 27 -159t77 -117l-46 -82l142 -77l45 80q54 -15 117 -15q167 1 265 98t100 272q0 93 -30 165t-87 120l41 73l-142 77l-43 -76q-48 12 -103 12v0zM398 128q-13 0 -23 1q-11 1 -21 3l206 361q29 -56 29 -137
q-1 -105 -51 -166t-140 -62v0zM206 356q1 109 51 172q50 62 141 63q17 0 30 -2l-200 -352q-11 26 -17 56q-5 29 -5 63v0zM478 761l139 115h-197l-104 -115h162z" />
    <glyph glyph-name="oslashacute" unicode="&#x1ff;" horiz-adv-x="628" 
d="M379 596l141 119h-205l-104 -119h168zM313 543q-128 -2 -204 -78t-78 -202q0 -64 21 -116t60 -90l-33 -57l122 -63l32 56q38 -9 81 -9q131 2 206 78q75 75 77 200q0 67 -24 121q-23 54 -66 92l34 58l-123 62l-34 -60q-17 4 -35 6q-17 2 -36 2v0zM433 262q0 -73 -30 -113
q-30 -41 -90 -42h-10t-10 1l130 226q10 -31 10 -72v0zM312 420q8 0 12 -1l-125 -220q-7 27 -7 64q0 72 31 114t89 43v0z" />
    <glyph glyph-name="uni0218" unicode="&#x218;" horiz-adv-x="631" 
d="M166 -163h163l76 114h-146zM27 217q6 -109 81 -169t206 -61q131 1 208 60q76 59 78 163q0 93 -58 141q-59 49 -180 80l-55 16q-42 11 -65 28q-23 16 -24 51q0 33 24 52q24 20 69 20q48 0 75 -22q26 -22 34 -63h164q-7 105 -78 160q-70 55 -189 55q-124 -1 -196 -59
t-74 -155q-1 -83 52 -133q52 -50 169 -82l49 -14q58 -14 86 -31t28 -52q-1 -39 -30 -61t-80 -22q-111 0 -126 98h-168z" />
    <glyph glyph-name="uni0219" unicode="&#x219;" horiz-adv-x="560" 
d="M125 -163h163l76 114h-146zM24 172q12 -96 76 -142t186 -46q118 1 182 46q63 44 64 124q1 67 -43 104q-45 36 -146 61l-35 9q-57 13 -82 25t-25 36q0 21 19 33t54 12q38 0 61 -16t32 -45h152q-10 86 -74 128t-166 42q-114 -1 -175 -45q-60 -44 -61 -119q0 -67 43 -102
q44 -36 130 -58l67 -18q43 -10 65 -22q23 -11 23 -35q-1 -23 -23 -36q-23 -13 -60 -13q-88 0 -103 77h-161z" />
    <glyph glyph-name="uni021A" unicode="&#x21a;" horiz-adv-x="586" 
d="M138 -163h163l76 114h-146zM375 0v574h189v141h-542v-141h189v-574h164z" />
    <glyph glyph-name="uni021B" unicode="&#x21b;" horiz-adv-x="375" 
d="M72 -163h163l76 114h-146zM94 412v-238q-1 -108 44 -148q44 -40 139 -38q20 0 36 2q15 2 26 4v115q-13 -3 -27 -3q-44 -1 -54 28t-8 99v179h95v113h-95v140h-156v-140h-79v-113h79z" />
    <glyph glyph-name="uni021D" unicode="&#x21d;" horiz-adv-x="584" 
d="M15 29q4 -112 76 -172t197 -61q129 1 202 61q73 59 74 159q-3 84 -47 126t-97 56v2q52 17 83 51q30 35 31 99q-1 88 -66 141q-65 52 -176 53q-115 -1 -180 -58q-66 -58 -69 -155h155q2 44 26 65q24 20 62 20q39 0 62 -20q22 -20 23 -54q0 -48 -34 -68q-34 -21 -97 -21
v-127h13q69 1 107 -23q37 -23 37 -77q0 -46 -27 -72q-27 -27 -82 -28q-51 0 -79 26q-28 27 -32 77h-162z" />
    <glyph glyph-name="uni0226" unicode="&#x226;" horiz-adv-x="720" 
d="M159 0l64 169h270l32 -85l31 -84h172l-133 356l-134 359h-197l-152 -392l-122 -323h169zM267 299l47 142q23 71 42 138h2q19 -64 41 -129l49 -151h-181zM299 761h122v115h-122v-115z" />
    <glyph glyph-name="uni0227" unicode="&#x227;" horiz-adv-x="575" 
d="M530 0q-8 32 -10 73q-1 40 -1 72v160q0 133 -58 186q-59 52 -173 50q-109 -1 -170 -49t-67 -131h150q4 36 25 55q21 20 62 20q45 0 65 -26q19 -27 19 -81q-8 0 -21 -1l-25 -2q-116 -8 -205 -46q-89 -39 -94 -134q1 -75 53 -115q52 -41 137 -41q70 1 108 22t61 47
q-1 -29 3 -59h141zM371 215q0 -60 -26 -92q-26 -33 -80 -33q-36 0 -57 16t-22 45q-1 35 36 53q37 17 123 26l27 3q-1 -5 -1 -9v-9v0zM229 596h124v119h-124v-119z" />
    <glyph glyph-name="uni0232" unicode="&#x232;" horiz-adv-x="622" 
d="M629 715h-176l-81 -172t-54 -123h-2l-67 146l-70 149h-183l72 -137l76 -147l85 -163v-268h164v268zM181 765h273v93h-273v-93z" />
    <glyph glyph-name="uni0233" unicode="&#x233;" horiz-adv-x="550" 
d="M296 -180l122 353l124 352h-161l-54 -187q-29 -100 -45 -167h-5l-48 158l-61 196h-166l96 -259l99 -259l-14 -44l-21 -63l-26 -80h160zM146 606h273v93h-273v-93z" />
    <glyph glyph-name="uni0237" unicode="&#x237;" horiz-adv-x="280" 
d="M218 525h-156v-521q1 -43 -17 -63q-19 -20 -63 -20h-7q-4 0 -10 1v-108q16 -3 34 -4q19 -2 36 -2q103 -1 144 44t39 149v524z" />
    <glyph glyph-name="uni0254" unicode="&#x254;" horiz-adv-x="594" 
d="M178 339q11 42 39 61q27 18 62 18q58 0 90 -39q33 -39 33 -116q-1 -73 -32 -114q-32 -41 -87 -42q-39 0 -64 21t-36 59h-157q19 -99 86 -151t173 -52q126 2 201 79q75 76 77 201q-1 124 -75 200t-202 78q-109 -1 -175 -56q-67 -55 -86 -147h153z" />
    <glyph glyph-name="uni0259" unicode="&#x259;" 
d="M193 369q28 55 100 55q52 0 85 -33q33 -32 39 -92h-390v-9v-8q-1 -5 -1 -9q0 -131 69 -210q68 -79 200 -81q125 2 200 78t77 201q-1 130 -74 205q-73 74 -200 75q-106 -1 -173 -47q-67 -47 -91 -125h159zM413 202q-7 -52 -38 -80q-31 -29 -79 -29q-49 0 -78 29
q-29 28 -35 80h230z" />
    <glyph glyph-name="uni025B" unicode="&#x25b;" horiz-adv-x="584" 
d="M408 29q-4 -50 -32 -77q-28 -26 -79 -26q-55 1 -82 28q-27 26 -27 72q0 54 38 77q37 24 106 23h13v127q-63 0 -97 21q-34 20 -34 68q1 34 23 54q23 20 62 20q38 0 62 -20q24 -21 26 -65h155q-3 97 -69 155q-65 57 -180 58q-111 -1 -176 -53q-65 -53 -66 -141
q1 -64 31 -99q31 -34 83 -51v-2q-53 -14 -97 -56t-47 -126q1 -100 74 -159q73 -60 202 -61q125 1 197 61t76 172h-162z" />
    <glyph glyph-name="uni0272" unicode="&#x272;" horiz-adv-x="616" 
d="M-18 -79h-7q-4 0 -10 1v-108q16 -3 34 -4q19 -2 36 -2q103 -1 144 44t39 149v268q0 72 24 110q24 37 75 37q50 0 69 -42q18 -41 17 -120v-254h156v269q1 66 -5 109q-5 43 -25 76q-23 40 -63 62t-94 22q-65 -1 -105 -26q-41 -25 -57 -59v72h-149q1 -20 1 -40v-40v-441
q1 -43 -17 -63q-19 -20 -63 -20v0z" />
    <glyph glyph-name="uni0275" unicode="&#x275;" horiz-adv-x="628" 
d="M313 543q-128 -2 -204 -78t-78 -202q1 -126 77 -201q75 -76 206 -78q131 2 206 78q75 75 77 200q-2 127 -78 203q-77 76 -206 78v0zM313 107q-49 0 -77 27q-29 27 -39 77h231q-9 -50 -38 -77t-77 -27v0zM312 420q46 0 74 -25q29 -26 40 -71h-227q11 45 40 71q28 25 73 25
v0z" />
    <glyph glyph-name="uni02BC" unicode="&#x2bc;" horiz-adv-x="276" 
d="M247 715h-155l-72 -255h134z" />
    <glyph glyph-name="circumflex" unicode="&#x2c6;" horiz-adv-x="503" 
d="M178 715l-104 -119h137l48 51l47 -51h137l-106 119h-159z" />
    <glyph glyph-name="caron" unicode="&#x2c7;" horiz-adv-x="503" 
d="M337 596l106 119h-137l-47 -51l-48 51h-137l104 -119h159z" />
    <glyph glyph-name="breve" unicode="&#x2d8;" horiz-adv-x="465" 
d="M233 584q63 0 101 34q37 34 46 97h-94q-5 -18 -17 -29q-13 -12 -36 -12t-36 12q-13 11 -17 29h-95q9 -63 47 -97t101 -34v0z" />
    <glyph glyph-name="dotaccent" unicode="&#x2d9;" horiz-adv-x="328" 
d="M102 596h124v119h-124v-119z" />
    <glyph glyph-name="ring" unicode="&#x2da;" horiz-adv-x="405" 
d="M239 568q47 1 77 32q31 31 32 77q-1 45 -31 76q-31 30 -77 31q-45 -1 -76 -31q-31 -31 -32 -76q1 -46 31 -77t76 -32v0zM200 677q0 16 11 27q10 12 28 12t29 -12q11 -11 11 -27q0 -18 -11 -29q-11 -12 -29 -12t-28 12q-11 11 -11 29v0z" />
    <glyph glyph-name="ogonek" unicode="&#x2db;" horiz-adv-x="331" 
d="M200 -49h-146l76 -114h163z" />
    <glyph glyph-name="tilde" unicode="&#x2dc;" horiz-adv-x="470" 
d="M304 609q17 -8 35 -14t38 -6q48 1 74 37q25 36 25 89h-81q-3 -18 -8 -26q-6 -8 -20 -8q-8 0 -18 4q-10 3 -30 13q-17 8 -33 14q-15 6 -36 6q-52 -2 -78 -37q-27 -35 -27 -85h84q3 31 28 31q9 0 19 -4l28 -14v0z" />
    <glyph glyph-name="hungarumlaut" unicode="&#x2dd;" horiz-adv-x="612" 
d="M217 596l142 119h-190l-107 -119h155zM466 596l142 119h-190l-107 -119h155z" />
    <glyph glyph-name="uni032C" unicode="&#x32c;" horiz-adv-x="503" 
d="M173 -48l-104 -119h137l48 51l47 -51h137l-106 119h-159z" />
    <glyph glyph-name="uni0394" unicode="&#x394;" horiz-adv-x="671" 
d="M243 715l-244 -715h673l-243 715h-186zM336 565l136 -439h-272z" />
    <glyph glyph-name="uni03A9" unicode="&#x3a9;" horiz-adv-x="820" 
d="M410 589q94 -3 143 -62q50 -60 50 -147q-1 -87 -40 -148q-39 -62 -109 -98v-134h319v135h-123q51 33 86 95q36 62 37 158q-1 140 -93 237q-92 98 -270 102q-178 -4 -270 -102q-92 -97 -93 -237q2 -96 37 -158t86 -95h-123v-135h319v134q-70 36 -109 98q-39 61 -40 148
q0 87 50 147q49 59 143 62v0z" />
    <glyph glyph-name="uni03BC" unicode="&#x3bc;" horiz-adv-x="617" 
d="M218 -180v175q24 -5 48 -5q46 0 83 20q36 19 58 62v-72h149q-1 20 -1 40v40v445h-156v-269q0 -72 -23 -109q-23 -38 -74 -38q-50 0 -67 42q-18 41 -17 120v254h-156v-705h156z" />
    <glyph glyph-name="pi" unicode="&#x3c0;" horiz-adv-x="689" 
d="M650 397v128h-633v-128h84v-397h156v397h148v-223q-1 -108 44 -148q44 -40 139 -38q20 0 36 2q15 2 26 4v115q-13 -3 -27 -3q-44 -1 -54 28t-8 99v164h89z" />
    <glyph glyph-name="Wgrave" unicode="&#x1e80;" horiz-adv-x="966" 
d="M798 715l-72 -413q-9 -48 -14 -81t-11 -82h-4q-5 45 -16 111t-26 147l-59 318h-211l-65 -334l-25 -132t-17 -108h-4q-8 53 -11 83q-4 30 -12 78l-14 79q-15 85 -27 167q-13 83 -28 167h-166l145 -715h219l78 411q9 49 14 80l13 84h3q8 -54 12 -89q5 -34 14 -80l75 -406
h215l73 358l73 357h-152zM586 761l-104 115h-197l139 -115h162z" />
    <glyph glyph-name="wgrave" unicode="&#x1e81;" horiz-adv-x="856" 
d="M348 0l39 161l21 91q9 39 18 85h3q6 -39 17 -84q10 -45 22 -93l39 -160h189l74 262l74 263h-158l-42 -186q-12 -54 -22 -106l-20 -97h-2l-21 104l-22 100l-44 185h-169l-41 -182q-15 -61 -23 -105l-20 -100h-3q-11 58 -18 99q-7 42 -20 95l-46 193h-160l73 -263l74 -262
h188zM534 596l-104 119h-205l141 -119h168z" />
    <glyph glyph-name="Wacute" unicode="&#x1e82;" horiz-adv-x="966" 
d="M798 715l-72 -413q-9 -48 -14 -81t-11 -82h-4q-5 45 -16 111t-26 147l-59 318h-211l-65 -334l-25 -132t-17 -108h-4q-8 53 -11 83q-4 30 -12 78l-14 79q-15 85 -27 167q-13 83 -28 167h-166l145 -715h219l78 411q9 49 14 80l13 84h3q8 -54 12 -89q5 -34 14 -80l75 -406
h215l73 358l73 357h-152zM551 761l139 115h-197l-104 -115h162z" />
    <glyph glyph-name="wacute" unicode="&#x1e83;" horiz-adv-x="856" 
d="M348 0l39 161l21 91q9 39 18 85h3q6 -39 17 -84q10 -45 22 -93l39 -160h189l74 262l74 263h-158l-42 -186q-12 -54 -22 -106l-20 -97h-2l-21 104l-22 100l-44 185h-169l-41 -182q-15 -61 -23 -105l-20 -100h-3q-11 58 -18 99q-7 42 -20 95l-46 193h-160l73 -263l74 -262
h188zM503 596l141 119h-205l-104 -119h168z" />
    <glyph glyph-name="Wdieresis" unicode="&#x1e84;" horiz-adv-x="966" 
d="M798 715l-72 -413q-9 -48 -14 -81t-11 -82h-4q-5 45 -16 111t-26 147l-59 318h-211l-65 -334l-25 -132t-17 -108h-4q-8 53 -11 83q-4 30 -12 78l-14 79q-15 85 -27 167q-13 83 -28 167h-166l145 -715h219l78 411q9 49 14 80l13 84h3q8 -54 12 -89q5 -34 14 -80l75 -406
h215l73 358l73 357h-152zM330 754h124v119h-124v-119zM526 754h123v119h-123v-119z" />
    <glyph glyph-name="wdieresis" unicode="&#x1e85;" horiz-adv-x="856" 
d="M348 0l39 161l21 91q9 39 18 85h3q6 -39 17 -84q10 -45 22 -93l39 -160h189l74 262l74 263h-158l-42 -186q-12 -54 -22 -106l-20 -97h-2l-21 104l-22 100l-44 185h-169l-41 -182q-15 -61 -23 -105l-20 -100h-3q-11 58 -18 99q-7 42 -20 95l-46 193h-160l73 -263l74 -262
h188zM268 596h124v119h-124v-119zM464 596h123v119h-123v-119z" />
    <glyph glyph-name="uni1EA0" unicode="&#x1ea0;" horiz-adv-x="720" 
d="M159 0l64 169h270l32 -85l31 -84h172l-133 356l-134 359h-197l-152 -392l-122 -323h169zM267 299l47 142q23 71 42 138h2q19 -64 41 -129l49 -151h-181zM295 -165h124v119h-124v-119z" />
    <glyph glyph-name="uni1EA1" unicode="&#x1ea1;" horiz-adv-x="575" 
d="M530 0q-8 32 -10 73q-1 40 -1 72v160q0 133 -58 186q-59 52 -173 50q-109 -1 -170 -49t-67 -131h150q4 36 25 55q21 20 62 20q45 0 65 -26q19 -27 19 -81q-8 0 -21 -1l-25 -2q-116 -8 -205 -46q-89 -39 -94 -134q1 -75 53 -115q52 -41 137 -41q70 1 108 22t61 47
q-1 -29 3 -59h141zM371 215q0 -60 -26 -92q-26 -33 -80 -33q-36 0 -57 16t-22 45q-1 35 36 53q37 17 123 26l27 3q-1 -5 -1 -9v-9v0zM226 -165h124v119h-124v-119z" />
    <glyph glyph-name="uni1EB8" unicode="&#x1eb8;" horiz-adv-x="591" 
d="M236 292h283v138h-283v145h308v140h-470v-715h474v140h-312v152zM242 -165h124v119h-124v-119z" />
    <glyph glyph-name="uni1EB9" unicode="&#x1eb9;" 
d="M411 156q-28 -55 -100 -55q-52 0 -85 33q-33 32 -39 92h390v9q0 4 1 9v8q0 131 -69 210q-68 79 -200 81q-125 -2 -200 -78t-77 -201q1 -130 74 -204q73 -75 200 -76q106 1 173 47q67 47 91 125h-159zM191 323q7 52 38 80q31 29 79 29q49 0 78 -29q29 -28 35 -80h-230z
M226 -165h124v119h-124v-119z" />
    <glyph glyph-name="uni1ECA" unicode="&#x1eca;" horiz-adv-x="312" 
d="M238 0v715h-164v-715h164zM96 -165h124v119h-124v-119z" />
    <glyph glyph-name="uni1ECB" unicode="&#x1ecb;" horiz-adv-x="280" 
d="M62 587h156v128h-156v-128zM218 0v525h-156v-525h156zM80 -165h124v119h-124v-119z" />
    <glyph glyph-name="uni1ECC" unicode="&#x1ecc;" horiz-adv-x="797" 
d="M398 728q-164 -2 -262 -100q-99 -99 -101 -271q2 -175 100 -272q97 -97 262 -98q167 1 265 98t100 272q-2 172 -101 271q-98 98 -263 100v0zM398 128q-91 1 -141 62t-51 166q1 109 51 172q50 62 141 63q90 -1 140 -63q50 -63 51 -172q-1 -105 -51 -166t-140 -62v0z
M341 -165h124v119h-124v-119z" />
    <glyph glyph-name="uni1ECD" unicode="&#x1ecd;" horiz-adv-x="628" 
d="M313 543q-128 -2 -204 -78t-78 -202q1 -126 77 -201q75 -76 206 -78q131 2 206 78q75 75 77 200q-2 127 -78 203q-77 76 -206 78v0zM312 420q60 -1 91 -43q30 -43 30 -115q0 -73 -30 -113q-30 -41 -90 -42q-60 1 -90 42q-31 41 -31 114q0 72 31 114t89 43v0zM252 -165
h124v119h-124v-119z" />
    <glyph glyph-name="uni1EE4" unicode="&#x1ee4;" horiz-adv-x="708" 
d="M354 128q-60 0 -91 41q-32 41 -32 125v421h-164v-426q0 -68 14 -117q14 -50 42 -86q74 -98 231 -98q79 0 137 25t94 73q28 36 42 86q14 49 14 117v426h-164v-421q0 -84 -31 -125q-32 -41 -92 -41v0zM291 -165h124v119h-124v-119z" />
    <glyph glyph-name="uni1EE5" unicode="&#x1ee5;" horiz-adv-x="612" 
d="M394 525v-269q0 -72 -23 -109q-23 -38 -74 -38q-50 0 -67 42q-18 41 -17 120v254h-156v-269q-1 -66 5 -109q5 -43 25 -76q23 -40 63 -62t94 -22q65 1 103 26q39 25 55 59v-72h149q-1 20 -1 40v40v445h-156zM241 -165h124v119h-124v-119z" />
    <glyph glyph-name="Ygrave" unicode="&#x1ef2;" horiz-adv-x="622" 
d="M629 715h-176l-81 -172t-54 -123h-2l-67 146l-70 149h-183l72 -137l76 -147l85 -163v-268h164v268zM416 761l-104 115h-197l139 -115h162z" />
    <glyph glyph-name="ygrave" unicode="&#x1ef3;" horiz-adv-x="550" 
d="M296 -180l122 353l124 352h-161l-54 -187q-29 -100 -45 -167h-5l-48 158l-61 196h-166l96 -259l99 -259l-14 -44l-21 -63l-26 -80h160zM380 596l-104 119h-205l141 -119h168z" />
    <glyph glyph-name="uni2002" unicode="&#x2002;" horiz-adv-x="500" 
 />
    <glyph glyph-name="uni2003" unicode="&#x2003;" horiz-adv-x="1000" 
 />
    <glyph glyph-name="uni2004" unicode="&#x2004;" horiz-adv-x="0" 
 />
    <glyph glyph-name="uni2005" unicode="&#x2005;" horiz-adv-x="250" 
 />
    <glyph glyph-name="uni2009" unicode="&#x2009;" horiz-adv-x="133" 
 />
    <glyph glyph-name="uni200A" unicode="&#x200a;" horiz-adv-x="75" 
 />
    <glyph glyph-name="endash" unicode="&#x2013;" horiz-adv-x="592" 
d="M58 235h476v133h-476v-133z" />
    <glyph glyph-name="emdash" unicode="&#x2014;" horiz-adv-x="957" 
d="M58 235h841v133h-841v-133z" />
    <glyph glyph-name="quoteleft" unicode="&#x2018;" horiz-adv-x="291" 
d="M37 460h155l72 255h-134z" />
    <glyph glyph-name="quoteright" unicode="&#x2019;" horiz-adv-x="288" 
d="M267 715h-155l-72 -255h134z" />
    <glyph glyph-name="quotesinglbase" unicode="&#x201a;" horiz-adv-x="288" 
d="M243 166h-158l-72 -255h137z" />
    <glyph glyph-name="quotedblleft" unicode="&#x201c;" horiz-adv-x="507" 
d="M254 460h154l72 255h-133zM37 460h154l72 255h-133z" />
    <glyph glyph-name="quotedblright" unicode="&#x201d;" horiz-adv-x="503" 
d="M265 715h-153l-72 -255h132zM482 715h-153l-72 -255h132z" />
    <glyph glyph-name="quotedblbase" unicode="&#x201e;" horiz-adv-x="505" 
d="M243 166h-158l-72 -255h137zM460 166h-158l-72 -255h137z" />
    <glyph glyph-name="dagger" unicode="&#x2020;" horiz-adv-x="510" 
d="M332 715h-153v-169h-147v-130h147v-484h153v484h146v130h-146v169z" />
    <glyph glyph-name="daggerdbl" unicode="&#x2021;" horiz-adv-x="536" 
d="M345 416h146v130h-146v169h-153v-169h-147v-130h147v-185h-147v-130h147v-169h153v169h146v130h-146v185z" />
    <glyph glyph-name="bullet" unicode="&#x2022;" horiz-adv-x="525" 
d="M263 138q83 2 139 58q55 55 57 138q-2 84 -57 138q-56 55 -139 57q-84 -2 -139 -57q-56 -54 -58 -138q2 -83 58 -138q55 -56 139 -58v0z" />
    <glyph glyph-name="ellipsis" unicode="&#x2026;" horiz-adv-x="939" 
d="M57 0h163v166h-163v-166zM388 0h163v166h-163v-166zM719 0h163v166h-163v-166z" />
    <glyph glyph-name="perthousand" unicode="&#x2030;" horiz-adv-x="1297" 
d="M202 323q84 1 127 54q42 52 42 147q0 93 -43 147t-127 55q-84 -1 -127 -54q-43 -54 -43 -147q0 -95 44 -148q43 -53 127 -54v0zM136 523q-1 54 13 86q14 31 52 32q38 -1 52 -32q13 -31 12 -86q1 -52 -13 -83t-51 -32q-38 1 -52 32t-13 83v0zM263 0h93l275 715h-93z
M694 -15q84 1 127 54q42 52 42 147q0 93 -43 147t-127 55q-84 -1 -127 -54q-43 -54 -43 -147q0 -95 44 -148q43 -53 127 -54v0zM628 185q-1 54 13 86q14 31 52 32q38 -1 52 -32q13 -31 12 -86q1 -52 -13 -83t-51 -32q-38 1 -52 32t-13 83v0zM1097 -15q84 1 127 54
q42 52 42 147q0 93 -43 147t-127 55q-84 -1 -127 -54q-43 -54 -43 -147q0 -95 44 -148q43 -53 127 -54v0zM1031 185q-1 54 13 86q14 31 52 32q38 -1 52 -32q13 -31 12 -86q1 -52 -13 -83t-51 -32q-38 1 -52 32t-13 83v0z" />
    <glyph glyph-name="guilsinglleft" unicode="&#x2039;" horiz-adv-x="327" 
d="M283 473h-144l-102 -187l102 -188h144l-96 188z" />
    <glyph glyph-name="guilsinglright" unicode="&#x203a;" horiz-adv-x="327" 
d="M140 286l-96 -188h144l102 188l-102 187h-144z" />
    <glyph glyph-name="fraction" unicode="&#x2044;" horiz-adv-x="422" 
d="M-6 -105h146l288 820h-144z" />
    <glyph glyph-name="Euro" unicode="&#x20ac;" 
d="M-4 364h74v-27v-11h-41l-33 -116h84q7 -45 22 -82q15 -38 42 -68q37 -41 87 -58q51 -18 114 -17q120 0 181 59t74 173l-157 1q-7 -51 -29 -77q-21 -26 -69 -26q-47 0 -72 24t-33 71h149l33 116h-189v38h196l33 116h-224q7 59 32 91q24 31 75 31q47 0 69 -27
q22 -28 29 -79l158 1q-12 118 -77 176q-64 59 -179 59q-64 0 -117 -19t-89 -64q-27 -34 -42 -76q-15 -43 -21 -93h-47z" />
    <glyph glyph-name="trademark" unicode="&#x2122;" horiz-adv-x="963" 
d="M694 297l54 160l53 160h3v-64q-1 -33 -1 -72v-184h94v418h-157l-47 -157l-37 -123l-86 280h-161v-418h92v130v98q0 46 -1 91h3l54 -162l50 -157h87zM362 715h-309v-81h105v-337h99v337h105v81z" />
    <glyph glyph-name="Omega" unicode="&#x2126;" horiz-adv-x="820" 
d="M410 589q94 -3 143 -62q50 -60 50 -147q-1 -87 -40 -148q-39 -62 -109 -98v-134h319v135h-123q51 33 86 95q36 62 37 158q-1 140 -93 237q-92 98 -270 102q-178 -4 -270 -102q-92 -97 -93 -237q2 -96 37 -158t86 -95h-123v-135h319v134q-70 36 -109 98q-39 61 -40 148
q0 87 50 147q49 59 143 62v0z" />
    <glyph glyph-name="onethird" unicode="&#x2153;" horiz-adv-x="841" 
d="M189 0h93l275 715h-93zM138 569v-293h99v439h-88q-10 -36 -37 -56q-28 -21 -72 -21h-10v-69h108zM468 142q3 -72 46 -110t121 -38q81 1 126 38q44 36 45 98q-1 49 -25 75q-23 26 -54 37q28 12 44 35q17 23 17 59q-1 55 -41 87t-110 33q-70 -1 -111 -37t-44 -99h104
q0 27 14 39q13 12 34 12t33 -11q13 -10 13 -29q0 -27 -20 -39q-21 -12 -59 -12v-85h13q39 0 61 -14q21 -15 21 -45q0 -26 -15 -41t-46 -15q-57 0 -62 62h-105z" />
    <glyph glyph-name="twothirds" unicode="&#x2154;" horiz-adv-x="961" 
d="M759 -8q80 1 124 36q45 36 46 99q0 80 -81 111q64 30 64 98q-1 52 -41 86t-113 35q-71 -1 -111 -35t-41 -86q0 -33 17 -58t47 -39q-81 -32 -81 -112q1 -63 46 -99q44 -35 124 -36v0zM758 196q30 0 46 -17q17 -16 17 -43q0 -25 -17 -41q-16 -16 -46 -17q-30 1 -47 17
t-17 41q0 27 17 43q17 17 47 17v0zM759 372q25 0 39 -14q14 -13 14 -34t-14 -34q-14 -14 -39 -14t-39 14q-14 13 -14 34t14 34q14 14 39 14v0zM301 0h93l275 715h-93zM373 276v88h-184l44 31l21 14t25 18q45 33 72 73q27 39 28 92q0 64 -43 100q-42 36 -121 37
q-79 -1 -124 -44t-47 -119h112q0 31 13 50q14 18 43 19q24 0 37 -13q14 -13 14 -37q1 -24 -15 -51q-15 -27 -56 -59l-80 -62l-69 -53v-84h330z" />
    <glyph glyph-name="oneeighth" unicode="&#x215b;" horiz-adv-x="852" 
d="M647 -8q80 1 124 36q45 36 46 99q0 80 -81 111q64 30 64 98q-1 52 -41 86t-113 35q-71 -1 -111 -35t-41 -86q0 -33 17 -58t47 -39q-81 -32 -81 -112q1 -63 46 -99q44 -35 124 -36v0zM646 196q30 0 46 -17q17 -16 17 -43q0 -25 -17 -41q-16 -16 -46 -17q-30 1 -47 17
t-17 41q0 27 17 43q17 17 47 17v0zM647 372q25 0 39 -14q14 -13 14 -34t-14 -34q-14 -14 -39 -14t-39 14q-14 13 -14 34t14 34q14 14 39 14v0zM189 0h93l275 715h-93zM138 569v-293h99v439h-88q-10 -36 -37 -56q-28 -21 -72 -21h-10v-69h108z" />
    <glyph glyph-name="threeeighths" unicode="&#x215c;" horiz-adv-x="955" 
d="M753 -8q80 1 124 36q45 36 46 99q0 80 -81 111q64 30 64 98q-1 52 -41 86t-113 35q-71 -1 -111 -35t-41 -86q0 -33 17 -58t47 -39q-81 -32 -81 -112q1 -63 46 -99q44 -35 124 -36v0zM752 196q30 0 46 -17q17 -16 17 -43q0 -25 -17 -41q-16 -16 -46 -17q-30 1 -47 17
t-17 41q0 27 17 43q17 17 47 17v0zM753 372q25 0 39 -14q14 -13 14 -34t-14 -34q-14 -14 -39 -14t-39 14q-14 13 -14 34t14 34q14 14 39 14v0zM295 0h93l275 715h-93zM33 418q3 -72 46 -110t121 -38q81 1 126 38q44 36 45 98q-1 49 -25 73q-23 25 -54 36q28 12 44 34
q17 21 17 57q-1 55 -41 87t-110 33q-70 -1 -111 -37t-44 -99h104q0 27 14 39q13 12 34 12t33 -11q13 -10 13 -29q0 -27 -20 -38q-21 -11 -59 -11v-84h13q39 0 61 -13q21 -13 21 -43q0 -26 -15 -41t-46 -15q-57 0 -62 62h-105z" />
    <glyph glyph-name="fiveeighths" unicode="&#x215d;" horiz-adv-x="951" 
d="M32 412q5 -64 50 -103q45 -40 118 -41q78 1 123 42q45 42 46 117q-1 67 -41 105t-103 39q-26 0 -45 -6q-20 -6 -34 -15q2 23 5 40q2 17 4 37h184v88h-268l-26 -248l103 -18q8 16 20 26q12 11 35 11q29 0 45 -17q15 -17 15 -47q0 -32 -16 -49t-45 -17q-27 0 -41 16
q-14 15 -18 40h-111zM747 -8q80 1 124 36q45 36 46 99q0 80 -81 111q64 30 64 98q-1 52 -41 86t-113 35q-71 -1 -111 -35t-41 -86q0 -33 17 -58t47 -39q-81 -32 -81 -112q1 -63 46 -99q44 -35 124 -36v0zM746 196q30 0 46 -17q17 -16 17 -43q0 -25 -17 -41q-16 -16 -46 -17
q-30 1 -47 17t-17 41q0 27 17 43q17 17 47 17v0zM747 372q25 0 39 -14q14 -13 14 -34t-14 -34q-14 -14 -39 -14t-39 14q-14 13 -14 34t14 34q14 14 39 14v0zM289 0h93l275 715h-93z" />
    <glyph glyph-name="seveneighths" unicode="&#x215e;" horiz-adv-x="864" 
d="M660 -8q80 1 124 36q45 36 46 99q0 80 -81 111q64 30 64 98q-1 52 -41 86t-113 35q-71 -1 -111 -35t-41 -86q0 -33 17 -58t47 -39q-81 -32 -81 -112q1 -63 46 -99q44 -35 124 -36v0zM659 196q30 0 46 -17q17 -16 17 -43q0 -25 -17 -41q-16 -16 -46 -17q-30 1 -47 17
t-17 41q0 27 17 43q17 17 47 17v0zM660 372q25 0 39 -14q14 -13 14 -34t-14 -34q-14 -14 -39 -14t-39 14q-14 13 -14 34t14 34q14 14 39 14v0zM202 0h93l275 715h-93zM190 276q38 117 77 206q38 88 76 154v78h-311v-84h133q20 0 37 -1q16 0 36 2q0 -1 1 -1q-48 -81 -89 -170
t-71 -184h111z" />
    <glyph glyph-name="arrowleft" unicode="&#x2190;" horiz-adv-x="820" 
d="M780 252v146h-513q23 21 64 62l85 85l106 105h-193l-150 -159l-159 -165l159 -167l150 -159h193l-106 105l-85 84l-64 63h513z" />
    <glyph glyph-name="arrowup" unicode="&#x2191;" horiz-adv-x="720" 
d="M287 0h145v508l63 -63l84 -84l106 -104v184l-160 150t-165 159l-166 -159l-159 -150v-184l105 104l147 147v-508z" />
    <glyph glyph-name="arrowright" unicode="&#x2192;" horiz-adv-x="820" 
d="M552 252l-64 -63l-85 -84l-106 -105h193l150 159l159 167l-159 165l-150 159h-193l106 -105l85 -85q41 -41 64 -62h-513v-146h513z" />
    <glyph glyph-name="arrowdown" unicode="&#x2193;" horiz-adv-x="720" 
d="M287 207l-147 147l-105 104v-184l159 -151l166 -158l166 159l159 150v184l-106 -104l-84 -84l-63 -63v508h-145v-508z" />
    <glyph glyph-name="uni2196" unicode="&#x2196;" horiz-adv-x="750" 
d="M327 440h89q57 -1 119 -1h72t77 1l-130 124q-86 0 -219 -3t-230 -3q0 -97 -2 -232q-2 -134 -2 -220l125 -126v148v208l359 -359l103 102z" />
    <glyph glyph-name="uni2197" unicode="&#x2197;" horiz-adv-x="750" 
d="M61 79l103 -102l359 359v-208v-148l125 126q0 86 -2 220q-2 135 -2 232q-97 0 -230 3t-219 3l-130 -124q78 -1 148 -1q61 0 119 1h90z" />
    <glyph glyph-name="uni2198" unicode="&#x2198;" horiz-adv-x="750" 
d="M423 121q-32 0 -90 1h-119q-70 0 -148 -1l130 -124q86 0 219 3t230 3q0 96 2 231t2 221l-125 126v-148v-208l-359 359l-103 -102z" />
    <glyph glyph-name="uni2199" unicode="&#x2199;" horiz-adv-x="750" 
d="M689 481l-103 102l-359 -359v208v148l-125 -126q0 -86 2 -221t2 -231q97 0 230 -3t219 -3l130 124q-40 1 -77 1h-72h-119q-57 -1 -89 -1z" />
    <glyph glyph-name="partialdiff" unicode="&#x2202;" horiz-adv-x="634" 
d="M79 715q71 -35 146 -81t128 -101l-3 -3q-10 5 -27 8q-17 2 -33 2q-103 0 -179 -72q-75 -71 -79 -208q2 -126 78 -200q76 -73 202 -75q133 1 210 77q76 75 77 212q-4 170 -90 276q-85 106 -201 165h-229zM313 420q60 -1 91 -43q30 -43 30 -115q0 -73 -30 -113
q-30 -41 -90 -42q-60 1 -90 42q-31 41 -31 114q0 72 31 114t89 43v0z" />
    <glyph glyph-name="Delta" unicode="&#x2206;" horiz-adv-x="719" 
d="M267 715l-244 -715h673l-243 715h-186zM360 565l136 -439h-272z" />
    <glyph glyph-name="product" unicode="&#x220f;" horiz-adv-x="826" 
d="M701 575h87v140h-750v-140h87v-688h164v688h248v-688h164v688z" />
    <glyph glyph-name="summation" unicode="&#x2211;" horiz-adv-x="624" 
d="M38 15v-128h548v140h-360l250 278l-238 270h337v140h-533v-137l246 -281z" />
    <glyph glyph-name="minus" unicode="&#x2212;" 
d="M53 254h498v134h-498v-134z" />
    <glyph glyph-name="uni2219" unicode="&#x2219;" horiz-adv-x="277" 
d="M57 236h163v166h-163v-166z" />
    <glyph glyph-name="radical" unicode="&#x221a;" 
d="M7 396h84l68 -199l68 -197h177l217 715h-156l-100 -374q-15 -57 -24 -95l-23 -90h-2q-17 55 -27 92t-23 81l-62 196h-197v-129z" />
    <glyph glyph-name="infinity" unicode="&#x221e;" horiz-adv-x="840" 
d="M229 517q-84 -1 -132 -53q-47 -51 -48 -134q-1 -71 42 -126q42 -54 134 -57q62 1 108 31q46 29 87 71q40 -40 86 -70t111 -32q87 3 131 57q43 55 43 126q-1 83 -48 134q-47 52 -129 53q-59 -1 -102 -27q-44 -27 -90 -70q-47 42 -91 69t-102 28v0zM607 276q-28 1 -53 17
q-26 16 -52 38q27 24 54 41q28 16 53 17q24 0 39 -16q15 -15 15 -40q0 -27 -15 -42t-41 -15v0zM234 276q-26 0 -41 15t-15 42q0 25 15 40q14 16 39 16q25 -1 52 -17q27 -17 54 -41q-26 -22 -51 -38t-53 -17v0z" />
    <glyph glyph-name="integral" unicode="&#x222b;" 
d="M413 474q7 60 25 90q17 30 55 30q12 0 22 -2q9 -3 16 -5l16 134q-13 3 -30 5q-18 1 -36 1q-104 -1 -156 -63q-51 -62 -66 -177l-55 -403q-7 -62 -24 -99q-18 -37 -61 -38q-9 0 -21 1q-12 2 -27 7l-14 -122q21 -7 43 -9q22 -3 40 -3q106 -1 153 61q48 62 66 203z" />
    <glyph glyph-name="approxequal" unicode="&#x2248;" 
d="M478 542q-20 -36 -36 -51q-17 -15 -37 -15q-17 0 -34 8q-17 7 -38 17l-17 8q-32 15 -59 25q-27 9 -56 9q-52 -1 -92 -37q-40 -37 -70 -92l89 -69q20 36 37 51q16 15 36 15q17 0 34 -8q17 -7 38 -17l17 -8q32 -15 59 -24q27 -10 56 -10q52 1 92 38q40 36 70 91zM476 292
q-20 -36 -36 -51q-17 -15 -37 -15q-17 0 -34 8q-17 7 -38 17l-17 8q-32 15 -59 25q-27 9 -56 9q-52 -1 -92 -37q-40 -37 -70 -92l89 -69q20 36 37 51q16 15 36 15q17 0 34 -8q17 -7 38 -17l17 -8q32 -15 59 -24q27 -10 56 -10q52 1 92 38q40 36 70 91z" />
    <glyph glyph-name="notequal" unicode="&#x2260;" 
d="M53 367h176l-30 -62h-146v-130h83l-41 -85h139l41 85h276v130h-213l30 62h183v130h-120l36 73h-139l-36 -73h-239v-130z" />
    <glyph glyph-name="lessequal" unicode="&#x2264;" 
d="M72 0h435v134h-435v-134zM507 645l-435 -182v-118l435 -180v152l-288 88v3l288 87v150z" />
    <glyph glyph-name="greaterequal" unicode="&#x2265;" 
d="M531 134h-435v-134h435v134zM96 495l288 -87v-3l-288 -88v-152l435 180v118l-435 182v-150z" />
    <glyph glyph-name="dotmath" unicode="&#x22c5;" horiz-adv-x="277" 
d="M57 236h163v166h-163v-166z" />
    <glyph glyph-name="lozenge" unicode="&#x25ca;" 
d="M374 0l219 356l-219 359h-144l-220 -359l220 -356h144zM302 142l-125 214l125 217l124 -217z" />
    <glyph glyph-name="uniF6C3" unicode="&#xf6c3;" horiz-adv-x="369" 
d="M84 -163h163l76 114h-146z" />
    <glyph glyph-name="uniF8FF" unicode="&#xf8ff;" horiz-adv-x="529" 
d="M265 104q95 2 159 66q64 63 66 159q-2 95 -66 158t-159 65q-97 -2 -160 -65q-64 -63 -66 -158q2 -96 66 -159q63 -64 160 -66v0z" />
    <glyph glyph-name="uniFB01" unicode="&#xfb01;" horiz-adv-x="628" 
d="M93 525h-70v-113h70v-412h156v412h89v113h-89v16q0 67 64 67q15 0 25 -2v115q-8 2 -21 4q-14 1 -31 1q-91 0 -142 -45q-50 -45 -51 -131v-25zM410 587h156v128h-156v-128zM566 0v525h-156v-525h156z" />
    <glyph glyph-name="uniFB02" unicode="&#xfb02;" horiz-adv-x="631" 
d="M93 525h-70v-113h70v-412h156v412h89v113h-89v16q0 67 64 67q15 0 25 -2v115q-8 2 -21 4q-14 1 -31 1q-91 0 -142 -45q-50 -45 -51 -131v-25zM566 0v715h-156v-715h156z" />
    <glyph glyph-name="glyph226" horiz-adv-x="427" 
d="M282 761l139 115h-197l-104 -115h162z" />
    <glyph glyph-name="glyph227" horiz-adv-x="512" 
d="M401 761l-104 115h-197l139 -115h162z" />
    <glyph glyph-name="glyph228" horiz-adv-x="503" 
d="M174 876l-103 -115h137l48 51l47 -51h137l-106 115h-160z" />
    <glyph glyph-name="glyph229" horiz-adv-x="502" 
d="M334 761l106 115h-137l-47 -51l-48 51h-137l103 -115h160z" />
    <glyph glyph-name="glyph230" horiz-adv-x="470" 
d="M242 777q17 -8 35 -14t38 -6q48 1 74 37q25 36 25 89h-81q-3 -18 -8 -26q-6 -8 -20 -8q-8 0 -18 4q-10 3 -30 13q-17 8 -33 14q-15 6 -36 6q-52 -2 -78 -37q-27 -35 -27 -85h84q3 31 28 31q9 0 19 -4l28 -14v0z" />
    <glyph glyph-name="glyph231" horiz-adv-x="428" 
d="M110 765h273v93h-273v-93z" />
    <glyph glyph-name="glyph232" horiz-adv-x="465" 
d="M249 745q63 0 101 34q37 34 46 97h-94q-5 -18 -17 -29q-13 -12 -36 -12t-36 12q-13 11 -17 29h-95q9 -63 47 -97t101 -34v0z" />
    <glyph glyph-name="glyph233" horiz-adv-x="328" 
d="M103 761h122v115h-122v-115z" />
    <glyph glyph-name="glyph234" horiz-adv-x="405" 
d="M247 738q47 1 77 32q31 31 32 77q-1 45 -31 76q-31 30 -77 31q-45 -1 -76 -31q-31 -31 -32 -76q1 -46 31 -77t76 -32v0zM208 847q0 16 11 27q10 12 28 12t29 -12q11 -11 11 -27q0 -18 -11 -29q-11 -12 -29 -12t-28 12q-11 11 -11 29v0z" />
    <glyph glyph-name="glyph235" horiz-adv-x="369" 
d="M84 -163h163l76 114h-146z" />
    <glyph glyph-name="glyph236" horiz-adv-x="331" 
d="M200 -49h-146l76 -114h163z" />
    <glyph glyph-name="glyph237" horiz-adv-x="612" 
d="M224 761l140 115h-190l-105 -115h155zM473 761l140 115h-190l-105 -115h155z" />
    <glyph glyph-name="glyph238" horiz-adv-x="491" 
d="M104 754h124v119h-124v-119zM300 754h123v119h-123v-119z" />
    <glyph glyph-name="glyph239" horiz-adv-x="264" 
d="M248 715h-160l-55 -191h130z" />
    <glyph glyph-name="glyph256" horiz-adv-x="638" 
d="M319 115q-62 -1 -86 57q-24 57 -23 179q-1 127 23 189q23 62 86 62t86 -62q24 -62 23 -189q1 -122 -23 -179q-24 -58 -86 -57v0zM319 732q-164 -4 -222 -112t-54 -265q-3 -169 56 -268q58 -100 220 -102q162 2 221 102q58 99 55 268q4 157 -54 265t-222 112v0z" />
    <glyph glyph-name="glyph257" horiz-adv-x="448" 
d="M197 478v-478h160v715h-140q-17 -60 -62 -92t-117 -32h-16v-113h175z" />
    <glyph glyph-name="glyph258" horiz-adv-x="616" 
d="M571 0v130h-268h-29q-13 0 -30 -1q34 28 70 54l88 65q73 55 119 120q45 66 46 146q-1 100 -69 159q-69 58 -190 59q-123 -1 -192 -69q-68 -67 -69 -185h160q0 51 24 82t75 32q43 0 67 -23q25 -23 25 -66q1 -42 -26 -86q-27 -45 -93 -99l-127 -103l-111 -86v-129h530z" />
    <glyph glyph-name="glyph259" horiz-adv-x="618" 
d="M30 217q4 -112 76 -172t197 -61q129 1 202 61q73 59 74 159q-3 84 -47 126t-97 56v2q52 17 83 51q30 35 31 99q-1 88 -66 141q-65 52 -176 53q-115 -1 -180 -58q-66 -58 -69 -155h155q2 44 26 65q24 20 62 20q39 0 62 -20q22 -20 23 -54q0 -48 -34 -68q-34 -21 -97 -21
v-127h13q69 1 107 -23q37 -23 37 -77q0 -46 -27 -72q-27 -27 -82 -28q-51 0 -79 26q-28 27 -32 77h-162z" />
    <glyph glyph-name="glyph260" horiz-adv-x="646" 
d="M613 269h-101v446h-185l-304 -452v-124h334v-139h155v139h101v130zM169 268l11 15t11 16l19 29q11 15 19 28l54 82q21 32 38 61l37 63h2l-2 -61q-1 -31 -1 -63v-169h-100h-48q-20 0 -40 -1v0z" />
    <glyph glyph-name="glyph261" horiz-adv-x="611" 
d="M33 207q10 -100 82 -159q72 -60 191 -61q125 1 198 68t75 186q-2 111 -66 174t-167 64q-47 0 -81 -12t-58 -31h-1q6 39 10 75l10 72h302v132h-429l-44 -398l159 -26q14 25 37 41t59 17q49 -1 77 -32t28 -83q0 -55 -28 -86t-79 -32q-46 1 -72 26t-32 65h-171z" />
    <glyph glyph-name="glyph262" horiz-adv-x="629" 
d="M578 546q-14 77 -73 132t-172 58q-151 -2 -222 -109q-70 -107 -69 -299q1 -165 71 -253q71 -87 206 -88q130 2 200 71t71 179q-2 117 -67 177q-64 60 -160 60q-61 -1 -99 -18q-38 -18 -53 -34q0 85 30 136q29 51 84 52q40 -1 60 -18q19 -17 27 -45zM320 347q48 0 78 -31
q29 -30 30 -85q-1 -52 -30 -82t-77 -31q-48 1 -78 31q-29 30 -30 84q1 54 31 84q29 30 76 30v0z" />
    <glyph glyph-name="glyph263" horiz-adv-x="545" 
d="M281 0q63 191 125 337q62 145 125 250v128h-507v-134h223q34 0 61 -1q27 0 59 2q0 -1 1 -1q-78 -132 -145 -278q-67 -147 -118 -303h176z" />
    <glyph glyph-name="glyph264" horiz-adv-x="621" 
d="M311 -16q125 1 198 58q72 57 74 156q0 67 -37 112t-109 71v2q57 20 88 60q30 39 30 98q-1 83 -67 136t-179 55q-111 -2 -176 -55t-67 -136q0 -59 31 -98q30 -40 87 -60v-2q-146 -49 -146 -183q2 -99 75 -156t198 -58v0zM310 315q49 -1 79 -29q29 -28 30 -74
q-1 -45 -29 -72q-29 -27 -80 -28q-52 1 -81 29q-29 27 -30 71q1 46 30 74q30 28 81 29v0zM311 606q43 -1 68 -24q25 -24 25 -60t-25 -60q-25 -23 -68 -24q-43 1 -68 24q-25 24 -26 60q0 36 25 60q24 23 69 24v0z" />
    <glyph glyph-name="glyph265" horiz-adv-x="629" 
d="M48 170q14 -77 74 -133q60 -55 173 -58q152 1 223 107q70 105 69 296q-1 169 -71 257q-71 88 -206 89q-128 -2 -199 -72q-70 -69 -71 -177q2 -117 66 -178t160 -61q60 1 98 19q38 17 53 33q0 -87 -29 -136t-84 -50q-40 1 -60 18q-19 17 -27 45zM309 370q-48 1 -78 31
q-29 31 -30 85q1 52 30 82t77 31q48 -1 78 -31q29 -30 30 -84q-1 -54 -31 -84q-29 -30 -76 -30v0z" />
    <glyph glyph-name="glyph309" horiz-adv-x="791" 
d="M402 728q-169 -2 -267 -102t-100 -268q2 -168 93 -268q91 -101 240 -103q78 1 135 26q56 26 86 65h1v-18q-1 -10 -1 -22v-38h153v394h-382v-133h128h46t46 1q-11 -58 -54 -97q-42 -38 -123 -40q-94 1 -145 64t-52 171q1 104 51 167q51 62 142 64q61 0 101 -29
q40 -28 63 -80l179 1q-34 116 -121 180t-219 65v0zM395 777q17 -8 35 -14t38 -6q48 1 74 37q25 36 25 89h-81q-3 -18 -8 -26q-6 -8 -20 -8q-8 0 -18 4q-10 3 -30 13q-17 8 -33 14q-15 6 -36 6q-52 -2 -78 -37q-27 -35 -27 -85h84q3 31 28 31q9 0 19 -4l28 -14v0z" />
    <glyph glyph-name="glyph310" horiz-adv-x="643" 
d="M46 -19q16 -81 80 -129q64 -47 178 -48q135 0 206 70q70 71 71 208v443h-151v-31q0 -19 2 -35q-19 33 -59 57q-41 23 -105 24q-103 -2 -168 -72q-64 -71 -66 -188q1 -118 64 -187q62 -69 168 -71q61 1 103 24q43 22 63 56h2q3 -91 -25 -138q-29 -47 -99 -47q-38 0 -62 16
t-38 48h-164zM317 421q55 -1 86 -38q30 -38 31 -99q-1 -69 -33 -106t-84 -37q-57 1 -87 39q-31 38 -31 99q1 64 32 103q31 38 86 39v0zM331 609q17 -8 35 -14t38 -6q48 1 74 37q25 36 25 89h-81q-3 -18 -8 -26q-6 -8 -20 -8q-8 0 -18 4q-10 3 -30 13q-17 8 -33 14
q-15 6 -36 6q-52 -2 -78 -37q-27 -35 -27 -85h84q3 31 28 31q9 0 19 -4l28 -14v0z" />
    <glyph glyph-name="glyph342" horiz-adv-x="959" 
d="M74 0h158v340v124q-1 53 -3 107h2q5 -21 19 -75t37 -131l109 -365h171l110 373l32 110q15 51 24 88h2q-2 -57 -3 -114q-1 -58 -1 -123v-334h154v715h-253l-83 -292l-65 -222h-1q-14 57 -29 110l-29 104l-88 300h-263v-715zM403 876l-103 -115h137l48 51l47 -51h137
l-106 115h-160z" />
    <glyph glyph-name="glyph343" horiz-adv-x="935" 
d="M548 0v269q0 72 22 110q22 37 72 37q47 0 64 -39t16 -123v-254h156v311q-2 126 -55 178q-53 51 -129 49q-70 -2 -112 -29t-60 -59h-2q-21 42 -59 65q-37 23 -93 23q-65 -1 -103 -26q-39 -25 -55 -59v72h-149q1 -20 1 -40v-40v-445h156v269q0 72 22 110q22 37 72 37
q47 0 64 -39t16 -123v-254h156zM402 715l-104 -119h137l48 51l47 -51h137l-106 119h-159z" />
    <glyph glyph-name="glyph344" horiz-adv-x="959" 
d="M74 0h158v340v124q-1 53 -3 107h2q5 -21 19 -75t37 -131l109 -365h171l110 373l32 110q15 51 24 88h2q-2 -57 -3 -114q-1 -58 -1 -123v-334h154v715h-253l-83 -292l-65 -222h-1q-14 57 -29 110l-29 104l-88 300h-263v-715zM347 765h273v93h-273v-93z" />
    <glyph glyph-name="glyph345" horiz-adv-x="935" 
d="M548 0v269q0 72 22 110q22 37 72 37q47 0 64 -39t16 -123v-254h156v311q-2 126 -55 178q-53 51 -129 49q-70 -2 -112 -29t-60 -59h-2q-21 42 -59 65q-37 23 -93 23q-65 -1 -103 -26q-39 -25 -55 -59v72h-149q1 -20 1 -40v-40v-445h156v269q0 72 22 110q22 37 72 37
q47 0 64 -39t16 -123v-254h156zM339 606h273v93h-273v-93z" />
    <glyph glyph-name="glyph350" horiz-adv-x="767" 
d="M693 715h-151v-316v-110q1 -52 3 -97h-1l-30 69q-19 42 -46 96l-182 358h-212v-715h151v292v120q0 62 -2 107h1q12 -33 40 -90l65 -129l155 -300h209v715zM313 876l-103 -115h137l48 51l47 -51h137l-106 115h-160z" />
    <glyph glyph-name="glyph351" horiz-adv-x="616" 
d="M218 0v269q0 72 24 110q24 37 75 37q50 0 69 -42q18 -41 17 -120v-254h156v269q1 66 -5 109q-5 43 -25 76q-23 40 -63 62t-94 22q-65 -1 -105 -26q-41 -25 -57 -59v72h-149q1 -20 1 -40v-40v-445h156zM247 715l-104 -119h137l48 51l47 -51h137l-106 119h-159z" />
    <glyph glyph-name="glyph354" horiz-adv-x="767" 
d="M693 715h-151v-316v-110q1 -52 3 -97h-1l-30 69q-19 42 -46 96l-182 358h-212v-715h151v292v120q0 62 -2 107h1q12 -33 40 -90l65 -129l155 -300h209v715zM240 754h124v119h-124v-119zM436 754h123v119h-123v-119z" />
    <glyph glyph-name="glyph355" horiz-adv-x="616" 
d="M218 0v269q0 72 24 110q24 37 75 37q50 0 69 -42q18 -41 17 -120v-254h156v269q1 66 -5 109q-5 43 -25 76q-23 40 -63 62t-94 22q-65 -1 -105 -26q-41 -25 -57 -59v72h-149q1 -20 1 -40v-40v-445h156zM173 596h124v119h-124v-119zM369 596h123v119h-123v-119z" />
    <glyph glyph-name="glyph356" horiz-adv-x="767" 
d="M693 715h-151v-316v-110q1 -52 3 -97h-1l-30 69q-19 42 -46 96l-182 358h-212v-715h151v292v120q0 62 -2 107h1q12 -33 40 -90l65 -129l155 -300h209v715zM259 765h273v93h-273v-93z" />
    <glyph glyph-name="glyph357" horiz-adv-x="616" 
d="M218 0v269q0 72 24 110q24 37 75 37q50 0 69 -42q18 -41 17 -120v-254h156v269q1 66 -5 109q-5 43 -25 76q-23 40 -63 62t-94 22q-65 -1 -105 -26q-41 -25 -57 -59v72h-149q1 -20 1 -40v-40v-445h156zM194 606h273v93h-273v-93z" />
    <glyph glyph-name="glyph368" horiz-adv-x="637" 
d="M74 0h164v255h60q77 -1 134 9q56 10 98 41q40 30 60 77q21 47 21 104q-1 105 -65 164q-64 60 -182 64q-18 1 -36 1h-40h-214v-715zM238 576h80q66 0 97 -22q31 -23 31 -71q0 -49 -32 -71q-33 -23 -93 -23h-83v187zM171 765h273v93h-273v-93z" />
    <glyph glyph-name="glyph369" horiz-adv-x="641" 
d="M62 525v-705h156v122v61q0 28 -1 51q20 -27 57 -47q37 -19 97 -20q109 2 172 77q64 76 65 203q-2 130 -64 201t-166 72q-64 -2 -104 -24q-41 -22 -60 -46q0 11 1 25v30h-153zM325 421q57 -1 87 -44q31 -43 31 -112t-31 -112q-30 -44 -87 -45q-57 1 -87 44t-30 116
q1 71 32 111q31 41 85 42v0zM191 606h273v93h-273v-93z" />
    <glyph glyph-name="glyph452" horiz-adv-x="823" 
d="M361 297h37l91 -156h118l-107 173q37 13 65 45t29 87q0 32 -13 58t-36 43q-23 15 -51 21t-66 6h-172v-433h105v156zM361 488h49q39 1 60 -11t21 -44q0 -29 -19 -42q-20 -12 -55 -12h-56v109zM788 360q-4 160 -110 266t-266 110q-163 -4 -268 -110t-109 -266
q4 -161 110 -267q105 -106 265 -110q162 4 268 110t110 267v0zM719 360q-3 -133 -90 -221t-218 -91q-131 3 -217 92q-86 88 -89 220q3 132 89 219q86 88 218 91q130 -3 217 -91q87 -87 90 -219v0z" />
    <glyph glyph-name="glyph465" horiz-adv-x="417" 
d="M57 290h303v135h-303v-135z" />
    <glyph glyph-name="glyph466" horiz-adv-x="592" 
d="M58 295h476v133h-476v-133z" />
    <glyph glyph-name="glyph467" horiz-adv-x="957" 
d="M58 295h841v133h-841v-133z" />
    <glyph glyph-name="glyph468" horiz-adv-x="417" 
d="M57 290h303v135h-303v-135z" />
    <glyph glyph-name="glyph469" horiz-adv-x="547" 
d="M286 533h-144l-102 -187l102 -188h144l-96 188zM499 533h-142l-102 -187l102 -188h142l-91 188z" />
    <glyph glyph-name="glyph470" horiz-adv-x="547" 
d="M357 346l-96 -188h144l102 188l-102 187h-144zM139 346l-91 -188h142l102 188l-102 187h-142z" />
    <glyph glyph-name="glyph471" horiz-adv-x="332" 
d="M286 533h-144l-102 -187l102 -188h144l-96 188z" />
    <glyph glyph-name="glyph472" horiz-adv-x="332" 
d="M142 346l-96 -188h144l102 188l-102 187h-144z" />
    <glyph glyph-name="glyph473" horiz-adv-x="343" 
d="M34 349q2 -163 74 -283q71 -121 193 -173v139q-64 61 -96 141t-32 178q0 195 128 319v139q-121 -54 -193 -175q-72 -122 -74 -285v0z" />
    <glyph glyph-name="glyph474" horiz-adv-x="343" 
d="M309 349q-2 163 -74 285q-72 121 -193 175v-139q128 -124 128 -319q0 -98 -32 -178t-96 -141v-139q122 52 194 173q71 120 73 283v0z" />
    <glyph glyph-name="glyph475" horiz-adv-x="371" 
d="M335 35h-113v633h113v97h-246v-828h246v98z" />
    <glyph glyph-name="glyph476" horiz-adv-x="371" 
d="M36 -63h246v828h-246v-97h113v-633h-113v-98z" />
    <glyph glyph-name="glyph477" horiz-adv-x="349" 
d="M37 316q34 -9 50 -30q15 -22 15 -79v-149q-2 -70 28 -99q30 -28 112 -27h36q11 0 24 1v92q-35 1 -49 16t-13 62v95q1 77 -14 107q-16 30 -59 45v2q43 15 59 45q15 30 14 107v91q-1 47 13 64q14 16 49 17v92h-24q-10 0 -20 1h-16q-82 1 -112 -27q-30 -29 -28 -99v-149
q0 -57 -15 -79q-16 -21 -50 -30v-69z" />
    <glyph glyph-name="glyph478" horiz-adv-x="349" 
d="M312 385q-34 9 -50 30q-15 22 -15 79v149q2 70 -28 99q-30 28 -112 27h-16q-10 -1 -20 -1h-24v-92q35 -1 49 -17q14 -17 13 -64v-91q-1 -77 14 -107q16 -30 59 -45v-2q-43 -15 -59 -45q-15 -30 -14 -107v-95q1 -47 -13 -62t-49 -16v-92q14 -1 24 -1h36q82 -1 112 27
q30 29 28 99v149q0 57 15 79q16 21 50 30v69z" />
    <glyph glyph-name="glyph479" horiz-adv-x="317" 
d="M90 -12h137v793h-137v-793z" />
    <glyph glyph-name="glyph480" 
d="M53 294h498v134h-498v-134z" />
    <glyph glyph-name="glyph481" 
d="M445 596l-143 -143l-143 143l-93 -93l143 -143l-143 -143l93 -93l143 143l143 -143l93 93l-143 143l143 143z" />
    <glyph glyph-name="glyph482" 
d="M47 309h188v-190h134v190h188v130h-188v190h-134v-190h-188v-130z" />
    <glyph glyph-name="glyph483" 
d="M505 665l-435 -232v-118l435 -230v152l-291 138v3l291 137v150z" />
    <glyph glyph-name="glyph484" 
d="M53 403h498v134h-498v-134zM53 215h498v134h-498v-134z" />
    <glyph glyph-name="glyph485" 
d="M99 515l291 -137v-3l-291 -138v-152l435 230v118l-435 232v-150z" />
    <glyph glyph-name="glyph486" horiz-adv-x="815" 
d="M536 538q0 -5 -3 -22q-3 -16 -3 -26q-17 27 -45 43q-29 16 -70 16q-89 -3 -143 -68q-54 -66 -55 -159q1 -82 44 -128t116 -47q42 1 72 16q30 14 47 33q8 -17 29 -30q20 -14 52 -15q89 3 146 77q56 74 58 190q-3 138 -101 224q-97 86 -251 89q-171 -4 -279 -110
q-109 -106 -112 -269q3 -167 109 -271q107 -103 287 -106q81 0 147 24q66 23 120 63l-48 53q-47 -29 -99 -46q-52 -16 -117 -16q-139 2 -223 84q-84 81 -86 215q2 130 85 215q83 84 217 87q124 -2 196 -70t74 -178q-1 -74 -30 -124q-30 -50 -70 -52q-23 0 -23 22q0 6 2 15
q1 10 5 30l44 241h-92zM425 459q39 0 60 -23q20 -22 20 -64q0 -56 -28 -96q-28 -41 -81 -43q-39 1 -59 25q-21 25 -21 65q0 54 29 94t80 42v0z" />
    <glyph glyph-name="glyph487" 
d="M54 407h176l-30 -62h-146v-130h83l-41 -85h139l41 85h276v130h-213l30 62h183v130h-120l36 73h-139l-36 -73h-239v-130z" />
    <glyph glyph-name="glyph488" 
d="M51 40h498v134h-498v-134zM47 369h188v-140h134v140h188v130h-188v140h-134v-140h-188v-130z" />
    <glyph glyph-name="glyph489" 
d="M74 40h435v134h-435v-134zM509 685l-435 -182v-118l435 -180v152l-288 88v3l288 87v150z" />
    <glyph glyph-name="glyph490" 
d="M531 174h-435v-134h435v134zM96 535l288 -87v-3l-288 -88v-152l435 180v118l-435 182v-150z" />
    <glyph glyph-name="glyph491" 
d="M41 373h360v-196h145v330h-505v-134z" />
    <glyph glyph-name="glyph492" 
d="M478 552q-20 -36 -36 -51q-17 -15 -37 -15q-17 0 -34 8q-17 7 -38 17l-17 8q-32 15 -59 25q-27 9 -56 9q-52 -1 -92 -37q-40 -37 -70 -92l89 -69q20 36 37 51q16 15 36 15q17 0 34 -8q17 -7 38 -17l17 -8q32 -15 59 -24q27 -10 56 -10q52 1 92 38q40 36 70 91zM476 302
q-20 -36 -36 -51q-17 -15 -37 -15q-17 0 -34 8q-17 7 -38 17l-17 8q-32 15 -59 25q-27 9 -56 9q-52 -1 -92 -37q-40 -37 -70 -92l89 -69q20 36 37 51q16 15 36 15q17 0 34 -8q17 -7 38 -17l17 -8q32 -15 59 -24q27 -10 56 -10q52 1 92 38q40 36 70 91z" />
    <glyph glyph-name="glyph493" 
d="M53 294h498v134h-498v-134zM226 96h152v146h-152v-146zM226 480h152v146h-152v-146z" />
    <glyph glyph-name="glyph494" horiz-adv-x="817" 
d="M219 547q-84 -1 -132 -53q-47 -51 -48 -134q-1 -71 42 -126q42 -54 134 -57q62 1 108 31q46 29 87 71q40 -40 86 -70t111 -32q87 3 131 57q43 55 43 126q-1 83 -48 134q-47 52 -129 53q-59 -1 -102 -27q-44 -27 -90 -70q-47 42 -91 69t-102 28v0zM597 306q-28 1 -53 17
q-26 16 -52 38q27 24 54 41q28 16 53 17q24 0 39 -16q15 -15 15 -40q0 -27 -15 -42t-41 -15v0zM224 306q-26 0 -41 15t-15 42q0 25 15 40q14 16 39 16q25 -1 52 -17q27 -17 54 -41q-26 -22 -51 -38t-53 -17v0z" />
    <glyph glyph-name="glyph516" horiz-adv-x="640" 
d="M320 113q-62 -1 -86 56q-24 56 -23 175q-1 124 23 185q23 61 86 61t86 -61q24 -61 23 -185q1 -119 -23 -175q-24 -57 -86 -56v0zM320 718q-164 -4 -222 -110t-54 -260q-3 -165 56 -263q58 -98 220 -100q162 2 221 100q58 98 55 263q4 154 -54 260t-222 110v0z" />
    <glyph glyph-name="glyph517" horiz-adv-x="449" 
d="M198 469v-469h160v701h-140q-17 -58 -62 -90t-117 -32h-16v-110h175z" />
    <glyph glyph-name="glyph518" horiz-adv-x="617" 
d="M571 0v128h-268h-29q-13 0 -30 -1q34 28 70 52q35 24 88 64q73 54 119 118q45 65 46 143q-1 99 -69 156q-69 57 -190 58q-124 -1 -192 -67q-67 -66 -69 -182h160q0 49 24 80q24 30 75 31q43 0 67 -22q25 -23 25 -65q1 -41 -26 -85q-27 -43 -93 -96l-127 -100
q-47 -38 -111 -85v-127h530z" />
    <glyph glyph-name="glyph519" horiz-adv-x="619" 
d="M31 213q4 -109 76 -169q72 -59 197 -60q129 1 202 60q73 58 74 156q-3 83 -47 123q-44 41 -97 55v2q52 17 83 51q30 33 31 96q-1 86 -66 138t-176 53q-115 -1 -180 -58q-66 -56 -69 -151h155q2 43 26 63t62 20q39 0 62 -19q22 -20 23 -53q0 -47 -34 -68q-34 -20 -97 -20
v-124h13q69 1 107 -22q37 -23 37 -76q0 -45 -27 -71t-82 -27q-51 0 -79 26t-32 75h-162z" />
    <glyph glyph-name="glyph520" horiz-adv-x="647" 
d="M614 264h-101v437h-185l-304 -443v-122h334v-136h155v136h101v128zM170 263q5 8 11 16l11 15l19 28q11 14 19 27l54 80l38 60l37 62h2l-2 -60t-1 -62v-165h-100h-48q-20 0 -40 -1v0z" />
    <glyph glyph-name="glyph521" horiz-adv-x="611" 
d="M33 203q10 -98 82 -156q72 -59 191 -60q125 1 198 66q73 66 75 183q-2 108 -66 170t-167 63q-47 0 -81 -12q-34 -11 -58 -30h-1q6 38 10 73l10 71h302v130h-429l-44 -390l159 -26q14 25 37 41q23 15 59 16q49 -1 77 -31q28 -31 28 -82q0 -52 -28 -83t-79 -32
q-46 1 -72 25t-32 64h-171z" />
    <glyph glyph-name="glyph522" horiz-adv-x="629" 
d="M578 535q-14 75 -73 130q-59 54 -172 57q-151 -2 -222 -107q-70 -105 -69 -293q1 -162 71 -248q71 -86 206 -87q130 2 200 70q70 67 71 175q-2 115 -67 174q-64 59 -160 59q-60 -1 -99 -18t-53 -33q0 83 30 133q29 50 84 51q40 0 60 -17q19 -17 27 -45zM320 340
q48 0 78 -30q29 -29 30 -83q-1 -52 -30 -81t-77 -30q-48 1 -78 31q-29 30 -30 82q1 52 31 81q29 29 76 30v0z" />
    <glyph glyph-name="glyph523" horiz-adv-x="548" 
d="M282 0q63 188 125 330q62 143 125 245v126h-507v-131h223q34 0 61 -1q27 0 59 2q0 -1 1 -1q-78 -129 -145 -273t-118 -297h176z" />
    <glyph glyph-name="glyph524" horiz-adv-x="623" 
d="M312 -16q125 1 198 57q72 56 74 153q0 66 -37 110t-109 70v1q57 20 88 59q30 39 30 96q-1 81 -67 134q-66 52 -179 54q-111 -2 -176 -54q-65 -53 -67 -134q0 -57 31 -96q30 -39 87 -59v-1q-146 -49 -146 -180q2 -97 75 -153t198 -57v0zM311 309q49 -1 79 -28
q29 -27 30 -73q-1 -44 -29 -70q-29 -27 -80 -28q-52 1 -81 28t-30 70q1 46 30 73q30 27 81 28v0zM312 594q43 -1 68 -23q25 -23 25 -59t-25 -59t-68 -24q-43 1 -68 24t-26 59q0 36 25 59q24 22 69 23v0z" />
    <glyph glyph-name="glyph525" horiz-adv-x="629" 
d="M48 167q14 -75 74 -130t173 -58q152 1 223 105q70 103 69 290q-1 166 -71 253q-71 86 -206 87q-128 -2 -199 -70q-70 -68 -71 -175q2 -114 66 -174t160 -60q61 2 98 19t53 32q0 -85 -29 -133t-84 -49q-40 1 -60 18q-19 17 -27 44zM309 363q-48 0 -78 30q-29 29 -30 83
q1 52 30 81t77 30q48 -1 78 -31q29 -30 30 -82q-1 -52 -31 -81q-29 -29 -76 -30v0z" />
    <glyph glyph-name="glyph526" horiz-adv-x="317" 
d="M90 428h137v303h-137v-303zM90 -62h137v303h-137v-303z" />
    <glyph glyph-name="glyph529" horiz-adv-x="280" 
d="M62 587h156v128h-156v-128zM218 0v525h-156v-525h156z" />
    <glyph glyph-name="glyph531" 
d="M302 113q-61 -1 -85 56q-23 56 -22 175q-1 124 22 185q24 61 85 61t85 -61q23 -61 22 -185q1 -119 -23 -175q-24 -57 -84 -56v0zM302 718q-161 -4 -217 -110q-57 -106 -53 -260q-3 -165 54 -263t216 -100q159 2 216 100t54 263q4 154 -53 260q-56 106 -217 110v0z" />
    <glyph glyph-name="glyph532" 
d="M275 469v-469h157v701h-138q-16 -58 -60 -90q-45 -32 -115 -32h-16v-110h172z" />
    <glyph glyph-name="glyph533" 
d="M560 0v128h-263h-29t-29 -1q34 28 68 52l87 64q72 54 116 118q45 64 46 143q-1 99 -68 156t-186 58q-121 -1 -188 -67t-68 -182h157q0 49 23 80q23 30 74 31q42 0 66 -22q24 -23 24 -65q1 -41 -25 -85q-26 -43 -91 -96l-125 -100l-109 -85v-127h520z" />
    <glyph glyph-name="glyph534" 
d="M28 213q4 -109 74 -169q71 -59 194 -60q127 1 199 60q71 58 72 156q-3 83 -47 123q-43 40 -95 55v2q52 17 82 51q29 33 30 96q-1 86 -65 138q-63 52 -172 53q-112 -1 -176 -58q-65 -56 -68 -151h152q2 43 25 63q24 20 61 20q39 0 61 -19q22 -20 22 -53q0 -47 -33 -68
q-33 -20 -95 -20v-124h13q67 1 104 -22t37 -76q0 -45 -26 -71q-27 -26 -81 -27q-50 0 -78 26q-27 26 -31 75h-159z" />
    <glyph glyph-name="glyph535" 
d="M586 264h-99v437h-181l-298 -443v-122h327v-136h152v136h99v128zM172 294l19 28q11 14 19 27l53 80l37 60q18 29 36 62h2l-2 -60t-1 -62v-165h-98h-47q-20 0 -39 -1z" />
    <glyph glyph-name="glyph536" 
d="M34 203q9 -98 80 -156q71 -59 188 -60q122 1 194 66q72 66 74 183q-2 108 -65 170t-164 63q-46 0 -79 -12q-33 -11 -57 -30h-1q6 38 10 73l10 71h296v130h-421l-43 -390l156 -26q13 25 35 41q23 15 59 16q48 -1 76 -31q27 -31 27 -82q0 -52 -27 -83t-78 -32q-45 1 -70 25
q-26 24 -32 64h-168z" />
    <glyph glyph-name="glyph537" 
d="M560 536q-14 75 -72 130q-58 54 -168 57q-149 -2 -218 -107t-68 -293q1 -162 70 -248q70 -86 202 -87q127 2 196 70q69 67 70 175q-2 115 -65 174t-158 59q-59 -1 -97 -18t-52 -33q0 83 29 133t83 51q39 0 58 -17t27 -45zM307 341q47 0 76 -30q29 -29 30 -83
q-1 -52 -30 -81q-28 -29 -75 -30q-47 1 -76 31t-30 82q1 52 30 81t75 30v0z" />
    <glyph glyph-name="glyph538" 
d="M311 0q61 188 123 330q61 143 122 245v126h-497v-131h219q33 0 59 -1q27 0 58 2q0 -1 1 -1q-76 -129 -142 -273q-67 -144 -116 -297h173z" />
    <glyph glyph-name="glyph539" 
d="M302 -16q123 1 194 57q72 56 73 153q0 66 -36 110q-37 44 -108 70v1q57 20 87 59q29 39 29 96q-1 81 -65 134q-64 52 -176 54q-109 -2 -173 -54q-64 -53 -65 -134q0 -57 30 -96q29 -39 86 -59v-1q-144 -49 -144 -180q1 -97 73 -153q71 -56 195 -57v0zM301 309
q49 -1 78 -28q28 -27 29 -73q-1 -44 -29 -70q-29 -27 -78 -28q-51 1 -80 28t-29 70q1 46 30 73q30 27 79 28v0zM302 594q42 -1 67 -23q24 -23 24 -59t-24 -59q-25 -23 -67 -24q-42 1 -67 24q-24 23 -25 59q0 36 25 59q24 22 67 23v0z" />
    <glyph glyph-name="glyph540" 
d="M41 171q14 -75 72 -130q59 -55 170 -58q150 1 219 105q69 103 68 290q-1 166 -70 253q-70 86 -202 87q-126 -2 -195 -70t-70 -175q2 -114 65 -174q62 -60 157 -60q58 1 95 18t53 33q0 -85 -28 -133q-29 -48 -83 -49q-39 1 -58 18t-27 44zM297 367q-47 0 -76 30
q-29 29 -30 83q1 52 30 81q28 29 75 30q47 -1 76 -31t30 -82q-1 -52 -30 -81t-75 -30v0z" />
    <glyph glyph-name="glyph541" horiz-adv-x="430" 
d="M396 -123q-2 23 -3 44t-1 44v139q0 98 -45 139q-45 40 -132 39q-84 -1 -128 -37q-44 -37 -49 -98h115q3 25 19 40q15 15 43 15q32 0 47 -20q14 -20 16 -59l-34 -3q-88 -7 -154 -35q-67 -28 -70 -98q1 -57 40 -87q39 -31 104 -31q51 1 78 15t44 33q0 -8 1 -18q0 -9 1 -22
h108zM277 51v-8q-1 -54 -22 -75q-21 -22 -55 -21q-27 0 -42 12q-16 12 -16 32q0 23 31 37q30 13 88 21z" />
    <glyph glyph-name="glyph542" horiz-adv-x="479" 
d="M154 -123v47q14 -21 43 -39q29 -17 77 -18q82 1 130 58q48 56 49 152q-1 97 -48 151q-47 53 -126 54q-47 -1 -76 -16q-29 -16 -43 -34q0 8 1 17v20v144h-119v-536h112zM239 190q42 -1 65 -32t23 -83q0 -51 -23 -83t-65 -33q-40 1 -62 33q-23 31 -23 86q1 52 23 82
q23 29 62 30v0z" />
    <glyph glyph-name="glyph543" horiz-adv-x="449" 
d="M313 21q-9 -31 -29 -45q-21 -14 -46 -14q-42 0 -66 29t-24 86q0 55 24 86q23 30 63 31q29 0 48 -15q18 -16 26 -45h120q-15 73 -65 113q-51 40 -130 40q-95 -2 -151 -59q-57 -57 -58 -152q1 -93 56 -150q55 -56 152 -58q82 1 132 42t65 111h-117z" />
    <glyph glyph-name="glyph544" horiz-adv-x="479" 
d="M437 -123v536h-119v-181q-14 18 -43 34q-28 15 -73 16q-79 -1 -127 -56q-48 -56 -49 -153q1 -97 48 -151q48 -54 129 -55q48 1 77 18q30 18 44 39q-1 -9 0 -22v-25h113zM238 190q40 -1 63 -30q23 -30 24 -82q0 -55 -22 -86q-23 -32 -65 -33q-40 1 -63 33t-23 83
q0 52 23 83t63 32v0z" />
    <glyph glyph-name="glyph545" horiz-adv-x="457" 
d="M308 -2q-20 -41 -74 -41q-37 0 -61 25q-24 24 -30 66h292v7q0 3 1 7v7q0 99 -52 158t-151 60q-94 -2 -150 -58q-57 -57 -58 -151q1 -98 56 -153q55 -56 150 -57q79 1 130 36t69 94h-122zM146 123q7 37 30 58q23 22 56 22q35 0 57 -21t27 -59h-170z" />
    <glyph glyph-name="glyph546" horiz-adv-x="270" 
d="M73 270h-53v-86h53v-307h118v307h67v86h-67v11q0 50 47 50q12 0 20 -2v88q-7 2 -16 3q-10 1 -24 1q-69 0 -107 -33q-37 -34 -38 -100v-18z" />
    <glyph glyph-name="glyph547" horiz-adv-x="481" 
d="M36 -137q12 -63 61 -99q48 -35 133 -36q102 0 155 53q54 53 54 156v332h-116q0 -9 -1 -20q0 -12 2 -24q-15 24 -44 39t-76 16q-77 -1 -126 -54t-51 -141q1 -88 48 -140q47 -53 127 -54q45 1 76 17t47 40q3 -66 -18 -99q-22 -34 -73 -34q-52 0 -73 48h-125zM240 190
q40 -1 63 -28q23 -28 23 -74q-1 -51 -25 -78q-23 -28 -61 -28q-42 1 -64 29q-23 27 -23 73q0 47 24 76q23 29 63 30v0z" />
    <glyph glyph-name="glyph548" horiz-adv-x="454" 
d="M161 -123v202q0 108 72 108q37 0 51 -30t13 -89v-191h119v202q0 50 -4 81q-4 32 -19 57q-37 64 -118 64q-45 -1 -72 -15q-28 -14 -43 -36q1 25 1 51v48v85h-119v-537h119z" />
    <glyph glyph-name="glyph549" horiz-adv-x="203" 
d="M42 316h119v98h-119v-98zM161 -123v394h-119v-394h119z" />
    <glyph glyph-name="glyph550" horiz-adv-x="202" 
d="M160 270h-118v-390q0 -31 -13 -46t-46 -15h-5q-3 0 -8 1v-83l26 -4q13 -1 27 -1q77 -1 108 33q30 34 29 113v392zM42 315h118v98h-118v-98z" />
    <glyph glyph-name="glyph551" horiz-adv-x="428" 
d="M161 -123v189q7 -13 25 -40q17 -27 36 -54l34 -49q17 -24 31 -46h151l-105 135q-40 52 -58 78q7 11 41 53l107 128h-145q-13 -22 -53 -80l-64 -92v315h-119v-537h119z" />
    <glyph glyph-name="glyph552" horiz-adv-x="203" 
d="M161 -123v537h-119v-537h119z" />
    <glyph glyph-name="glyph553" horiz-adv-x="692" 
d="M407 -123v202q0 54 17 82q16 27 53 27q34 0 47 -29q12 -29 11 -91v-191h119v233q-2 95 -42 134q-40 38 -97 37q-52 -1 -83 -21q-32 -20 -45 -44q-18 30 -46 47q-28 18 -70 18q-48 -1 -76 -19t-40 -42v51h-114q1 -15 1 -30v-31v-333h119v202q0 54 17 82q16 27 52 27
q34 0 47 -29q12 -29 11 -91v-191h119z" />
    <glyph glyph-name="glyph554" horiz-adv-x="454" 
d="M161 -123v202q0 109 72 109q37 0 51 -31t13 -89v-191h119v202q0 50 -4 81q-4 32 -19 57q-18 30 -48 47t-71 17q-48 -1 -77 -19t-42 -42v51h-114q1 -15 1 -30v-31v-333h119z" />
    <glyph glyph-name="glyph555" horiz-adv-x="475" 
d="M236 286q-97 -1 -153 -58q-57 -57 -58 -152q1 -95 57 -151q56 -57 155 -58q98 1 155 58q57 56 58 150q-1 95 -59 152q-58 58 -155 59v0zM235 193q45 -1 68 -32q22 -32 22 -86t-22 -84q-23 -31 -67 -31q-44 1 -67 31q-22 31 -22 85t23 85t65 32v0z" />
    <glyph glyph-name="glyph556" horiz-adv-x="479" 
d="M42 270v-529h119v92v44t-1 36q15 -19 42 -32q27 -14 72 -15q82 1 130 58t49 152q-1 98 -48 151t-126 54q-47 -1 -77 -16q-30 -16 -44 -34v13q0 5 1 12v14h-117zM239 191q42 -1 65 -33t23 -83q0 -52 -23 -83q-23 -32 -65 -33q-40 1 -62 32q-23 32 -23 86q1 52 23 83
q23 30 62 31v0z" />
    <glyph glyph-name="glyph557" horiz-adv-x="479" 
d="M319 269v-38q-14 18 -43 33t-74 16q-79 -1 -127 -56t-49 -153q1 -95 49 -150t130 -56q43 1 71 16q28 14 43 33q-1 -23 -1 -38v-32v-104h119v529h-118zM238 190q40 -1 63 -31q23 -31 24 -83q0 -54 -22 -86q-23 -31 -65 -32q-40 1 -63 33q-23 31 -23 83q0 51 23 83t63 33v0
z" />
    <glyph glyph-name="glyph558" horiz-adv-x="295" 
d="M42 -123h119v124q-2 88 15 131q16 43 77 43q17 0 32 -3v107q-4 1 -10 1q-7 1 -15 1q-37 0 -64 -16q-28 -17 -44 -52l-1 10q0 8 1 19v29h-111q1 -19 1 -36v-35v-323z" />
    <glyph glyph-name="glyph559" horiz-adv-x="423" 
d="M18 11q9 -72 57 -107t140 -35q88 1 136 34t49 93q1 51 -32 78q-34 28 -110 47l-27 7q-37 9 -57 18q-21 10 -21 27q0 14 14 23t40 9q27 0 44 -12t24 -33h116q-8 65 -56 97q-48 31 -125 31q-85 -1 -131 -33q-46 -33 -46 -90q0 -51 32 -78q33 -27 98 -43l50 -13
q30 -8 47 -16q18 -9 18 -26q-1 -17 -18 -27q-17 -9 -44 -9q-63 0 -75 58h-123z" />
    <glyph glyph-name="glyph560" horiz-adv-x="289" 
d="M72 185v-178q0 -80 33 -110q33 -31 105 -29q16 0 27 1q12 1 20 3v87q-10 -2 -21 -2q-32 -1 -39 21q-8 22 -7 73v134h72v85h-72v105h-118v-105h-59v-85h59z" />
    <glyph glyph-name="glyph561" horiz-adv-x="450" 
d="M289 271v-202q0 -54 -16 -81q-17 -28 -55 -28q-36 0 -49 30q-13 31 -12 90v191h-119v-202q0 -50 4 -81q4 -32 18 -57q19 -32 48 -48q30 -16 71 -16q47 1 75 19q27 17 41 42v-51h114q-1 15 -1 31v30v333h-119z" />
    <glyph glyph-name="glyph562" horiz-adv-x="413" 
d="M141 -123h131l46 131l92 262h-123l-24 -80l-30 -102q-15 -49 -24 -91l-80 273h-125l93 -271t43 -121z" />
    <glyph glyph-name="glyph563" horiz-adv-x="640" 
d="M120 -123h141l30 120q10 37 16 65t12 61l13 -60q8 -31 16 -66l30 -120h143l111 393h-120l-61 -280l-66 280h-129q-35 -148 -45 -199q-11 -51 -16 -81q-5 19 -19 87q-15 68 -45 193h-122l76 -271t34 -121z" />
    <glyph glyph-name="glyph564" horiz-adv-x="404" 
d="M-2 -123h130l74 133q10 -19 29 -52l45 -81h133q-62 89 -91 134l-45 70l120 189h-127q-11 -18 -24 -44l-38 -74q-16 31 -32 59q-16 29 -31 59h-132l122 -189z" />
    <glyph glyph-name="glyph565" horiz-adv-x="411" 
d="M102 -259h120l184 529h-122l-74 -262l-42 133l-41 129h-127q19 -54 52 -140l95 -248l-11 -34l-15 -46l-20 -60z" />
    <glyph glyph-name="glyph566" horiz-adv-x="399" 
d="M27 -123h346v88h-107h-50t-47 -1q21 26 62 73l131 147v86h-328v-88h97h47q20 0 41 2l-96 -112l-96 -109v-86z" />
    <glyph glyph-name="glyph567" horiz-adv-x="483" 
d="M241 -33q-45 0 -63 43t-17 133q-1 94 16 140q18 46 64 46t64 -46q18 -47 17 -140q1 -90 -17 -133t-64 -43v0zM241 429q-123 -3 -166 -84q-44 -81 -41 -199q-3 -128 42 -202q44 -74 165 -76q122 2 166 76q45 74 42 202q3 118 -41 199t-167 84v0z" />
    <glyph glyph-name="glyph568" horiz-adv-x="342" 
d="M149 234v-357h122v537h-108q-12 -45 -45 -69t-86 -24h-13v-87h130z" />
    <glyph glyph-name="glyph569" horiz-adv-x="467" 
d="M431 -123v99h-202h-21t-21 -1l60 45l57 42q55 42 89 91t35 109q-1 77 -52 120t-144 44q-94 -1 -144 -54q-50 -52 -51 -138h122q0 37 17 61q17 23 55 24q32 0 50 -17t18 -48q1 -31 -20 -64q-20 -34 -68 -73l-95 -77l-84 -65v-98h399z" />
    <glyph glyph-name="glyph570" horiz-adv-x="466" 
d="M24 44q3 -85 57 -130q53 -46 147 -46q99 1 153 45t55 120q-2 60 -34 93q-33 33 -71 44q39 14 61 40t22 73q-1 67 -49 106q-49 39 -134 40q-88 -1 -136 -44q-47 -43 -50 -117h118q1 32 19 48q18 15 45 15q28 0 45 -15q18 -14 18 -39q0 -35 -25 -51q-26 -15 -73 -15v-96h11
q51 0 78 -17q28 -18 28 -57q0 -33 -20 -53t-61 -21q-36 0 -57 20t-24 57h-123z" />
    <glyph glyph-name="glyph571" horiz-adv-x="489" 
d="M463 80h-76v334h-140l-227 -338v-95h249v-104h118v104h76v99zM217 204q19 28 29 47l23 41l2 -1q0 -43 -1 -59q-1 -17 -1 -27v-125h-73h-35t-28 -1q6 8 19 27l24 37zM130 79h3l-1 -1v-1h-1z" />
    <glyph glyph-name="glyph572" horiz-adv-x="464" 
d="M27 33q7 -75 62 -120q54 -45 143 -46q94 1 149 51q56 50 57 139q-1 84 -50 131q-48 47 -126 48q-35 0 -60 -9q-24 -8 -42 -21l6 54t8 52h225v101h-322l-33 -300l120 -19q10 18 27 31q17 12 44 12q36 -1 57 -24q21 -24 21 -61q0 -40 -21 -63t-59 -24q-32 1 -51 19
q-20 19 -25 49h-130z" />
    <glyph glyph-name="glyph573" horiz-adv-x="476" 
d="M436 284q-9 58 -54 100t-130 44q-114 -1 -167 -82q-53 -80 -52 -224q1 -124 54 -189q54 -65 154 -66q99 1 151 53q53 51 53 134q-2 89 -50 133q-48 45 -121 45q-45 -1 -72 -13q-28 -12 -40 -24q1 61 23 99q22 37 61 38q29 0 43 -13q15 -13 21 -34zM242 136q35 0 57 -23
t23 -63q-1 -39 -23 -61q-22 -23 -56 -23q-34 1 -56 23q-22 23 -23 62q1 39 23 62q21 23 55 23v0z" />
    <glyph glyph-name="glyph574" horiz-adv-x="416" 
d="M215 -123q47 143 94 252q46 109 94 187v98h-382v-103h193h31t32 1q-57 -97 -106 -207q-50 -110 -89 -228h133z" />
    <glyph glyph-name="glyph575" horiz-adv-x="470" 
d="M235 -132q95 1 149 43q55 42 56 118q0 50 -27 84q-28 33 -81 53q87 31 87 119q-1 63 -51 103q-49 40 -135 41q-83 -1 -132 -41t-50 -103q0 -44 22 -73q22 -30 65 -44q-108 -40 -108 -139q1 -76 56 -118q54 -42 149 -43v0zM234 116q37 -1 59 -22q21 -21 22 -55
q0 -33 -22 -53t-59 -21q-37 1 -59 22q-22 20 -22 52q1 34 23 55t58 22v0zM235 333q33 -1 51 -18t18 -44t-18 -44t-51 -18q-31 1 -50 18t-19 44t18 44t51 18v0z" />
    <glyph glyph-name="glyph576" horiz-adv-x="476" 
d="M37 12q11 -58 56 -100q44 -42 130 -44q114 1 167 79q54 79 53 223q0 126 -54 193q-53 66 -155 66q-97 -2 -149 -54q-53 -52 -54 -133q2 -88 50 -134t121 -46q43 1 71 13t40 24q-1 -62 -22 -98q-22 -36 -62 -37q-29 0 -43 13t-20 34zM233 162q-34 0 -56 23q-22 22 -23 62
q1 39 23 61q21 23 55 23q36 0 58 -23q21 -23 22 -63q-1 -39 -23 -61t-56 -22v0z" />
    <glyph glyph-name="glyph577" horiz-adv-x="483" 
d="M241 392q-45 0 -63 43t-17 133q-1 94 16 140q18 46 64 46t64 -46q18 -47 17 -140q1 -90 -17 -133t-64 -43v0zM241 854q-123 -3 -166 -84q-44 -81 -41 -199q-3 -128 42 -202q44 -74 165 -76q122 2 166 76q45 74 42 202q3 118 -41 199t-167 84v0z" />
    <glyph glyph-name="glyph578" horiz-adv-x="342" 
d="M149 659v-357h122v537h-108q-12 -45 -45 -69t-86 -24h-13v-87h130z" />
    <glyph glyph-name="glyph579" horiz-adv-x="467" 
d="M431 302v99h-202h-21t-21 -1l60 45l57 42q55 42 89 91t35 109q-1 77 -52 120t-144 44q-94 -1 -144 -54q-50 -52 -51 -138h122q0 37 17 61q17 23 55 24q32 0 50 -17t18 -48q1 -31 -20 -64q-20 -34 -68 -73l-95 -77l-84 -65v-98h399z" />
    <glyph glyph-name="glyph580" horiz-adv-x="466" 
d="M24 469q3 -85 57 -130q53 -46 147 -46q99 1 153 45t55 120q-2 60 -34 93q-33 33 -71 44q39 14 61 40t22 73q-1 67 -49 106q-49 39 -134 40q-88 -1 -136 -44q-47 -43 -50 -117h118q1 32 19 48q18 15 45 15q28 0 45 -15q18 -14 18 -39q0 -35 -25 -51q-26 -15 -73 -15v-96
h11q51 0 78 -17q28 -18 28 -57q0 -33 -20 -53t-61 -21q-36 0 -57 20t-24 57h-123z" />
    <glyph glyph-name="glyph581" horiz-adv-x="489" 
d="M463 505h-76v334h-140l-227 -338v-95h249v-104h118v104h76v99zM217 629q19 28 29 47l23 41l2 -1q0 -43 -1 -59q-1 -17 -1 -27v-125h-73h-35t-28 -1q6 8 19 27l24 37zM130 504h3l-1 -1v-1h-1z" />
    <glyph glyph-name="glyph582" horiz-adv-x="462" 
d="M26 458q7 -75 62 -120q54 -45 143 -46q94 1 149 51q56 50 57 139q-1 84 -50 131q-48 47 -126 48q-35 0 -60 -9q-24 -8 -42 -21l6 54t8 52h225v101h-322l-33 -300l120 -19q10 18 27 31q17 12 44 12q36 -1 57 -24q21 -24 21 -61q0 -40 -21 -63t-59 -24q-32 1 -51 19
q-20 19 -25 49h-130z" />
    <glyph glyph-name="glyph583" horiz-adv-x="475" 
d="M436 709q-9 58 -54 100t-130 44q-114 -1 -167 -82q-53 -80 -52 -224q1 -124 54 -189q54 -65 154 -66q99 1 151 53q53 51 53 134q-2 89 -50 133q-48 45 -121 45q-45 -1 -72 -13q-28 -12 -40 -24q1 61 23 99q22 37 61 38q29 0 43 -13q15 -13 21 -34zM242 561q35 0 57 -23
t23 -63q-1 -39 -23 -61q-22 -23 -56 -23q-34 1 -56 23q-22 23 -23 62q1 39 23 62q21 23 55 23v0z" />
    <glyph glyph-name="glyph584" horiz-adv-x="415" 
d="M215 302q47 143 94 252q46 109 94 187v98h-382v-103h193h31t32 1q-57 -97 -106 -207q-50 -110 -89 -228h133z" />
    <glyph glyph-name="glyph585" horiz-adv-x="470" 
d="M235 293q95 1 149 43q55 42 56 118q0 50 -27 84q-28 33 -81 53q87 31 87 119q-1 63 -51 103q-49 40 -135 41q-83 -1 -132 -41t-50 -103q0 -44 22 -73q22 -30 65 -44q-108 -40 -108 -139q1 -76 56 -118q54 -42 149 -43v0zM234 541q37 -1 59 -22q21 -21 22 -55
q0 -33 -22 -53t-59 -21q-37 1 -59 22q-22 20 -22 52q1 34 23 55t58 22v0zM235 758q33 -1 51 -18t18 -44t-18 -44t-51 -18q-31 1 -50 18t-19 44t18 44t51 18v0z" />
    <glyph glyph-name="glyph586" horiz-adv-x="477" 
d="M38 437q11 -58 56 -100q44 -42 130 -44q114 1 167 79q54 79 53 223q0 126 -54 193q-53 66 -155 66q-97 -2 -149 -54q-53 -52 -54 -133q2 -88 50 -134t121 -46q43 1 71 13t40 24q-1 -62 -22 -98q-22 -36 -62 -37q-29 0 -43 13t-20 34zM234 587q-34 0 -56 23q-22 22 -23 62
q1 39 23 61q21 23 55 23q36 0 58 -23q21 -23 22 -63q-1 -39 -23 -61t-56 -22v0z" />
    <glyph glyph-name="glyph587" horiz-adv-x="430" 
d="M396 302q-2 23 -3 44t-1 44v139q0 98 -45 139q-45 40 -132 39q-84 -1 -128 -37q-44 -37 -49 -98h115q3 25 19 40q15 15 43 15q32 0 47 -20q14 -20 16 -59l-34 -3q-88 -7 -154 -35q-67 -28 -70 -98q1 -57 40 -87q39 -31 104 -31q51 1 78 15t44 33q0 -8 1 -18q0 -9 1 -22
h108zM277 476v-8q-1 -54 -22 -75q-21 -22 -55 -21q-27 0 -42 12q-16 12 -16 32q0 23 31 37q30 13 88 21z" />
    <glyph glyph-name="glyph588" horiz-adv-x="479" 
d="M154 302v47q14 -21 43 -39q29 -17 77 -18q82 1 130 58q48 56 49 152q-1 97 -48 151q-47 53 -126 54q-47 -1 -76 -16q-29 -16 -43 -34q0 8 1 17v20v144h-119v-536h112zM239 615q42 -1 65 -32t23 -83q0 -51 -23 -83t-65 -33q-40 1 -62 33q-23 31 -23 86q1 52 23 82
q23 29 62 30v0z" />
    <glyph glyph-name="glyph589" horiz-adv-x="449" 
d="M313 446q-9 -31 -29 -45q-21 -14 -46 -14q-42 0 -66 29t-24 86q0 55 24 86q23 30 63 31q29 0 48 -15q18 -16 26 -45h120q-15 73 -65 113q-51 40 -130 40q-95 -2 -151 -59q-57 -57 -58 -152q1 -93 56 -150q55 -56 152 -58q82 1 132 42t65 111h-117z" />
    <glyph glyph-name="glyph590" horiz-adv-x="479" 
d="M437 302v536h-119v-181q-14 18 -43 34q-28 15 -73 16q-79 -1 -127 -56q-48 -56 -49 -153q1 -97 48 -151q48 -54 129 -55q48 1 77 18q30 18 44 39q-1 -9 0 -22v-25h113zM238 615q40 -1 63 -30q23 -30 24 -82q0 -55 -22 -86q-23 -32 -65 -33q-40 1 -63 33t-23 83
q0 52 23 83t63 32v0z" />
    <glyph glyph-name="glyph591" horiz-adv-x="456" 
d="M308 423q-20 -41 -74 -41q-37 0 -61 25q-24 24 -30 66h292v7q0 3 1 7v7q0 99 -52 158t-151 60q-94 -2 -150 -58q-57 -57 -58 -151q1 -98 56 -153q55 -56 150 -57q79 1 130 36t69 94h-122zM146 548q7 37 30 58q23 22 56 22q35 0 57 -21t27 -59h-170z" />
    <glyph glyph-name="glyph592" horiz-adv-x="269" 
d="M72 695h-53v-86h53v-307h118v307h67v86h-67v11q0 50 47 50q12 0 20 -2v88q-7 2 -16 3q-10 1 -24 1q-69 0 -107 -33q-37 -34 -38 -100v-18z" />
    <glyph glyph-name="glyph593" horiz-adv-x="480" 
d="M35 288q12 -63 61 -99q48 -35 133 -36q102 0 155 53q54 53 54 156v332h-116q0 -9 -1 -20q0 -12 2 -24q-15 24 -44 39t-76 16q-77 -1 -126 -54t-51 -141q1 -88 48 -140q47 -53 127 -54q45 1 76 17t47 40q3 -66 -18 -99q-22 -34 -73 -34q-52 0 -73 48h-125zM239 615
q40 -1 63 -28q23 -28 23 -74q-1 -51 -25 -78q-23 -28 -61 -28q-42 1 -64 29q-23 27 -23 73q0 47 24 76q23 29 63 30v0z" />
    <glyph glyph-name="glyph594" horiz-adv-x="454" 
d="M161 302v202q0 108 72 108q37 0 51 -30t13 -89v-191h119v202q0 50 -4 81q-4 32 -19 57q-37 64 -118 64q-45 -1 -72 -15q-28 -14 -43 -36q1 25 1 51v48v85h-119v-537h119z" />
    <glyph glyph-name="glyph595" horiz-adv-x="203" 
d="M42 741h119v98h-119v-98zM161 302v394h-119v-394h119z" />
    <glyph glyph-name="glyph596" horiz-adv-x="202" 
d="M160 695h-118v-390q0 -31 -13 -46t-46 -15h-5q-3 0 -8 1v-83l26 -4q13 -1 27 -1q77 -1 108 33q30 34 29 113v392zM42 740h118v98h-118v-98z" />
    <glyph glyph-name="glyph597" horiz-adv-x="428" 
d="M161 302v189q7 -13 25 -40q17 -27 36 -54l34 -49q17 -24 31 -46h151l-105 135q-40 52 -58 78q7 11 41 53l107 128h-145q-13 -22 -53 -80l-64 -92v315h-119v-537h119z" />
    <glyph glyph-name="glyph598" horiz-adv-x="203" 
d="M161 302v537h-119v-537h119z" />
    <glyph glyph-name="glyph599" horiz-adv-x="692" 
d="M407 302v202q0 54 17 82q16 27 53 27q34 0 47 -29q12 -29 11 -91v-191h119v233q-2 95 -42 134q-40 38 -97 37q-52 -1 -83 -21q-32 -20 -45 -44q-18 30 -46 47q-28 18 -70 18q-48 -1 -76 -19t-40 -42v51h-114q1 -15 1 -30v-31v-333h119v202q0 54 17 82q16 27 52 27
q34 0 47 -29q12 -29 11 -91v-191h119z" />
    <glyph glyph-name="glyph600" horiz-adv-x="454" 
d="M161 302v202q0 109 72 109q37 0 51 -31t13 -89v-191h119v202q0 50 -4 81q-4 32 -19 57q-18 30 -48 47t-71 17q-48 -1 -77 -19t-42 -42v51h-114q1 -15 1 -30v-31v-333h119z" />
    <glyph glyph-name="glyph601" horiz-adv-x="475" 
d="M236 711q-97 -1 -153 -58q-57 -57 -58 -152q1 -95 57 -151q56 -57 155 -58q98 1 155 58q57 56 58 150q-1 95 -59 152q-58 58 -155 59v0zM235 618q45 -1 68 -32q22 -32 22 -86t-22 -84q-23 -31 -67 -31q-44 1 -67 31q-22 31 -22 85t23 85t65 32v0z" />
    <glyph glyph-name="glyph602" horiz-adv-x="479" 
d="M42 695v-529h119v92v44t-1 36q15 -19 42 -32q27 -14 72 -15q82 1 130 58t49 152q-1 98 -48 151t-126 54q-47 -1 -77 -16q-30 -16 -44 -34v13q0 5 1 12v14h-117zM239 616q42 -1 65 -33t23 -83q0 -52 -23 -83q-23 -32 -65 -33q-40 1 -62 32q-23 32 -23 86q1 52 23 83
q23 30 62 31v0z" />
    <glyph glyph-name="glyph603" horiz-adv-x="479" 
d="M319 694v-38q-14 18 -43 33t-74 16q-79 -1 -127 -56t-49 -153q1 -95 49 -150t130 -56q43 1 71 16q28 14 43 33q-1 -23 -1 -38v-32v-104h119v529h-118zM238 615q40 -1 63 -31q23 -31 24 -83q0 -54 -22 -86q-23 -31 -65 -32q-40 1 -63 33q-23 31 -23 83q0 51 23 83t63 33v0
z" />
    <glyph glyph-name="glyph604" horiz-adv-x="295" 
d="M42 302h119v124q-2 88 15 131q16 43 77 43q17 0 32 -3v107q-4 1 -10 1q-7 1 -15 1q-37 0 -64 -16q-28 -17 -44 -52l-1 10q0 8 1 19v29h-111q1 -19 1 -36v-35v-323z" />
    <glyph glyph-name="glyph605" horiz-adv-x="422" 
d="M18 436q9 -72 57 -107t140 -35q88 1 136 34t49 93q1 51 -32 78q-34 28 -110 47l-27 7q-37 9 -57 18q-21 10 -21 27q0 14 14 23t40 9q27 0 44 -12t24 -33h116q-8 65 -56 97q-48 31 -125 31q-85 -1 -131 -33q-46 -33 -46 -90q0 -51 32 -78q33 -27 98 -43l50 -13
q30 -8 47 -16q18 -9 18 -26q-1 -17 -18 -27q-17 -9 -44 -9q-63 0 -75 58h-123z" />
    <glyph glyph-name="glyph606" horiz-adv-x="288" 
d="M71 610v-178q0 -80 33 -110q33 -31 105 -29q16 0 27 1q12 1 20 3v87q-10 -2 -21 -2q-32 -1 -39 21q-8 22 -7 73v134h72v85h-72v105h-118v-105h-59v-85h59z" />
    <glyph glyph-name="glyph607" horiz-adv-x="450" 
d="M289 696v-202q0 -54 -16 -81q-17 -28 -55 -28q-36 0 -49 30q-13 31 -12 90v191h-119v-202q0 -50 4 -81q4 -32 18 -57q19 -32 48 -48q30 -16 71 -16q47 1 75 19q27 17 41 42v-51h114q-1 15 -1 31v30v333h-119z" />
    <glyph glyph-name="glyph608" horiz-adv-x="411" 
d="M140 302h131l46 131l92 262h-123l-24 -80l-30 -102q-15 -49 -24 -91l-80 273h-125l93 -271t43 -121z" />
    <glyph glyph-name="glyph609" horiz-adv-x="639" 
d="M119 302h141l30 120q10 37 16 65t12 61l13 -60q8 -31 16 -66l30 -120h143l111 393h-120l-61 -280l-66 280h-129q-35 -148 -45 -199q-11 -51 -16 -81q-5 19 -19 87q-15 68 -45 193h-122l76 -271t34 -121z" />
    <glyph glyph-name="glyph610" horiz-adv-x="403" 
d="M-3 302h130l74 133q10 -19 29 -52l45 -81h133q-62 89 -91 134l-45 70l120 189h-127q-11 -18 -24 -44l-38 -74q-16 31 -32 59q-16 29 -31 59h-132l122 -189z" />
    <glyph glyph-name="glyph611" horiz-adv-x="411" 
d="M102 166h120l184 529h-122l-74 -262l-42 133l-41 129h-127q19 -54 52 -140l95 -248l-11 -34l-15 -46l-20 -60z" />
    <glyph glyph-name="glyph612" horiz-adv-x="399" 
d="M28 302h346v88h-107h-50t-47 -1q21 26 62 73l131 147v86h-328v-88h97h47q20 0 41 2l-96 -112l-96 -109v-86z" />
    <glyph glyph-name="glyph613" horiz-adv-x="638" 
d="M319 732q-164 -4 -222 -112t-54 -265q-3 -169 56 -268q58 -100 220 -102q162 2 221 102q58 99 55 268q4 157 -54 265t-222 112v0zM319 115h-13t-11 2l126 356q4 -26 5 -56q2 -31 2 -66q1 -122 -23 -179q-24 -58 -86 -57v0zM210 351q-1 127 23 189q23 62 86 62h7q3 0 6 -1
l-119 -334q-3 38 -3 84v0z" />
    <glyph glyph-name="glyph614" 
d="M302 732q-164 -4 -222 -112t-54 -265q-3 -169 56 -268q58 -100 220 -102q162 2 221 102q58 99 55 268q4 157 -54 265t-222 112v0zM302 115h-13t-11 2l126 356q4 -26 5 -56q2 -31 2 -66q1 -122 -23 -179q-24 -58 -86 -57v0zM193 351q-1 127 23 189q23 62 86 62h7q3 0 6 -1
l-119 -334q-3 38 -3 84v0z" />
  </font>
</defs>
</svg>
