<?xml version="1.0" encoding="UTF-8"?>
<svg xmlns="http://www.w3.org/2000/svg" height="80" viewBox="0 0 71 80" width="71">
  <g fill="none" fill-rule="evenodd">
    <g fill="#78daff" transform="translate(31.71875 .46875)">
      <path d="m20.431875 45.3260937-4.1292188 5.203125s9.4945313 1.9985938 12.7220313 10.8526563c.1560938-7.6826562-8.5928125-16.0557813-8.5928125-16.0557813z"></path>
      <path d="m6.53359375 3.90390625h-6.2475s-1.24953125-3.74859375 1.87421875-3.74859375 4.37328125 3.74859375 4.37328125 3.74859375z"></path>
    </g>
    <g fill="#d7e9ff" transform="translate(.625 4.21875)">
      <path d="m31.3798437.15390625h6.2475 1.2495313v2.49890625h-8.7465625v-2.49890625z"></path>
      <path d="m12.6371875 59.7428125v15.3820312h-12.49515625s0-2.4989062 0-4.9979687c0-4.9979688 2.4990625-6.8721875 7.49703125-8.7465625 1.3375-.5003125 3.12375-1.0128125 4.998125-1.6375z"></path>
    </g>
    <path d="m50.8217188 61.2379688c1.8243749 1.1617187 4.074375 2.0109375 6.1975 2.7235937l-.024375.0634375v15.3185937h-43.7328126v-15.3820312c2.1245313-.7126562 4.3489063-1.5740625 6.1731251-2.7235937l.074375.1245312v5.3348438.2245312s2.8357812 6.174375 15.6189062 6.174375 15.6189062-6.174375 15.6189062-6.174375v-5.5592187z" fill="#78daff"></path>
    <g fill="#d7e9ff" transform="translate(19.375 51.875)">
      <path d="m50.115 22.470625v4.9979688h-12.4951562v-15.3185938l.024375-.0634375c1.8621875.6246875 3.6496874 1.1371875 4.9737499 1.6375 4.998125 1.874375 7.4970313 3.7485937 7.4970313 8.7465625z"></path>
      <path d="m27.6239062 3.728125c0 2.45984375 1.5996875 4.26109375 3.8229688 5.63484375l-.074375.12453125v5.5592188s-2.8357813 6.174375-15.6189063 6.174375c-12.78312495 0-15.6189062-6.174375-15.6189062-6.174375v-.2245313-5.33484375l-.074375-.12453125c2.22328125-1.37390625 3.82296875-3.175 3.82296875-5.63484375v-3.5875c3.94859375 3.760625 8.37203125 6.09859375 11.87031245 6.09859375 3.4982813 0 7.9215625-2.33796875 11.8703125-6.09859375z"></path>
    </g>
    <path d="m19.5096875 65.6723437v1.0250001.2245312s2.8357812 6.174375 15.6189062 6.174375 15.6189063-6.174375 15.6189063-6.174375v-1.249375s-2.8357813 6.174375-15.6189063 6.174375-15.6189062-6.1745313-15.6189062-6.1745313z" fill="#78daff"></path>
    <path d="m15.76125 66.460625c1.2520313-.4198437 2.529375-.900625 3.7484375-1.4545312v-3.6435938l-.074375-.1245312c-1.8242187 1.1493749-4.04875 2.0109375-6.173125 2.7235937v3.3020312c.791875-.2514062 1.6339062-.515 2.4990625-.8029687z" fill="#d7e9ff"></path>
    <path d="m3.26609375 76.8446875c0-4.9979688 2.4990625-6.8721875 7.49703125-8.7465625.7198437-.2709375 1.5753125-.5442188 2.4989062-.8346875v-3.3020312c-1.8742187.6246875-3.66062495 1.1371875-4.9979687 1.6374999-4.99796875 1.8742188-7.49703125 3.7484376-7.49703125 8.7465626v4.9979687h2.4990625c0-.7660938 0-1.6298437 0-2.49875z" fill="#fff"></path>
    <path d="m56.6704687 29.3626563h.3001563c.0120312.4125.0242187.8370312.0242187 1.2617187 0 8.2842188-4.5476562 16.2076562-9.9960937 21.3910938-3.9485938 3.760625-8.371875 6.0985937-11.8703125 6.0985937s-7.9217188-2.3379687-11.8703125-6.0985937c-5.4482813-5.1835938-9.9960938-13.1070313-9.9960938-21.3910938 0-.4246875.0121875-.849375.024375-1.2617187 0 0 5.1982813-6.9467188 8.7221875-8.7465625 1.9621875-.999375 6.0095313 1.1873437 12.8196875 1.2495312h.3001563c6.9845312-.0621875 10.85875-2.2489062 12.8196875-1.2495312 3.5240625 1.7998437 8.7223437 8.7465625 8.7223437 8.7465625z" fill="#d7e9ff"></path>
    <path d="m46.9989063 53.2651563v-1.2495313c-3.9485938 3.760625-8.371875 6.0985937-11.8703125 6.0985937-3.4984376 0-7.9217188-2.3379687-11.8703126-6.0985937v1.2495313c3.9485938 3.7606249 8.3720313 6.0985937 11.8703126 6.0985937 3.4982812 0 7.9215625-2.3379688 11.8703125-6.0985937z" fill="#78daff"></path>
    <path d="m19.5096875 61.3625v3.6435938c.849375-.3832813 1.6754687-.7979688 2.4246875-1.2690625 2.2232812-1.3740625 3.8229687-3.175 3.8229687-5.6350001v-2.7114062c-.844375-.6490625-1.6826562-1.3470313-2.4990625-2.125625v2.3379688c0 2.4331249-1.565625 4.2170312-3.7485937 5.5835937z" fill="#fff"></path>
    <path d="m54.5203125 66.460625c-1.2520312-.4198437-2.529375-.900625-3.7484375-1.4545312v-3.6435938l.074375-.1245312c1.824375 1.1493749 4.04875 2.0109375 6.173125 2.7235937v3.3020312c-.7920312-.2514062-1.6339062-.515-2.4990625-.8029687z" fill="#3fcafe"></path>
    <g fill="#78daff" transform="translate(13.28125 6.875)">
      <path d="m53.7340625 69.9696875c0-4.9979688-2.4990625-6.8721875-7.4970312-8.7465625-.7198438-.2709375-1.5753125-.5442188-2.4990625-.8346875v-3.3020312c1.8743749.6246875 3.6607812 1.1371875 4.9981249 1.6375 4.9979688 1.8742187 7.496875 3.7484375 7.496875 8.7465625v4.9979687h-2.4989062c0-.7660938 0-1.6298437 0-2.49875z"></path>
      <path d="m37.490625 54.4875v3.6435937c-.849375-.3832812-1.6754687-.7979687-2.4246875-1.2690624-2.2232812-1.3740625-3.8229687-3.175-3.8229687-5.6350001v-2.7114062c.8442187-.6490625 1.6826562-1.3470313 2.4989062-2.125625v2.3379688c0 2.4331249 1.565625 4.2170312 3.7485938 5.5835937v.1759375z"></path>
      <path d="m21.8473438.00875c11.7203125 0 21.2793749 8.8721875 21.8420312 22.4789063h-.3001563s-5.1982812-3.1981251-8.7221874-4.9979688c-1.9609376-.999375-5.8351563 1.1873437-12.8196875 1.2495312-.1001563 0-.2001563 0-.3001563 0-6.8101563-.0621875-10.8575-.999375-12.8196875 0-3.5240625 1.7998438-8.7221875 3.7484376-8.7221875 3.7484376.5625-13.6067188 10.1339063-22.4789063 21.8420313-22.4789063z"></path>
    </g>
    <path d="m36.378125 6.94359375c-.4148437-.023125-.8273438-.05984375-1.2495312-.05984375-11.7081251 0-21.279375 8.8721875-21.8420313 22.4789063 0 0 1.2251563-1.635 2.8859375-3.5215626 1.8534375-11.1295312 10.1095313-18.34343745 20.205625-18.89749995z" fill="#d7e9ff"></path>
    <path d="m33.9034375 6.94359375c.4148438-.023125.8273437-.05984375 1.2495312-.05984375 11.7081251 0 21.2793751 8.8721875 21.8418751 22.4789063 0 0-1.225-1.635-2.8857813-3.5215626-1.8534375-11.1295312-10.1095312-18.34343745-20.205625-18.89749995z" fill="#3fcafe"></path>
    <path d="m54.198125 26.3096875c.20375 1.38125.3098438 2.82125.3098438 4.3146875 0 8.2842188-4.5489063 16.2051563-9.9960938 21.3910937-3.4923438 3.32625-7.353125 5.5325001-10.6209375 5.99875.4270312.0609375.845625.1 1.2495313.1 3.4984374 0 7.9215624-2.3379687 11.8703125-6.0985937 5.4470312-5.1859375 9.9960937-13.1070313 9.9960937-21.3910938 0-.4259375-.0085937-.846875-.0254687-1.2629687z" fill="#78daff"></path>
    <g fill="#fff" transform="translate(13.125 4.21875)">
      <path d="m3.0290625 21.6407812c-.25015625 1.5179688-.38078125 3.1090626-.38078125 4.7650001 0 8.2842187 4.54890625 16.2051562 9.99609375 21.3910937 3.4923437 3.32625 7.353125 5.5325 10.6209375 5.99875-.4270313.0609375-.845625.1-1.2495313.1-3.4984375 0-7.9217187-2.3379688-11.8703125-6.0985938-5.4470312-5.1859375-9.9448437-13.1070312-9.9960937-21.3910937-.0121875-1.9928125 2.8796875-4.7651563 2.8796875-4.7651563z"></path>
      <path d="m17.629844.154531h2.499063v2.498906h-2.499063z"></path>
    </g>
    <path d="m37.003281 4.373281h2.499063v2.498906h-2.499063z" fill="#78daff"></path>
    <path d="m55.7576563 23.740625-2.4990625.6246875-2.4989063-.6246875-2.4990625.6246875-2.4989062-.6246875-2.4992188.6246875-2.4992187-.6246875-2.4987501.6246875-2.0621874-.5125-.4370313-.1121875-2.49875.6246875-2.4990625-.6246875-2.4989062.6246875-2.4992188-.6246875-2.4989062.6246875-2.4990625-.6246875-2.4990625.6246875-2.4989063-.6246875-.6248438.1621875-1.8742187.4625v6.2475l1.1115625.5498438.1379687.075 2.4989063-.6248438 2.4990625.6248438 2.4990625-.6248438 2.4989062.6248438 2.4992188-.6248438 2.4989063.6248438 2.4990625-.6248438 2.0621875.5126563.4367187.1121875 2.4990625-.6248438 2.4990625.6248438 2.4989062-.6248438 2.4992188.6248438 2.4989063-.6248438 2.4990625.6248438 2.4990625-.6248438 2.4989062.6248438 1.7864063-.4496875.7125-.1751563v-6.2475z" fill="#fff"></path>
    <g fill="#00adee">
      <path d="m35.1407813 58.726875c-3.5935938 0-8.1926563-2.3440625-12.3023438-6.2707813-5.5665625-5.298125-9.3235937-12.5048437-10.0473437-19.2776562-.0365625-.3429688.2110937-.6510937.5551562-.6876563.3196875-.0342187.6504688.21125.686875.5546875.694375 6.4873438 4.3073437 13.4059375 9.6679688 18.5064063 3.8828125 3.710625 8.1595312 5.9254688 11.4395312 5.9254688 3.2798437 0 7.556875-2.2148438 11.4384375-5.9242188 5.3615625-5.1017188 8.9746875-12.0204687 9.6689062-18.5076563.0365625-.3434375.3698438-.59.6870313-.5546875.3440625.0365626.5917187.3446875.5551562.6876563-.7235937 6.7728125-4.480625 13.9795312-10.0485937 19.2789062-4.108125 3.9254688-8.7071875 6.2695313-12.3007812 6.2695313z"></path>
      <path d="m55.6453125 22.4910938c-.2623437 0-.5051563-.1659376-.5929688-.4276563-2.9859375-8.9851562-10.6159375-14.56640625-19.9115625-14.56640625s-16.9257812 5.58125005-19.9117187 14.56640625c-.1098438.3264063-.4623438.5015625-.7895313.3959375-.3282812-.1092188-.5051562-.4625-.3965625-.7901562 3.1140625-9.3682813 11.3957813-15.4217188 21.0978126-15.4217188 9.7020312 0 17.9835937 6.0534375 21.0974999 15.4217188.1085938.3276562-.0682812.6807812-.3964062.7901562-.0646875.0214062-.1317188.0317188-.1965625.0317188z"></path>
      <path d="m22.5578125 58.8890625c-.1060937 0-.2121875-.026875-.3098437-.0828125-.3001563-.1709375-.4039063-.5528125-.2317188-.8517188.4173438-.7309375.6295313-1.5215625.6295313-2.3514062 0-.3454688.2795312-.6248438.6248437-.6248438s.6248438.279375.6248438.6248438c0 1.049375-.2671875 2.0485937-.7956251 2.97125-.1149999.2025-.3259374.3146875-.5420312.3146875z"></path>
      <path d="m69.5021875 79.9684375h-68.72296875c-.3453125 0-.62484375-.279375-.62484375-.6248438v-4.9979687c0-5.353125 2.7771875-7.4092188 7.9021875-9.3309375.840625-.3185938 1.87421875-.646875 2.96875-.9945313.6589062-.21 1.3495313-.4295312 2.05125-.66375 1.8498437-.61875 4.2109375-1.4801562 6.0485938-2.645625.0170312-.0121875.0989062-.0584375.1171875-.0682812.3098437-.15375.6832812-.029375.8382812.279375.1535938.30875.029375.6832812-.2795312.8382812-1.9584375 1.2432813-4.4098438 2.1389063-6.328125 2.7820313-.7078125.235625-1.4045313.4565625-2.0695313.66875-1.0871875.3453125-2.0890625.66375-2.9065625.9725-4.80640625 1.8023437-7.093125 3.4839062-7.093125 8.1620312v4.3732813h67.4734375v-4.3732813c0-4.6781249-2.2867188-6.3596874-7.0920313-8.1620312-.7284374-.2671875-1.6009375-.5440625-2.5514062-.846875-.7614062-.2415625-1.5728125-.5001563-2.4039063-.7821875-2.7418749-.915-4.7576562-1.8009375-6.3390624-2.786875-.2831251-.1757813-.4087501-.5626563-.2451563-.8529688.1623437-.2928125.4967187-.4209375.793125-.2720312.0207812.0098438.0707812.0401563.0903125.0523437 1.5192187.9457813 3.4495312 1.7914063 6.0998437 2.6748438.8260938.280625 1.6290625.536875 2.383125.7760937.97125.3087501 1.8607813.5917188 2.6087501.8664063 5.1285937 1.9240625 7.9059374 3.9803125 7.9059374 9.3332812v4.998125c.0003126.3454688-.2790625.6248438-.6245312.6248438z"></path>
      <path d="m47.6979688 58.8390625c-.2171876 0-.429375-.1145313-.5440626-.3184375-.5089062-.9029688-.7674999-1.8840625-.7674999-2.9175 0-.3454688.279375-.6248438.6246875-.6248438.3454687 0 .6248437.279375.6248437.6248438 0 .8273437.19875 1.5801562.6064062 2.305.1696875.3001562.0634375.6807812-.2378125.8504687-.0965625.055-.2015624.0804688-.3065624.0804688z"></path>
      <path d="m23.2704687 56.2278125c-.3453125 0-.6248437-.279375-.6248437-.6246875v-3.5984375c0-.3453125.2795312-.6248437.6248437-.6248437.3453126 0 .6248438.2795312.6248438.6248437v3.5984375c-.0001563.3453125-.2795313.6246875-.6248438.6246875z"></path>
      <path d="m47.0110937 56.2278125c-.3453124 0-.6246874-.279375-.6246874-.6246875v-3.5984375c0-.3453125.279375-.6248437.6246874-.6248437.3454688 0 .6248438.2795312.6248438.6248437v3.5984375c0 .3453125-.279375.6246875-.6248438.6246875z"></path>
      <path d="m37.015 73.6709375c-.330625 0-.6076562-.2598437-.6234375-.5929687-.0182813-.3453125.2476562-.6382813.5917187-.6553125 10.6075001-.534375 13.1857813-5.7240625 13.2101563-5.7753125.1476563-.3098438.515-.4454688.8298438-.3014063.3110937.1453125.4478125.51375.30375.8260938-.1109375.2415625-2.8504688 5.9228125-14.2803125 6.4976562-.0109376.00125-.021875.00125-.0317188.00125z"></path>
      <path d="m33.2665625 73.6709375c-.0098437 0-.0207812 0-.0317187-.00125-11.4298438-.5748437-14.169375-6.2560937-14.2803126-6.4976562-.1440625-.3135938-.0073437-.6845313.3062501-.8285938.3098437-.1440625.6820312-.0098437.8273437.30375.024375.05125 2.6026563 5.2409375 13.2101563 5.7753125.3440624.0170313.61.31.5917187.6553125-.0157813.3332813-.2928125.593125-.6234375.593125z"></path>
      <path d="m35.1407812 19.9920313c-.3453125 0-.6248437-.2795313-.6248437-.6248438v-8.7464062c0-.3453125.2795312-.6248438.6248437-.6248438s.6246875.2795312.6246875.6248438v8.7465624c-.0001562.3453126-.279375.6246876-.6246875.6246876z"></path>
      <path d="m45.7604688 19.9920313c-.31375 0-.5845313-.2367188-.6200001-.5570313-.4135937-3.79-3.6082812-8.4110938-3.64-8.4567188-.1976562-.2831249-.1279687-.6729687.1550001-.87.2807812-.19531245.6710937-.12874995.87.1550001.1392187.1995312 3.408125 4.9260937 3.8571874 9.0364062.0378125.3428125-.2099999.6515625-.5528125.6889062-.0229687.0021876-.04625.0034376-.0693749.0034376z"></path>
      <path d="m24.5210937 19.9920313c-.0231249 0-.0462499-.00125-.0695312-.0035938-.3429687-.0371875-.590625-.3459375-.5528125-.6889062.4490625-4.1103126 3.7179688-8.836875 3.8571875-9.0364063.2001563-.2825.589375-.34953125.87-.155.283125.1970312.3526563.586875.1548438.87-.0317188.045625-3.22625 4.6667187-3.6398438 8.4567187-.0353125.3204688-.3060937.5571876-.6198438.5571876z"></path>
      <path d="m39.5140625 7.49703125h-8.7467188c-.3453125 0-.6246874-.27953125-.6246874-.62484375v-2.49890625c0-.3453125.279375-.62484375.6246874-.62484375h8.7467188c.3453125 0 .6246875.27953125.6246875.62484375v2.49890625c0 .3453125-.279375.62484375-.6246875.62484375zm-8.121875-1.24953125h7.4970312v-1.24953125h-7.4970312z" fill-rule="nonzero"></path>
      <path d="m32.0170312 4.99796875c-.2610937 0-.5051562-.1653125-.5929687-.42703125-.075625-.228125-.7151563-2.2671875.230625-3.57953125.3257813-.4521875.9785937-.99140625 2.2365625-.99140625 3.53375 0 4.9090625 4.00546875 4.96625 4.175625.1085937.32703125-.0682813.6796875-.3940625.78953125-.3257813.10984375-.6796875-.0665625-.7907812-.39296875-.0121875-.03359375-1.1531251-3.32265625-3.7814063-3.32265625-.5942187 0-.993125.15421875-1.2226562.4728125-.4892188.6784375-.19875 2.0321875-.0585938 2.45328125.1085938.32765625-.0684375.6815625-.3953125.79015625-.0659375.02171875-.1317188.0321875-.1976563.0321875z"></path>
      <path d="m60.7557812 62.4753125c-.3453125 0-.6248437-.279375-.6248437-.6246875 0-3.5179687-1.9889063-7.2934375-3.658125-9.8410937-.1892188-.2892188-.1085938-.6759376.179375-.8651563.2867187-.1890625.6759375-.1109375.865.179375 2.56375 3.913125 3.8632813 7.455625 3.8632813 10.526875-.0000001.3453125-.279375.6246875-.6246876.6246875z"></path>
      <path d="m54.48375 48.893125c-.1792187 0-.35625-.076875-.4807812-.2245313-.7198438-.8664062-1.195625-1.3801562-1.2017188-1.3875-.235625-.2525-.2196875-.6478125.0328125-.8821875.2503125-.235625.646875-.2221875.8821875.0328125 0 0 .4967188.5332813 1.2482813 1.43625.2195312.2659375.1842187.6601563-.0806251.8809375-.1171875.0965625-.2585937.1442188-.4001562.1442188z"></path>
      <path d="m52.23375 53.141875c-.0989062 0-.19875-.023125-.2915625-.0720313-.8321875-.439375-1.3728125-.6198437-1.3776562-.6221875-.3270313-.1075-.5051563-.46125-.3978125-.7882812.1073437-.3270313.4576562-.5051563.7870312-.3990625.025625.0085938.635625.2110938 1.5717188.7040625.305.1609375.4221875.539375.26125.844375-.1125.2123437-.3298438.333125-.5529688.333125z"></path>
      <path d="m60.7557812 62.4753125c-.2440625 0-.4759375-.1440625-.5760937-.383125-1.17375-2.791875-2.9332813-5.1579688-5.2298438-7.0296875-.2673437-.2182813-.30625-.6125-.0890625-.8798437.2173438-.2684376.61375-.305.8798438-.0889063 2.4551563 2.0034375 4.3367187 4.531875 5.5910938 7.5153125.1340625.3171875-.0159375.6832813-.3345313.8175-.078125.0329687-.1609375.04875-.2414063.04875z"></path>
      <path d="m19.521875 67.3234375c-.3453125 0-.6246875-.2795313-.6246875-.6248437v-5.3482813c0-.3453125.279375-.6248438.6246875-.6248438s.6248437.2795313.6248437.6248438v5.3482813c0 .3453124-.2795312.6248437-.6248437.6248437z"></path>
      <path d="m50.7596875 67.535625c-.3453125 0-.6248437-.279375-.6248437-.6248438v-5.5604687c0-.3453125.2795312-.6248438.6248437-.6248438s.6246875.2795313.6246875.6248438v5.5604687c0 .3454688-.279375.6248438-.6246875.6248438z"></path>
      <path d="m57.0070312 79.9684375c-.3451562 0-.6246875-.279375-.6246875-.6248438v-15.3185937c0-.3453125.2795313-.6246875.6246875-.6246875.3454688 0 .6248438.279375.6248438.6246875v15.3185937c0 .3454688-.279375.6248438-.6248438.6248438z"></path>
      <path d="m13.274375 79.9684375c-.3453125 0-.6246875-.279375-.6246875-.6248438v-15.3942187c0-.3453125.279375-.6246875.6246875-.6246875s.6248438.279375.6248438.6246875v15.3942187c0 .3454688-.2795313.6248438-.6248438.6248438z"></path>
      <path d="m34.5159375 31.8625c-.0523437 0-.1048437-.0067188-.155-.0195313l-2.3440625-.58625-2.3476562.586875c-.1001563.025625-.2025.025625-.3026563 0l-2.3476562-.58625-2.3476563.58625c-.1001562.025625-.2025.025625-.3026563 0l-2.3476562-.58625-2.3476563.58625c-.1001562.025625-.2026562.025625-.3026562 0l-2.3476563-.58625-2.3476562.58625c-.1501563.0396875-.31125.0182813-.4503125-.0573437l-1.2275-.613125c-.30875-.153125-.435625-.5276563-.283125-.8370313.1525-.310625.530625-.434375.8370312-.283125l1.053125.5209375 2.2671875-.5667187c.1001563-.025625.2025-.025625.3026563 0l2.3476562.58625 2.3476563-.58625c.1001562-.025625.2025-.025625.3026562 0l2.3476563.58625 2.3476562-.58625c.1001563-.025625.2026563-.025625.3026563 0l2.3476563.58625 2.3476562-.58625c.0989063-.02625.2026562-.025625.3014063-.000625l2.3514062.586875 2.3451562-.58625c.1001563-.025625.2026563-.025625.3028125 0l2.3476563.58625 2.3476562-.58625c.1-.025625.2025-.025625.3026563 0l2.3476562.58625 2.3476563-.58625c.1-.025625.2025-.025625.3026562 0l2.3476563.58625 2.3476562-.58625c.1001563-.025625.2025-.025625.3026563 0l2.3476562.58625 2.3501563-.586875c.3417187-.0848438.6735937.12375.7553125.4575.0829687.335-.1220313.6729687-.4576563.7553125l-2.4954687.6242187c-.1.025625-.20375.025625-.3035938 0l-2.3476562-.58625-2.3476563.58625c-.1001562.025625-.2026562.025625-.3028125 0l-2.3476562-.58625-2.3476563.58625c-.0999999.025625-.2024999.025625-.3026562 0l-2.3476562-.58625-2.3476563.58625c-.1.025625-.2025.025625-.3026562 0l-2.3476563-.58625-2.3476562.58625c-.0501563.0126563-.1.0189063-.1514063.0189063z"></path>
      <path d="m13.274375 24.9901562c-.280625 0-.536875-.1903124-.6064062-.4753125-.0829688-.335.1220312-.6735937.4564062-.7559375l2.4915625-.6229687c.10125-.025625.2075-.0260938.30875-.00125l2.3476563.5864062 2.3476562-.5864062c.1001563-.025625.2026563-.025625.3026563 0l2.3476562.5864062 2.3476563-.5864062c.1-.025625.2025-.025625.3026562 0l2.3476563.5864062 2.3476562-.5864062c.1-.025625.2025-.025625.3026563 0l2.3476562.5864062 2.3476563-.5864062c.1001562-.0267187.2060937-.025625.30625.000625l2.3440625.5864063 2.3476562-.5870313c.1-.025625.2025-.025625.3026563 0l2.3476562.5864062 2.3476563-.5864062c.1001562-.025625.2026562-.025625.3026562 0l2.3476563.5864062 2.3476562-.5864062c.1001563-.025625.2025-.025625.3026563 0l2.3476562.5864062 2.3476562-.5864062c.1453125-.0359375.2965626-.0195313.4307813.0470312l1.2495312.6248438c.30875.154375.433125.5295312.279375.8382812-.1535937.31-.5284375.4325-.8382812.2795313l-1.0432813-.5217188-2.2745312.5685938c-.1001563.025625-.2026563.025625-.3028125 0l-2.3475-.58625-2.3476563.58625c-.1001562.025625-.2026562.025625-.3026562 0l-2.3476562-.58625-2.3476563.58625c-.1001562.025625-.2026563.025625-.3028125 0l-2.3476562-.58625-2.3476563.58625c-.09875.024375-.2025.025-.3014062.000625l-2.3514063-.586875-2.3453125.58625c-.1.025625-.2025.025625-.3026562 0l-2.3476563-.58625-2.3476562.58625c-.1.025625-.2025.025625-.3026563 0l-2.3476562-.58625-2.3476563.58625c-.1001562.025625-.2025.025625-.3026562 0l-2.3476563-.58625-2.3476562.58625c-.1001563.025625-.2025.025625-.3026563 0l-2.3453125-.5857813-2.3514062.58625c-.050625.0128125-.1007813.0184375-.1495313.0184375z"></path>
      <path d="m13.274375 31.2376563c-.3453125 0-.6246875-.2795313-.6246875-.6248438v-6.2475c0-.3453125.279375-.6246875.6246875-.6246875s.6248438.279375.6248438.6246875v6.2475c0 .3453125-.2795313.6248438-.6248438.6248438z"></path>
      <path d="m57.0070312 31.2376563c-.3451562 0-.6246875-.2795313-.6246875-.6248438v-6.2475c0-.3453125.2795313-.6246875.6246875-.6246875.3454688 0 .6248438.279375.6248438.6246875v6.2475c0 .3453125-.279375.6248438-.6248438.6248438z"></path>
      <path d="m34.5159375 27.4890625c-.1598438 0-.3196875-.0610937-.4417187-.1829687-.2442188-.2440625-.2442188-.639375 0-.8834375l1.2493749-1.2495313c.2442188-.2440625.6395313-.2440625.8834375 0 .2442188.2440625.2442188.639375 0 .8834375l-1.2495312 1.2495313c-.1217187.1220312-.2817188.1829687-.4415625.1829687z"></path>
      <path d="m35.7653125 28.7385938c-.1596875 0-.3196875-.0610938-.4417187-.183125l-1.249375-1.2495313c-.2442188-.2440625-.2442188-.639375 0-.8834375.2440625-.2440625.639375-.2440625.8834374 0l1.2495313 1.2495313c.2442187.2440625.2442187.639375 0 .8832812-.1220313.1223438-.281875.1832813-.441875.1832813z"></path>
      <path d="m34.5159375 29.988125c-.1598438 0-.3196875-.0610938-.4417187-.183125-.2442188-.2440625-.2442188-.639375 0-.8834375l1.2493749-1.2495313c.2442188-.2442187.6395313-.2442187.8834375 0 .2442188.2440625.2442188.639375 0 .8832813l-1.2495312 1.2495312c-.1217187.1223438-.2817188.1832813-.4415625.1832813z"></path>
      <path d="m35.1407813 69.3476562c-.25875 0-.4990625-.1609374-.589375-.4185937-.1146875-.3257812.0573437-.6820313.383125-.795625 24.2579687-8.4903125 23.9529687-34.7432813 23.9468749-35.0075-.0073437-.3446875.2659376-.6309375.61-.63875.3392188.02875.6320313.2654688.639375.6101563.0060938.2732812.3442188 27.4207812-24.7839062 36.2148437-.0682812.024375-.1376563.0354687-.2060937.0354687z"></path>
      <path d="m59.5060937 33.7367187h-1.2495312c-.3453125 0-.6246875-.279375-.6246875-.6246875 0-.3453124.279375-.6248437.6246875-.6248437h1.2495312c.3453125 0 .6246875.2795312.6246875.6248437.0001563.3453125-.279375.6246875-.6246875.6246875z"></path>
      <path d="m35.1407813 69.3476562c-.0684375 0-.1379688-.0109374-.20625-.0354687-25.1292188-8.7953125-24.7521875-35.9421875-24.7460938-36.2154687.0085938-.3448438.2978125-.6407813.639375-.6089063.3453125.0079688.6185938.2946875.6101563.639375-.0060938.2642188-.3489063 26.5160938 23.9090625 35.0064063.3259375.1135937.4979687.4698437.3832812.795625-.0904687.2575-.3321875.4184374-.5895312.4184374z"></path>
      <path d="m12.0626562 33.7367187h-1.2495312c-.3453125 0-.6248438-.279375-.6248438-.6246875 0-.3453124.2795313-.6248437.6248438-.6248437h1.2495312c.3453125 0 .6248438.2795312.6248438.6248437s-.2795312.6246875-.6248438.6246875z"></path>
      <path d="m35.1407812 79.9684375c-.3453125 0-.6248437-.279375-.6248437-.6248438v-10.6207812c0-.3453125.2795312-.6246875.6248437-.6246875s.6246875.279375.6246875.6246875v10.6207812c-.0001562.3454688-.279375.6248438-.6246875.6248438z"></path>
    </g>
  </g>
</svg>
