<?xml version="1.0" encoding="UTF-8"?>
<svg xmlns="http://www.w3.org/2000/svg" height="80" viewBox="0 0 99 80" width="99">
  <g fill="none" fill-rule="evenodd">
    <g transform="translate(.767386 20.719424)">
      <path d="m.191271 40.049305h70.551559v15.337362h-70.551559z" fill="#d7e9ff"></path>
      <path d="m70.7432134 52.3184652h-58.2825899l-12.26935252-12.269928v-39.87683456h70.55194242z" fill="#78daff"></path>
    </g>
    <path d="m.958657 7.088153h70.551559v13.803549h-70.551559z" fill="#d7e9ff"></path>
    <path d="m13.2283933.95270983c-.8470024 0-1.5336211.68681055-1.5336211 1.53381295v9.20230212c0 .8470024.6868105 1.5336211 1.5336211 1.5336211.8470024 0 1.5338129-.6866187 1.5338129-1.5336211v-9.20249396c.0003837-.8470024-.6868105-1.53362111-1.5338129-1.53362111z" fill="#d7e9ff"></path>
    <path d="m13.2283933 11.6888249c-.8470024 0-1.5336211-.6868105-1.5336211-1.5338129v1.5338129c0 .8470024.6868105 1.5336211 1.5336211 1.5336211.8470024 0 1.5338129-.6866187 1.5338129-1.5336211l.0000002-1.5338129c.0003835.8470024-.6868107 1.5338129-1.5338131 1.5338129z" fill="#94c1ff"></path>
    <g fill="#d7e9ff" transform="translate(26.858513 .767386)">
      <path d="m1.70743405.18532374c-.84700239 0-1.53381295.68681055-1.53381295 1.53381295v9.20230211c0 .8470024.68681056 1.5336212 1.53381295 1.5336212.8470024 0 1.53381295-.6866188 1.53381295-1.5336212v-9.20249396c0-.84700239-.68681055-1.5336211-1.53381295-1.5336211z"></path>
      <path d="m17.0447962.18532374c-.8470024 0-1.533813.68681055-1.533813 1.53381295v9.20230211c0 .8470024.6868106 1.5336212 1.533813 1.5336212s1.5336211-.6866188 1.5336211-1.5336212v-9.20249396c0-.84700239-.6866187-1.5336211-1.5336211-1.5336211z"></path>
      <path d="m32.3821583.18532374c-.8479617 0-1.5336211.68681055-1.5336211 1.53381295v9.20230211c0 .8470024.6856594 1.5336212 1.5336211 1.5336212.8475779 0 1.5336211-.6866188 1.5336211-1.5336212v-9.20249396c0-.84700239-.6860432-1.5336211-1.5336211-1.5336211z"></path>
    </g>
    <g fill="#94c1ff" transform="translate(26.858513 9.976019)">
      <path d="m1.70743405 1.71280576c-.84700239 0-1.53381295-.68681056-1.53381295-1.53381295v1.53381295c0 .84700239.68681056 1.5336211 1.53381295 1.5336211.8470024 0 1.53381295-.68661871 1.53381295-1.5336211v-1.53381295c0 .84700239-.68681055 1.53381295-1.53381295 1.53381295z"></path>
      <path d="m17.0447962 1.71280576c-.8470024 0-1.533813-.68681056-1.533813-1.53381295v1.53381295c0 .84700239.6868106 1.5336211 1.533813 1.5336211s1.5336211-.68661871 1.5336211-1.5336211v-1.53381295c0 .84700239-.6866187 1.53381295-1.5336211 1.53381295z"></path>
      <path d="m32.3821583 1.71280576c-.8479617 0-1.5336211-.68681056-1.5336211-1.53381295v1.53381295c0 .84700239.6856594 1.5336211 1.5336211 1.5336211.8475779 0 1.5336211-.68661871 1.5336211-1.5336211v-1.53381295c0 .84700239-.6860432 1.53381295-1.5336211 1.53381295z"></path>
    </g>
    <g fill="#fff" transform="translate(.767386 .767386)">
      <path d="m58.4732854 1.71894484c.8475779 0 1.5336211.68681056 1.5336211 1.53381295v-1.53381295c0-.84700239-.6860432-1.53381295-1.5336211-1.53381295-.8464269 0-1.5336211.68681056-1.5336211 1.53381295v1.53381295c0-.84700239.6871942-1.53381295 1.5336211-1.53381295z"></path>
      <path d="m43.1359233 1.71894484c.8470024 0 1.5336211.68681056 1.5336211 1.53381295v-1.53381295c0-.84700239-.6866187-1.53381295-1.5336211-1.53381295s-1.533813.68681056-1.533813 1.53381295v1.53381295c0-.84700239.6868106-1.53381295 1.533813-1.53381295z"></path>
      <path d="m27.7985612 1.71894484c.8470023 0 1.5338129.68681056 1.5338129 1.53381295v-1.53381295c0-.84700239-.6868106-1.53381295-1.5338129-1.53381295-.8470024 0-1.533813.68681056-1.533813 1.53381295v1.53381295c.0001918-.84700239.6870024-1.53381295 1.533813-1.53381295z"></path>
      <path d="m12.4610072 1.71894484c.8477698 0 1.5338129.68681056 1.5338129 1.53381295v-1.53381295c0-.84700239-.6860431-1.53381295-1.5338129-1.53381295-.8475779 0-1.5336211.68681056-1.5336211 1.53381295v1.53381295c0-.84700239.6860432-1.53381295 1.5336211-1.53381295z"></path>
      <path d="m12.4610072 72.2705036v-12.2699281h-12.26973622z"></path>
    </g>
    <path d="m.958657 76.10494h72.851799v3.067434h-72.851799z" fill="#d7e9ff"></path>
    <g fill="#fff">
      <path d="m33.16777 25.49199h6.134868v6.134868h-6.134868z"></path>
      <path d="m42.368729 25.49199h6.134868v6.134868h-6.134868z"></path>
      <path d="m51.571415 25.49199h6.13506v6.134868h-6.13506z"></path>
      <path d="m5.560864 34.694868h6.13506v6.13506h-6.13506z"></path>
      <path d="m14.762015 34.694868h6.134868v6.13506h-6.134868z"></path>
      <path d="m23.964701 34.694868h6.13506v6.13506h-6.13506z"></path>
      <path d="m33.16777 34.694868h6.134868v6.13506h-6.134868z"></path>
      <path d="m42.368729 34.694868h6.134868v6.13506h-6.134868z"></path>
      <path d="m51.571415 34.694868h6.13506v6.13506h-6.13506z"></path>
      <path d="m5.623597 43.897746h6.13506v6.13506h-6.13506z"></path>
      <path d="m5.560864 53.098705h6.13506v6.13506h-6.13506z"></path>
      <path d="m14.762015 53.098705h6.134868v6.13506h-6.134868z"></path>
      <path d="m24.02801 53.098705h6.13506v6.13506h-6.13506z"></path>
      <path d="m33.23108 53.098705h6.134868v6.13506h-6.134868z"></path>
      <path d="m42.433957 53.098705h6.13506v6.13506h-6.13506z"></path>
      <path d="m42.433957 62.301583h6.13506v6.13506h-6.13506z"></path>
      <path d="m33.23108 62.301583h6.134868v6.13506h-6.134868z"></path>
      <path d="m23.964701 62.301583h6.13506v6.13506h-6.13506z"></path>
      <path d="m14.762015 62.301583h6.134868v6.13506h-6.134868z"></path>
      <path d="m14.825132 43.897746h6.134868v6.13506h-6.134868z"></path>
      <path d="m24.02801 43.897746h6.13506v6.13506h-6.13506z"></path>
    </g>
    <path d="m69.977362 7.088154h1.534005v13.803549h-1.534005z" fill="#3a3847" opacity=".2"></path>
    <path d="m.958657 20.891511h67.292086v1.533813h-67.292086z" fill="#94c1ff"></path>
    <g fill="#fff">
      <path d="m33.231079 43.897746h6.134868v6.13506h-6.134868z"></path>
      <path d="m42.433956 43.897746h6.13506v6.13506h-6.13506z"></path>
    </g>
    <path d="m85.313765 25.4923741s12.269928 13.0979377 12.269928 29.9077218c0 13.1445564-10.6282973 23.7728537-23.7728537 23.7728537-13.1445563 0-23.77247-10.6282973-23.77247-23.7728537 0-26.0882494 26.0730935-40.6436451 26.0730935-40.6436451s-3.5121343 8.7424461 0 12.2697363c3.5272902 3.5121342 9.2023022-1.533813 9.2023022-1.533813z" fill="#3fcafe"></path>
    <path d="m85.313765 25.4923741s-.7635492.6768345-1.9019664 1.3615348c3.0612949 3.7594244 11.1046522 14.9329496 11.1046522 28.546187 0 12.6261871-9.8148681 22.9026379-22.2392326 23.6949641.5091607.0329976 1.0154437.0778896 1.5336211.0778896 13.1445564 0 23.7728537-10.6282973 23.7728537-23.7728537 0-16.8097841-12.269928-29.9077218-12.269928-29.9077218z" fill="#78daff"></path>
    <path d="m53.1056115 55.3999041c0-19.7413909 14.9239329-32.872518 22.1882014-38.0961151.4028777-1.5015828.8176499-2.5477219.8176499-2.5477219s-26.0730935 14.5553957-26.0730935 40.6436451c0 13.1445564 10.6279137 23.7728537 23.77247 23.7728537.5181775 0 1.0248442-.044892 1.5340048-.0778896-12.4243645-.7921343-22.2392326-11.0683933-22.2392326-23.6947722z" fill="#d7e9ff"></path>
    <path d="m94.5164508 55.3999041c0 11.4353957-9.2696402 20.7054196-20.7056115 20.7054196-11.4353957 0-20.7052278-9.2698321-20.7052278-20.7054196 0-11.4355876 9.2696403-20.7054197 20.7052278-20.7054197 11.4357794.0001919 20.7056115 9.270024 20.7056115 20.7054197z" fill="#fff"></path>
    <path d="m19.3145324 20.86753c0 10.9172182-8.4546763 19.8396163-19.17160674 20.62753.5076259.03741 1.01544364.0778896 1.5336211.0778896 11.43577934 0 20.70561154-9.2698321 20.70561154-20.7054196 0-11.43558755-9.2696403-20.70541969-20.70561154-20.70541969-.51817746 0-1.0259952.04047962-1.5336211.07788969 10.71654674.78791367 19.17160674 9.71031175 19.17160674 20.62753z" fill="#fff" opacity=".5" transform="translate(72.134293 34.532374)"></path>
    <g fill="#94c1ff">
      <path d="m.958657 59.233957h13.803549v1.533621h-13.803549z"></path>
      <path d="m13.228969 60.768729h1.533813v12.269928h-1.533813z"></path>
    </g>
    <path d="m.958657 7.088154h1.533621v13.803549h-1.533621z" fill="#fff" opacity=".3"></path>
    <path d="m.958657 22.424365h1.533621v36.809592h-1.533621z" fill="#fff"></path>
    <g fill="#00adee">
      <path d="m53.1056115 73.8047002h-39.8772182c-.423789 0-.7668106-.3430215-.7668106-.7668105s.3430216-.7668106.7668106-.7668106h39.8770264c.4237889 0 .7670024.3430216.7670024.7668106s-.3430216.7668105-.7668106.7668105z"></path>
      <path d="m.95865707 61.534964c-.42378896 0-.76681055-.3430216-.76681055-.7670024v-53.68038366c0-.42398082.34302159-.7670024.76681055-.7670024.42378897 0 .76681056.34302158.76681056.7670024v53.68038366c.00019184.4239808-.34282974.7670024-.76681056.7670024z"></path>
      <path d="m8.62752998 7.85438849h-7.66887291c-.42378896 0-.76681055-.34302158-.76681055-.76681055 0-.42398082.34302159-.7670024.76681055-.7670024h7.66868106c.42378897 0 .76681055.34302158.76681055.7670024 0 .42378897-.34263789.76681055-.7666187.76681055z"></path>
      <path d="m71.5105995 7.85438849h-7.6690647c-.423789 0-.7666187-.34302158-.7666187-.76681055 0-.42398082.3428297-.7670024.7666187-.7670024h7.6690647c.423789 0 .7666187.34302158.7666187.7670024 0 .42378897-.3428297.76681055-.7666187.76681055z"></path>
      <path d="m71.5105995 13.9892566c-.4241726 0-.7670024-.3430216-.7670024-.7670024v-6.13467626c0-.42398082.3428298-.7670024.7670024-.7670024.423789 0 .7666187.34302158.7666187.7670024v6.13486806c0 .4239809-.3428297.7668106-.7666187.7668106z"></path>
      <path d="m62.3079137 21.6579376h-61.34925663c-.42378896 0-.76681055-.3430215-.76681055-.7670023 0-.4239809.34302159-.7670024.76681055-.7670024h61.34925663c.4241726 0 .7670024.3430215.7670024.7670024 0 .4239808-.3428298.7670023-.7670024.7670023z"></path>
      <path d="m39.3020624 32.3940528h-6.1348682c-.4237889 0-.7668105-.3430216-.7668105-.7670024v-6.1348681c0-.4239809.3430216-.7670024.7668105-.7670024h6.1348682c.4237889 0 .7670023.3430215.7670023.7670024v6.1348681c0 .4239808-.3430215.7670024-.7670023.7670024zm-5.3680576-1.533813h4.6010552v-4.6010551h-4.6010552z" fill-rule="nonzero"></path>
      <path d="m48.5051319 32.3940528h-6.1356355c-.423789 0-.7670024-.3430216-.7670024-.7670024v-6.1348681c0-.4239809.3430216-.7670024.7670024-.7670024h6.1356355c.423789 0 .7668105.3430215.7668105.7670024v6.1348681c-.0001918.4239808-.3428297.7670024-.7668105.7670024zm-5.3688249-1.533813h4.6020143v-4.6010551h-4.6020143z" fill-rule="nonzero"></path>
      <path d="m51.5719904 32.3940528c-.423789 0-.7670024-.3430216-.7670024-.7670024v-6.1348681c0-.4239809.3432134-.7670024.7670024-.7670024h6.13506c.4237889 0 .7666187.3430215.7666187.7670024 0 .4237889-.3428298.7668105-.7666187.7668105h-5.3682494v5.3680576c-.0001919.4239808-.3432135.7670024-.7668106.7670024z"></path>
      <g fill-rule="nonzero">
        <path d="m11.6947722 41.5963549h-6.13467628c-.42378897 0-.76681055-.3428297-.76681055-.7668105v-6.13506c0-.423789.34302158-.7668105.76681055-.7668105h6.13505998c.4237889 0 .7668105.3430215.7668105.7668105v6.13506c-.0003837.4239808-.3434052.7668105-.7671942.7668105zm-5.36786573-1.5336211h4.60124703v-4.601247h-4.60124703z"></path>
        <path d="m20.8972662 41.5963549h-6.1346763c-.4239808 0-.7670024-.3428297-.7670024-.7668105v-6.13506c0-.423789.3430216-.7668105.7670024-.7668105h6.1348681c.423789 0 .7670024.3430215.7670024.7668105v6.13506c-.0003837.4239808-.3434052.7668105-.7671942.7668105zm-5.3678657-1.5336211h4.6010551v-4.601247h-4.6010551z"></path>
        <path d="m30.0997602 41.5963549h-6.13506c-.4237889 0-.7668105-.3428297-.7668105-.7668105v-6.13506c0-.423789.3430216-.7668105.7668105-.7668105h6.13506c.423789 0 .7668105.3430215.7668105.7668105v6.13506c0 .4239808-.3430215.7668105-.7668105.7668105zm-5.3680576-1.5336211h4.601247v-4.601247h-4.601247z"></path>
        <path d="m39.3020624 41.5963549h-6.1348682c-.4237889 0-.7668105-.3428297-.7668105-.7668105v-6.13506c0-.423789.3430216-.7668105.7668105-.7668105h6.1348682c.4237889 0 .7670023.3430215.7670023.7668105v6.13506c0 .4239808-.3430215.7668105-.7670023.7668105zm-5.3680576-1.5336211h4.6010552v-4.601247h-4.6010552z"></path>
        <path d="m48.5051319 41.5963549h-6.1356355c-.423789 0-.7670024-.3428297-.7670024-.7668105v-6.13506c0-.423789.3430216-.7668105.7670024-.7668105h6.1356355c.423789 0 .7668105.3430215.7668105.7668105v6.13506c-.0001918.4239808-.3428297.7668105-.7668105.7668105zm-5.3688249-1.5336211h4.6020143v-4.601247h-4.6020143z"></path>
      </g>
      <path d="m51.5719904 36.9952998c-.423789 0-.7670024-.3430216-.7670024-.7668106v-1.5338129c0-.423789.3432134-.7668106.7670024-.7668106s.7666187.3430216.7666187.7668106v1.5338129c0 .423789-.3430216.7668106-.7666187.7668106z"></path>
      <path d="m11.6947722 50.7988489h-6.13467628c-.42378897 0-.76681055-.3430216-.76681055-.7668105v-6.13506c0-.423789.34302158-.7668105.76681055-.7668105h6.13505998c.4237889 0 .7668105.3430215.7668105.7668105v6.13506c-.0003837.4237889-.3434052.7668105-.7671942.7668105zm-5.36786573-1.5338129h4.60124703v-4.6010552h-4.60124703z" fill-rule="nonzero"></path>
      <path d="m20.8972662 50.7988489h-6.1346763c-.4239808 0-.7670024-.3430216-.7670024-.7668105v-6.13506c0-.423789.3430216-.7668105.7670024-.7668105h6.1348681c.423789 0 .7670024.3430215.7670024.7668105v6.13506c-.0003837.4237889-.3434052.7668105-.7671942.7668105zm-5.3678657-1.5338129h4.6010551v-4.6010552h-4.6010551z" fill-rule="nonzero"></path>
      <path d="m30.0997602 50.7988489h-6.13506c-.4237889 0-.7668105-.3430216-.7668105-.7668105v-6.13506c0-.423789.3430216-.7668105.7668105-.7668105h6.13506c.423789 0 .7668105.3430215.7668105.7668105v6.13506c0 .4237889-.3430215.7668105-.7668105.7668105zm-5.3680576-1.5338129h4.601247v-4.6010552h-4.601247z" fill-rule="nonzero"></path>
      <path d="m39.3020624 50.7988489h-6.1348682c-.4237889 0-.7668105-.3430216-.7668105-.7668105v-6.13506c0-.423789.3430216-.7668105.7668105-.7668105h6.1348682c.4237889 0 .7670023.3430215.7670023.7668105v6.13506c0 .4237889-.3430215.7668105-.7670023.7668105zm-5.3680576-1.5338129h4.6010552v-4.6010552h-4.6010552z" fill-rule="nonzero"></path>
      <path d="m42.3694964 50.7988489c-.423789 0-.7670024-.3430216-.7670024-.7668105v-6.13506c0-.423789.3430216-.7668105.7670024-.7668105h6.1356355c.423789 0 .7668105.3430215.7668105.7668105s-.3430215.7668106-.7668105.7668106h-5.3688249v5.3680575c0 .4239808-.3428298.7670024-.7668106.7670024z"></path>
      <path d="m30.0997602 60.0011511h-6.13506c-.4237889 0-.7668105-.3430216-.7668105-.7668106v-6.1350599c0-.423789.3430216-.7668106.7668105-.7668106h6.13506c.423789 0 .7668105.3430216.7668105.7668106v6.1350599c0 .423789-.3430215.7668106-.7668105.7668106zm-5.3680576-1.5336211h4.601247v-4.6010552h-4.601247z" fill-rule="nonzero"></path>
      <path d="m39.3020624 60.0011511h-6.1348682c-.4237889 0-.7668105-.3430216-.7668105-.7668106v-6.1350599c0-.423789.3430216-.7668106.7668105-.7668106h6.1348682c.4237889 0 .7670023.3430216.7670023.7668106v6.1350599c0 .423789-.3430215.7668106-.7670023.7668106zm-5.3680576-1.5336211h4.6010552v-4.6010552h-4.6010552z" fill-rule="nonzero"></path>
      <path d="m46.9715108 60.0011511h-4.6022062c-.423789 0-.7670024-.3430216-.7670024-.7668106v-6.1350599c0-.423789.3430215-.7668106.7670024-.7668106h4.6020143c.423789 0 .7668106.3430216.7668106.7668106 0 .4239808-.3430216.7670024-.7668106.7670024h-3.8352038v4.6010551h3.8352038c.423789 0 .7668106.3430216.7668106.7668106 0 .4237889-.3428297.7670024-.7666187.7670024z"></path>
      <path d="m30.0997602 69.2034532h-6.13506c-.4237889 0-.7668105-.3430215-.7668105-.7668105v-6.13506c0-.4239808.3430216-.7668105.7668105-.7668105h6.13506c.423789 0 .7668105.3428297.7668105.7668105v6.13506c0 .423789-.3430215.7668105-.7668105.7668105zm-5.3680576-1.5336211h4.601247v-4.601247h-4.601247z" fill-rule="nonzero"></path>
      <path d="m39.3020624 69.2034532h-6.1348682c-.4237889 0-.7668105-.3430215-.7668105-.7668105v-6.13506c0-.4239808.3430216-.7668105.7668105-.7668105h6.1348682c.4237889 0 .7670023.3428297.7670023.7668105v6.13506c0 .423789-.3430215.7668105-.7670023.7668105zm-5.3680576-1.5336211h4.6010552v-4.601247h-4.6010552z" fill-rule="nonzero"></path>
      <path d="m48.5051319 69.2034532h-6.1356355c-.423789 0-.7670024-.3430215-.7670024-.7668105v-6.13506c0-.4239808.3430216-.7668105.7670024-.7668105s.7668106.3428297.7668106.7668105v5.3680576h5.3688249c.423789 0 .7668105.3428297.7668105.7668105 0 .4239809-.3428297.7670024-.7668105.7670024z"></path>
      <path d="m56.1730456 76.8721343h-55.21438853c-.42378896 0-.76681055-.3430216-.76681055-.7668106 0-.4239808.34302159-.7668105.76681055-.7668105h55.21400483c.4241726 0 .7670024.3428297.7670024.7668105.0001918.423789-.3424461.7668106-.7666187.7668106z"></path>
      <path d="m60.7742926 79.9395683h-59.81563553c-.42378896 0-.76681055-.3430215-.76681055-.7668105 0-.4239808.34302159-.7670024.76681055-.7670024h59.81544363c.423789 0 .7670024.3430216.7670024.7670024.0001919.423789-.3430216.7668105-.7668105.7668105z"></path>
      <path d="m13.2283933 73.8047002c-.1960672 0-.3923262-.0748201-.5421583-.2246522l-12.2697362-12.2699281c-.29966427-.2994724-.29966427-.7846523 0-1.0843165.29966427-.2994725.78484413-.2994725 1.08431655 0l12.26973625 12.269928c.2996642.2996643.2996642.7848441 0 1.0843166-.1496403.1498321-.3457075.2246522-.5421583.2246522z"></path>
      <path d="m13.2283933 73.8047002c-.423789 0-.7668106-.3430215-.7668106-.7668105v-12.2699281c0-.4237889.3430216-.7668105.7668106-.7668105.4239808 0 .7670024.3430216.7670024.7668105v12.2699281c0 .423789-.3430216.7668105-.7670024.7668105z"></path>
      <path d="m13.2283933 61.534964h-12.26973623c-.42378896 0-.76681055-.3430216-.76681055-.7670024 0-.4237889.34302159-.7668105.76681055-.7668105h12.26973623c.4239808 0 .7670024.3430216.7670024.7668105 0 .4239808-.3430216.7670024-.7670024.7670024z"></path>
      <path d="m.95865707 76.8721343c-.42378896 0-.76681055-.3430216-.76681055-.7668106v-11.0551558c0-.4239808.34302159-.7668106.76681055-.7668106.42378897 0 .76681056.3428298.76681056.7668106v11.0551558c.00019184.423789-.34282974.7668106-.76681056.7668106z"></path>
      <path d="m11.6947722 53.866283h-6.13467628c-.42378897 0-.76681055-.3430216-.76681055-.7670024 0-.423789.34302158-.7668106.76681055-.7668106h6.13505998c.4237889 0 .7668105.3430216.7668105.7668106-.0003837.4239808-.3434052.7670024-.7671942.7670024z"></path>
      <path d="m11.6947722 58.46753c-.423789 0-.7668106-.3430216-.7668106-.7668106v-4.601247c0-.4237889.3430216-.7668105.7668106-.7668105s.7668105.3430216.7668105.7668105v4.601247c0 .4235971-.3430215.7668106-.7668105.7668106z"></path>
      <path d="m5.56009592 58.46753c-.42378897 0-.76681055-.3430216-.76681055-.7668106v-4.601247c0-.4237889.34302158-.7668105.76681055-.7668105.42398082 0 .7670024.3430216.7670024.7668105v4.601247c-.00019185.4235971-.34321343.7668106-.7670024.7668106z"></path>
      <path d="m14.7625899 58.46753c-.4239808 0-.7670024-.3430216-.7670024-.7668106v-4.601247c0-.4237889.3430216-.7668105.7670024-.7668105.423789 0 .7668106.3430216.7668106.7668105v4.601247c0 .4235971-.3430216.7668106-.7668106.7668106z"></path>
      <path d="m20.8972662 53.866283h-6.1346763c-.4239808 0-.7670024-.3430216-.7670024-.7670024 0-.423789.3430216-.7668106.7670024-.7668106h6.1348681c.423789 0 .7670024.3430216.7670024.7668106-.0003837.4239808-.3434052.7670024-.7671942.7670024z"></path>
      <path d="m20.8972662 60.0011511c-.423789 0-.7670024-.3430216-.7670024-.7668106v-6.1350599c0-.423789.3430216-.7668106.7670024-.7668106s.7670024.3430216.7670024.7668106v6.1350599c-.0001919.423789-.3432134.7668106-.7670024.7668106z"></path>
      <path d="m20.8972662 60.0011511h-4.601247c-.423789 0-.7668106-.3430216-.7668106-.7668106 0-.4237889.3430216-.7668105.7668106-.7668105h4.601247c.423789 0 .7670024.3430216.7670024.7668105 0 .423789-.3432134.7668106-.7670024.7668106z"></path>
      <path d="m20.8972662 69.2034532c-.423789 0-.7670024-.3430215-.7670024-.7668105v-6.13506c0-.4239808.3430216-.7668105.7670024-.7668105s.7670024.3428297.7670024.7668105v6.13506c-.0001919.423789-.3432134.7668105-.7670024.7668105z"></path>
      <path d="m20.8972662 69.2034532h-4.601247c-.423789 0-.7668106-.3430215-.7668106-.7668105 0-.4239808.3430216-.7668106.7668106-.7668106h4.601247c.423789 0 .7670024.3428298.7670024.7668106-.0001919.423789-.3432134.7668105-.7670024.7668105z"></path>
      <path d="m20.8972662 63.0685851h-4.601247c-.423789 0-.7668106-.3428297-.7668106-.7668105s.3430216-.7668106.7668106-.7668106h4.601247c.423789 0 .7670024.3428298.7670024.7668106s-.3432134.7668105-.7670024.7668105z"></path>
      <path d="m10.9281535 18.5905036h-4.60124703c-.42378896 0-.76700239-.3430216-.76700239-.7668106 0-.4239808.34302158-.7670024.76700239-.7670024h4.60124703c.4237889 0 .7668105.3430216.7668105.7670024-.0001918.423789-.3430216.7668106-.7668105.7668106z"></path>
      <path d="m20.1302638 18.5905036h-4.6008633c-.423789 0-.7668106-.3430216-.7668106-.7668106 0-.4239808.3430216-.7670024.7668106-.7670024h4.6010551c.4239809 0 .7670024.3430216.7670024.7670024-.0001918.423789-.3430215.7668106-.7671942.7668106z"></path>
      <path d="m29.3329496 18.5905036h-4.601247c-.4237889 0-.7670024-.3430216-.7670024-.7668106 0-.4239808.3430216-.7670024.7670024-.7670024h4.601247c.423789 0 .7668106.3430216.7668106.7670024 0 .423789-.3430216.7668106-.7668106.7668106z"></path>
      <path d="m38.5352518 18.5905036h-4.6010552c-.4237889 0-.7668105-.3430216-.7668105-.7668106 0-.4239808.3430216-.7670024.7668105-.7670024h4.6010552c.4239808 0 .7670024.3430216.7670024.7670024-.0001918.423789-.3430216.7668106-.7670024.7668106z"></path>
      <path d="m47.7383213 18.5905036h-4.601247c-.4237889 0-.7668105-.3430216-.7668105-.7668106 0-.4239808.3430216-.7670024.7668105-.7670024h4.601247c.423789 0 .7668106.3430216.7668106.7670024 0 .423789-.3430216.7668106-.7668106.7668106z"></path>
      <path d="m56.9398561 18.5905036h-4.601247c-.423789 0-.7666187-.3430216-.7666187-.7668106 0-.4239808.3428297-.7670024.7666187-.7670024h4.601247c.423789 0 .7670024.3430216.7670024.7670024.0001919.423789-.3430216.7668106-.7670024.7668106z"></path>
      <path d="m66.1421583 18.5905036h-4.6008633c-.4241727 0-.7670024-.3430216-.7670024-.7668106 0-.4239808.3428297-.7670024.7670024-.7670024h4.6008633c.4241726 0 .7670024.3430216.7670024.7670024 0 .423789-.3428298.7668106-.7670024.7668106z"></path>
      <path d="m13.2283933 13.9892566c-1.2684892 0-2.3004317-1.0319425-2.3004317-2.3006235v-9.20230216c0-1.26868106 1.0319425-2.30062351 2.3004317-2.30062351 1.268681 0 2.3006235 1.03194245 2.3006235 2.30062351v9.20230216c.0003837 1.268681-1.0317506 2.3006235-2.3006235 2.3006235zm0-12.26973622c-.4230216 0-.7668106.34378897-.7668106.7670024v9.20230212c0 .4232135.343789.7668106.7668106.7668106.4232134 0 .7670024-.343789.7670024-.7668106v-9.20249396c0-.42302159-.3435971-.76681056-.7670024-.76681056z" fill-rule="nonzero"></path>
      <path d="m28.5659472 13.9892566c-1.268681 0-2.3006235-1.0319425-2.3006235-2.3006235v-9.20230216c0-1.26868106 1.0319425-2.30062351 2.3006235-2.30062351 1.2686811 0 2.3006235 1.03194245 2.3006235 2.30062351v9.20230216c0 1.268681-1.0319424 2.3006235-2.3006235 2.3006235zm0-12.26973622c-.4232134 0-.7670024.34378897-.7670024.7670024v9.20230212c0 .4232135.343789.7668106.7670024.7668106.4232135 0 .7670024-.343789.7670024-.7668106v-9.20249396c0-.42302159-.3437889-.76681056-.7670024-.76681056z" fill-rule="nonzero"></path>
      <path d="m43.9040767 13.9892566c-1.268681 0-2.3013908-1.0319425-2.3013908-2.3006235v-9.20230216c0-1.26868106 1.0327098-2.30062351 2.3013908-2.30062351 1.2684892 0 2.3006235 1.03194245 2.3006235 2.30062351v9.20230216c0 1.268681-1.0321343 2.3006235-2.3006235 2.3006235zm0-12.26973622c-.4232134 0-.7675779.34378897-.7675779.7670024v9.20230212c0 .4232135.3443645.7668106.7675779.7668106.4230216 0 .7668106-.343789.7668106-.7668106v-9.20249396c0-.42302159-.343789-.76681056-.7668106-.76681056z" fill-rule="nonzero"></path>
      <path d="m59.2406715 13.9892566c-1.2686811 0-2.3006235-1.0319425-2.3006235-2.3006235v-9.20230216c0-1.26868106 1.0319424-2.30062351 2.3006235-2.30062351 1.268681 0 2.3006235 1.03194245 2.3006235 2.30062351v9.20230216c0 1.268681-1.0319425 2.3006235-2.3006235 2.3006235zm0-12.26973622c-.4222542 0-.7670024.34378897-.7670024.7670024v9.20230212c0 .4232135.3447482.7668106.7670024.7668106s.7666187-.343789.7666187-.7668106v-9.20249396c0-.42302159-.3445564-.76681056-.7666187-.76681056z" fill-rule="nonzero"></path>
      <path d="m23.9645084 7.85438849h-6.1346763c-.4237889 0-.7670024-.34302158-.7670024-.76681055 0-.42398082.3430216-.7670024.7670024-.7670024h6.1348681c.4239809 0 .7670024.34302158.7670024.7670024 0 .42378897-.3430215.76681055-.7671942.76681055z"></path>
      <path d="m39.3020624 7.85438849h-6.1348682c-.4237889 0-.7668105-.34302158-.7668105-.76681055 0-.42398082.3430216-.7670024.7668105-.7670024h6.1348682c.4237889 0 .7670023.34302158.7670023.7670024 0 .42378897-.3430215.76681055-.7670023.76681055z"></path>
      <path d="m54.6392326 7.85438849h-6.1341007c-.423789 0-.7668106-.34302158-.7668106-.76681055 0-.42398082.3430216-.7670024.7668106-.7670024h6.1341007c.423789 0 .7670024.34302158.7670024.7670024.0001919.42378897-.3432134.76681055-.7670024.76681055z"></path>
      <path d="m73.8106475 79.9395683c-.423789 0-.7666187-.3430215-.7666187-.7668105 0-.4239808.3428297-.7670024.7666187-.7670024 12.686235 0 23.006235-10.3196163 23.006235-23.0058513 0-.423789.3428297-.7668106.7666187-.7668106s.7670024.3430216.7670024.7668106c0 13.5311271-11.0085372 24.5396642-24.5398561 24.5396642z"></path>
      <path d="m73.8106475 79.9395683c-13.5307434 0-24.5394724-11.0085371-24.5394724-24.5396642 0-.423789.3430215-.7668106.7671942-.7668106.423789 0 .7666187.3430216.7666187.7668106 0 12.686235 10.3196163 23.0058513 23.0058513 23.0058513.4241727 0 .7670024.3430216.7670024.7670024 0 .423789-.3430216.7668105-.7671942.7668105z"></path>
      <path d="m97.583693 56.1667146c-.4237889 0-.7666187-.3430216-.7666187-.7668105 0-14.446235-9.3596163-26.2426859-11.5913669-28.8479617-1.6519904 1.2669545-6.3478177 4.3134773-9.6548681 1.0177458-2.7409112-2.7522302-1.7225899-8.0857553-.8671463-11.031175-5.8206235 3.8440288-23.898705 17.5069544-23.898705 38.8613909 0 .4237889-.3428297.7668105-.7666187.7668105-.4241727 0-.7671942-.3430216-.7671942-.7668105 0-26.235012 26.2022062-41.1656595 26.4659952-41.3133813.2829736-.1563549.6365467-.1197122.8805755.0936211.2442206.2148681.3267146.5601918.2052758.861199-.0329976.0830696-3.2815348 8.3155876-.1678657 11.4428777 2.9776499 2.9670983 8.0968825-1.5186571 8.1494484-1.5650839.3086811-.2770264.785036-.2553477 1.0693525.048729.5095444.5436931 12.4767386 13.5136691 12.4767386 30.4318465-.0001918.4239808-.3434052.7670024-.7670024.7670024z"></path>
      <path d="m73.8570743 38.5289209c-.4237889 0-.7741007-.3430216-.7741007-.7670024 0-.423789.3353477-.7668106.7576019-.7668106h.0164988c.4226379 0 .7670024.3430216.7670024.7668106.0001919.4241726-.3441726.7670024-.7670024.7670024z"></path>
      <path d="m73.8570743 73.8047002c-.4237889 0-.7741007-.3430215-.7741007-.7668105s.3353477-.7668106.7576019-.7668106h.0164988c.4226379 0 .7670024.3430216.7670024.7668106s-.3441726.7668105-.7670024.7668105z"></path>
      <path d="m65.0384652 40.89247c-.4237889 0-.7741007-.3430216-.7741007-.7670024s.3353477-.7670024.7576019-.7670024h.0164988c.4226379 0 .7670024.3430216.7670024.7670024-.0001918.4239808-.3443645.7670024-.7670024.7670024z"></path>
      <path d="m82.6760671 71.4413429c-.4237889 0-.7741007-.3430216-.7741007-.7670024 0-.4237889.3353477-.7668105.7576019-.7668105h.0164988c.4222542 0 .7670024.3430216.7670024.7668105.0001919.423789-.3445563.7670024-.7670024.7670024z"></path>
      <path d="m58.579952 47.3479137c-.4237889 0-.7744844-.3430216-.7744844-.7668106s.3357314-.7668105.7579856-.7668105h.0164988c.4222542 0 .7670024.3430215.7670024.7668105s-.3447482.7668106-.7670024.7668106z"></path>
      <path d="m89.1318945 64.9857074c-.4241727 0-.7744844-.3430215-.7744844-.7668105s.3353477-.7668106.7579856-.7668106h.0164988c.4222542 0 .7666187.3430216.7666187.7668106s-.3441727.7668105-.7666187.7668105z"></path>
      <path d="m56.216211 56.1667146c-.4237889 0-.7741007-.3430216-.7741007-.7668105 0-.423789.3353477-.7668106.7576019-.7668106h.0164988c.4226379 0 .7670024.3430216.7670024.7668106 0 .4237889-.3443645.7668105-.7670024.7668105z"></path>
      <path d="m91.4919904 56.1667146c-.423789 0-.7741007-.3430216-.7741007-.7668105 0-.423789.3353477-.7668106.7576019-.7668106h.0164988c.4222542 0 .7670024.3430216.7670024.7668106 0 .4237889-.3445563.7668105-.7670024.7668105z"></path>
      <path d="m58.5770743 64.9872422c-.4237889 0-.7744844-.3430216-.7744844-.7668105 0-.423789.3357314-.7668106.7579856-.7668106h.0164988c.4222542 0 .7670024.3430216.7670024.7668106 0 .4237889-.3447482.7668105-.7670024.7668105z"></path>
      <path d="m89.1290168 47.3479137c-.4241727 0-.7744844-.3430216-.7744844-.7668106s.3353477-.7668105.7579856-.7668105h.0164988c.4222542 0 .7666187.3430215.7666187.7668105s-.3443645.7668106-.7666187.7668106z"></path>
      <path d="m65.0353957 71.4442206c-.423789 0-.7741007-.3430216-.7741007-.7670024 0-.4237889.3353477-.7668105.7576019-.7668105h.0164988c.4226379 0 .7670024.3430216.7670024.7668105 0 .4239808-.3445564.7670024-.7670024.7670024z"></path>
      <path d="m82.6731894 40.8940048c-.4237889 0-.7741007-.3430216-.7741007-.7670024s.3353478-.7670024.7576019-.7670024h.0164988c.4226379 0 .7670024.3430216.7670024.7670024-.0001918.4239808-.3441726.7670024-.7670024.7670024z"></path>
      <path d="m73.8106475 76.8721343c-11.8398082 0-21.4722302-9.6322302-21.4722302-21.4722302s9.632422-21.4722302 21.4722302-21.4722302c11.8401918 0 21.4722302 9.6322302 21.4722302 21.4722302s-9.6318465 21.4722302-21.4722302 21.4722302zm0-41.4106475c-10.993765 0-19.9382254 8.9448441-19.9382254 19.9384173 0 10.9935731 8.9444604 19.9386091 19.9382254 19.9386091s19.9386091-8.9448441 19.9386091-19.9386091-8.9446523-19.9384173-19.9386091-19.9384173z" fill-rule="nonzero"></path>
      <path d="m73.8106475 56.1667146c-.423789 0-.7666187-.3430216-.7666187-.7668105v-13.0365468c0-.4239808.3428297-.7670024.7666187-.7670024.4241726 0 .7670024.3430216.7670024.7670024v13.0365468c.0001918.4237889-.3428298.7668105-.7670024.7668105z"></path>
      <path d="m82.2465228 64.6022062c-.196259 0-.3923262-.0748201-.5421583-.2244604l-8.4356834-8.4356834c-.2994725-.2996643-.2994725-.7848442 0-1.0843166.2996642-.2996643.7850359-.2996643 1.0843165 0l8.4356835 8.4356835c.2996642.2994724.2996642.7846522 0 1.0843165-.1498322.1496403-.3458993.2244604-.5421583.2244604z"></path>
      <path d="m46.9715108 50.7988489h-4.6022062c-.423789 0-.7670024-.3430216-.7670024-.7668105 0-.4239808.3430215-.7670024.7670024-.7670024h4.6020143c.423789 0 .7668106.3430216.7668106.7670024.0001918.4237889-.3428297.7668105-.7666187.7668105z"></path>
      <path d="m57.7070504 27.7928058c-.4241727 0-.7670024-.3430216-.7670024-.7670024v-1.5336211c0-.4239809.3428297-.7670024.7670024-.7670024.4237889 0 .7666187.3430215.7666187.7670024v1.5336211c0 .4241726-.3428298.7670024-.7666187.7670024z"></path>
      <path d="m53.1056115 32.3940528h-1.5336211c-.423789 0-.7670024-.3430216-.7670024-.7670024 0-.4239809.3432134-.7670024.7670024-.7670024h1.5336211c.423789 0 .7670024.3430215.7670024.7670024 0 .4239808-.3432134.7670024-.7670024.7670024z"></path>
      <path d="m48.5051319 69.2034532c-.423789 0-.7668106-.3430215-.7668106-.7668105v-3.0674341c0-.4237889.3430216-.7670024.7668106-.7670024s.7668105.3432135.7668105.7670024v3.0674341c-.0001918.423789-.3428297.7668105-.7668105.7668105z"></path>
      <path d="m46.9715108 63.0685851h-4.6022062c-.423789 0-.7670024-.3428297-.7670024-.7668105s.3430215-.7668106.7670024-.7668106h4.6020143c.423789 0 .7668106.3428298.7668106.7668106s-.3428297.7668105-.7666187.7668105z"></path>
    </g>
  </g>
</svg>
