<?xml version="1.0" encoding="UTF-8"?>
<svg xmlns="http://www.w3.org/2000/svg" height="80" viewBox="0 0 92 80" width="92">
  <g fill="none" fill-rule="evenodd">
    <path d="m45.6428986 1.13228986-44.49182614 29.66121734v3.7075942l44.49182614-29.66121734 44.491826 29.66121734v-3.7075942z" fill="#656d78"></path>
    <g transform="translate(.927536 .927536)">
      <path d="m44.7153623.20475362-44.49182607 29.66121738v3.7075942l44.49182607-29.66121737 44.4918261 29.66121737v-3.7075942z" fill="#d7e9ff"></path>
      <path d="m52.1305507 74.358029h-14.8306087l-1.8536811 3.7073623h18.5382029z" fill="#78daff"></path>
    </g>
    <path d="m72.5177971 66.940058v-43.2570435l-35.2227246-23.4808116-35.22272467 23.4808116v43.2570435h-1.85391305v3.7078261h74.15304352v-3.7078261z" fill="#3fcafe" transform="translate(8.347826 4.637681)"></path>
    <g fill="#d7e9ff">
      <path d="m15.980754 41.916986h16.684522v16.684522h-16.684522z"></path>
      <path d="m58.619594 41.916986h16.68429v16.684522h-16.68429z"></path>
      <circle cx="45.643362" cy="30.793507" r="7.41542"></circle>
    </g>
    <path d="m38.22771 53.040464h14.830609v22.246957h-14.830609z" fill="#fff"></path>
    <g fill="#fff" transform="translate(19.014493 23.188406)">
      <path d="m.17878261 35.4126377h5.75884058l4.47142031-16.6845218h-5.75860872z"></path>
      <path d="m42.8313043 35.4126377h5.7588406l4.4716522-16.6845218h-5.7588406z"></path>
      <path d="m22.1692754 13.4961159c1.243826.9430725 2.7772753 1.524174 4.4588985 1.524174.3132754 0 .611942-.054029.915942-.092058l3.5411015-13.21391306c-1.2435942-.94307246-2.7754203-1.5244058-4.4572754-1.5244058-.3148985 0-.6135652.05426087-.9177971.09228986z"></path>
    </g>
    <g fill="#d7e9ff" transform="translate(8.347826 26.898551)">
      <path d="m.217275 44.678725h1.853913v3.707826h-1.853913z"></path>
      <path d="m4.12892754.05171014-2.08556522 1.37043479v43.25704347h2.08556522z"></path>
    </g>
    <g fill="#78daff" transform="translate(78.608696 26.898551)">
      <path d="m2.257855 44.678725h1.853681v3.707826h-1.853681z"></path>
      <path d="m.17136232.05171014 2.08556522 1.37043479v43.25704347h-2.08556522z"></path>
    </g>
    <path d="m38.22771 53.040464h1.853913v22.246957h-1.853913z" fill="#fff"></path>
    <g fill="#00adee">
      <path d="m41.0645797 66.9430725c-.5124638 0-.935884-.4143768-.935884-.9268406s.4053333-.9268406.915942-.9268406h.019942c.5103768 0 .9268406.4143768.9268406.9268406s-.4164638.9268406-.9268406.9268406z"></path>
      <path d="m10.4201739 72.5048116c-.51246376 0-.92707245-.4146087-.92707245-.9270725v-40.7842319c0-.5122318.41460869-.9268405.92707245-.9268405.5122319 0 .9268406.4146087.9268406.9268405v40.7842319c0 .5124638-.4146087.9270725-.9268406.9270725z"></path>
      <path d="m80.8656232 72.5048116c-.5122319 0-.9268406-.4146087-.9268406-.9270725v-40.7842319c0-.5122318.4146087-.9268405.9268406-.9268405s.9268406.4146087.9268406.9268405v40.7842319c0 .5124638-.4146087.9270725-.9268406.9270725z"></path>
      <path d="m1.15107246 31.7203478c-.29866666 0-.592-.1446956-.77124637-.4125217-.28428986-.4273623-.16834783-1.0010435.25715942-1.2853333l44.49182609-29.66144932c.4215652-.28428986.9994203-.17113044 1.2853333.25692753.2842899.42643479.1683479 1.00104348-.2569275 1.28533334l-44.49205798 29.66144925c-.15744928.1050435-.33669565.1555942-.51408696.1555942z"></path>
      <path d="m90.1347246 31.7203478c-.1773913 0-.3564058-.0505507-.5140869-.1555942l-44.4918261-29.66121737c-.4255073-.28428985-.5414493-.85889855-.2571594-1.28533333.2861449-.42828986.8637681-.54028986 1.2855652-.25692754l44.4918261 29.66121744c.4255072.2842898.5412174.857971.2569275 1.2853333-.1790145.2678261-.4723478.4125217-.7712464.4125217z"></path>
      <path d="m1.15107246 35.4281739c-.29866666 0-.592-.1449275-.77124637-.4127536-.28428986-.4273623-.16834783-1.0010435.25715942-1.2853333l44.49182609-29.66121743c.4215652-.28243479.9994203-.17113044 1.2853333.25692753.2842899.42643478.1683479 1.00104348-.2569275 1.28533333l-44.49205798 29.66121737c-.15744928.1050435-.33669565.1558261-.51408696.1558261z"></path>
      <path d="m90.1347246 35.4281739c-.1773913 0-.3564058-.0507826-.5140869-.1558261l-44.4918261-29.66121737c-.4255073-.28428985-.5414493-.85889855-.2571594-1.28533333.2861449-.42828985.8637681-.53843478 1.2855652-.25692753l44.4918261 29.66121743c.4255072.2842898.5412174.857971.2569275 1.2853333-.1790145.2678261-.4723478.4127536-.7712464.4127536z"></path>
      <path d="m90.1347246 35.4281739c-.5122318 0-.9268405-.4146087-.9268405-.9270725v-3.7075942c0-.5122318.4146087-.9268405.9268405-.9268405.5124638 0 .9270725.4146087.9270725.9268405v3.7075942c0 .5124638-.4146087.9270725-.9270725.9270725z"></path>
      <path d="m1.15107246 35.4281739c-.51223188 0-.92684058-.4146087-.92684058-.9270725v-3.7075942c0-.5122318.4146087-.9268405.92684058-.9268405.51246377 0 .92684058.4146087.92684058.9268405v3.7075942c0 .5124638-.41437681.9270725-.92684058.9270725z"></path>
      <path d="m82.7193043 72.5048116h-5.5612753c-.5124638 0-.9268406-.4146087-.9268406-.9270725 0-.5122319.4143768-.9268405.9268406-.9268405h5.5612753c.5124638 0 .9270725.4146086.9270725.9268405 0 .5124638-.4146087.9270725-.9270725.9270725z"></path>
      <path d="m82.7193043 76.2124058c-.5122318 0-.9268405-.4146087-.9268405-.9268406v-3.7078261c0-.5122319.4146087-.9268405.9268405-.9268405.5124638 0 .9270725.4146086.9270725.9268405v3.7078261c0 .5122319-.4146087.9268406-.9270725.9268406z"></path>
      <path d="m34.5198841 76.2124058h-25.95362323c-.51223188 0-.92684058-.4146087-.92684058-.9268406 0-.5124638.4146087-.9270724.92684058-.9270724h25.95362323c.5124637 0 .9268405.4146086.9268405.9270724 0 .5122319-.4143768.9268406-.9268405.9268406z"></path>
      <path d="m82.7193043 76.2124058h-25.9533913c-.5122318 0-.9268405-.4146087-.9268405-.9268406 0-.5124638.4146087-.9270724.9268405-.9270724h25.9533913c.5124638 0 .9270725.4146086.9270725.9270724 0 .5122319-.4146087.9268406-.9270725.9268406z"></path>
      <path d="m8.56626087 76.2124058c-.51223188 0-.92684058-.4146087-.92684058-.9268406v-3.7078261c0-.5122319.4146087-.9268405.92684058-.9268405.51246377 0 .92684058.4146086.92684058.9268405v3.7078261c0 .5122319-.41437681.9268406-.92684058.9268406z"></path>
      <path d="m14.128 72.5048116h-5.56173913c-.51223188 0-.92684058-.4146087-.92684058-.9270725 0-.5122319.4146087-.9268405.92684058-.9268405h5.56173913c.5122319 0 .9268406.4146086.9268406.9268405 0 .5124638-.4146087.9270725-.9268406.9270725z"></path>
      <path d="m38.2274783 76.2124058c-.5122319 0-.9268406-.4146087-.9268406-.9268406v-22.246029c0-.5124637.4146087-.9270724.9268406-.9270724.5124637 0 .9268405.4146087.9268405.9270724v22.246029c0 .5122319-.4143768.9268406-.9268405.9268406z"></path>
      <path d="m53.058087 53.9663768h-14.8306087c-.5122319 0-.9268406-.4146087-.9268406-.9268406 0-.5124637.4146087-.9270724.9268406-.9270724h14.8306087c.5124637 0 .9270724.4146087.9270724.9270724 0 .5122319-.4146087.9268406-.9270724.9268406z"></path>
      <path d="m53.058087 76.2124058c-.5122319 0-.9268406-.4146087-.9268406-.9268406v-22.246029c0-.5124637.4146087-.9270724.9268406-.9270724.5124637 0 .9270724.4146087.9270724.9270724v22.246029c0 .5122319-.4146087.9268406-.9270724.9268406z"></path>
      <path d="m32.6662029 59.5278841h-16.6845217c-.5122319 0-.9268406-.4146087-.9268406-.9268406v-16.6845218c0-.5122318.4146087-.9268405.9268406-.9268405h16.6845217c.5122319 0 .9268406.4146087.9268406.9268405v16.6845218c0 .5122319-.4146087.9268406-.9268406.9268406zm-15.7576812-1.8536812h14.8306087v-14.8306087h-14.8306087z" fill-rule="nonzero"></path>
      <path d="m24.3237101 57.6742029c-.5122318 0-.9268405-.4146087-.9268405-.9270725v-12.6671304c0-.5122319.4146087-.9268406.9268405-.9268406.5124638 0 .9270725.4146087.9270725.9268406v12.6671304c0 .5122319-.4146087.9270725-.9270725.9270725z"></path>
      <path d="m30.8122899 51.1856232h-12.9766957c-.5124638 0-.9270725-.4146087-.9270725-.9268406 0-.5124638.4146087-.9270725.9270725-.9270725h12.9766957c.5124637 0 .9268405.4146087.9268405.9270725 0 .5122319-.4143768.9268406-.9268405.9268406z"></path>
      <path d="m75.3041159 59.5278841h-16.6842898c-.5124638 0-.9270725-.4146087-.9270725-.9268406v-16.6845218c0-.5122318.4146087-.9268405.9270725-.9268405h16.6842898c.5124638 0 .9270725.4146087.9270725.9268405v16.6845218c0 .5122319-.4146087.9268406-.9270725.9268406zm-15.7574492-1.8536812h14.8306087v-14.8306087h-14.8306087z" fill-rule="nonzero"></path>
      <path d="m66.9618551 57.6742029c-.5124638 0-.9268406-.4146087-.9268406-.9270725v-12.6671304c0-.5122319.4143768-.9268406.9268406-.9268406.5124637 0 .9268406.4146087.9268406.9268406v12.6671304c0 .5122319-.4143769.9270725-.9268406.9270725z"></path>
      <path d="m73.4504348 51.1856232h-12.9769276c-.5122318 0-.9268405-.4146087-.9268405-.9268406 0-.5124638.4146087-.9270725.9268405-.9270725h12.9769276c.5122319 0 .9268406.4146087.9268406.9270725 0 .5122319-.4146087.9268406-.9268406.9268406z"></path>
      <path d="m45.6428986 39.1355362c-4.600116 0-8.3422609-3.741913-8.3422609-8.3422608 0-4.600116 3.7421449-8.3422609 8.3422609-8.3422609 4.6003478 0 8.3424927 3.7421449 8.3424927 8.3422609-.0002319 4.6005797-3.7421449 8.3422608-8.3424927 8.3422608zm0-14.8306087c-3.5772754 0-6.4883479 2.9113044-6.4883479 6.4883479 0 3.5775072 2.9113044 6.4883478 6.4883479 6.4883478 3.5775072 0 6.4883478-2.9110725 6.4883478-6.4883478 0-3.5770435-2.9108406-6.4883479-6.4883478-6.4883479z" fill-rule="nonzero"></path>
      <path d="m45.6428986 35.4281739c-.5122319 0-.9268406-.4146087-.9268406-.9270725v-7.4154202c0-.5122319.4146087-.9268406.9268406-.9268406.5124637 0 .9268405.4146087.9268405.9268406v7.4154202c0 .5124638-.4143768.9270725-.9268405.9270725z"></path>
      <path d="m49.3504928 31.7203478h-7.4154203c-.5122319 0-.9268406-.4143768-.9268406-.9268406 0-.5122318.4146087-.9268405.9268406-.9268405h7.4154203c.5124637 0 .9268405.4146087.9268405.9268405 0 .5124638-.4143768.9268406-.9268405.9268406z"></path>
      <path d="m54.912 79.92h-18.5382029c-.5124638 0-.9270725-.4146087-.9270725-.9270725 0-.5122318.4146087-.9268405.9270725-.9268405h18.5382029c.5122319 0 .9268406.4146087.9268406.9268405.0002319.5124638-.4146087.9270725-.9268406.9270725z"></path>
    </g>
  </g>
</svg>
