<?xml version="1.0" encoding="UTF-8"?>
<svg xmlns="http://www.w3.org/2000/svg" height="80" viewBox="0 0 52 80" width="52">
  <g fill="none" fill-rule="evenodd">
    <g fill="#95e2ff" transform="translate(.78776 14.375)">
      <path d="m.031668 38.88625h2.519888v3.748438h-2.519888z"></path>
      <path d="m47.908595 10.147188h2.51973v7.497031h-2.51973z"></path>
      <path d="m41.627151.151875c3.4647279 0 6.2995625 2.81140625 6.2995625 6.2475v38.7342187c0 3.4360938-2.8348346 6.2475-6.2995625 6.2475h-.0381276-32.68181637-.0381276c-3.46488542 0-6.2995625-2.8114062-6.2995625-6.2475v-38.7342187c0-3.43625 2.83483463-6.2475 6.2995625-6.2475h.0381276z"></path>
    </g>
    <g fill="#78daff" transform="translate(9.610677 .78125)">
      <path d="m12.6270117 78.719375h-5.03977602c-6.28727344-1.2495313-2.53201953-11.245625-7.52263933-11.245625v-2.4989063h32.68417965v2.4989063c-4.9904622 0-1.2353658 9.9960937-7.5226393 11.245625h-5.0396185z"></path>
      <path d="m32.7856432 13.745625h-32.72104685v-2.4990625c4.99046224 0 1.23536589-9.99609375 7.52263933-11.245625h5.03977602 7.5595065 5.0396185c6.2995625 1.24953125 2.519888 11.295625 7.5595065 11.245625z"></path>
    </g>
    <path d="m19.7178008.7821875h-2.519888c-6.2872735 1.24953125-2.5320196 11.245625-7.52263936 11.245625v1.2495313h2.51988806c4.9904622 0 1.2353658-11.2454688 7.5226393-12.4951563z" fill="#95e2ff"></path>
    <path d="m32.3367773.7821875h2.5197305c6.2872734 1.24953125 2.5321771 11.245625 7.5213789 11.245625v1.2495313h-2.5197305c-4.9893593 0-1.234263-11.2454688-7.5213789-12.4951563z" fill="#00adee"></path>
    <path d="m19.7178008 79.500625h-2.519888c-6.2872735-1.2495313-2.5320196-11.245625-7.52263936-11.245625v-1.2495313h2.51988806c4.9904622.0001563 1.2353658 11.245625 7.5226393 12.4951563z" fill="#95e2ff"></path>
    <path d="m32.3367773 79.500625h2.5197305c6.2872734-1.2495313 2.5321771-11.245625 7.5213789-11.245625v-1.2495313h-2.5197305c-4.9893593.0001563-1.234263 11.245625-7.5213789 12.4951563z" fill="#00adee"></path>
    <path d="m46.1761523 59.5085937c0 2.0620313-1.700302 3.7484375-3.7796744 3.7484375h-32.75807165c-2.0793724 0-3.77983203-1.6864062-3.77983203-3.7484375v-38.7342187c0-2.0615625 1.70045963-3.7485938 3.77983203-3.7485938h32.75791405c2.0793724 0 3.7796745 1.6870313 3.7796745 3.7485938v38.7342187z" fill="#78daff"></path>
    <path d="m8.37846224 59.5085937v-38.7342187c0-2.0615625 1.70030206-3.7485938 3.77967446-3.7485938h-2.51973045c-2.0793724 0-3.77983203 1.6870313-3.77983203 3.7485938v38.7342187c0 2.0620313 1.70045963 3.7484375 3.77983203 3.7484375h2.51973045c-2.0792148 0-3.77967446-1.6864062-3.77967446-3.7484375z" fill="#95e2ff"></path>
    <g transform="translate(9.610677 13.125)">
      <path d="m34.0455872 46.3835938v-38.7342188c0-2.0615625-1.7004596-3.74859375-3.7796744-3.74859375h2.5197304c2.0793724 0 3.7796745 1.68703125 3.7796745 3.74859375v38.7342188c0 2.0620312-1.7003021 3.7484375-3.7796745 3.7484375h-2.5197304c2.0792148 0 3.7796744-1.6864063 3.7796744-3.7484375z" fill="#d7e9ff"></path>
      <g fill="#00adee">
        <path d="m.028517 52.631563h32.720417v1.249375h-32.720417z"></path>
        <path d="m.028517.151875h32.720417v1.249531h-32.720417z"></path>
        <path d="m17.7049154 11.2832812-1.3350964 1.3251563-1.3361992-1.3251563h-.0012604c-1.722517-1.7082812-4.5130795-1.7082812-6.23559638 0-1.35085156 1.3398438-1.64122005 3.3335938-.87236588 4.9553125.21033203.4442188.50196093.8615625.87236588 1.22875l7.57305598 7.5117188 7.5719531-7.5104688v-.00125c.3702474-.3660937.6606159-.7821875.870948-1.2251562.7726354-1.6228125.481164-3.6179688-.870948-4.9589063-1.7226744-1.70843745-4.5144974-1.70843745-6.2368567 0z"></path>
        <path d="m31.488832 31.2332812v2.4989063h-13.859069l2.5197305-2.4989063z"></path>
        <path d="m31.488832 36.2314062v2.4989063h-8.8194505l2.519888-2.4989063z"></path>
        <path d="m31.488832 41.229375v2.4989062h-21.4185755l2.5197305-2.4989062z"></path>
      </g>
    </g>
    <g fill="#fff" transform="translate(13.234375 44.21875)">
      <path d="m8.96628906 10.135625-2.51973047 2.4989063h-6.29972005v-2.4989063z"></path>
      <path d="m21.5655716 5.13765625-2.519888 2.49890625h-18.89884506v-2.49890625z"></path>
      <path d="m16.5257956.13953125-2.5197305 2.49890625h-13.85922656v-2.49890625z"></path>
    </g>
    <g transform="translate(10.713542 28.59375)">
      <g fill="#95e2ff">
        <path d="m.148257 25.76125h2.519888v2.498906h-2.519888z"></path>
        <path d="m.148257 20.762813h2.519888v2.498906h-2.519888z"></path>
        <path d="m.148257 15.764375h2.519888v2.498906h-2.519888z"></path>
        <path d="m2.03777865 7.01859375c1.04583072 0 1.88983724.83703125 1.88983724 1.87421875 0 1.03734375-.84400652 1.874375-1.88983724 1.874375-1.04583073 0-1.8899948-.83703125-1.8899948-1.874375.00015756-1.0371875.84416407-1.87421875 1.8899948-1.87421875z"></path>
        <path d="m28.4961302 7.01859375c1.0458307 0 1.8898372.83703125 1.8898372 1.87421875 0 1.03734375-.8440065 1.874375-1.8898372 1.874375s-1.8898372-.83703125-1.8898372-1.874375c0-1.0371875.8440065-1.87421875 1.8898372-1.87421875z"></path>
      </g>
      <path d="m22.8141719 2.02046875-7.5472175 7.485-6.87919659-6.82296875c2.07937239 1.8 4.98920179 1.5746875 6.87919659-.6496875v-.0121875c2.1039505-2.486875 5.455556-2.486875 7.5472175-.00015625z" fill="#fff"></path>
    </g>
    <g fill="#00adee">
      <path d="m51.1789036 24.9914063h-1.2597864c-.3483477 0-.6300508-.2795313-.6300508-.6248438s.2817031-.6246875.6300508-.6246875h1.2597864c.3483477 0 .6300508.279375.6300508.6246875s-.2818607.6248438-.6300508.6248438z"></path>
      <path d="m51.1789036 32.4884375c-.3480325 0-.6298932-.279375-.6298932-.6246875v-7.4970313c0-.3453125.2818607-.6246875.6298932-.6246875.3483477 0 .6300508.279375.6300508.6246875v7.4970313c0 .3453125-.2818606.6246875-.6300508.6246875z"></path>
      <path d="m51.1789036 32.4884375h-1.2597864c-.3483477 0-.6300508-.279375-.6300508-.6246875s.2817031-.6248438.6300508-.6248438h1.2597864c.3483477 0 .6300508.2795313.6300508.6248438s-.2818607.6246875-.6300508.6246875z"></path>
      <path d="m51.1789036 27.4904688h-.6298932c-.3481901 0-.6298932-.2793751-.6298932-.6246875 0-.3453125.2817031-.6248438.6298932-.6248438h.6298932c.3483477 0 .6300508.2795313.6300508.6248438s-.2818606.6246875-.6300508.6246875z"></path>
      <path d="m51.1039089 29.9895312h-.6300508c-.3481901 0-.6298933-.2795312-.6298933-.6248437s.2817032-.6246875.6298933-.6246875h.6300508c.3481901 0 .6298932.279375.6298932.6246875 0 .3454687-.2817031.6248437-.6298932.6248437z"></path>
      <path d="m42.3594531 66.2246875h-32.71978643c-3.85860808 0-6.96774089-3.0823438-6.96774089-6.8721875v-38.7342187c0-3.789375 3.10913281-6.8723438 6.92961328-6.8723438h32.75791404c3.8203229 0 6.9294558 3.0828125 6.9294558 6.8723438v38.7340624c0 3.79-3.1091329 6.8723438-6.9294558 6.8723438zm-32.71978643-51.229375c-3.16459115 0-5.70795443 2.5223438-5.70795443 5.6228125v38.7340625c0 3.101875 2.54336328 5.6228125 5.66966927 5.6228125h32.75791409c3.1264635 0 5.6695117-2.5210938 5.6695117-5.6228125v-38.7339062c0-3.100625-2.5432057-5.6228125-5.6695117-5.6228125z" fill-rule="nonzero"></path>
      <path d="m9.63966667 12.4964062c-.34819011 0-.64848438-.2795312-.64848438-.6248437s.26216667-.6246875.61035677-.6246875c1.79514844 0 2.14948304-1.535 2.62308464-4.24765625.4860482-2.78328125 1.0913633-6.24640625 4.8121133-6.98578125.335901-.07140625.6729049.15.7419127.49.0690079.33796875-.1526679.66734375-.4934531.73515625-2.8742226.5709375-3.3552292 3.31765625-3.8190625 5.97359375-.4540651 2.59796875-.924043 5.2842187-3.82646743 5.2842187z"></path>
      <path d="m42.3213255 12.4964062c-2.8988008 0-3.3908359-2.80593745-3.825207-5.2835937-.4650938-2.65703125-.9462578-5.404375-3.8190625-5.9740625-.3420456-.0678125-.5635638-.3965625-.4947136-.73515625.0690079-.33984375.4159375-.56078125.7406524-.49 3.719332.73765625 4.3273255 4.201875 4.8146341 6.98515625.474862 2.70953125.830457 4.248125 2.584957 4.248125h.0368672c.3445664 0 .6264271.2757812.6300508.6185937.0036237.3446875-.2757161.6271875-.6239062.6309375-.0148099 0-.0294623 0-.0442722 0z"></path>
      <path d="m42.3594531 63.725625h-32.75791404c-2.43134375 0-4.40972526-1.9621875-4.40972526-4.3732813v-38.7340625c0-2.41125 1.97853906-4.3732812 4.40972526-4.3732812h32.75791404c2.4313438 0 4.4097253 1.9621875 4.4097253 4.3732812v38.7340625c0 2.41125-1.9783815 4.3732813-4.4097253 4.3732813zm-32.75791404-46.2310937c-1.73732682 0-3.14978125 1.4014062-3.14978125 3.1237499v38.7340625c0 1.7229688 1.41245443 3.12375 3.14978125 3.12375h32.75791404c1.7371693 0 3.1497813-1.4007812 3.1497813-3.12375v-38.7340625c0-1.7223437-1.412612-3.1237499-3.1497813-3.1237499z" fill-rule="nonzero"></path>
      <path d="m2.04203255 57.478125h-1.25994401c-.3481901 0-.62989323-.278125-.62989323-.6248438 0-.3440625.28170313-.6246875.62989323-.6246875h1.25994401c.34819011 0 .63005078.280625.63005078.6246875-.00015755.3467188-.28186067.6248438-.63005078.6248438z"></path>
      <path d="m.78208854 57.478125c-.3481901 0-.62989323-.278125-.62989323-.6248438v-3.7484375c0-.3440625.28170313-.6246875.62989323-.6246875.34819011 0 .63005078.280625.63005078.6246875v3.7484375c0 .3467188-.28186067.6248438-.63005078.6248438z"></path>
      <path d="m2.04203255 53.7295312h-1.25994401c-.3481901 0-.62989323-.278125-.62989323-.6246875 0-.3440625.28170313-.6246875.62989323-.6246875h1.25994401c.34819011 0 .63005078.280625.63005078.6246875-.00015755.3465625-.28186067.6246875-.63005078.6246875z"></path>
      <path d="m34.7999466 1.2509375h-17.638901c-.3481901 0-.6300508-.27953125-.6300508-.62484375s.2817031-.6246875.6300508-.6246875h17.638901c.3483477 0 .6300508.279375.6300508.6246875s-.2818607.62484375-.6300508.62484375z"></path>
      <path d="m34.7986862 79.9692188c-.2939922 0-.5560013-.205-.6163438-.5015625-.0690078-.3379688.152668-.6673438.4934532-.7357813 2.8740651-.5709375 3.3552291-3.3167187 3.8190625-5.9729687.4540651-2.5979688.9238854-5.2848438 3.8264674-5.2848438.3481901 0 .6484844.280625.6484844.6248438 0 .3464062-.2621667.6246875-.6103568.6246875-1.7951484 0-2.1496406 1.535-2.6230846 4.24875-.4860482 2.7821875-1.0915208 6.2451562-4.8121133 6.9845312-.0419088.01-.0838177.0123438-.125569.0123438z"></path>
      <path d="m17.162306 79.9692188c-.0419089 0-.0836602-.0025-.1254115-.0121875-3.72075-.739375-4.3260651-4.2025001-4.8121133-6.9845313-.4737591-2.71375-.8280937-4.24875-2.58495698-4.24875-.34819011 0-.64848438-.2782813-.64848438-.6246875 0-.3442188.26216667-.6248438.61035677-.6248438 2.94055209 0 3.41052999 2.686875 3.86459509 5.2848438.4638333 2.65625.9449974 5.401875 3.8190625 5.9729688.3407851.0684374.5623034.3978125.4934531.7357812-.0603425.2965625-.3225091.5014063-.6165013.5014063z"></path>
      <path d="m34.7999466 79.9692187h-17.638901c-.3481901 0-.6300508-.2781249-.6300508-.6248437 0-.3440625.2817031-.6246875.6300508-.6246875h17.638901c.3483477 0 .6300508.280625.6300508.6246875 0 .3467188-.2818607.6248437-.6300508.6248437z"></path>
      <path d="m22.2006641 79.9692187c-.3481901 0-.6300508-.2781249-.6300508-.6248437v-2.4989062c0-.3440625.2818607-.6248438.6300508-.6248438s.6300507.2807813.6300507.6248438v2.4989062c0 .3467188-.2817031.6248437-.6300507.6248437z"></path>
      <path d="m29.7601706 79.9692187c-.3481901 0-.6298933-.2781249-.6298933-.6248437v-2.4989062c0-.3440625.2817032-.6248438.6298933-.6248438s.6300508.2807813.6300508.6248438v2.4989062c0 .3467188-.2818607.6248437-.6300508.6248437z"></path>
      <path d="m22.2006641 3.74984375c-.3481901 0-.6300508-.279375-.6300508-.6246875v-2.49921875c0-.3453125.2818607-.6246875.6300508-.6246875s.6300507.279375.6300507.6246875v2.4990625c0 .34546875-.2817031.62484375-.6300507.62484375z"></path>
      <path d="m29.7601706 3.74984375c-.3481901 0-.6298933-.279375-.6298933-.6246875v-2.49921875c0-.3453125.2817032-.6246875.6298933-.6246875s.6300508.279375.6300508.6246875v2.4990625c0 .34546875-.2818607.62484375-.6300508.62484375z"></path>
      <path d="m25.9804961 38.7239062c-.1674779 0-.3272357-.0659375-.4453997-.1829687l-7.5472175-7.4848438c-.4453997-.4417187-.7899661-.9279687-1.0223555-1.4314062-.8933203-1.891875-.4947135-4.1689063.9954141-5.660625 1.9440352-1.8998437 5.2475872-1.866875 7.1300195-.0025l.8895391.8834375.8895391-.8828125c1.9082708-1.8803125 5.2179674-1.8796875 7.1262382-.001875 1.4935938 1.4953125 1.8925157 3.7723437.9966745 5.6698437-.2486172.5215625-.5832578.9920313-.995414 1.4007813l-7.5717956 7.5098437c-.1180065.1171875-.2779219.183125-.4452422.183125zm-4.4602995-14.9696875c-.9990377 0-1.9476588.3885938-2.6698776 1.0945313-1.114681 1.1159375-1.4148177 2.8267187-.7406523 4.250625.1722044.3745312.4294869.7351562.7444336 1.048125l7.1263958 7.068125 7.1018177-7.043125c.3333802-.331875.5843607-.6851563.7702721-1.074375.672905-1.4226563.3727683-3.1335938-.7480573-4.254375-1.4261614-1.4032813-3.9126484-1.4045313-5.3449544.0035937l-1.3336784 1.3226563c-.2363281.234375-.6546289.234375-.8907994 0l-1.3349388-1.3245313c-.7111902-.7032812-1.6623321-1.09125-2.679961-1.09125z" fill-rule="nonzero"></path>
      <path d="m22.2142135 33.1029688c-1.2684518 0-2.5075989-.4740625-3.5275911-1.3564063-.2215182-.1714063-.455168-.4026563-.7332474-.7278125-.2251419-.2635938-.1931589-.6576563.072474-.8810938.2645299-.2220312.6643971-.1896875.8871757.0720313.2227787.26.4011276.4375.5782162.5753125.8907995.770625 1.9501797 1.1373438 3.0131836 1.0573438 1.1159414-.0848438 2.1789453-.6595313 2.9934896-1.6185938.2276627-.2646875.6250091-.2959375.8884362-.075.2657903.2221875.3001367.61625.0762552.8804687-1.0348021 1.2171875-2.4066081 1.9487501-3.8622318 2.0592188-.1288776.0096875-.2569674.0145313-.3861602.0145313z"></path>
      <path d="m25.9804961 31.2451562c-.3481901 0-.6300508-.2734375-.6300508-.6185937 0-.1470313.0516771-.3014063.1476263-.4135938 1.1392591-1.3471875 2.6527044-2.0884374 4.2608386-2.0884374h.0074049c1.6056133.0024999 3.1141745.7443749 4.2447682 2.0896874.2227787.2648438.1871719.6589063-.0800364.8798438-.2681537.2201562-.6643972.1859375-.8870183-.079375-.8884362-1.0560938-2.0535338-1.63875-3.2802343-1.640625-.0012604 0-.0036237 0-.0048841 0-1.2180352 0-2.3784063.5723437-3.2703086 1.6125-.1156433.1560937-.3002943.2585937-.5081055.2585937z"></path>
      <path d="m41.0995091 47.481875h-30.238026c-.3481901 0-.6300508-.278125-.6300508-.6246875v-2.4989063c0-.3440625.2818607-.6248437.6300508-.6248437h30.238026c.3483477 0 .6300508.2807812.6300508.6248437v2.4989063c0 .3465625-.2817031.6246875-.6300508.6246875zm-29.6081328-1.249375h28.9782396v-1.2495313h-28.9782396z" fill-rule="nonzero"></path>
      <path d="m27.2404401 47.481875c-.1611758 0-.3225091-.0609375-.4453997-.1829687-.2460964-.2440625-.2460964-.639375 0-.8834375l2.5197304-2.4989063c.2462539-.2442187.6448607-.2442187.8907995 0 .2462539.2440625.2462539.639375 0 .8834375l-2.519888 2.4989063c-.1228906.1221874-.2840664.1829687-.4452422.1829687z"></path>
      <path d="m13.3812135 47.481875c-.3481901 0-.6298932-.278125-.6298932-.6246875v-2.4989063c0-.3440625.2817031-.6248437.6298932-.6248437s.6300508.2807812.6300508.6248437v2.4989063c0 .3465625-.2818607.6246875-.6300508.6246875z"></path>
      <path d="m41.0995091 52.4801562h-30.238026c-.3481901 0-.6300508-.2782812-.6300508-.6248437v-2.4989063c0-.3440625.2818607-.6248437.6300508-.6248437h30.238026c.3483477 0 .6300508.2807812.6300508.6248437v2.4989063c0 .3464062-.2817031.6248437-.6300508.6248437zm-29.6081328-1.2495312h28.9782396v-1.2495313h-28.9782396z" fill-rule="nonzero"></path>
      <path d="m32.2800586 52.4801562c-.1611758 0-.3223516-.0610937-.4453997-.183125-.246254-.2440625-.246254-.639375 0-.8834375l2.519888-2.4989062c.2460963-.2440625.6447031-.2440625.8906419 0s.2460964.639375 0 .8832812l-2.5197305 2.4990625c-.1230481.1220313-.2842239.183125-.4453997.183125z"></path>
      <path d="m13.3812135 52.4801562c-.3481901 0-.6298932-.2782812-.6298932-.6248437v-2.4989063c0-.3440625.2817031-.6248437.6298932-.6248437s.6300508.2807812.6300508.6248437v2.4989063c0 .3464062-.2818607.6248437-.6300508.6248437z"></path>
      <path d="m41.0995091 57.478125h-30.238026c-.3481901 0-.6300508-.278125-.6300508-.6248438v-2.4989062c0-.3440625.2818607-.6248438.6300508-.6248438h30.238026c.3483477 0 .6300508.2807813.6300508.6248438v2.4989062c0 .3467188-.2817031.6248438-.6300508.6248438zm-29.6081328-1.2495313h28.9782396v-1.2495312h-28.9782396z" fill-rule="nonzero"></path>
      <path d="m19.6809336 57.478125c-.1611758 0-.3223516-.0610938-.4453997-.183125-.2460964-.2440625-.2460964-.639375 0-.8832813l2.519888-2.4990625c.2460963-.2440625.6447031-.2440625.8907995 0 .2460963.2442188.2460963.639375 0 .8834375l-2.5198881 2.4989063c-.1230481.1220312-.2842239.183125-.4453997.183125z"></path>
      <path d="m13.3812135 57.478125c-.3481901 0-.6298932-.278125-.6298932-.6248438v-2.4989062c0-.3440625.2817031-.6248438.6298932-.6248438s.6300508.2807813.6300508.6248438v2.4989062c0 .3467188-.2818607.6248438-.6300508.6248438z"></path>
      <g fill-rule="nonzero">
        <path d="m12.7513203 39.985625c-1.3891367 0-2.519888-1.1207813-2.519888-2.4990625 0-1.378125 1.1307513-2.4989062 2.519888-2.4989062 1.3889792 0 2.5197305 1.1207812 2.5197305 2.4989062 0 1.3782812-1.1305938 2.4990625-2.5197305 2.4990625zm0-3.7485937c-.6952773 0-1.259944.5606249-1.259944 1.2495312 0 .6889062.5646667 1.2495312 1.259944 1.2495312.6951198 0 1.259944-.5606249 1.259944-1.2495312 0-.68875-.5648242-1.2495312-1.259944-1.2495312z"></path>
        <path d="m39.2096719 39.985625c-1.3889792 0-2.5197305-1.1207813-2.5197305-2.4990625 0-1.378125 1.1307513-2.4989062 2.5197305-2.4989062 1.3891367 0 2.519888 1.1207812 2.519888 2.4989062 0 1.3782812-1.1307513 2.4990625-2.519888 2.4990625zm0-3.7485937c-.6951198 0-1.259944.5606249-1.259944 1.2495312 0 .6889062.5648242 1.2495312 1.259944 1.2495312s1.259944-.5606249 1.259944-1.2495312c0-.68875-.5648242-1.2495312-1.259944-1.2495312z"></path>
      </g>
    </g>
  </g>
</svg>
