<svg xmlns="http://www.w3.org/2000/svg" viewBox="0 0 1920 433.46">
	<defs>
		<style>
			.cls-0 {
				fill: #FFFFFF;
			}

			.cls-2 {
				fill: #FDFDFD;
			}

			.cls-3 {
				fill: #F9F9F9;
			}

			.cls-4 {
				fill: #F5F5F5;
			}
		</style>
	</defs>
	<rect class="cls-0" width="1920" height="433"/>
	<path class="cls-3" d="M1388.47,321.12a1851.58,1851.58,0,0,1-201.47,11c-406.83,0-782.69-48.31-1086.71-255.54A1824,1824,0,0,0,779,387.86C993.31,385.84,1198.5,369.08,1388.47,321.12Z"></path>
	<path class="cls-2" d="M1920,56c-156.64,133.37-336,215.77-531.53,265.12A1819.92,1819.92,0,0,0,1920,179.55Z"></path>
	<path class="cls-3" d="M1920,179.55V281C1707.36,373.87,1473.68,427.61,1228.07,433q-20.47.47-41.07.46-20.82,0-41.52-.46A1835.54,1835.54,0,0,1,779,387.86c214.32-2,419.51-18.78,609.48-66.74A1819.92,1819.92,0,0,0,1920,179.55Z"></path>
	<path class="cls-4" d="M779,387.86A1824,1824,0,0,1,100.29,76.54Q82.13,64.15,64.31,51,31.55,26.85,0,0V235.54H0V433H1145.48A1835.54,1835.54,0,0,1,779,387.86Z"></path>
	<path class="cls-4" d="M1920,281V433H1228.07C1473.68,427.61,1707.36,373.87,1920,281Z"></path>
</svg>