<svg xmlns="http://www.w3.org/2000/svg" width="5431.431" height="2387" viewBox="0 0 5431.431 2387"><defs><style>.a{fill:#f6ae32;}</style></defs><path class="a" d="M5509.215,2387H77.784c.434-4.344.872-8.628,1.3-12.737,4.615-44.059,10.453-88.59,17.352-132.355,6.849-43.448,14.923-87.265,24-130.234,9.016-42.713,19.267-85.761,30.467-127.95,11.128-41.925,23.5-84.15,36.766-125.5,13.185-41.088,27.618-82.432,42.9-122.883,15.189-40.208,31.625-80.615,48.854-120.1,17.147-39.295,35.531-78.709,54.641-117.148,19.037-38.3,39.31-76.664,60.255-114.033,20.878-37.25,42.982-74.512,65.7-110.752,22.642-36.119,46.52-72.22,70.972-107.3,24.356-34.946,49.949-69.832,76.07-103.687,26.043-33.754,53.3-67.367,81-99.908,27.684-32.514,56.537-64.8,85.758-95.96,29.241-31.184,59.637-62.086,90.345-91.848,30.727-29.783,62.609-59.246,94.759-87.569,32.168-28.339,65.477-56.306,99-83.124,33.551-26.838,68.231-53.253,103.074-78.512,34.93-25.319,70.922-50.127,106.975-73.734,36.16-23.679,73.405-46.823,110.7-68.789,37.368-22.01,75.811-43.435,114.261-63.681,38.558-20.3,78.14-39.952,117.647-58.4,39.682-18.533,80.346-36.352,120.863-52.962,40.723-16.695,82.411-32.627,123.9-47.355,41.729-14.808,84.383-28.8,126.779-41.578,42.618-12.85,86.181-24.84,129.478-35.638,43.525-10.855,87.939-20.791,132.006-29.531,44.367-8.8,89.573-16.624,134.365-23.257,45.1-6.681,91.046-12.339,136.549-16.818,45.815-4.511,92.435-7.947,138.565-10.213C2699.552,1.158,2746.792,0,2793.5,0s93.948,1.158,140.407,3.442c46.129,2.266,92.749,5.7,138.565,10.213,45.489,4.477,91.432,10.135,136.551,16.818,44.806,6.636,90.013,14.46,134.364,23.257,44.078,8.743,88.491,18.68,132.007,29.531,43.292,10.8,86.855,22.787,129.477,35.638,42.407,12.785,85.062,26.774,126.778,41.578,41.5,14.728,83.184,30.66,123.9,47.355,40.523,16.612,81.188,34.431,120.863,52.962,39.513,18.454,79.095,38.1,117.647,58.4,38.429,20.233,76.873,41.659,114.262,63.681,37.3,21.966,74.543,45.11,110.7,68.789C4355.113,475.3,4391.105,500.1,4426,525.4c34.826,25.244,69.505,51.66,103.075,78.512,33.533,26.825,66.842,54.792,99,83.124s64.031,57.785,94.759,87.569c30.71,29.765,61.106,60.667,90.343,91.848,29.213,31.152,58.067,63.438,85.759,95.96,27.713,32.548,54.965,66.162,81,99.908,26.108,33.837,51.7,68.723,76.071,103.687,24.443,35.069,48.321,71.17,70.971,107.3,22.713,36.232,44.818,73.495,65.7,110.752,20.946,37.373,41.218,75.739,60.254,114.033,19.117,38.454,37.5,77.868,54.641,117.148,17.221,39.464,33.658,79.87,48.855,120.1,15.265,40.412,29.7,81.756,42.9,122.883,13.266,41.343,25.637,83.568,36.768,125.5,11.2,42.2,21.451,85.244,30.466,127.95,9.078,43,17.152,86.813,24,130.234,6.9,43.761,12.735,88.292,17.351,132.355.418,3.983.856,8.268,1.3,12.735Z" transform="translate(-77.784 0)"/></svg>