<?xml version="1.0" encoding="utf-8"?>
<!-- Generator: Adobe Illustrator 16.0.0, SVG Export Plug-In . SVG Version: 6.00 Build 0)  -->
<!DOCTYPE svg PUBLIC "-//W3C//DTD SVG 1.1//EN" "http://www.w3.org/Graphics/SVG/1.1/DTD/svg11.dtd">
<svg version="1.1" id="Layer_1" xmlns="http://www.w3.org/2000/svg" xmlns:xlink="http://www.w3.org/1999/xlink" x="0px" y="0px"
	 width="1314px" height="1170px" viewBox="0 0 1314 1170" enable-background="new 0 0 1314 1170" xml:space="preserve">
<path fill="#11A3DD" d="M657.027,0c323.102,0,585.027,261.926,585.027,585.027c0,323.103-261.926,585.028-585.027,585.028
	S72,908.13,72,585.027c0-0.092,0-0.185,0-0.276C72,261.649,333.926-0.276,657.027-0.276"/>
<path fill="#F6AE32" d="M805.584,837.923c-15.237,11.361-33.689,17.59-52.695,17.786c-59.014,0-87.938-36.128-95.141-46.711V608.576
	c0-64.72,19.836-106.443,55.908-117.581c27.706-8.534,57.019,4.045,65.718,16.623c4.345,6.381,13.041,8.03,19.421,3.685
	c6.381-4.345,8.031-13.041,3.686-19.421l0,0c-15.625-22.996-57.184-40.173-97.08-27.706c-19.296,6.069-36.048,18.342-47.652,34.909
	V370.754c12.662-33.483,44.029-56.226,79.791-57.849h4.045c40.894,0,66.493,33.911,77.853,54.469
	c-21.577,4.205-41.766,13.729-58.735,27.705c-5.845,5.049-6.49,13.881-1.44,19.727c5.05,5.845,13.882,6.489,19.727,1.44
	c0.442-0.388,44.329-37.68,79.736-14.296l0.942,0.554c15.666,9.853,28.469,23.648,37.125,40.007
	c7.186,14.174,11.248,29.725,11.913,45.603c0,3.713,0,7.314,0,11.082c-0.782,20.198-4.517,40.173-11.082,59.29l-0.887,1.718
	c10.478-5.639,21.928-9.249,33.745-10.64c4.021-15.66,6.069-31.762,6.095-47.931c1.247-24.83-3.984-49.559-15.183-71.756
	c-11.256-21.354-28.088-39.257-48.706-51.81l-3.823-2.327c-5.938-3.447-12.123-6.447-18.507-8.977
	c-9.144-20.226-42.444-81.731-108.938-81.731h-5.541c-37.572,1.189-72.138,20.847-92.369,52.529
	c-20.232-31.683-54.797-51.34-92.371-52.529h-5.541c-66.492,0-99.739,61.506-108.938,81.731
	c-30.412,11.95-55.589,34.318-71.037,63.113c-19.338,37.291-20.336,83.394-2.937,137.142
	c-13.983,23.274-23.054,49.166-26.653,76.079c0,1.329-0.554,2.659-0.831,4.045c-0.316,1.703-0.316,3.45,0,5.153
	c-0.851,14.468,0.476,28.98,3.934,43.054c13.686,55.411,56.242,87.66,69.43,96.526c8.921,18.451,49.26,91.871,125.672,91.871
	c41.541,0.953,81.414-16.341,109.104-47.321c27.69,30.98,67.563,48.274,109.104,47.321c28.548-0.255,56.063-10.711,77.576-29.479
	c-6.705-4.267-15.35-9.808-24.936-16.29 M629.877,657.782c-12.156-12.427-27.489-21.281-44.329-25.6
	c-17.731-4.876-29.202-15.127-32.304-28.924c-2.733-12.021,1.153-24.589,10.195-32.97c6.781-5.695,16.303-6.806,24.214-2.825
	c7.131,2.968,15.317-0.406,18.285-7.537c2.969-7.13-0.405-15.317-7.536-18.285l0,0c-17.547-8.042-38.158-5.236-52.917,7.204
	c-17.019,15.123-24.487,38.293-19.505,60.509c1.654,7.43,4.7,14.48,8.977,20.779c-28.869,5.264-53.914,21.222-65.163,44.051
	c-3.413,6.932-0.56,15.316,6.372,18.729c6.932,3.412,15.316,0.559,18.729-6.373c11.082-22.718,48.042-35.574,80.457-28.038
	l2.992,0.776h0.721l0,0c32.305,9.143,50.756,36.404,50.756,75.414v74.195c-7.258,10.639-36.183,46.711-95.141,46.711
	c-49.094,0-80.788-42.001-94.197-64.774h2.77c3.572,0.009,7.143-0.176,10.695-0.555c28.078-2.409,53.064-18.775,66.492-43.553
	c3.627-6.809,1.047-15.269-5.762-18.895c-6.81-3.627-15.27-1.046-18.896,5.763l0,0c-9.105,16.527-25.905,27.374-44.716,28.868
	c-20.779,2.272-42.112-4.876-53.194-17.842l0,0c-14.671-15.896-25.213-35.151-30.698-56.075
	c-3.321-13.552-4.202-27.587-2.604-41.447c19.338-90.043,94.199-80.18,97.356-79.682c7.651,1.194,14.82-4.04,16.015-11.691
	c1.194-7.65-4.041-14.819-11.692-16.014l0,0c-19.223-2.218-38.695,0.274-56.74,7.259c-6.907,2.691-13.518,6.09-19.727,10.141
	c-14.628-45.659-14.185-84.059,1.274-114.146c9.56-18.075,24.097-33.035,41.892-43.109c0,1.219,0,2.438,0,3.657
	c1.273,26.542,15.127,49.869,41.17,70.15c6.121,4.712,14.902,3.571,19.615-2.549c4.713-6.121,3.572-14.903-2.549-19.616l0,0
	c-19.172-14.739-29.368-31.307-30.254-49.149c-1.33-26.874,17.787-51.532,26.707-61.395c14.713-17.258,36.065-27.45,58.736-28.038
	h4.045c24.604,0.758,47.719,11.963,63.556,30.809l0,0c9.753,14.739,12.91,27.705,9.364,38.787
	c-6.206,19.449-30.975,29.202-31.529,29.424c-7.221,2.724-10.869,10.787-8.145,18.009c2.724,7.222,10.787,10.869,18.008,8.146l0,0
	c10.451-4.246,20.102-10.242,28.537-17.731L629.877,657.782z"/>
<path fill="#F6AE32" d="M1020.135,627.141c-13.132-29.645-37.9-49.87-66.492-54.192c-4.42-0.686-8.883-1.037-13.354-1.053
	c-32.304,0-55.411,24.159-69.097,38.345c-13.466-14.186-36.738-38.345-69.042-38.345c-4.49,0.014-8.973,0.365-13.409,1.053
	c-28.371,4.267-53.195,24.548-66.494,54.192c-16.623,38.012-11.746,83.116,13.576,121.072C762.974,788.773,867.533,851,870.359,851
	s108.605-62.226,135.813-102.787c25.322-37.846,30.42-83.116,13.575-121.072 M974.255,746.052
	c-5.052,0.015-9.774-2.503-12.578-6.704h-27.706c-3.084-0.011-5.922-1.684-7.424-4.378l-11.748-21.167l-34.631,70.594
	c-1.445,2.905-4.403,4.748-7.647,4.765h-0.887c-3.547-0.375-6.485-2.916-7.369-6.372l-27.706-109.824l-19.504,60.564
	c-1.119,3.55-4.424,5.955-8.146,5.929h-27.706c-4.697,6.909-14.105,8.701-21.015,4.005c-6.909-4.698-8.701-14.106-4.004-21.016
	c4.697-6.908,14.106-8.701,21.015-4.004c1.576,1.07,2.934,2.43,4.004,4.004h21.723l26.707-82.839
	c1.133-3.509,4.402-5.883,8.09-5.874l0,0c3.896,0.006,7.295,2.651,8.256,6.428l29.424,116.029l31.584-64.387
	c1.389-2.853,4.253-4.691,7.425-4.766l0,0c3.104-0.01,5.968,1.667,7.479,4.378l17.233,31.029h23.218
	c4.743-6.877,14.164-8.606,21.041-3.863c6.877,4.744,8.607,14.164,3.863,21.042c-2.82,4.089-7.469,6.533-12.438,6.538l0,0
	L974.255,746.052z"/>
<image display="none" overflow="visible" width="800" height="546" xlink:href="../arteriovenous-fistula-hemodialysis-vascular-access-vascular-surgery-blood.jpg"  transform="matrix(2.3052 0 0 2.3052 -666.062 -123.2305)">
</image>
<g id="access" display="none">
	<path display="inline" fill="none" stroke="#F6AE32" stroke-width="35" stroke-miterlimit="10" d="M1089.387,633.396
		c-11.414,0-262.504,11.411-262.504,11.411s-114.134,19.976-145.518-71.332l-71.333-67.938"/>
	<path display="inline" fill="none" stroke="#F6AE32" stroke-width="35" stroke-miterlimit="10" d="M344.675,610.067
		c0,0,331.212,61.898,425.258,34.053"/>
	<path display="inline" fill="none" stroke="#F6AE32" stroke-width="35" stroke-miterlimit="10" d="M1023.762,411.378
		c0,0-293.892,36.783-590.634,21.245"/>
	<path display="inline" fill="none" stroke="#F6AE32" stroke-width="35" stroke-miterlimit="10" d="M447.395,346
		c0,0,162.792,88.796,231.688,85.715"/>
	<path display="inline" fill="none" stroke="#FFFFFF" stroke-width="12" stroke-miterlimit="10" d="M769.934,431.822l-41.489-7.908
		c0,0-196.878-312.378-383.769-36.017c-186.891,276.36,84.172,46.59,169.771,242.794l42.857,11.072"/>
	<path display="inline" fill="none" stroke="#F6AE32" stroke-width="35" stroke-miterlimit="10" d="M471.579,630.691
		c0,0-97.273,107.755-191.268,127.728"/>
	<path display="inline" fill="none" stroke="#F6AE32" stroke-width="35" stroke-miterlimit="10" d="M433.127,751.303
		c319.679-22.762,636.288,31.12,636.288,31.12"/>
	<path display="inline" fill="none" stroke="#F6AE32" stroke-width="35" stroke-miterlimit="10" d="M448.497,874.656
		c0,0,175.375-130.075,249.596-125.56"/>
</g>
</svg>
