<svg id="Layer_1" data-name="Layer 1" xmlns="http://www.w3.org/2000/svg" viewBox="0 0 211.15 210.27"><defs><style>.cls-1{fill:#11a3dd;}.cls-2{fill:#fff;}.cls-3{fill:#f6ae32;}</style></defs><title>vericose-veins</title><path class="cls-1" d="M592.5,1403.18c58.31,0,105.58,47.07,105.58,105.13s-47.27,105.13-105.58,105.13-105.58-47.07-105.58-105.13,47.27-105.13,105.58-105.13" transform="translate(-486.92 -1403.18)"/><path class="cls-2" d="M569.85,1528.17l-8.24-44.67,0-.11a83.9,83.9,0,0,1-.15-39.24l4.3-7.33h38.59L596,1497.43a1.35,1.35,0,0,0,0,.19l-1.24,30v0.17a20,20,0,0,0,.65,4.19,22.28,22.28,0,0,0,2.65,6.19,16.23,16.23,0,0,0,2.07,2.65,11.59,11.59,0,0,0,2.62,2l0.18,0.09,30.82,13.32,8.47,4.92,1-1.72-1,1.72a6.44,6.44,0,0,1,2.1,1.82,3.32,3.32,0,0,1,.43.85,2.42,2.42,0,0,1,0,1.55,3.73,3.73,0,0,1-.78,1.3,7.16,7.16,0,0,1-1.72,1.38l-2.05,1.22a15.36,15.36,0,0,1-7.59,2.14l-22.07-5.68a53.09,53.09,0,0,0-21-1.1l-17.83,2.65a9.65,9.65,0,0,1-4.34-1.09l-1.44-.75a9.6,9.6,0,0,1-3.83-3.62,9.7,9.7,0,0,1-1.36-4.95,9.59,9.59,0,0,1,1.06-4.38l6.39-12.49a18.63,18.63,0,0,0,1.73-11.86h0Zm-11.67,22.53A13.64,13.64,0,0,0,564,1569l1.44,0.75a13.65,13.65,0,0,0,6.31,1.55l0.29,0,18-2.68a49.07,49.07,0,0,1,19.46,1l22.32,5.74a2,2,0,0,0,.5.06,19.35,19.35,0,0,0,9.86-2.7l2.05-1.22a10.4,10.4,0,0,0,3.34-3,7.32,7.32,0,0,0,.93-1.86,6.41,6.41,0,0,0,0-4,7.68,7.68,0,0,0-1.61-2.72,11.12,11.12,0,0,0-2.71-2.15l-8.57-5-0.21-.11-30.82-13.32a8.37,8.37,0,0,1-2.18-1.9,16.05,16.05,0,0,1-2.62-4.7,17.37,17.37,0,0,1-1.08-5l1.24-29.8,8.64-62.78a2,2,0,0,0-2-2.27h-42a2,2,0,0,0-1.72,1l-5,8.58a2.09,2.09,0,0,0-.22.54,87.88,87.88,0,0,0,.07,41.33l8.23,44.62a14.66,14.66,0,0,1-1.36,9.32l-6.39,12.49h0Z" transform="translate(-486.92 -1403.18)"/><path class="cls-3" d="M572.91,1492.66a2,2,0,0,0,.63.38l0.19,0.07,0.05,0.2,1.19,4.29c0.69,2.49,1.49,5.36,2.41,8.69,5.26,19.11,7,26.14,5.09,34.51a37.64,37.64,0,0,1-4.37,10.87,2.45,2.45,0,0,0,.75,3.29,2.21,2.21,0,0,0,1.19.35,2.25,2.25,0,0,0,1.94-1.13,43,43,0,0,0,4.09-9.15l0.25-.79,0.46,0.68a26.65,26.65,0,0,0,8.52,8,2.21,2.21,0,0,0,1.11.3,2.27,2.27,0,0,0,2-1.21,2.48,2.48,0,0,0,.22-0.57l0.08-.3h3.39l4.83,2.88-0.22.35a0.74,0.74,0,0,0-.08.62l0.63,2a11.18,11.18,0,0,0,6.08,6.78l1.79,0.8a0.74,0.74,0,0,0,.28.05,0.73,0.73,0,0,0,.3-1.4l-1.76-.79a9.71,9.71,0,0,1-5.28-5.89l-0.56-1.76,9.58,1.78,0.09,0.15a0.73,0.73,0,0,0,.2.21l1.69,1.18a11.17,11.17,0,0,0,8.95,1.73l1.9-.45a0.73,0.73,0,0,0-.19-1.44l-0.17,0-1.88.44a9.74,9.74,0,0,1-7-1l-0.62-.35,0.62-.35a2.42,2.42,0,0,0-.68-4.45l-10.85-2-5.92-3.53a2.2,2.2,0,0,0-1.13-.31H594.2l-0.11-.1a22.44,22.44,0,0,1-6.09-8.9l-0.3-.8v-0.09c0.52-7.56-1.68-16-6-31.51-0.9-3.27-1.69-6.11-2.37-8.57l0-.13c-3.91-14.07-4.33-15.74-4-19.38a33.88,33.88,0,0,1,2.59-10.3l0.32-.77,2.87,5.38a32.08,32.08,0,0,1,3.84,13.36L585,1486a36,36,0,0,0,3.68,13.85l1.19,2.4a2,2,0,0,0,1.76,1.12,1.89,1.89,0,0,0,.9-0.23,2.11,2.11,0,0,0,.86-2.79l-1.19-2.4A31.77,31.77,0,0,1,589,1485.7l-0.09-1.41a36.4,36.4,0,0,0-4.35-15.14l-3.9-7.31,0,0-0.15-.25,0.12-.2a51.62,51.62,0,0,1,5.73-7.67,2.46,2.46,0,0,0-.12-3.38,2.21,2.21,0,0,0-3.21.12c-7.34,8.19-11.45,16.95-12.22,26a20.73,20.73,0,0,0,.33,6.34l-0.74.28a27.34,27.34,0,0,1-3.18-8.32l-1.69-8.28a2.05,2.05,0,0,0-2-1.67,1.88,1.88,0,0,0-.42,0,2.11,2.11,0,0,0-1.56,2.51l1.69,8.28a31.51,31.51,0,0,0,9.67,17h0Z" transform="translate(-486.92 -1403.18)"/></svg>