<?xml version="1.0" encoding="utf-8"?>
<!-- Generator: Adobe Illustrator 16.0.0, SVG Export Plug-In . SVG Version: 6.00 Build 0)  -->
<!DOCTYPE svg PUBLIC "-//W3C//DTD SVG 1.1//EN" "http://www.w3.org/Graphics/SVG/1.1/DTD/svg11.dtd">
<svg version="1.1" id="Layer_1" xmlns="http://www.w3.org/2000/svg" xmlns:xlink="http://www.w3.org/1999/xlink" x="0px" y="0px"
	 width="1314px" height="1170px" viewBox="0 0 1314 1170" enable-background="new 0 0 1314 1170" xml:space="preserve">
<path fill="#11A3DD" d="M657.027,0c323.102,0,585.027,261.926,585.027,585.027c0,323.103-261.926,585.028-585.027,585.028
	S72,908.13,72,585.027c0-0.092,0-0.185,0-0.276C72,261.649,333.926-0.276,657.027-0.276"/>
<g id="Strok" display="none">
	<path display="inline" fill="#F6AE32" d="M805.584,837.923c-15.237,11.361-33.689,17.59-52.695,17.786
		c-59.014,0-87.938-36.128-95.141-46.711V608.576c0-64.72,19.836-106.443,55.908-117.581c27.706-8.534,57.019,4.045,65.718,16.623
		c4.345,6.381,13.041,8.03,19.421,3.685c6.381-4.345,8.031-13.041,3.686-19.421l0,0c-15.625-22.996-57.184-40.173-97.08-27.706
		c-19.296,6.069-36.048,18.342-47.652,34.909V370.754c12.662-33.483,44.029-56.226,79.791-57.849h4.045
		c40.894,0,66.493,33.911,77.853,54.469c-21.577,4.205-41.766,13.729-58.735,27.705c-5.845,5.049-6.49,13.881-1.44,19.727
		c5.05,5.845,13.882,6.489,19.727,1.44c0.442-0.388,44.329-37.68,79.736-14.296l0.942,0.554
		c15.666,9.853,28.469,23.648,37.125,40.007c7.186,14.174,11.248,29.725,11.913,45.603c0,3.713,0,7.314,0,11.082
		c-0.782,20.198-4.517,40.173-11.082,59.29l-0.887,1.718c10.478-5.639,21.928-9.249,33.745-10.64
		c4.021-15.66,6.069-31.762,6.095-47.931c1.247-24.83-3.984-49.559-15.183-71.756c-11.256-21.354-28.088-39.257-48.706-51.81
		l-3.823-2.327c-5.938-3.447-12.123-6.447-18.507-8.977c-9.144-20.226-42.444-81.731-108.938-81.731h-5.541
		c-37.572,1.189-72.138,20.847-92.369,52.529c-20.232-31.683-54.797-51.34-92.371-52.529h-5.541
		c-66.492,0-99.739,61.506-108.938,81.731c-30.412,11.95-55.589,34.318-71.037,63.113c-19.338,37.291-20.336,83.394-2.937,137.142
		c-13.983,23.274-23.054,49.166-26.653,76.079c0,1.329-0.554,2.659-0.831,4.045c-0.316,1.703-0.316,3.45,0,5.153
		c-0.851,14.468,0.476,28.98,3.934,43.054c13.686,55.411,56.242,87.66,69.43,96.526c8.921,18.451,49.26,91.871,125.672,91.871
		c41.541,0.953,81.414-16.341,109.104-47.321c27.69,30.98,67.563,48.274,109.104,47.321c28.548-0.255,56.063-10.711,77.576-29.479
		c-6.705-4.267-15.35-9.808-24.936-16.29 M629.877,657.782c-12.156-12.427-27.489-21.281-44.329-25.6
		c-17.731-4.876-29.202-15.127-32.304-28.924c-2.733-12.021,1.153-24.589,10.195-32.97c6.781-5.695,16.303-6.806,24.214-2.825
		c7.131,2.968,15.317-0.406,18.285-7.537c2.969-7.13-0.405-15.317-7.536-18.285l0,0c-17.547-8.042-38.158-5.236-52.917,7.204
		c-17.019,15.123-24.487,38.293-19.505,60.509c1.654,7.43,4.7,14.48,8.977,20.779c-28.869,5.264-53.914,21.222-65.163,44.051
		c-3.413,6.932-0.56,15.316,6.372,18.729c6.932,3.412,15.316,0.559,18.729-6.373c11.082-22.718,48.042-35.574,80.457-28.038
		l2.992,0.776h0.721l0,0c32.305,9.143,50.756,36.404,50.756,75.414v74.195c-7.258,10.639-36.183,46.711-95.141,46.711
		c-49.094,0-80.788-42.001-94.197-64.774h2.77c3.572,0.009,7.143-0.176,10.695-0.555c28.078-2.409,53.064-18.775,66.492-43.553
		c3.627-6.809,1.047-15.269-5.762-18.895c-6.81-3.627-15.27-1.046-18.896,5.763l0,0c-9.105,16.527-25.905,27.374-44.716,28.868
		c-20.779,2.272-42.112-4.876-53.194-17.842l0,0c-14.671-15.896-25.213-35.151-30.698-56.075
		c-3.321-13.552-4.202-27.587-2.604-41.447c19.338-90.043,94.199-80.18,97.356-79.682c7.651,1.194,14.82-4.04,16.015-11.691
		c1.194-7.65-4.041-14.819-11.692-16.014l0,0c-19.223-2.218-38.695,0.274-56.74,7.259c-6.907,2.691-13.518,6.09-19.727,10.141
		c-14.628-45.659-14.185-84.059,1.274-114.146c9.56-18.075,24.097-33.035,41.892-43.109c0,1.219,0,2.438,0,3.657
		c1.273,26.542,15.127,49.869,41.17,70.15c6.121,4.712,14.902,3.571,19.615-2.549c4.713-6.121,3.572-14.903-2.549-19.616l0,0
		c-19.172-14.739-29.368-31.307-30.254-49.149c-1.33-26.874,17.787-51.532,26.707-61.395c14.713-17.258,36.065-27.45,58.736-28.038
		h4.045c24.604,0.758,47.719,11.963,63.556,30.809l0,0c9.753,14.739,12.91,27.705,9.364,38.787
		c-6.206,19.449-30.975,29.202-31.529,29.424c-7.221,2.724-10.869,10.787-8.145,18.009c2.724,7.222,10.787,10.869,18.008,8.146l0,0
		c10.451-4.246,20.102-10.242,28.537-17.731L629.877,657.782z"/>
	<path display="inline" fill="#F6AE32" d="M1020.135,627.141c-13.132-29.645-37.9-49.87-66.492-54.192
		c-4.42-0.686-8.883-1.037-13.354-1.053c-32.304,0-55.411,24.159-69.097,38.345c-13.466-14.186-36.738-38.345-69.042-38.345
		c-4.49,0.014-8.973,0.365-13.409,1.053c-28.371,4.267-53.195,24.548-66.494,54.192c-16.623,38.012-11.746,83.116,13.576,121.072
		C762.974,788.773,867.533,851,870.359,851s108.605-62.226,135.813-102.787c25.322-37.846,30.42-83.116,13.575-121.072
		 M974.255,746.052c-5.052,0.015-9.774-2.503-12.578-6.704h-27.706c-3.084-0.011-5.922-1.684-7.424-4.378l-11.748-21.167
		l-34.631,70.594c-1.445,2.905-4.403,4.748-7.647,4.765h-0.887c-3.547-0.375-6.485-2.916-7.369-6.372l-27.706-109.824
		l-19.504,60.564c-1.119,3.55-4.424,5.955-8.146,5.929h-27.706c-4.697,6.909-14.105,8.701-21.015,4.005
		c-6.909-4.698-8.701-14.106-4.004-21.016c4.697-6.908,14.106-8.701,21.015-4.004c1.576,1.07,2.934,2.43,4.004,4.004h21.723
		l26.707-82.839c1.133-3.509,4.402-5.883,8.09-5.874l0,0c3.896,0.006,7.295,2.651,8.256,6.428l29.424,116.029l31.584-64.387
		c1.389-2.853,4.253-4.691,7.425-4.766l0,0c3.104-0.01,5.968,1.667,7.479,4.378l17.233,31.029h23.218
		c4.743-6.877,14.164-8.606,21.041-3.863c6.877,4.744,8.607,14.164,3.863,21.042c-2.82,4.089-7.469,6.533-12.438,6.538l0,0
		L974.255,746.052z"/>
</g>
<g id="access" display="none">
	<path display="inline" fill="none" stroke="#F6AE32" stroke-width="35" stroke-miterlimit="10" d="M1089.387,633.396
		c-11.414,0-262.504,11.411-262.504,11.411s-114.134,19.976-145.518-71.332l-71.333-67.938"/>
	<path display="inline" fill="none" stroke="#F6AE32" stroke-width="35" stroke-miterlimit="10" d="M344.675,610.067
		c0,0,331.212,61.898,425.258,34.053"/>
	<path display="inline" fill="none" stroke="#F6AE32" stroke-width="35" stroke-miterlimit="10" d="M1023.762,411.378
		c0,0-293.892,36.783-590.634,21.245"/>
	<path display="inline" fill="none" stroke="#F6AE32" stroke-width="35" stroke-miterlimit="10" d="M447.395,346
		c0,0,162.792,88.796,231.688,85.715"/>
	<path display="inline" fill="none" stroke="#FFFFFF" stroke-width="12" stroke-miterlimit="10" d="M769.934,431.822l-41.489-7.908
		c0,0-196.878-312.378-383.769-36.017c-186.891,276.36,84.172,46.59,169.771,242.794l42.857,11.072"/>
	<path display="inline" fill="none" stroke="#F6AE32" stroke-width="35" stroke-miterlimit="10" d="M471.579,630.691
		c0,0-97.273,107.755-191.268,127.728"/>
	<path display="inline" fill="none" stroke="#F6AE32" stroke-width="35" stroke-miterlimit="10" d="M433.127,751.303
		c319.679-22.762,636.288,31.12,636.288,31.12"/>
	<path display="inline" fill="none" stroke="#F6AE32" stroke-width="35" stroke-miterlimit="10" d="M448.497,874.656
		c0,0,175.375-130.075,249.596-125.56"/>
</g>
<g display="none">
	<path display="inline" fill="#F5AE30" d="M309.269,782.939c0,0,48.077-66.516,19.231-170.362c0,0-33-64.077-13-120.077
		c0,0,8-59,109-93c0,0,140-31,153-51c0,0,62-16.561,59-92l-26-75.439h68c0,0,63,148.439-40,223.439c0,0-29,25-98,40l-49,13
		c0,0-14,13,2,24.5c0,0,60,10.5,79,43.5c0,0,32,51-10,89c0,0-28,29-85-3c0,0-39-30-12-98c0,0,12-38-26-31.5c0,0-27,3.5-42,22.5
		c0,0-30,46,0,110c0,0,38,58.879-11,168.439H309.269z"/>
	<g display="inline">
		<path fill="#F5AE30" d="M625.951,896.709c0,0,48.076-66.516,19.23-170.362c0,0-33-64.077-13-120.077c0,0,8-59,109-93
			c0,0,140-31,153-51c0,0,62-16.561,59-92l-26-75.439h68c0,0,63,148.439-40,223.439c0,0-29,25-98,40l-49,13c0,0-14,13,2,24.5
			c0,0,60,10.5,79,43.5c0,0,32,51-10,89c0,0-28,29-85-3c0,0-39-30-12-98c0,0,12-38-26-31.5c0,0-27,3.5-42,22.5c0,0-30,46,0,110
			c0,0,38,58.879-11,168.439H625.951z"/>
		<path fill="#FFFFFF" d="M747.5,810v-5h2l-1-5H744v-6h2.75l7.25-4.5h4l4-6.561h3.5l4-8.439l2.5-5.5v-5.5l-5.5,3l-4,5.5l-4.5-1v-3.5
			l3.5-4l5.5-4.5h5l6-3.5l6.5-3.5l4-5.5l3-7V733v-4l-5.5,3l-4.5,7l-4,4.5l-4.5,3l-5.25-3l2.75-6l4-3.5l4.5-5h4l0.5-7H780l3-5.5
			l3-5.5l5.5-5l4.5-9.291h4.5v3.791l4,1.5h4.754l3.746,2.5l3.5-3.5l2-4.291l5.5-4.209h5l3.5,4.209V701l4,2h4.5h2.5l5.5-2v-8.5v-5
			h5.5l4.5,4l3,5.209h4V687.5v-4l3-4V675l-7.5-2.5l0.5-9c0,0-2.5-13.5,21.5-5.5l3.5,4h5.5v-4.5V652c0,0-8.5-7-3-5s7.5,6.5,7.5,6.5
			l2.5,4l4,3l5.5,2l5.5,2l4.5,5l-2.5,4l-7,1v3.5l3.5,1.5l3,3l-3.5,5.5v3l4,2l5,3.709l3,5.791l3,4l9,6c0,0,8,14-10,8.5l15,10l5.5,7.5
			c0,0,13,25.5-14.5,6l-6.5-6l-6.5-6.5l-10-3.68H901l4.5,4.68l5,3l4,5l4,5l5.5,8l4,8l4.5,11l-5.5,1.5l-0.5,5v3.439l-4,2.561
			l-4-2.561h-2l1.5,7.561l0.5,5.5c0,0-4,16.5-12.5-2l2-4.5v-6.561c0,0-4.5,4.061-5-2.939s-0.5-7-0.5-7l4-0.5l4.5,1.5l-1-5l-3-3v-7
			l2.5-2l-1.5-4.5l-4.5-9.5l-4.5-4l-6-5.5l-3.5-2.5l-5-2.68c0,0-3-6.18-3,0S882,739,882,739l4,5.5l3.5,3l4,3l2,5.5v5l-3.5,3
			l-6.5-3.5v5l0.5,7.5l-0.5,5.5c0,0-7,3-8-5l-1-7L875,761l-2.5-5l-4-5.5l-4-5c0,0-8.5-5-6,6l5.5,6.5l1.5,5.5l0.5,6l-6-2l-5-5l-2-5
			l-5.965-5.5L844,749.5l-5-2.5l-1.5,5l-2,3.5l-1,4.5l0.5,5.5h-3.5l-0.589-2.354L830,759.5l-0.5,8.5l-0.5,5v5l-1.5,4.939L827,788.5
			l-6.5,5.5c0,0-10.5,3.379-8.5-11.061l4-10.439l3-10.5l2.5-8.5V746c0,0-0.422-16.027-12.246-1c-2.754,3.5-2.754,3.5-2.754,3.5v8
			l-2,3.5l-2.5,4l-3,2.5l-0.5,6L798,780l-1.5,5c0,0-8,12.379-10-2.061l1-5.939l-2-4c0,0-3-3-10,6.5l-2,9l-3,3l-2,7.5l-1.5,6l1.5,5h4
			l-1,6.5c0,0-10.5,4-8-7.5l-3.5-1.5h-4.5l-5.5,1L747.5,810z"/>
		<path fill="#FFFFFF" d="M804.5,800.5V795h4.754l2.246,2.75V803l-2.246,7l-4.754,1.5C804.5,811.5,788.5,807,804.5,800.5z"/>
		<path fill="#FFFFFF" d="M847.035,790L844,795l-4-2.5c0,0-2.465-7.121,3.518-9.561l3.518-2.939c0,0-5.504-3-3.77-13l3.77-1.5
			l4.465,3v4v5.5l3.5,2.25l2,2.689V791l-3.5,4l-5.252-3L847.035,790z"/>
		<path fill="#FFFFFF" d="M837.5,860l1.997-4.5v-3l-0.999-5c0,0-3.002-3,0-6.5s3.002-3.5,3.002-3.5l0,0l5.535,2v7.5v4l1.213,4.5v3.5
			l-1.213,5.5l-4.329,3L837.5,860z"/>
		<path fill="#FFFFFF" d="M873,826.5l-3,3.5l-4.5,3.5V830v-7v-3.5l3.75-4.5v-8l-3.75-7.5V795l-3-6v-8.75l3-3.25l2.25-2H875l2,5.25
			V787l2,8v4l5,7.5l4,5l2.5,5.673L893,824l3.5,9.5v7.5v9l-2.5,6l-4.5,5c0,0-9.5,11-17.5-5l1-7v-7.5l1.5-4v-7L873,826.5z"/>
		<path fill="#FFFFFF" d="M908,842c0,0-7.5-11.5,7.5-10c0,0,4.5,4,0,8.5c0,0,11.5,1,10,12L921,859h-8l-3-6.5L908,842z"/>
	</g>
</g>
<g display="none">
	<path display="inline" fill="none" stroke="#FFFFFF" stroke-width="14" stroke-miterlimit="10" d="M262.731,796.038
		c0,0,15.385-51.923,92.308-67.308c0,0,119.23-38.461,155.769-78.846c0,0,40.385-9.615,23.077-169.231"/>
	<path display="inline" fill="none" stroke="#FFFFFF" stroke-width="14" stroke-miterlimit="10" d="M1068.197,794.038
		c0,0-15.385-51.923-92.309-67.308c0,0-119.23-38.461-155.769-78.846c0,0-40.385-9.615-23.077-169.231"/>
	<path display="inline" fill="none" stroke="#FFFFFF" stroke-width="14" stroke-miterlimit="10" d="M456.961,290.269
		c0,0,44.363,259.616,200.066,267.308s215.318-267.308,215.318-267.308"/>
	<path display="inline" fill="none" stroke="#FFFFFF" stroke-width="14" stroke-miterlimit="10" d="M556.961,659.5
		c0,0,21.154-34.615,15.385-117.308"/>
	<path display="inline" fill="none" stroke="#FFFFFF" stroke-width="14" stroke-miterlimit="10" d="M776.192,659.5
		c0,0-26.923-30.77-17.308-117.308"/>
	<path display="inline" fill="none" stroke="#FFFFFF" stroke-width="14" stroke-miterlimit="10" d="M862.73,740.27
		c0,0,126.48-5.016,161.317,4.223"/>
	<path display="inline" fill="none" stroke="#FFFFFF" stroke-width="14" stroke-miterlimit="10" d="M614.654,744.492
		c0,0-53.737-36.787-132.692-35.064"/>
	<path display="inline" fill="none" stroke="#FFFFFF" stroke-width="14" stroke-miterlimit="10" d="M727.961,744.492
		c0,0,53.738-36.787,132.693-35.064"/>
	<path display="inline" fill="#F6AE32" d="M517.248,787.539c-15.056,0.014-29.572-5.611-40.688-15.768
		c-3.34-3.006-3.611-8.152-0.604-11.492c3.006-3.34,8.151-3.613,11.492-0.605c8.16,7.438,18.8,11.563,29.84,11.572h1.371
		c4.454-0.133,8.173,3.369,8.307,7.824c0.134,4.453-3.369,8.174-7.823,8.307h-1.855 M554.871,771.49
		c-4.454,0.004-8.068-3.604-8.073-8.059c-0.002-2.094,0.811-4.107,2.267-5.613c9.31-9.646,13.757-22.988,12.097-36.291
		c-0.534-4.455,2.643-8.498,7.098-9.033c4.454-0.535,8.498,2.643,9.033,7.098c2.216,18.143-3.892,36.314-16.615,49.438
		c-1.512,1.564-3.591,2.451-5.766,2.461l0,0H554.871z M465.027,738.262c-4.272,0.008-7.809-3.316-8.065-7.581
		c0-1.21,0-2.419,0-3.671c0.001-14.436,5.164-28.395,14.558-39.355c3.307-2.983,8.407-2.721,11.39,0.587
		c2.477,2.746,2.769,6.826,0.707,9.897c-6.871,8.034-10.647,18.26-10.646,28.832c0,0.887,0,1.814,0,2.742
		c0.252,4.441-3.14,8.248-7.581,8.508h-0.483L465.027,738.262z M550.112,694.268c-1.847,0.008-3.641-0.619-5.081-1.774
		c-7.848-6.384-17.668-9.847-27.784-9.799c-1.37,0-2.742,0-4.033,0c-4.454,0.479-8.453-2.745-8.931-7.199
		c-0.479-4.452,2.743-8.452,7.197-8.931h0.282c1.815,0,3.67-0.242,5.524-0.242c13.788-0.002,27.162,4.708,37.906,13.348
		c3.475,2.787,4.032,7.862,1.244,11.338c-1.538,1.918-3.867,3.028-6.325,3.018l0,0L550.112,694.268z"/>
	<path display="inline" fill="#F6AE32" d="M517.248,756.125c-16.013,0-28.994-12.98-28.994-28.992
		c0-16.014,12.98-28.994,28.993-28.994c16.013,0,28.994,12.98,28.994,28.992v0.002C546.241,743.145,533.26,756.125,517.248,756.125
		 M517.248,714.228c-7.105,0-12.864,5.759-12.864,12.864c0,7.104,5.759,12.863,12.863,12.863c7.105,0,12.864-5.76,12.864-12.863l0,0
		C530.111,719.986,524.352,714.228,517.248,714.228"/>
	<path display="inline" fill="#F6AE32" d="M428.386,597.593l26.561,43.825c3.186,5.256,1.507,12.1-3.749,15.285
		c-5.256,3.186-12.1,1.507-15.286-3.749l-26.561-43.826c-3.186-5.256-1.507-12.1,3.75-15.285
		C418.356,590.657,425.2,592.336,428.386,597.593"/>
	<path display="inline" fill="#F6AE32" d="M411.122,667.979c3.207,5.244,1.555,12.094-3.688,15.3
		c-3.614,2.212-8.171,2.178-11.751-0.086l-24.212-15.255c-5.322-3.076-7.143-9.883-4.067-15.205
		c3.076-5.32,9.881-7.143,15.203-4.066c0.189,0.108,0.375,0.223,0.557,0.343l0,0l24.211,15.257c1.453,0.918,2.673,2.16,3.565,3.629"
		/>
	<path display="inline" fill="#F6AE32" d="M496.451,586.334c0.89,1.472,1.426,3.128,1.568,4.841l2.322,28.522
		c0.498,6.13-4.066,11.504-10.196,12.002c-6.13,0.499-11.504-4.066-12.002-10.195l-2.322-28.522
		c-0.506-6.125,4.048-11.501,10.173-12.008C490.217,580.623,494.271,582.702,496.451,586.334L496.451,586.334L496.451,586.334z"/>
	<path display="inline" fill="#F6AE32" d="M472.617,857.079l12.208-49.771c1.464-5.969,7.49-9.621,13.459-8.157
		c5.969,1.465,9.62,7.491,8.157,13.461l-12.209,49.771c-1.464,5.969-7.49,9.622-13.459,8.157
		C474.805,869.075,471.154,863.049,472.617,857.079"/>
	<path display="inline" fill="#F6AE32" d="M534.596,819.516c1.44-5.976,7.452-9.651,13.427-8.211
		c4.119,0.992,7.317,4.237,8.249,8.37l6.333,27.907c1.588,5.938-1.938,12.039-7.875,13.628c-5.937,1.587-12.038-1.937-13.625-7.875
		c-0.057-0.211-0.108-0.423-0.15-0.637l0,0l-6.333-27.907c-0.378-1.677-0.362-3.417,0.045-5.087"/>
	<path display="inline" fill="#F6AE32" d="M416.527,816.91c0.411-1.669,1.203-3.219,2.313-4.531l18.527-21.812
		c3.981-4.686,11.01-5.259,15.697-1.275c4.686,3.981,5.259,11.01,1.277,15.695l-18.528,21.811
		c-3.973,4.689-10.994,5.27-15.684,1.298c-3.233-2.739-4.63-7.075-3.605-11.185l0,0L416.527,816.91z"/>
</g>
<g display="none">
	<path display="inline" fill="#F6AE32" d="M666.712,572.961l22.942,73.461l96.815-32.98c0,0-119.758-61.96-119.758-51.221
		S666.712,572.961,666.712,572.961z"/>
	
		<ellipse display="inline" fill="none" stroke="#FFFFFF" stroke-width="16" stroke-miterlimit="10" cx="1014.923" cy="735.74" rx="35.731" ry="89.317"/>
	<path display="inline" fill="#F6AE32" d="M608.521,692.524l71.939-27.345l33.88,96.505c0,0-122.709-55.89-114.264-62.524
		C608.521,692.524,608.521,692.524,608.521,692.524z"/>
	<path display="inline" fill="none" stroke="#FFFFFF" stroke-width="16" stroke-miterlimit="10" d="M1014.924,825.059
		C768.771,871.213,243.5,494.115,243.5,494.115"/>
	<path display="inline" fill="none" stroke="#FFFFFF" stroke-width="16" stroke-miterlimit="10" d="M318.5,346.039
		c0,0,450.272,346.538,696.424,300.384"/>
	<path display="inline" fill="#F6AE32" d="M403.437,572.846c-10.55-4.21-13.763-19.332-7.438-35.184
		c6.325-15.853,19.065-24.609,29.616-20.399s13.763,19.332,7.438,35.184C426.728,568.299,413.988,577.056,403.437,572.846
		 M419.269,533.166c-1.871-14.354-15.021-24.474-29.375-22.604c-14.354,1.871-24.476,15.022-22.605,29.375
		c1.87,14.354,15.021,24.475,29.375,22.605c9.41-1.226,17.424-7.444,20.949-16.254C419.488,542.184,420.065,537.606,419.269,533.166
		"/>
	<path display="inline" fill="#F6AE32" d="M467.714,607.321c-10.55-4.209-13.763-19.332-7.438-35.185
		c6.325-15.851,19.065-24.608,29.616-20.399s13.764,19.333,7.439,35.184C491.006,602.773,478.265,611.531,467.714,607.321
		 M483.546,567.642c-1.869-14.354-15.021-24.474-29.375-22.604s-24.474,15.021-22.605,29.375
		c1.87,14.354,15.021,24.474,29.375,22.604c9.411-1.226,17.424-7.443,20.95-16.254C483.765,576.659,484.342,572.082,483.546,567.642
		L483.546,567.642z"/>
	<path display="inline" fill="#F6AE32" d="M616.451,643.639c-3.128-1.32-5.916-3.33-8.155-5.879
		c-8.642-10.351-12.104-24.071-9.405-37.281c1.169-6.687,5.977-12.159,12.458-14.179c11.007-2.768,22.499,7.604,26.65,24.115
		c4.15,16.512-1.012,31.096-12.04,33.915c-3.182,0.785-6.53,0.536-9.561-0.713 M615.51,602.935
		c-2.371,8.782-0.019,18.166,6.216,24.792C624.097,618.943,621.744,609.56,615.51,602.935"/>
	<path display="inline" fill="#F6AE32" d="M589.277,585.546c-1.876-0.749-3.702-1.616-5.467-2.599
		c-14.916-8.218-22.069-21.989-16.542-31.955c3.612-5.747,10.135-8.994,16.898-8.411c6.661,0.267,13.159,2.142,18.938,5.468
		c14.917,8.219,22.069,21.991,16.543,31.956c-4.86,8.74-17.381,10.963-30.453,5.747 M582.186,559.509
		c4.802,7.738,13.274,12.428,22.38,12.389C599.758,564.169,591.288,559.481,582.186,559.509"/>
	<path display="inline" fill="#F6AE32" d="M505.731,640.029c-1.84-0.739-3.631-1.594-5.363-2.558
		c-5.882-3.131-10.92-7.639-14.684-13.137c-5.953-6.989-5.111-17.481,1.878-23.434c3.639-3.098,8.432-4.479,13.162-3.795
		c13.475,0.759,25.87,7.615,33.673,18.625c5.953,6.99,5.11,17.481-1.879,23.434c-3.639,3.098-8.432,4.481-13.161,3.795
		c-4.663-0.139-9.264-1.124-13.573-2.909 M498.877,613.849c4.809,7.729,13.277,12.418,22.38,12.39
		c-4.805-7.708-13.266-12.371-22.35-12.317l0,0L498.877,613.849z"/>
	<path display="inline" fill="#F6AE32" d="M375.646,514.507c-9.026-4.762-15.365-13.405-17.194-23.445
		c-1.735-6.447-1.879-13.22-0.418-19.735c1.157-6.692,5.97-12.17,12.459-14.18c11.006-2.767,22.5,7.606,26.702,24.137
		s-1.013,31.096-12.04,33.915c-3.161,0.771-6.486,0.511-9.488-0.744 M374.725,473.751c-2.371,8.783-0.018,18.167,6.216,24.792
		C383.313,489.761,380.96,480.376,374.725,473.751"/>
	<path display="inline" fill="#F6AE32" d="M473.224,542.225c-3.125-1.321-5.914-3.33-8.154-5.878
		c-8.643-10.35-12.104-24.07-9.407-37.282c1.043-9.121,9.283-15.67,18.405-14.627c4.752,0.543,9.041,3.108,11.769,7.039
		c8.642,10.35,12.104,24.071,9.406,37.281c-1.169,6.688-5.978,12.16-12.459,14.179C479.603,543.723,476.254,543.472,473.224,542.225
		 M472.335,501.541c-2.371,8.783-0.019,18.167,6.216,24.792C480.899,517.55,478.549,508.176,472.335,501.541"/>
	<path display="inline" fill="#F6AE32" d="M540.538,636.378c-10.55-4.21-13.764-19.333-7.438-35.185
		c6.324-15.852,19.065-24.608,29.615-20.399c10.551,4.21,13.765,19.333,7.439,35.184
		C563.829,631.83,551.141,640.608,540.538,636.378 M556.369,596.698c-1.868-14.354-15.02-24.475-29.374-22.605
		c-14.354,1.87-24.474,15.021-22.604,29.375c1.87,14.354,15.021,24.475,29.375,22.605c9.411-1.227,17.424-7.443,20.949-16.255
		C556.588,605.716,557.166,601.139,556.369,596.698L556.369,596.698z"/>
	<path display="inline" fill="#F6AE32" d="M513.296,570.085c-4.786-1.619-8.574-5.327-10.299-10.075
		c-1.67-6.59,0.489-13.561,5.593-18.053c9.844-9.209,23.344-13.439,36.682-11.494c6.766,0.858,12.475,5.442,14.776,11.861
		c3.426,10.852-6.328,22.889-22.561,27.986c-7.848,2.798-16.41,2.87-24.304,0.206 M543.744,547.452
		c-8.906-1.855-18.136,1.029-24.4,7.625C528.249,556.943,537.485,554.057,543.744,547.452L543.744,547.452z"/>
	<path display="inline" fill="#F6AE32" d="M553.147,663.84c-4.786-1.618-8.575-5.326-10.299-10.075
		c-1.671-6.59,0.488-13.561,5.592-18.053c9.843-9.209,23.344-13.44,36.682-11.494c9.165,0.549,16.149,8.423,15.6,17.588
		c-0.283,4.739-2.582,9.132-6.313,12.068c-9.845,9.209-23.344,13.439-36.683,11.494c-1.593-0.292-3.154-0.734-4.663-1.323
		 M583.624,640.98c-8.905-1.866-18.142,1.021-24.399,7.624c8.921,1.862,18.168-1.045,24.421-7.676l0,0L583.624,640.98z"/>
	<path display="inline" fill="#F6AE32" d="M754.615,714.805c-3.389-0.049-6.723-0.864-9.752-2.383
		c-11.863-6.41-20.162-17.871-22.553-31.141c-1.393-6.645,1.046-13.509,6.317-17.786c9.198-6.649,23.716-1.274,33.689,12.522
		s10.583,29.257,1.386,35.962c-2.662,1.912-5.866,2.922-9.143,2.881 M738.657,677.402c1.052,9.036,6.716,16.881,14.961,20.724
		C752.565,689.091,746.902,681.246,738.657,677.402"/>
</g>
<path fill="#F6AE32" d="M439.642,414.063c-22.095,0-40.007-17.912-40.007-40.007c0-22.096,17.91-40.008,40.006-40.008
	s40.008,17.911,40.008,40.007v0.001C479.648,396.151,461.736,414.063,439.642,414.063 M439.642,356.25
	c-9.804,0-17.751,7.946-17.751,17.75c0,9.803,7.947,17.75,17.75,17.75c9.804,0,17.751-7.946,17.751-17.749V374
	C457.392,364.197,449.444,356.25,439.642,356.25"/>
<path fill="#F6AE32" d="M459.261,461.21c-10.835,0-19.619-8.784-19.619-19.619c0-10.835,8.783-19.62,19.619-19.62
	s19.62,8.784,19.62,19.619v0C478.88,452.426,470.096,461.21,459.261,461.21 M459.261,432.859c-4.808,0-8.705,3.897-8.705,8.705
	c0,4.807,3.897,8.705,8.705,8.705c4.808,0,8.705-3.897,8.705-8.704v0C467.965,436.756,464.068,432.859,459.261,432.859"/>
<path fill="#F6AE32" d="M619.421,547.75c-15.867,0-28.73-12.864-28.73-28.729c0-15.868,12.862-28.731,28.729-28.731
	s28.73,12.862,28.73,28.729v0.001C648.15,534.886,635.287,547.75,619.421,547.75 M619.421,506.233
	c-7.041,0-12.748,5.707-12.748,12.747s5.707,12.746,12.747,12.746c7.041,0,12.747-5.706,12.747-12.744v-0.001
	C632.167,511.94,626.461,506.233,619.421,506.233"/>
<path fill="#FFFFFF" d="M480.22,718.569l-45.85-248.556v-0.612c-17.534-71.691-17.819-146.519-0.835-218.342l23.928-40.786h214.725
	l-46.406,337.251c-0.025,0.352-0.025,0.705,0,1.057l-6.899,166.928v0.946c0.395,7.88,1.626,15.695,3.673,23.314
	c3.14,12.162,8.111,23.775,14.745,34.442c3.315,5.303,7.175,10.245,11.519,14.745c4.304,4.386,9.213,8.134,14.578,11.129
	l1.002,0.501l171.49,74.115l47.129,27.377l5.564-9.57l-5.564,9.57c4.584,2.486,8.572,5.941,11.686,10.126
	c1.019,1.455,1.824,3.048,2.393,4.729c0.945,2.798,0.945,5.828,0,8.625c-0.938,2.683-2.415,5.145-4.34,7.234
	c-2.773,3.039-6.002,5.63-9.57,7.679l-11.408,6.788c-12.801,7.577-27.358,11.682-42.232,11.907l-122.803-31.605
	c-38.152-9.808-77.882-11.889-116.85-6.12l-99.211,14.745c-8.413-0.105-16.684-2.183-24.148-6.064l-8.013-4.173
	c-8.842-4.598-16.223-11.574-21.312-20.144c-4.944-8.337-7.559-17.849-7.566-27.542c0.006-8.478,2.027-16.83,5.898-24.372
	l35.555-69.498c10.391-20.336,13.775-43.534,9.627-65.992l0,0L480.22,718.569z M415.285,843.933
	c-18.967,37.094-4.488,82.541,32.439,101.827l8.012,4.173c10.838,5.659,22.883,8.618,35.111,8.625h1.613l100.157-14.912
	c36.103-5.403,72.921-3.511,108.28,5.563l124.194,31.939c0.909,0.229,1.845,0.34,2.782,0.334
	c19.304,0.001,38.253-5.188,54.863-15.023l11.407-6.788c7.337-4.144,13.681-9.841,18.585-16.692
	c2.205-3.188,3.947-6.673,5.175-10.35c1.169-3.594,1.771-7.349,1.78-11.129c-0.022-3.783-0.643-7.539-1.836-11.129
	c-1.904-5.61-4.955-10.765-8.959-15.134c-4.373-4.749-9.46-8.785-15.078-11.964l-47.686-27.821l-1.168-0.612l-171.604-74.117
	c-4.625-2.795-8.729-6.372-12.131-10.572c-6.293-7.836-11.222-16.678-14.578-26.151c-3.361-8.928-5.387-18.303-6.009-27.821
	l6.899-165.815l48.076-349.326c0.825-6.064-3.4-11.658-9.459-12.52h-1.503h-233.7c-3.951,0.023-7.594,2.142-9.57,5.564
	l-27.82,47.741c-0.549,0.939-0.961,1.95-1.225,3.005c-18.154,75.598-18.021,154.435,0.389,229.971l45.795,248.277
	c3.246,17.648,0.586,35.875-7.568,51.859l-35.555,69.497l0,0L415.285,843.933z"/>
<path fill="#F6AE32" d="M482.872,420.433c-4.545,0-8.23-3.686-8.23-8.23c0-4.546,3.685-8.231,8.23-8.231
	c4.545,0,8.23,3.685,8.23,8.23v0C491.103,416.748,487.417,420.433,482.872,420.433 M482.872,408.539
	c-2.017,0-3.652,1.635-3.652,3.651c0,2.017,1.635,3.652,3.652,3.652s3.651-1.635,3.651-3.651v0
	C486.523,410.174,484.889,408.539,482.872,408.539"/>
<path fill="#F6AE32" d="M719.71,527.667h-44.324c-5.316,0-9.626-4.309-9.626-9.625s4.31-9.625,9.626-9.625h44.324
	c5.316,0,9.626,4.31,9.626,9.625S725.026,527.667,719.71,527.667"/>
<path fill="#F6AE32" d="M675.385,483.343c-5.316,0.021-9.643-4.271-9.664-9.587c-0.016-3.665,2.053-7.02,5.332-8.653l22.139-11.07
	c4.66-2.558,10.512-0.853,13.07,3.808c2.557,4.66,0.853,10.511-3.809,13.069c-0.165,0.091-0.332,0.177-0.503,0.257l0,0
	l-22.139,11.069c-1.33,0.663-2.796,1.009-4.282,1.01"/>
<path fill="#F6AE32" d="M697.524,583.063c-1.487-0.001-2.953-0.347-4.284-1.01l-22.139-11.069
	c-4.758-2.379-6.687-8.165-4.307-12.922c2.379-4.758,8.165-6.687,12.922-4.307l22.139,11.069c4.757,2.371,6.692,8.15,4.321,12.908
	C704.543,581.011,701.188,583.078,697.524,583.063L697.524,583.063L697.524,583.063z"/>
<path fill="#F6AE32" d="M335.347,368.239h44.324c5.316,0,9.626,4.31,9.626,9.625c0,5.316-4.31,9.626-9.626,9.626h-44.324
	c-5.316,0-9.626-4.31-9.626-9.626C325.721,372.548,330.03,368.239,335.347,368.239"/>
<path fill="#F6AE32" d="M379.672,412.563c5.316-0.021,9.643,4.271,9.664,9.587c0.016,3.665-2.053,7.021-5.332,8.653l-22.139,11.07
	c-4.66,2.558-10.512,0.854-13.07-3.808c-2.557-4.66-0.853-10.511,3.809-13.068c0.165-0.092,0.332-0.178,0.503-0.258l0,0
	l22.139-11.069c1.33-0.663,2.796-1.009,4.282-1.01"/>
<path fill="#F6AE32" d="M357.532,312.844c1.487,0.002,2.953,0.348,4.284,1.01l22.139,11.07c4.758,2.379,6.687,8.164,4.307,12.922
	c-2.379,4.758-8.165,6.687-12.922,4.307l-22.139-11.068c-4.757-2.371-6.692-8.15-4.321-12.908
	C350.514,314.896,353.868,312.829,357.532,312.844L357.532,312.844L357.532,312.844z"/>
</svg>
